M48
; DRILL file {KiCad 5.1.9} date Sun Feb  7 12:30:28 2021
; FORMAT={-:-/ absolute / inch / decimal}
; #@! TF.CreationDate,2021-02-07T12:30:28+01:00
; #@! TF.GenerationSoftware,Kicad,Pcbnew,5.1.9
; #@! TF.FileFunction,Plated,1,2,PTH
FMAT,2
INCH
T1C0.0138
T2C0.0157
T3C0.0173
T4C0.0197
T5C0.0315
T6C0.0374
T7C0.0394
T8C0.0591
T9C0.0906
T10C0.1260
%
G90
G05
T2
X2.205Y-1.99
X2.52Y-1.375
X2.655Y-2.4515
X2.6766Y-3.24
X2.7023Y-2.5177
X2.78Y-2.01
X2.8598Y-2.3802
X2.8715Y-2.57
X2.8775Y-2.2121
X2.88Y-2.255
X2.915Y-2.29
X2.9198Y-2.4402
X2.95Y-2.33
X3.0515Y-3.135
X3.1085Y-3.04
X3.12Y-2.3
X3.1335Y-2.3903
X3.2Y-2.59
X3.42Y-1.915
X3.455Y-3.08
X3.745Y-2.955
X3.7457Y-2.9133
X3.955Y-2.2156
X3.955Y-2.255
T3
X3.0501Y-3.665
X3.0757Y-3.6256
X3.1013Y-3.665
X3.1269Y-3.6256
X3.1525Y-3.665
T4
X2.0015Y-3.612
X2.0292Y-3.5452
X2.0292Y-3.6788
X2.096Y-3.5175
X2.096Y-3.7065
X2.1628Y-3.5452
X2.1628Y-3.6788
X2.1905Y-3.612
T5
X3.41Y-3.64
X3.4887Y-3.64
X3.5675Y-3.64
T6
X2.1Y-1.3031
X2.1Y-1.4016
X2.1Y-1.5
X2.1Y-1.7381
X2.1Y-1.8366
X2.1Y-1.935
X2.1Y-2.1731
X2.1Y-2.2716
X2.1Y-2.37
X2.1Y-2.6081
X2.1Y-2.7066
X2.1Y-2.805
X2.1Y-3.0431
X2.1Y-3.1416
X2.1Y-3.24
X2.445Y-3.43
X2.5434Y-3.43
X2.6222Y-3.43
X2.7206Y-3.43
X3.26Y-2.5397
X3.26Y-2.6381
X3.26Y-2.7366
X3.26Y-2.835
X3.26Y-3.0747
X3.26Y-3.1731
X3.26Y-3.2716
X3.26Y-3.37
X3.595Y-2.5397
X3.595Y-2.6381
X3.595Y-2.7366
X3.595Y-2.835
X3.595Y-3.0797
X3.595Y-3.1781
X3.595Y-3.2766
X3.595Y-3.375
X3.925Y-2.5397
X3.925Y-2.6381
X3.925Y-2.7366
X3.925Y-2.835
X3.925Y-3.0797
X3.925Y-3.1781
X3.925Y-3.2766
X3.925Y-3.375
T7
X2.4Y-1.28
X2.4Y-1.38
X2.4Y-1.48
X2.4Y-1.58
X2.4Y-1.68
X2.4Y-1.78
X2.4Y-1.88
X2.4Y-1.98
X2.4Y-2.08
X2.4Y-2.18
X2.4Y-2.28
X2.4Y-2.38
X2.4Y-2.48
X2.4Y-2.58
X2.4Y-2.68
X2.4Y-2.78
X2.4Y-2.88
X2.4Y-2.98
X2.4Y-3.08
X2.4Y-3.18
X2.55Y-1.48
X2.65Y-1.48
X2.75Y-1.48
X2.85Y-1.48
X3.0Y-1.28
X3.0Y-1.38
X3.0Y-1.48
X3.0Y-1.58
X3.0Y-1.68
X3.0Y-1.78
X3.0Y-1.88
X3.0Y-1.98
X3.0Y-2.08
X3.0Y-2.18
X3.0Y-2.28
X3.0Y-2.38
X3.0Y-2.48
X3.0Y-2.58
X3.0Y-2.68
X3.0Y-2.78
X3.0Y-2.88
X3.0Y-2.98
X3.0Y-3.08
X3.0Y-3.18
X3.24Y-2.375
X3.2977Y-2.25
X3.34Y-2.375
X3.3977Y-2.25
X3.44Y-2.375
X3.4977Y-2.25
X3.5977Y-2.25
X3.65Y-2.375
X3.6977Y-2.25
X3.75Y-2.375
X3.76Y-3.545
X3.7977Y-2.25
X3.85Y-2.375
X3.86Y-3.545
X3.975Y-3.545
X4.065Y-1.25
X4.065Y-1.35
X4.065Y-1.475
X4.065Y-1.575
X4.07Y-1.755
X4.07Y-1.855
X4.07Y-1.955
X4.07Y-2.055
X4.07Y-2.155
X4.07Y-2.255
X4.075Y-3.545
T8
X3.3273Y-3.64
X3.6502Y-3.64
T9
X2.3241Y-3.5367
X2.8415Y-3.5367
T10
X2.096Y-3.612
T1
G00X2.9606Y-3.676
M15
G01X2.9606Y-3.6367
M16
G05
G00X3.2421Y-3.676
M15
G01X3.2421Y-3.6367
M16
G05
T0
M30
