M48
INCH,TZ
T1C0.0157
T2C0.0173
T3C0.0197
T4C0.0315
T5C0.0374
T6C0.0394
T7C0.0591
T8C0.0906
T9C0.1260
%
G90
G05
T1
X21848Y-28852
X21889Y-29600
X22350Y-22950
X23200Y-16640
X23486Y-19226
X24531Y-24073
X24602Y-23686
X24777Y-13337
X25800Y-30160
X25800Y-31260
X25920Y-27280
X26100Y-14180
X26160Y-32880
X26315Y-32427
X26463Y-13337
X26480Y-19260
X26541Y-23978
X26560Y-26468
X26570Y-25250
X26581Y-24827
X26585Y-24433
X26784Y-26791
X26860Y-17984
X26880Y-13040
X27100Y-31261
X27100Y-17750
X27150Y-28332
X27265Y-21010
X27307Y-18429
X27350Y-17500
X27361Y-19773
X27475Y-23014
X27500Y-22050
X27550Y-22444
X27600Y-17250
X28029Y-23793
X28053Y-20408
X28054Y-23161
X28607Y-25250
X28920Y-17052
X29450Y-15600
X29480Y-26280
X29500Y-21300
X29538Y-17309
X31113Y-30400
X31200Y-20200
X31202Y-19398
X31300Y-29758
X31700Y-19265
X31817Y-24572
X31885Y-26900
X31920Y-28840
X34150Y-28848
X34300Y-29850
X34550Y-30800
X34552Y-29548
X34562Y-20933
X36507Y-21257
X37450Y-29550
X37457Y-29133
X39150Y-21750
X39150Y-22150
X39600Y-19200
X39749Y-24472
T2
X30401Y-36650
X30657Y-36256
X30913Y-36650
X31169Y-36256
X31425Y-36650
T3
X20105Y-36050
X20382Y-35382
X20382Y-36718
X21050Y-35105
X21050Y-36995
X21718Y-35382
X21718Y-36718
X21995Y-36050
T4
X34100Y-36400
X34887Y-36400
X35675Y-36400
T5
X20950Y-13031
X20950Y-14016
X20950Y-15000
X20950Y-17581
X20950Y-18566
X20950Y-19550
X20950Y-22181
X20950Y-23166
X20950Y-24150
X20950Y-26731
X20950Y-27716
X20950Y-28700
X20950Y-31281
X20950Y-32266
X20950Y-33250
X24450Y-34300
X25434Y-34300
X25527Y-15680
X26222Y-34300
X26511Y-15680
X27206Y-34300
X27496Y-15680
X28480Y-15680
X32600Y-25397
X32600Y-26381
X32600Y-27366
X32600Y-28350
X32600Y-30747
X32600Y-31731
X32600Y-32716
X32600Y-33700
X33850Y-17447
X33850Y-18431
X33850Y-19416
X33850Y-20400
X35950Y-25397
X35950Y-26381
X35950Y-27366
X35950Y-28350
X35950Y-30797
X35950Y-31781
X35950Y-32766
X35950Y-33750
X36650Y-17447
X36650Y-18431
X36650Y-19416
X36650Y-20400
X39250Y-25397
X39250Y-26381
X39250Y-27366
X39250Y-28350
X39250Y-30797
X39250Y-31781
X39250Y-32766
X39250Y-33750
T6
X22950Y-17800
X22950Y-18800
X22950Y-19800
X22950Y-20800
X22950Y-21800
X22950Y-22800
X22950Y-23800
X22950Y-24800
X22950Y-25800
X22950Y-26800
X22950Y-27800
X22950Y-28800
X22950Y-29800
X22950Y-30800
X22950Y-31800
X24000Y-12800
X24000Y-13800
X24000Y-14800
X24000Y-15800
X24000Y-16800
X24000Y-17800
X24000Y-18800
X24000Y-19800
X24000Y-20800
X24000Y-21800
X24000Y-22800
X24000Y-23800
X24000Y-24800
X24000Y-25800
X24000Y-26800
X24000Y-27800
X24000Y-28800
X24000Y-29800
X24000Y-30800
X24000Y-31800
X28961Y-17800
X28961Y-18800
X28961Y-19800
X28961Y-20800
X28961Y-21800
X28961Y-22800
X28961Y-23800
X28961Y-24800
X28961Y-25800
X28961Y-26800
X28961Y-27800
X28961Y-28800
X28961Y-29800
X28961Y-30800
X28961Y-31800
X29950Y-34600
X30000Y-12800
X30000Y-13800
X30000Y-14800
X30000Y-15800
X30000Y-16800
X30000Y-17800
X30000Y-18800
X30000Y-19800
X30000Y-20800
X30000Y-21800
X30000Y-22800
X30000Y-23800
X30000Y-24800
X30000Y-25800
X30000Y-26800
X30000Y-27800
X30000Y-28800
X30000Y-29800
X30000Y-30800
X30000Y-31800
X30950Y-34600
X32400Y-23750
X32977Y-22500
X33400Y-23750
X33977Y-22500
X34400Y-23750
X34977Y-22500
X35977Y-22500
X36500Y-23750
X36977Y-22500
X37500Y-23750
X37600Y-36100
X37977Y-22500
X38500Y-23750
X38600Y-36100
X40650Y-12500
X40650Y-13500
X40650Y-14750
X40650Y-15750
X40700Y-17550
X40700Y-18550
X40700Y-19550
X40700Y-20550
X40700Y-21550
X40700Y-22550
T7
X33273Y-36400
X36502Y-36400
T8
X23241Y-35367
X28415Y-35367
T9
X21050Y-36050
T3
G00X29506Y-36731
M15
G01X29506Y-36396
M16
G05
G00X32321Y-36731
M15
G01X32321Y-36396
M16
G05
T0
M30
