%TF.GenerationSoftware,KiCad,Pcbnew,5.1.9*%
%TF.CreationDate,2021-02-07T12:30:23+01:00*%
%TF.ProjectId,test_pcb,74657374-5f70-4636-922e-6b696361645f,rev?*%
%TF.SameCoordinates,Original*%
%TF.FileFunction,Copper,L1,Top*%
%TF.FilePolarity,Positive*%
%FSLAX46Y46*%
G04 Gerber Fmt 4.6, Leading zero omitted, Abs format (unit mm)*
G04 Created by KiCad (PCBNEW 5.1.9) date 2021-02-07 12:30:23*
%MOMM*%
%LPD*%
G01*
G04 APERTURE LIST*
%TA.AperFunction,ComponentPad*%
%ADD10R,1.700000X1.700000*%
%TD*%
%TA.AperFunction,ComponentPad*%
%ADD11O,1.700000X1.700000*%
%TD*%
%TA.AperFunction,ComponentPad*%
%ADD12O,1.950000X1.700000*%
%TD*%
%TA.AperFunction,ComponentPad*%
%ADD13C,6.400000*%
%TD*%
%TA.AperFunction,ComponentPad*%
%ADD14C,0.800000*%
%TD*%
%TA.AperFunction,ComponentPad*%
%ADD15C,1.700000*%
%TD*%
%TA.AperFunction,ComponentPad*%
%ADD16R,1.500000X2.500000*%
%TD*%
%TA.AperFunction,ComponentPad*%
%ADD17O,1.500000X2.500000*%
%TD*%
%TA.AperFunction,ComponentPad*%
%ADD18O,2.200000X3.500000*%
%TD*%
%TA.AperFunction,ComponentPad*%
%ADD19C,1.600000*%
%TD*%
%TA.AperFunction,ComponentPad*%
%ADD20R,1.600000X1.500000*%
%TD*%
%TA.AperFunction,ComponentPad*%
%ADD21C,3.000000*%
%TD*%
%TA.AperFunction,ComponentPad*%
%ADD22O,0.850000X1.850000*%
%TD*%
%TA.AperFunction,ComponentPad*%
%ADD23C,0.840000*%
%TD*%
%TA.AperFunction,ComponentPad*%
%ADD24R,0.840000X0.840000*%
%TD*%
%TA.AperFunction,ViaPad*%
%ADD25C,0.800000*%
%TD*%
%TA.AperFunction,Conductor*%
%ADD26C,0.250000*%
%TD*%
%TA.AperFunction,Conductor*%
%ADD27C,1.000000*%
%TD*%
G04 APERTURE END LIST*
D10*
%TO.P,J1,1*%
%TO.N,5V*%
X64770000Y-37592000D03*
D11*
%TO.P,J1,2*%
%TO.N,GND*%
X67310000Y-37592000D03*
%TO.P,J1,3*%
%TO.N,/a11*%
X69850000Y-37592000D03*
%TO.P,J1,4*%
%TO.N,/a12*%
X72390000Y-37592000D03*
%TD*%
%TO.P,J5,2*%
%TO.N,GND*%
X100965000Y-90043000D03*
D10*
%TO.P,J5,1*%
%TO.N,5V*%
X103505000Y-90043000D03*
%TD*%
D11*
%TO.P,J4,2*%
%TO.N,GND*%
X103251000Y-40005000D03*
D10*
%TO.P,J4,1*%
%TO.N,3V3*%
X103251000Y-37465000D03*
%TD*%
D11*
%TO.P,J2,2*%
%TO.N,5V*%
X98044000Y-90043000D03*
D10*
%TO.P,J2,1*%
%TO.N,/VCC-IN*%
X95504000Y-90043000D03*
%TD*%
D11*
%TO.P,J3,2*%
%TO.N,GND*%
X103251000Y-34290000D03*
D10*
%TO.P,J3,1*%
%TO.N,/c13*%
X103251000Y-31750000D03*
%TD*%
%TO.P,J7,1*%
%TO.N,GND*%
X97790000Y-60325000D03*
D11*
%TO.P,J7,2*%
%TO.N,5V*%
X95250000Y-60325000D03*
%TO.P,J7,3*%
%TO.N,/a7*%
X92710000Y-60325000D03*
%TD*%
D12*
%TO.P,J20,3*%
%TO.N,/a2*%
X53340000Y-55198000D03*
%TO.P,J20,2*%
%TO.N,GND*%
X53340000Y-57698000D03*
%TO.P,J20,1*%
%TO.N,5V*%
%TA.AperFunction,ComponentPad*%
G36*
G01*
X54065000Y-61048000D02*
X52615000Y-61048000D01*
G75*
G02*
X52365000Y-60798000I0J250000D01*
G01*
X52365000Y-59598000D01*
G75*
G02*
X52615000Y-59348000I250000J0D01*
G01*
X54065000Y-59348000D01*
G75*
G02*
X54315000Y-59598000I0J-250000D01*
G01*
X54315000Y-60798000D01*
G75*
G02*
X54065000Y-61048000I-250000J0D01*
G01*
G37*
%TD.AperFunction*%
%TD*%
D10*
%TO.P,J9,1*%
%TO.N,/b1*%
X103378000Y-44577000D03*
D11*
%TO.P,J9,2*%
%TO.N,/a10*%
X103378000Y-47117000D03*
%TO.P,J9,3*%
%TO.N,5V*%
X103378000Y-49657000D03*
%TO.P,J9,4*%
%TO.N,GND*%
X103378000Y-52197000D03*
%TO.P,J9,5*%
%TO.N,/a9*%
X103378000Y-54737000D03*
%TO.P,J9,6*%
%TO.N,/b13*%
X103378000Y-57277000D03*
%TD*%
%TO.P,J19,1*%
%TO.N,GND*%
%TA.AperFunction,ComponentPad*%
G36*
G01*
X83529000Y-86448000D02*
X82079000Y-86448000D01*
G75*
G02*
X81829000Y-86198000I0J250000D01*
G01*
X81829000Y-84998000D01*
G75*
G02*
X82079000Y-84748000I250000J0D01*
G01*
X83529000Y-84748000D01*
G75*
G02*
X83779000Y-84998000I0J-250000D01*
G01*
X83779000Y-86198000D01*
G75*
G02*
X83529000Y-86448000I-250000J0D01*
G01*
G37*
%TD.AperFunction*%
D12*
%TO.P,J19,2*%
%TO.N,5V*%
X82804000Y-83098000D03*
%TO.P,J19,3*%
%TO.N,/b6*%
X82804000Y-80598000D03*
%TO.P,J19,4*%
%TO.N,/b7*%
X82804000Y-78098000D03*
%TD*%
D13*
%TO.P,H3,1*%
%TO.N,GND*%
X53238400Y-91744800D03*
D14*
X55638400Y-91744800D03*
X54935456Y-93441856D03*
X53238400Y-94144800D03*
X51541344Y-93441856D03*
X50838400Y-91744800D03*
X51541344Y-90047744D03*
X53238400Y-89344800D03*
X54935456Y-90047744D03*
%TD*%
D11*
%TO.P,J10,20*%
%TO.N,GND*%
X60960000Y-80772000D03*
%TO.P,J10,19*%
X60960000Y-78232000D03*
%TO.P,J10,18*%
%TO.N,3V3*%
X60960000Y-75692000D03*
%TO.P,J10,17*%
%TO.N,/rst*%
X60960000Y-73152000D03*
%TO.P,J10,16*%
%TO.N,/b11*%
X60960000Y-70612000D03*
%TO.P,J10,15*%
%TO.N,/b10*%
X60960000Y-68072000D03*
%TO.P,J10,14*%
%TO.N,/b1*%
X60960000Y-65532000D03*
%TO.P,J10,13*%
%TO.N,/b0*%
X60960000Y-62992000D03*
%TO.P,J10,12*%
%TO.N,/a7*%
X60960000Y-60452000D03*
%TO.P,J10,11*%
%TO.N,/a6*%
X60960000Y-57912000D03*
%TO.P,J10,10*%
%TO.N,/a5*%
X60960000Y-55372000D03*
%TO.P,J10,9*%
%TO.N,/a4*%
X60960000Y-52832000D03*
%TO.P,J10,8*%
%TO.N,/a3*%
X60960000Y-50292000D03*
%TO.P,J10,7*%
%TO.N,/a2*%
X60960000Y-47752000D03*
%TO.P,J10,6*%
%TO.N,/a1*%
X60960000Y-45212000D03*
%TO.P,J10,5*%
%TO.N,/a0*%
X60960000Y-42672000D03*
%TO.P,J10,4*%
%TO.N,/c15*%
X60960000Y-40132000D03*
%TO.P,J10,3*%
%TO.N,/c14*%
X60960000Y-37592000D03*
%TO.P,J10,2*%
%TO.N,/c13*%
X60960000Y-35052000D03*
D15*
%TO.P,J10,1*%
%TO.N,/vbat*%
X60960000Y-32512000D03*
%TD*%
D12*
%TO.P,J24,3*%
%TO.N,5V*%
X53340000Y-77296000D03*
%TO.P,J24,2*%
%TO.N,GND*%
X53340000Y-79796000D03*
%TO.P,J24,1*%
%TO.N,/b12*%
%TA.AperFunction,ComponentPad*%
G36*
G01*
X54065000Y-83146000D02*
X52615000Y-83146000D01*
G75*
G02*
X52365000Y-82896000I0J250000D01*
G01*
X52365000Y-81696000D01*
G75*
G02*
X52615000Y-81446000I250000J0D01*
G01*
X54065000Y-81446000D01*
G75*
G02*
X54315000Y-81696000I0J-250000D01*
G01*
X54315000Y-82896000D01*
G75*
G02*
X54065000Y-83146000I-250000J0D01*
G01*
G37*
%TD.AperFunction*%
%TD*%
%TO.P,J23,3*%
%TO.N,5V*%
X53340000Y-33100000D03*
%TO.P,J23,2*%
%TO.N,GND*%
X53340000Y-35600000D03*
%TO.P,J23,1*%
%TO.N,/b4*%
%TA.AperFunction,ComponentPad*%
G36*
G01*
X54065000Y-38950000D02*
X52615000Y-38950000D01*
G75*
G02*
X52365000Y-38700000I0J250000D01*
G01*
X52365000Y-37500000D01*
G75*
G02*
X52615000Y-37250000I250000J0D01*
G01*
X54065000Y-37250000D01*
G75*
G02*
X54315000Y-37500000I0J-250000D01*
G01*
X54315000Y-38700000D01*
G75*
G02*
X54065000Y-38950000I-250000J0D01*
G01*
G37*
%TD.AperFunction*%
%TD*%
D16*
%TO.P,SW1,1*%
%TO.N,/VCC-IN*%
X86614000Y-92456000D03*
D17*
%TO.P,SW1,2*%
%TO.N,5V*%
X88614000Y-92456000D03*
%TO.P,SW1,3*%
%TO.N,N/C*%
X90614000Y-92456000D03*
D18*
%TO.P,SW1,*%
%TO.N,*%
X84514000Y-92456000D03*
X92714000Y-92456000D03*
%TD*%
D19*
%TO.P,J12,4*%
%TO.N,GND*%
X69103000Y-87122000D03*
%TO.P,J12,3*%
%TO.N,Net-(J12-Pad3)*%
X66603000Y-87122000D03*
%TO.P,J12,2*%
%TO.N,Net-(J12-Pad2)*%
X64603000Y-87122000D03*
D20*
%TO.P,J12,1*%
%TO.N,5V*%
X62103000Y-87122000D03*
D21*
%TO.P,J12,5*%
%TO.N,GND*%
X72173000Y-89832000D03*
X59033000Y-89832000D03*
%TD*%
%TO.P,J18,1*%
%TO.N,GND*%
%TA.AperFunction,ComponentPad*%
G36*
G01*
X83529000Y-72859000D02*
X82079000Y-72859000D01*
G75*
G02*
X81829000Y-72609000I0J250000D01*
G01*
X81829000Y-71409000D01*
G75*
G02*
X82079000Y-71159000I250000J0D01*
G01*
X83529000Y-71159000D01*
G75*
G02*
X83779000Y-71409000I0J-250000D01*
G01*
X83779000Y-72609000D01*
G75*
G02*
X83529000Y-72859000I-250000J0D01*
G01*
G37*
%TD.AperFunction*%
D12*
%TO.P,J18,2*%
%TO.N,5V*%
X82804000Y-69509000D03*
%TO.P,J18,3*%
%TO.N,/b10*%
X82804000Y-67009000D03*
%TO.P,J18,4*%
%TO.N,/b11*%
X82804000Y-64509000D03*
%TD*%
D22*
%TO.P,J13,6*%
%TO.N,GND*%
X75198500Y-92871000D03*
X82348500Y-92871000D03*
D23*
%TO.P,J13,5*%
X77473500Y-93091000D03*
%TO.P,J13,4*%
%TO.N,Net-(J13-Pad4)*%
X78123500Y-92091000D03*
%TO.P,J13,3*%
%TO.N,Net-(J13-Pad3)*%
X78773500Y-93091000D03*
%TO.P,J13,2*%
%TO.N,Net-(J13-Pad2)*%
X79423500Y-92091000D03*
D24*
%TO.P,J13,1*%
%TO.N,/VCC-IN*%
X80073500Y-93091000D03*
%TD*%
%TO.P,J14,1*%
%TO.N,5V*%
%TA.AperFunction,ComponentPad*%
G36*
G01*
X92038000Y-72859000D02*
X90588000Y-72859000D01*
G75*
G02*
X90338000Y-72609000I0J250000D01*
G01*
X90338000Y-71409000D01*
G75*
G02*
X90588000Y-71159000I250000J0D01*
G01*
X92038000Y-71159000D01*
G75*
G02*
X92288000Y-71409000I0J-250000D01*
G01*
X92288000Y-72609000D01*
G75*
G02*
X92038000Y-72859000I-250000J0D01*
G01*
G37*
%TD.AperFunction*%
D12*
%TO.P,J14,2*%
%TO.N,/a15*%
X91313000Y-69509000D03*
%TO.P,J14,3*%
%TO.N,/c14*%
X91313000Y-67009000D03*
%TO.P,J14,4*%
%TO.N,GND*%
X91313000Y-64509000D03*
%TD*%
D11*
%TO.P,J6,3*%
%TO.N,/b5*%
X82296000Y-60325000D03*
%TO.P,J6,2*%
%TO.N,5V*%
X84836000Y-60325000D03*
D10*
%TO.P,J6,1*%
%TO.N,GND*%
X87376000Y-60325000D03*
%TD*%
%TO.P,J8,1*%
%TO.N,/b3*%
X83761580Y-57150000D03*
D11*
%TO.P,J8,2*%
%TO.N,/a8*%
X86301580Y-57150000D03*
%TO.P,J8,3*%
%TO.N,5V*%
X88841580Y-57150000D03*
%TO.P,J8,4*%
%TO.N,GND*%
X91381580Y-57150000D03*
%TO.P,J8,5*%
%TO.N,/b15*%
X93921580Y-57150000D03*
%TO.P,J8,6*%
%TO.N,/b14*%
X96461580Y-57150000D03*
%TD*%
D12*
%TO.P,J21,3*%
%TO.N,/a3*%
X53340000Y-66247000D03*
%TO.P,J21,2*%
%TO.N,GND*%
X53340000Y-68747000D03*
%TO.P,J21,1*%
%TO.N,5V*%
%TA.AperFunction,ComponentPad*%
G36*
G01*
X54065000Y-72097000D02*
X52615000Y-72097000D01*
G75*
G02*
X52365000Y-71847000I0J250000D01*
G01*
X52365000Y-70647000D01*
G75*
G02*
X52615000Y-70397000I250000J0D01*
G01*
X54065000Y-70397000D01*
G75*
G02*
X54315000Y-70647000I0J-250000D01*
G01*
X54315000Y-71847000D01*
G75*
G02*
X54065000Y-72097000I-250000J0D01*
G01*
G37*
%TD.AperFunction*%
%TD*%
D11*
%TO.P,J11,20*%
%TO.N,3V3*%
X76200000Y-32512000D03*
%TO.P,J11,19*%
%TO.N,GND*%
X76200000Y-35052000D03*
%TO.P,J11,18*%
%TO.N,5V*%
X76200000Y-37592000D03*
%TO.P,J11,17*%
%TO.N,/b9*%
X76200000Y-40132000D03*
%TO.P,J11,16*%
%TO.N,/b8*%
X76200000Y-42672000D03*
%TO.P,J11,15*%
%TO.N,/b7*%
X76200000Y-45212000D03*
%TO.P,J11,14*%
%TO.N,/b6*%
X76200000Y-47752000D03*
%TO.P,J11,13*%
%TO.N,/b5*%
X76200000Y-50292000D03*
%TO.P,J11,12*%
%TO.N,/b4*%
X76200000Y-52832000D03*
%TO.P,J11,11*%
%TO.N,/b3*%
X76200000Y-55372000D03*
%TO.P,J11,10*%
%TO.N,/a15*%
X76200000Y-57912000D03*
%TO.P,J11,9*%
%TO.N,/a12*%
X76200000Y-60452000D03*
%TO.P,J11,8*%
%TO.N,/a11*%
X76200000Y-62992000D03*
%TO.P,J11,7*%
%TO.N,/a10*%
X76200000Y-65532000D03*
%TO.P,J11,6*%
%TO.N,/a9*%
X76200000Y-68072000D03*
%TO.P,J11,5*%
%TO.N,/a8*%
X76200000Y-70612000D03*
%TO.P,J11,4*%
%TO.N,/b15*%
X76200000Y-73152000D03*
%TO.P,J11,3*%
%TO.N,/b14*%
X76200000Y-75692000D03*
%TO.P,J11,2*%
%TO.N,/b13*%
X76200000Y-78232000D03*
D15*
%TO.P,J11,1*%
%TO.N,/b12*%
X76200000Y-80772000D03*
%TD*%
%TO.P,J17,1*%
%TO.N,3V3*%
%TA.AperFunction,ComponentPad*%
G36*
G01*
X100420000Y-72859000D02*
X98970000Y-72859000D01*
G75*
G02*
X98720000Y-72609000I0J250000D01*
G01*
X98720000Y-71409000D01*
G75*
G02*
X98970000Y-71159000I250000J0D01*
G01*
X100420000Y-71159000D01*
G75*
G02*
X100670000Y-71409000I0J-250000D01*
G01*
X100670000Y-72609000D01*
G75*
G02*
X100420000Y-72859000I-250000J0D01*
G01*
G37*
%TD.AperFunction*%
D12*
%TO.P,J17,2*%
%TO.N,GND*%
X99695000Y-69509000D03*
%TO.P,J17,3*%
%TO.N,/b0*%
X99695000Y-67009000D03*
%TO.P,J17,4*%
%TO.N,/a1*%
X99695000Y-64509000D03*
%TD*%
%TO.P,J15,1*%
%TO.N,5V*%
%TA.AperFunction,ComponentPad*%
G36*
G01*
X92038000Y-86575000D02*
X90588000Y-86575000D01*
G75*
G02*
X90338000Y-86325000I0J250000D01*
G01*
X90338000Y-85125000D01*
G75*
G02*
X90588000Y-84875000I250000J0D01*
G01*
X92038000Y-84875000D01*
G75*
G02*
X92288000Y-85125000I0J-250000D01*
G01*
X92288000Y-86325000D01*
G75*
G02*
X92038000Y-86575000I-250000J0D01*
G01*
G37*
%TD.AperFunction*%
%TO.P,J15,2*%
%TO.N,/a5*%
X91313000Y-83225000D03*
%TO.P,J15,3*%
%TO.N,/a6*%
X91313000Y-80725000D03*
%TO.P,J15,4*%
%TO.N,GND*%
X91313000Y-78225000D03*
%TD*%
%TO.P,J16,1*%
%TO.N,3V3*%
%TA.AperFunction,ComponentPad*%
G36*
G01*
X100420000Y-86575000D02*
X98970000Y-86575000D01*
G75*
G02*
X98720000Y-86325000I0J250000D01*
G01*
X98720000Y-85125000D01*
G75*
G02*
X98970000Y-84875000I250000J0D01*
G01*
X100420000Y-84875000D01*
G75*
G02*
X100670000Y-85125000I0J-250000D01*
G01*
X100670000Y-86325000D01*
G75*
G02*
X100420000Y-86575000I-250000J0D01*
G01*
G37*
%TD.AperFunction*%
%TO.P,J16,2*%
%TO.N,GND*%
X99695000Y-83225000D03*
%TO.P,J16,3*%
%TO.N,/c15*%
X99695000Y-80725000D03*
%TO.P,J16,4*%
%TO.N,/a0*%
X99695000Y-78225000D03*
%TD*%
%TO.P,J22,3*%
%TO.N,GND*%
X53340000Y-44149000D03*
%TO.P,J22,2*%
%TO.N,3V3*%
X53340000Y-46649000D03*
%TO.P,J22,1*%
%TO.N,/a4*%
%TA.AperFunction,ComponentPad*%
G36*
G01*
X54065000Y-49999000D02*
X52615000Y-49999000D01*
G75*
G02*
X52365000Y-49749000I0J250000D01*
G01*
X52365000Y-48549000D01*
G75*
G02*
X52615000Y-48299000I250000J0D01*
G01*
X54065000Y-48299000D01*
G75*
G02*
X54315000Y-48549000I0J-250000D01*
G01*
X54315000Y-49749000D01*
G75*
G02*
X54065000Y-49999000I-250000J0D01*
G01*
G37*
%TD.AperFunction*%
%TD*%
D25*
%TO.N,/a9*%
X100457000Y-56276997D03*
%TO.N,/b12*%
X67984869Y-82296000D03*
%TO.N,/b13*%
X100457000Y-57277000D03*
%TO.N,/b7*%
X72639347Y-60456653D03*
X78957010Y-77216000D03*
X73152000Y-57277000D03*
%TO.N,/b6*%
X77507000Y-79629000D03*
X74041000Y-58166000D03*
X74163347Y-61980653D03*
%TO.N,/a0*%
X95123000Y-75057000D03*
%TO.N,/c13*%
X64008000Y-34925000D03*
%TO.N,/c14*%
X86868000Y-48641000D03*
%TO.N,/b1*%
X68638847Y-63949153D03*
X73089640Y-56187040D03*
%TO.N,/a7*%
X67437000Y-62267000D03*
X72934990Y-65278000D03*
%TO.N,/a5*%
X87757000Y-78232000D03*
%TO.N,/c15*%
X95141406Y-73997663D03*
%TO.N,/b5*%
X74930000Y-59182000D03*
X79592000Y-60712763D03*
%TO.N,/b4*%
X70612000Y-51054000D03*
%TO.N,/b3*%
X79248000Y-58419998D03*
%TO.N,/a15*%
X81280000Y-65786000D03*
%TO.N,3V3*%
X56007000Y-50546000D03*
%TD*%
D26*
%TO.N,/a9*%
X77908989Y-66363011D02*
X76200000Y-68072000D01*
X95949206Y-52640796D02*
X95949206Y-51497795D01*
X77908989Y-51375600D02*
X77908989Y-66363011D01*
X78992590Y-50291999D02*
X77908989Y-51375600D01*
X99585407Y-56276997D02*
X95949206Y-52640796D01*
X100457000Y-56276997D02*
X99585407Y-56276997D01*
X94743410Y-50291999D02*
X78992590Y-50291999D01*
X95949206Y-51497795D02*
X94743410Y-50291999D01*
%TO.N,/a2*%
X53340000Y-55198000D02*
X53340000Y-51433589D01*
X53340000Y-51433589D02*
X55465577Y-49308012D01*
X55465577Y-49308012D02*
X59403988Y-49308012D01*
X59403988Y-49308012D02*
X60960000Y-47752000D01*
%TO.N,/a3*%
X54991000Y-50419000D02*
X55651977Y-49758023D01*
X53340000Y-66247000D02*
X54991000Y-64596000D01*
X55651977Y-49758023D02*
X60426023Y-49758023D01*
X54991000Y-64596000D02*
X54991000Y-50419000D01*
X60426023Y-49758023D02*
X60960000Y-50292000D01*
%TO.N,/b12*%
X53340000Y-82296000D02*
X67984869Y-82296000D01*
%TO.N,/b13*%
X74930000Y-78232000D02*
X76200000Y-78232000D01*
X74168000Y-69977000D02*
X74168000Y-77470000D01*
X76833590Y-69342000D02*
X74803000Y-69342000D01*
X95499195Y-52827195D02*
X95499195Y-51684195D01*
X94557010Y-50742010D02*
X79178990Y-50742010D01*
X100457000Y-57277000D02*
X99949000Y-57277000D01*
X78359000Y-51562000D02*
X78359000Y-67816590D01*
X99949000Y-57277000D02*
X95499195Y-52827195D01*
X74803000Y-69342000D02*
X74168000Y-69977000D01*
X78359000Y-67816590D02*
X76833590Y-69342000D01*
X95499195Y-51684195D02*
X94557010Y-50742010D01*
X79178990Y-50742010D02*
X78359000Y-51562000D01*
X74168000Y-77470000D02*
X74930000Y-78232000D01*
%TO.N,/b7*%
X73152000Y-57277000D02*
X73839031Y-56589969D01*
X72209988Y-65626002D02*
X72759978Y-66175992D01*
X78682011Y-82228400D02*
X78682011Y-77490999D01*
X72639347Y-60456653D02*
X72209988Y-60886012D01*
X78682011Y-77490999D02*
X78957010Y-77216000D01*
X72759978Y-81271800D02*
X74938200Y-83450022D01*
X72759978Y-66175992D02*
X72759978Y-81271800D01*
X72209988Y-60886012D02*
X72209988Y-65626002D01*
X74938200Y-83450022D02*
X77460389Y-83450022D01*
X77460389Y-83450022D02*
X78682011Y-82228400D01*
X73839031Y-47572969D02*
X73839031Y-49074031D01*
X76200000Y-45212000D02*
X73839031Y-47572969D01*
X73839031Y-56589969D02*
X73839031Y-49074031D01*
%TO.N,/b6*%
X74041000Y-58166000D02*
X74440999Y-57766001D01*
X77597000Y-79719000D02*
X77507000Y-79629000D01*
X75438000Y-82550000D02*
X76962000Y-82550000D01*
X73660000Y-62484000D02*
X73660000Y-80772000D01*
X74163347Y-61980653D02*
X73660000Y-62484000D01*
X73660000Y-80772000D02*
X75438000Y-82550000D01*
X77597000Y-81915000D02*
X77597000Y-79719000D01*
X76962000Y-82550000D02*
X77597000Y-81915000D01*
X74440999Y-49511001D02*
X74440999Y-50781001D01*
X76200000Y-47752000D02*
X74440999Y-49511001D01*
X74440999Y-57766001D02*
X74440999Y-50781001D01*
%TO.N,/b11*%
X97917000Y-71648810D02*
X98881800Y-70684010D01*
X98881800Y-70684010D02*
X100306705Y-70684010D01*
X100983979Y-62883979D02*
X84429021Y-62883979D01*
X69159890Y-76908300D02*
X69159890Y-82763000D01*
X60960000Y-70612000D02*
X62863590Y-70612000D01*
X79068732Y-86932967D02*
X96348843Y-86932967D01*
X62863590Y-70612000D02*
X69159890Y-76908300D01*
X101473000Y-63373000D02*
X100983979Y-62883979D01*
X96348843Y-86932967D02*
X97917000Y-85364810D01*
X100306705Y-70684010D02*
X101473000Y-69517715D01*
X97917000Y-85364810D02*
X97917000Y-71648810D01*
X84429021Y-62883979D02*
X82804000Y-64509000D01*
X73447000Y-87050110D02*
X78951589Y-87050110D01*
X78951589Y-87050110D02*
X79068732Y-86932967D01*
X101473000Y-69517715D02*
X101473000Y-63373000D01*
X69159890Y-82763000D02*
X73447000Y-87050110D01*
%TO.N,/b10*%
X86479010Y-63333990D02*
X82804000Y-67009000D01*
X100995010Y-63657010D02*
X100671990Y-63333990D01*
X78765189Y-86600099D02*
X80965277Y-84400010D01*
X100995010Y-67495705D02*
X100995010Y-63657010D01*
X100291715Y-68199000D02*
X100995010Y-67495705D01*
X99218285Y-68199000D02*
X100291715Y-68199000D01*
X69609901Y-82576600D02*
X73633400Y-86600099D01*
X69609901Y-76721901D02*
X69609901Y-82576600D01*
X97466989Y-83381011D02*
X97466989Y-69950296D01*
X97466989Y-69950296D02*
X99218285Y-68199000D01*
X60960000Y-68072000D02*
X69609901Y-76721901D01*
X100671990Y-63333990D02*
X86479010Y-63333990D01*
X73633400Y-86600099D02*
X78765189Y-86600099D01*
X80965277Y-84400010D02*
X96447990Y-84400010D01*
X96447990Y-84400010D02*
X97466989Y-83381011D01*
%TO.N,/a0*%
X80550012Y-77292451D02*
X80635732Y-77206732D01*
X82785464Y-75057000D02*
X95123000Y-75057000D01*
X80635732Y-77206732D02*
X82785464Y-75057000D01*
X70949966Y-52661966D02*
X70949966Y-62689322D01*
X79582033Y-82601200D02*
X79582033Y-78260431D01*
X74565400Y-84350044D02*
X77833189Y-84350044D01*
X71859956Y-66548792D02*
X71859956Y-81644600D01*
X71859956Y-81644600D02*
X74565400Y-84350044D01*
X71309966Y-65998802D02*
X71859956Y-66548792D01*
X77833189Y-84350044D02*
X79582033Y-82601200D01*
X70949966Y-62689322D02*
X71309966Y-63049322D01*
X71309966Y-63049322D02*
X71309966Y-65998802D01*
X60960000Y-42672000D02*
X70949966Y-52661966D01*
X79582033Y-78260431D02*
X80635732Y-77206732D01*
%TO.N,/c13*%
X102151000Y-31750000D02*
X103251000Y-31750000D01*
X88647410Y-42037000D02*
X91694000Y-42037000D01*
X101981000Y-31750000D02*
X102151000Y-31750000D01*
X91694000Y-42037000D02*
X101981000Y-31750000D01*
X64008000Y-34925000D02*
X67945000Y-30988000D01*
X67945000Y-30988000D02*
X77598410Y-30988000D01*
X77598410Y-30988000D02*
X88647410Y-42037000D01*
%TO.N,/a1*%
X61339590Y-45212000D02*
X60960000Y-45212000D01*
X81000023Y-77478851D02*
X81207937Y-77270937D01*
X99695000Y-64516000D02*
X99695000Y-64509000D01*
X96566967Y-67644033D02*
X99695000Y-64516000D01*
X96566967Y-74883033D02*
X96566967Y-67644033D01*
X81207937Y-77270937D02*
X82659874Y-75819000D01*
X95631000Y-75819000D02*
X96566967Y-74883033D01*
X82659874Y-75819000D02*
X95631000Y-75819000D01*
X74379000Y-84800055D02*
X78019589Y-84800055D01*
X71409945Y-66735192D02*
X71409945Y-81831000D01*
X60960000Y-45212000D02*
X62162081Y-45212000D01*
X70499955Y-53549874D02*
X70499955Y-62875722D01*
X70499955Y-62875722D02*
X70859955Y-63235722D01*
X70859955Y-63235722D02*
X70859955Y-66185202D01*
X80032044Y-78446830D02*
X81207937Y-77270937D01*
X70859955Y-66185202D02*
X71409945Y-66735192D01*
X78019589Y-84800055D02*
X80032044Y-82787600D01*
X62162081Y-45212000D02*
X70499955Y-53549874D01*
X80032044Y-82787600D02*
X80032044Y-78446830D01*
X71409945Y-81831000D02*
X74379000Y-84800055D01*
%TO.N,/c14*%
X86614000Y-48895000D02*
X86868000Y-48641000D01*
X78994000Y-48895000D02*
X86614000Y-48895000D01*
X60960000Y-37592000D02*
X62135001Y-38767001D01*
X65945001Y-37051999D02*
X66802000Y-36195000D01*
X77597000Y-42164000D02*
X77597000Y-43685180D01*
X78232000Y-44320180D02*
X78232000Y-48133000D01*
X62135001Y-38767001D02*
X65880001Y-38767001D01*
X78232000Y-48133000D02*
X78994000Y-48895000D01*
X65880001Y-38767001D02*
X65945001Y-38702001D01*
X74085001Y-37547999D02*
X74085001Y-40341999D01*
X74085001Y-40341999D02*
X75145002Y-41402000D01*
X75145002Y-41402000D02*
X76835000Y-41402000D01*
X65945001Y-38702001D02*
X65945001Y-37051999D01*
X66802000Y-36195000D02*
X72732002Y-36195000D01*
X76835000Y-41402000D02*
X77597000Y-42164000D01*
X72732002Y-36195000D02*
X74085001Y-37547999D01*
X77597000Y-43685180D02*
X78232000Y-44320180D01*
%TO.N,/b1*%
X60960000Y-65532000D02*
X67056000Y-65532000D01*
X67056000Y-65532000D02*
X68638847Y-63949153D01*
X103378000Y-44577000D02*
X100203000Y-44577000D01*
X100330000Y-44577000D02*
X100203000Y-44577000D01*
X72990987Y-46459011D02*
X75412999Y-44036999D01*
X73089640Y-55621355D02*
X72990987Y-55522702D01*
X77312408Y-44036999D02*
X77781989Y-44506580D01*
X75412999Y-44036999D02*
X77312408Y-44036999D01*
X72990987Y-55522702D02*
X72990987Y-46459011D01*
X77781989Y-48319400D02*
X78854568Y-49391979D01*
X78854568Y-49391979D02*
X94497611Y-49391979D01*
X94497611Y-49391979D02*
X99312589Y-44577000D01*
X99312589Y-44577000D02*
X100203000Y-44577000D01*
X73089640Y-56187040D02*
X73089640Y-55621355D01*
X77781989Y-44506580D02*
X77781989Y-48319400D01*
%TO.N,/b0*%
X82215275Y-81900010D02*
X82437990Y-81900010D01*
X97016978Y-69687022D02*
X99695000Y-67009000D01*
X97016978Y-81164022D02*
X97016978Y-69687022D01*
X96280990Y-81900010D02*
X97016978Y-81164022D01*
X82215275Y-81900010D02*
X96280990Y-81900010D01*
X68707000Y-62992000D02*
X69509922Y-63794922D01*
X69509922Y-66744402D02*
X70059912Y-67294392D01*
X78578789Y-86150088D02*
X81382077Y-83346800D01*
X70059912Y-82390200D02*
X73819800Y-86150088D01*
X70059912Y-67294392D02*
X70059912Y-82390200D01*
X69509922Y-63794922D02*
X69509922Y-66744402D01*
X60960000Y-62992000D02*
X68707000Y-62992000D01*
X73819800Y-86150088D02*
X78578789Y-86150088D01*
X81382077Y-82733207D02*
X82215275Y-81900010D01*
X81382077Y-83346800D02*
X81382077Y-82733207D01*
%TO.N,/a7*%
X66167000Y-60452000D02*
X60960000Y-60452000D01*
X67437000Y-61722000D02*
X66167000Y-60452000D01*
X67437000Y-62267000D02*
X67437000Y-61722000D01*
X82864810Y-62426010D02*
X80264000Y-65026820D01*
X92710000Y-60325000D02*
X90608990Y-62426010D01*
X77148400Y-83000011D02*
X75251600Y-83000011D01*
X73209989Y-80958400D02*
X73209989Y-65552999D01*
X75251600Y-83000011D02*
X73209989Y-80958400D01*
X78232000Y-81916411D02*
X77148400Y-83000011D01*
X78232000Y-76198589D02*
X78232000Y-81916411D01*
X80264000Y-65026820D02*
X80264000Y-74166589D01*
X90608990Y-62426010D02*
X82864810Y-62426010D01*
X80264000Y-74166589D02*
X78232000Y-76198589D01*
X73209989Y-65552999D02*
X72934990Y-65278000D01*
%TO.N,/a6*%
X91567000Y-80725000D02*
X91589011Y-80702989D01*
X60960000Y-57912000D02*
X64263411Y-57912000D01*
X69959933Y-66558002D02*
X70509923Y-67107992D01*
X70509923Y-82203800D02*
X74006200Y-85700077D01*
X74006200Y-85700077D02*
X78392389Y-85700077D01*
X78392389Y-85700077D02*
X80932066Y-83160400D01*
X89963000Y-79375000D02*
X91313000Y-80725000D01*
X69959933Y-63608522D02*
X69959933Y-66558002D01*
X82240285Y-79375000D02*
X89963000Y-79375000D01*
X80932066Y-80683219D02*
X82240285Y-79375000D01*
X80932066Y-83160400D02*
X80932066Y-80683219D01*
X70509923Y-67107992D02*
X70509923Y-82203800D01*
X64263411Y-57912000D02*
X69959933Y-63608522D01*
%TO.N,/a5*%
X81450034Y-77665251D02*
X81589643Y-77525643D01*
X81589643Y-77525643D02*
X82846275Y-76269011D01*
X82846275Y-76269011D02*
X85794011Y-76269011D01*
X85794011Y-76269011D02*
X87757000Y-78232000D01*
X62359822Y-55372000D02*
X70409944Y-63422122D01*
X70959934Y-82017400D02*
X74192600Y-85250066D01*
X74192600Y-85250066D02*
X78205989Y-85250066D01*
X78205989Y-85250066D02*
X80482055Y-82974000D01*
X80482055Y-82974000D02*
X80482055Y-78633231D01*
X80482055Y-78633231D02*
X81589643Y-77525643D01*
X60960000Y-55372000D02*
X62359822Y-55372000D01*
X70409944Y-66371602D02*
X70959934Y-66921592D01*
X70409944Y-63422122D02*
X70409944Y-66371602D01*
X70959934Y-66921592D02*
X70959934Y-82017400D01*
%TO.N,/a4*%
X62160989Y-47047989D02*
X62160989Y-51631011D01*
X62160989Y-51631011D02*
X60960000Y-52832000D01*
X61595000Y-46482000D02*
X62160989Y-47047989D01*
X60490998Y-46482000D02*
X61595000Y-46482000D01*
X53630999Y-48858001D02*
X58114997Y-48858001D01*
X58114997Y-48858001D02*
X60490998Y-46482000D01*
X53340000Y-49149000D02*
X53630999Y-48858001D01*
%TO.N,/c15*%
X83208389Y-73997663D02*
X95141406Y-73997663D01*
X80254026Y-76952026D02*
X83208389Y-73997663D01*
X80100001Y-77106051D02*
X80254026Y-76952026D01*
X72309967Y-81458200D02*
X74751800Y-83900033D01*
X71759977Y-62862922D02*
X71759977Y-65812402D01*
X72309967Y-66362392D02*
X72309967Y-81458200D01*
X71759977Y-65812402D02*
X72309967Y-66362392D01*
X79132022Y-78074030D02*
X80254026Y-76952026D01*
X74751800Y-83900033D02*
X77646789Y-83900033D01*
X71399977Y-50571977D02*
X71399977Y-62502922D01*
X60960000Y-40132000D02*
X71399977Y-50571977D01*
X77646789Y-83900033D02*
X79132022Y-82414800D01*
X71399977Y-62502922D02*
X71759977Y-62862922D01*
X79132022Y-82414800D02*
X79132022Y-78074030D01*
%TO.N,/b5*%
X74930000Y-51562000D02*
X74930000Y-59182000D01*
X76200000Y-50292000D02*
X74930000Y-51562000D01*
X81908237Y-60712763D02*
X82296000Y-60325000D01*
X79592000Y-60712763D02*
X81908237Y-60712763D01*
%TO.N,/b4*%
X61430686Y-41307001D02*
X56547001Y-41307001D01*
X56547001Y-41307001D02*
X53340000Y-38100000D01*
X70612000Y-50488315D02*
X61430686Y-41307001D01*
X70612000Y-51054000D02*
X70612000Y-50488315D01*
%TO.N,/b3*%
X80517998Y-57150000D02*
X79248000Y-58419998D01*
X83761580Y-57150000D02*
X80517998Y-57150000D01*
%TO.N,/a15*%
X90137990Y-68333990D02*
X91313000Y-69509000D01*
X81280000Y-67310000D02*
X82303990Y-68333990D01*
X82303990Y-68333990D02*
X90137990Y-68333990D01*
X81280000Y-65786000D02*
X81280000Y-67310000D01*
%TO.N,/a12*%
X72390000Y-37592000D02*
X72390000Y-40640000D01*
X72390000Y-40386000D02*
X72390000Y-40640000D01*
X72390000Y-55813678D02*
X72332011Y-55871667D01*
X72332011Y-57786092D02*
X74997919Y-60452000D01*
X72390000Y-40640000D02*
X72390000Y-55813678D01*
X72332011Y-55871667D02*
X72332011Y-57786092D01*
X74997919Y-60452000D02*
X76200000Y-60452000D01*
%TO.N,/a11*%
X71882000Y-58674000D02*
X76200000Y-62992000D01*
X71882000Y-39624000D02*
X71882000Y-58674000D01*
X69850000Y-37592000D02*
X71882000Y-39624000D01*
%TO.N,/a10*%
X97409000Y-47117000D02*
X95694500Y-48831500D01*
X103378000Y-47117000D02*
X97409000Y-47117000D01*
X96030999Y-48495001D02*
X95694500Y-48831500D01*
X77458978Y-51189200D02*
X77458978Y-64273022D01*
X95694500Y-48831500D02*
X94684012Y-49841988D01*
X78806190Y-49841988D02*
X77458978Y-51189200D01*
X77458978Y-64273022D02*
X76200000Y-65532000D01*
X94684012Y-49841988D02*
X78806190Y-49841988D01*
%TO.N,/a8*%
X84650580Y-58801000D02*
X86301580Y-57150000D01*
X80321004Y-58801000D02*
X84650580Y-58801000D01*
X80321004Y-58801001D02*
X80899000Y-58801001D01*
X76200000Y-70612000D02*
X78867000Y-67945000D01*
X78867000Y-67945000D02*
X78867000Y-60255004D01*
X78867000Y-60255004D02*
X80321004Y-58801001D01*
%TO.N,/b15*%
X93218000Y-57150000D02*
X93921580Y-57150000D01*
X88842011Y-61525989D02*
X93218000Y-57150000D01*
X79317010Y-70034990D02*
X79317010Y-64700990D01*
X82492011Y-61525989D02*
X88842011Y-61525989D01*
X79317010Y-64700990D02*
X82492011Y-61525989D01*
X76200000Y-73152000D02*
X79317010Y-70034990D01*
%TO.N,/b14*%
X96461580Y-57150000D02*
X94937580Y-58674000D01*
X79813989Y-72078011D02*
X76200000Y-75692000D01*
X79813989Y-64840421D02*
X79813989Y-72078011D01*
X82678410Y-61976000D02*
X79813989Y-64840421D01*
X89028411Y-61976000D02*
X82678410Y-61976000D01*
X92330410Y-58674000D02*
X89028411Y-61976000D01*
X94937580Y-58674000D02*
X92330410Y-58674000D01*
%TO.N,3V3*%
X98037022Y-87382978D02*
X99695000Y-85725000D01*
X82937978Y-87382978D02*
X98037022Y-87382978D01*
X82365046Y-87382978D02*
X82937978Y-87382978D01*
X101346000Y-73660000D02*
X99695000Y-72009000D01*
X101346000Y-84074000D02*
X101346000Y-73660000D01*
X99695000Y-85725000D02*
X101346000Y-84074000D01*
X68709879Y-82949400D02*
X73260600Y-87500121D01*
X73260600Y-87500121D02*
X79137989Y-87500121D01*
X60960000Y-75692000D02*
X67307180Y-75692000D01*
X79137989Y-87500121D02*
X79255132Y-87382978D01*
X67307180Y-75692000D02*
X68709879Y-77094699D01*
X68709879Y-77094699D02*
X68709879Y-82949400D01*
X79255132Y-87382978D02*
X82937978Y-87382978D01*
X56007000Y-70739000D02*
X60960000Y-75692000D01*
X56007000Y-50546000D02*
X56007000Y-70739000D01*
X78486000Y-32512000D02*
X76200000Y-32512000D01*
X88461011Y-42487011D02*
X78486000Y-32512000D01*
X91880400Y-42487011D02*
X88461011Y-42487011D01*
X96902411Y-37465000D02*
X91880400Y-42487011D01*
X103251000Y-37465000D02*
X96902411Y-37465000D01*
D27*
%TO.N,5V*%
X53356010Y-33083990D02*
X53340000Y-33100000D01*
X101499001Y-55599999D02*
X101600000Y-55499000D01*
X82804000Y-69509000D02*
X85892000Y-69509000D01*
X88392000Y-72009000D02*
X91313000Y-72009000D01*
X85892000Y-69509000D02*
X88392000Y-72009000D01*
X101600000Y-59055000D02*
X101600000Y-55499000D01*
X102870000Y-62865000D02*
X101727000Y-61722000D01*
X102870000Y-86360000D02*
X102870000Y-62865000D01*
X101727000Y-87503000D02*
X102870000Y-86360000D01*
X101022011Y-88207989D02*
X101727000Y-87503000D01*
X96196011Y-88207989D02*
X101022011Y-88207989D01*
X51117990Y-35322010D02*
X53340000Y-33100000D01*
X52752980Y-77296000D02*
X51117990Y-78930990D01*
X53340000Y-77296000D02*
X52752980Y-77296000D01*
X101600000Y-54804919D02*
X101600000Y-55499000D01*
X101600000Y-51435000D02*
X101600000Y-54804919D01*
X103378000Y-49657000D02*
X101600000Y-51435000D01*
X90391581Y-55599999D02*
X88841580Y-57150000D01*
X101600000Y-59055000D02*
X100560260Y-59055000D01*
X97105259Y-55599999D02*
X90391581Y-55599999D01*
X101600000Y-61595000D02*
X102870000Y-62865000D01*
X101600000Y-59055000D02*
X101600000Y-61595000D01*
X59436000Y-84455000D02*
X62103000Y-87122000D01*
X52070000Y-84455000D02*
X59436000Y-84455000D01*
X51117990Y-83502990D02*
X52070000Y-84455000D01*
X51117990Y-78930990D02*
X51117990Y-83502990D01*
X84836000Y-59904998D02*
X84836000Y-60325000D01*
X85965999Y-58774999D02*
X84836000Y-59904998D01*
X87216581Y-58774999D02*
X85965999Y-58774999D01*
X88841580Y-57150000D02*
X87216581Y-58774999D01*
X100560260Y-59055000D02*
X97105259Y-55599999D01*
X61722000Y-30861000D02*
X62865000Y-32004000D01*
X55954998Y-30861000D02*
X61722000Y-30861000D01*
X53715998Y-33100000D02*
X55954998Y-30861000D01*
X53340000Y-33100000D02*
X53715998Y-33100000D01*
X101219000Y-61976000D02*
X101600000Y-61595000D01*
X95698919Y-61976000D02*
X101219000Y-61976000D01*
X95250000Y-61527081D02*
X95698919Y-61976000D01*
X95250000Y-60325000D02*
X95250000Y-61527081D01*
X103505000Y-86995000D02*
X102870000Y-86360000D01*
X103505000Y-90424000D02*
X103505000Y-86995000D01*
X98044000Y-88392000D02*
X98044000Y-90487500D01*
X82778936Y-88207989D02*
X97987967Y-88207989D01*
X97987967Y-88207989D02*
X98107989Y-88328011D01*
X80825804Y-90161121D02*
X82778936Y-88207989D01*
X98107989Y-88328011D02*
X98044000Y-88392000D01*
X75573879Y-90161121D02*
X80825804Y-90161121D01*
X73533000Y-92202000D02*
X75573879Y-90161121D01*
X67183000Y-92202000D02*
X73533000Y-92202000D01*
X62103000Y-87122000D02*
X67183000Y-92202000D01*
X52641990Y-60896010D02*
X53340000Y-60198000D01*
X51117990Y-60896010D02*
X52641990Y-60896010D01*
X51117990Y-60896010D02*
X51117990Y-35322010D01*
X52133010Y-72453990D02*
X53340000Y-71247000D01*
X51117990Y-72453990D02*
X52133010Y-72453990D01*
X51117990Y-78930990D02*
X51117990Y-72453990D01*
X51117990Y-72453990D02*
X51117990Y-60896010D01*
X62865000Y-35687000D02*
X64770000Y-37592000D01*
X62865000Y-35052000D02*
X62865000Y-35687000D01*
X62865000Y-32004000D02*
X62865000Y-35052000D01*
X66357011Y-35369989D02*
X73977989Y-35369989D01*
X73977989Y-35369989D02*
X76200000Y-37592000D01*
X64770000Y-36957000D02*
X66357011Y-35369989D01*
X64770000Y-37592000D02*
X64770000Y-36957000D01*
%TO.N,/VCC-IN*%
X94742000Y-89662000D02*
X95504000Y-90424000D01*
X86741000Y-89662000D02*
X94742000Y-89662000D01*
X81223490Y-91460506D02*
X81223490Y-91941010D01*
X81223490Y-91941010D02*
X80073500Y-93091000D01*
X83021996Y-89662000D02*
X81223490Y-91460506D01*
X86741000Y-89662000D02*
X83021996Y-89662000D01*
X86741000Y-92329000D02*
X86614000Y-92456000D01*
X86741000Y-89662000D02*
X86741000Y-92329000D01*
%TD*%
M02*
