%TF.GenerationSoftware,KiCad,Pcbnew,5.1.9*%
%TF.CreationDate,2021-02-07T12:30:24+01:00*%
%TF.ProjectId,test_pcb,74657374-5f70-4636-922e-6b696361645f,rev?*%
%TF.SameCoordinates,Original*%
%TF.FileFunction,Soldermask,Top*%
%TF.FilePolarity,Negative*%
%FSLAX46Y46*%
G04 Gerber Fmt 4.6, Leading zero omitted, Abs format (unit mm)*
G04 Created by KiCad (PCBNEW 5.1.9) date 2021-02-07 12:30:24*
%MOMM*%
%LPD*%
G01*
G04 APERTURE LIST*
%ADD10C,3.300000*%
%ADD11O,1.800000X1.800000*%
%ADD12O,2.050000X1.800000*%
%ADD13C,6.500000*%
%ADD14C,0.900000*%
%ADD15C,1.800000*%
%ADD16O,1.600000X2.600000*%
%ADD17O,2.300000X3.600000*%
%ADD18C,1.700000*%
%ADD19C,3.100000*%
%ADD20O,0.950000X1.950000*%
%ADD21C,0.940000*%
G04 APERTURE END LIST*
D10*
%TO.C,H6*%
X90110000Y-39900000D03*
%TD*%
%TO.C,J1*%
G36*
G01*
X65620000Y-38492000D02*
X63920000Y-38492000D01*
G75*
G02*
X63870000Y-38442000I0J50000D01*
G01*
X63870000Y-36742000D01*
G75*
G02*
X63920000Y-36692000I50000J0D01*
G01*
X65620000Y-36692000D01*
G75*
G02*
X65670000Y-36742000I0J-50000D01*
G01*
X65670000Y-38442000D01*
G75*
G02*
X65620000Y-38492000I-50000J0D01*
G01*
G37*
D11*
X67310000Y-37592000D03*
X69850000Y-37592000D03*
X72390000Y-37592000D03*
%TD*%
%TO.C,J5*%
X100965000Y-90043000D03*
G36*
G01*
X102655000Y-89143000D02*
X104355000Y-89143000D01*
G75*
G02*
X104405000Y-89193000I0J-50000D01*
G01*
X104405000Y-90893000D01*
G75*
G02*
X104355000Y-90943000I-50000J0D01*
G01*
X102655000Y-90943000D01*
G75*
G02*
X102605000Y-90893000I0J50000D01*
G01*
X102605000Y-89193000D01*
G75*
G02*
X102655000Y-89143000I50000J0D01*
G01*
G37*
%TD*%
%TO.C,J4*%
X103251000Y-40005000D03*
G36*
G01*
X102351000Y-38315000D02*
X102351000Y-36615000D01*
G75*
G02*
X102401000Y-36565000I50000J0D01*
G01*
X104101000Y-36565000D01*
G75*
G02*
X104151000Y-36615000I0J-50000D01*
G01*
X104151000Y-38315000D01*
G75*
G02*
X104101000Y-38365000I-50000J0D01*
G01*
X102401000Y-38365000D01*
G75*
G02*
X102351000Y-38315000I0J50000D01*
G01*
G37*
%TD*%
%TO.C,J2*%
X98044000Y-90043000D03*
G36*
G01*
X96354000Y-90943000D02*
X94654000Y-90943000D01*
G75*
G02*
X94604000Y-90893000I0J50000D01*
G01*
X94604000Y-89193000D01*
G75*
G02*
X94654000Y-89143000I50000J0D01*
G01*
X96354000Y-89143000D01*
G75*
G02*
X96404000Y-89193000I0J-50000D01*
G01*
X96404000Y-90893000D01*
G75*
G02*
X96354000Y-90943000I-50000J0D01*
G01*
G37*
%TD*%
%TO.C,J3*%
X103251000Y-34290000D03*
G36*
G01*
X102351000Y-32600000D02*
X102351000Y-30900000D01*
G75*
G02*
X102401000Y-30850000I50000J0D01*
G01*
X104101000Y-30850000D01*
G75*
G02*
X104151000Y-30900000I0J-50000D01*
G01*
X104151000Y-32600000D01*
G75*
G02*
X104101000Y-32650000I-50000J0D01*
G01*
X102401000Y-32650000D01*
G75*
G02*
X102351000Y-32600000I0J50000D01*
G01*
G37*
%TD*%
%TO.C,J7*%
G36*
G01*
X96940000Y-59425000D02*
X98640000Y-59425000D01*
G75*
G02*
X98690000Y-59475000I0J-50000D01*
G01*
X98690000Y-61175000D01*
G75*
G02*
X98640000Y-61225000I-50000J0D01*
G01*
X96940000Y-61225000D01*
G75*
G02*
X96890000Y-61175000I0J50000D01*
G01*
X96890000Y-59475000D01*
G75*
G02*
X96940000Y-59425000I50000J0D01*
G01*
G37*
X95250000Y-60325000D03*
X92710000Y-60325000D03*
%TD*%
D12*
%TO.C,J20*%
X53340000Y-55198000D03*
X53340000Y-57698000D03*
G36*
G01*
X54100295Y-61098000D02*
X52579705Y-61098000D01*
G75*
G02*
X52315000Y-60833295I0J264705D01*
G01*
X52315000Y-59562705D01*
G75*
G02*
X52579705Y-59298000I264705J0D01*
G01*
X54100295Y-59298000D01*
G75*
G02*
X54365000Y-59562705I0J-264705D01*
G01*
X54365000Y-60833295D01*
G75*
G02*
X54100295Y-61098000I-264705J0D01*
G01*
G37*
%TD*%
%TO.C,J9*%
G36*
G01*
X102478000Y-45427000D02*
X102478000Y-43727000D01*
G75*
G02*
X102528000Y-43677000I50000J0D01*
G01*
X104228000Y-43677000D01*
G75*
G02*
X104278000Y-43727000I0J-50000D01*
G01*
X104278000Y-45427000D01*
G75*
G02*
X104228000Y-45477000I-50000J0D01*
G01*
X102528000Y-45477000D01*
G75*
G02*
X102478000Y-45427000I0J50000D01*
G01*
G37*
D11*
X103378000Y-47117000D03*
X103378000Y-49657000D03*
X103378000Y-52197000D03*
X103378000Y-54737000D03*
X103378000Y-57277000D03*
%TD*%
%TO.C,J19*%
G36*
G01*
X83564295Y-86498000D02*
X82043705Y-86498000D01*
G75*
G02*
X81779000Y-86233295I0J264705D01*
G01*
X81779000Y-84962705D01*
G75*
G02*
X82043705Y-84698000I264705J0D01*
G01*
X83564295Y-84698000D01*
G75*
G02*
X83829000Y-84962705I0J-264705D01*
G01*
X83829000Y-86233295D01*
G75*
G02*
X83564295Y-86498000I-264705J0D01*
G01*
G37*
D12*
X82804000Y-83098000D03*
X82804000Y-80598000D03*
X82804000Y-78098000D03*
%TD*%
D13*
%TO.C,H3*%
X53238400Y-91744800D03*
D14*
X55638400Y-91744800D03*
X54935456Y-93441856D03*
X53238400Y-94144800D03*
X51541344Y-93441856D03*
X50838400Y-91744800D03*
X51541344Y-90047744D03*
X53238400Y-89344800D03*
X54935456Y-90047744D03*
%TD*%
D10*
%TO.C,H2*%
X81200000Y-52900000D03*
%TD*%
%TO.C,H5*%
X99000000Y-52900000D03*
%TD*%
D11*
%TO.C,J10*%
X60960000Y-80772000D03*
X60960000Y-78232000D03*
X60960000Y-75692000D03*
X60960000Y-73152000D03*
X60960000Y-70612000D03*
X60960000Y-68072000D03*
X60960000Y-65532000D03*
X60960000Y-62992000D03*
X60960000Y-60452000D03*
X60960000Y-57912000D03*
X60960000Y-55372000D03*
X60960000Y-52832000D03*
X60960000Y-50292000D03*
X60960000Y-47752000D03*
X60960000Y-45212000D03*
X60960000Y-42672000D03*
X60960000Y-40132000D03*
X60960000Y-37592000D03*
X60960000Y-35052000D03*
D15*
X60960000Y-32512000D03*
%TD*%
D12*
%TO.C,J24*%
X53340000Y-77296000D03*
X53340000Y-79796000D03*
G36*
G01*
X54100295Y-83196000D02*
X52579705Y-83196000D01*
G75*
G02*
X52315000Y-82931295I0J264705D01*
G01*
X52315000Y-81660705D01*
G75*
G02*
X52579705Y-81396000I264705J0D01*
G01*
X54100295Y-81396000D01*
G75*
G02*
X54365000Y-81660705I0J-264705D01*
G01*
X54365000Y-82931295D01*
G75*
G02*
X54100295Y-83196000I-264705J0D01*
G01*
G37*
%TD*%
D10*
%TO.C,H4*%
X99000000Y-39900000D03*
%TD*%
%TO.C,H1*%
X81200000Y-39900000D03*
%TD*%
D12*
%TO.C,J23*%
X53340000Y-33100000D03*
X53340000Y-35600000D03*
G36*
G01*
X54100295Y-39000000D02*
X52579705Y-39000000D01*
G75*
G02*
X52315000Y-38735295I0J264705D01*
G01*
X52315000Y-37464705D01*
G75*
G02*
X52579705Y-37200000I264705J0D01*
G01*
X54100295Y-37200000D01*
G75*
G02*
X54365000Y-37464705I0J-264705D01*
G01*
X54365000Y-38735295D01*
G75*
G02*
X54100295Y-39000000I-264705J0D01*
G01*
G37*
%TD*%
%TO.C,SW1*%
G36*
G01*
X85814000Y-93706000D02*
X85814000Y-91206000D01*
G75*
G02*
X85864000Y-91156000I50000J0D01*
G01*
X87364000Y-91156000D01*
G75*
G02*
X87414000Y-91206000I0J-50000D01*
G01*
X87414000Y-93706000D01*
G75*
G02*
X87364000Y-93756000I-50000J0D01*
G01*
X85864000Y-93756000D01*
G75*
G02*
X85814000Y-93706000I0J50000D01*
G01*
G37*
D16*
X88614000Y-92456000D03*
X90614000Y-92456000D03*
D17*
X84514000Y-92456000D03*
X92714000Y-92456000D03*
%TD*%
D18*
%TO.C,J12*%
X69103000Y-87122000D03*
X66603000Y-87122000D03*
X64603000Y-87122000D03*
G36*
G01*
X61253000Y-87872000D02*
X61253000Y-86372000D01*
G75*
G02*
X61303000Y-86322000I50000J0D01*
G01*
X62903000Y-86322000D01*
G75*
G02*
X62953000Y-86372000I0J-50000D01*
G01*
X62953000Y-87872000D01*
G75*
G02*
X62903000Y-87922000I-50000J0D01*
G01*
X61303000Y-87922000D01*
G75*
G02*
X61253000Y-87872000I0J50000D01*
G01*
G37*
D19*
X72173000Y-89832000D03*
X59033000Y-89832000D03*
%TD*%
%TO.C,J18*%
G36*
G01*
X83564295Y-72909000D02*
X82043705Y-72909000D01*
G75*
G02*
X81779000Y-72644295I0J264705D01*
G01*
X81779000Y-71373705D01*
G75*
G02*
X82043705Y-71109000I264705J0D01*
G01*
X83564295Y-71109000D01*
G75*
G02*
X83829000Y-71373705I0J-264705D01*
G01*
X83829000Y-72644295D01*
G75*
G02*
X83564295Y-72909000I-264705J0D01*
G01*
G37*
D12*
X82804000Y-69509000D03*
X82804000Y-67009000D03*
X82804000Y-64509000D03*
%TD*%
D20*
%TO.C,J13*%
X75198500Y-92871000D03*
X82348500Y-92871000D03*
D21*
X77473500Y-93091000D03*
X78123500Y-92091000D03*
X78773500Y-93091000D03*
X79423500Y-92091000D03*
G36*
G01*
X80543500Y-92671000D02*
X80543500Y-93511000D01*
G75*
G02*
X80493500Y-93561000I-50000J0D01*
G01*
X79653500Y-93561000D01*
G75*
G02*
X79603500Y-93511000I0J50000D01*
G01*
X79603500Y-92671000D01*
G75*
G02*
X79653500Y-92621000I50000J0D01*
G01*
X80493500Y-92621000D01*
G75*
G02*
X80543500Y-92671000I0J-50000D01*
G01*
G37*
%TD*%
%TO.C,J14*%
G36*
G01*
X92073295Y-72909000D02*
X90552705Y-72909000D01*
G75*
G02*
X90288000Y-72644295I0J264705D01*
G01*
X90288000Y-71373705D01*
G75*
G02*
X90552705Y-71109000I264705J0D01*
G01*
X92073295Y-71109000D01*
G75*
G02*
X92338000Y-71373705I0J-264705D01*
G01*
X92338000Y-72644295D01*
G75*
G02*
X92073295Y-72909000I-264705J0D01*
G01*
G37*
D12*
X91313000Y-69509000D03*
X91313000Y-67009000D03*
X91313000Y-64509000D03*
%TD*%
D11*
%TO.C,J6*%
X82296000Y-60325000D03*
X84836000Y-60325000D03*
G36*
G01*
X86526000Y-59425000D02*
X88226000Y-59425000D01*
G75*
G02*
X88276000Y-59475000I0J-50000D01*
G01*
X88276000Y-61175000D01*
G75*
G02*
X88226000Y-61225000I-50000J0D01*
G01*
X86526000Y-61225000D01*
G75*
G02*
X86476000Y-61175000I0J50000D01*
G01*
X86476000Y-59475000D01*
G75*
G02*
X86526000Y-59425000I50000J0D01*
G01*
G37*
%TD*%
%TO.C,J8*%
G36*
G01*
X84611580Y-58050000D02*
X82911580Y-58050000D01*
G75*
G02*
X82861580Y-58000000I0J50000D01*
G01*
X82861580Y-56300000D01*
G75*
G02*
X82911580Y-56250000I50000J0D01*
G01*
X84611580Y-56250000D01*
G75*
G02*
X84661580Y-56300000I0J-50000D01*
G01*
X84661580Y-58000000D01*
G75*
G02*
X84611580Y-58050000I-50000J0D01*
G01*
G37*
X86301580Y-57150000D03*
X88841580Y-57150000D03*
X91381580Y-57150000D03*
X93921580Y-57150000D03*
X96461580Y-57150000D03*
%TD*%
D12*
%TO.C,J21*%
X53340000Y-66247000D03*
X53340000Y-68747000D03*
G36*
G01*
X54100295Y-72147000D02*
X52579705Y-72147000D01*
G75*
G02*
X52315000Y-71882295I0J264705D01*
G01*
X52315000Y-70611705D01*
G75*
G02*
X52579705Y-70347000I264705J0D01*
G01*
X54100295Y-70347000D01*
G75*
G02*
X54365000Y-70611705I0J-264705D01*
G01*
X54365000Y-71882295D01*
G75*
G02*
X54100295Y-72147000I-264705J0D01*
G01*
G37*
%TD*%
D11*
%TO.C,J11*%
X76200000Y-32512000D03*
X76200000Y-35052000D03*
X76200000Y-37592000D03*
X76200000Y-40132000D03*
X76200000Y-42672000D03*
X76200000Y-45212000D03*
X76200000Y-47752000D03*
X76200000Y-50292000D03*
X76200000Y-52832000D03*
X76200000Y-55372000D03*
X76200000Y-57912000D03*
X76200000Y-60452000D03*
X76200000Y-62992000D03*
X76200000Y-65532000D03*
X76200000Y-68072000D03*
X76200000Y-70612000D03*
X76200000Y-73152000D03*
X76200000Y-75692000D03*
X76200000Y-78232000D03*
D15*
X76200000Y-80772000D03*
%TD*%
%TO.C,J17*%
G36*
G01*
X100455295Y-72909000D02*
X98934705Y-72909000D01*
G75*
G02*
X98670000Y-72644295I0J264705D01*
G01*
X98670000Y-71373705D01*
G75*
G02*
X98934705Y-71109000I264705J0D01*
G01*
X100455295Y-71109000D01*
G75*
G02*
X100720000Y-71373705I0J-264705D01*
G01*
X100720000Y-72644295D01*
G75*
G02*
X100455295Y-72909000I-264705J0D01*
G01*
G37*
D12*
X99695000Y-69509000D03*
X99695000Y-67009000D03*
X99695000Y-64509000D03*
%TD*%
%TO.C,J15*%
G36*
G01*
X92073295Y-86625000D02*
X90552705Y-86625000D01*
G75*
G02*
X90288000Y-86360295I0J264705D01*
G01*
X90288000Y-85089705D01*
G75*
G02*
X90552705Y-84825000I264705J0D01*
G01*
X92073295Y-84825000D01*
G75*
G02*
X92338000Y-85089705I0J-264705D01*
G01*
X92338000Y-86360295D01*
G75*
G02*
X92073295Y-86625000I-264705J0D01*
G01*
G37*
X91313000Y-83225000D03*
X91313000Y-80725000D03*
X91313000Y-78225000D03*
%TD*%
%TO.C,J16*%
G36*
G01*
X100455295Y-86625000D02*
X98934705Y-86625000D01*
G75*
G02*
X98670000Y-86360295I0J264705D01*
G01*
X98670000Y-85089705D01*
G75*
G02*
X98934705Y-84825000I264705J0D01*
G01*
X100455295Y-84825000D01*
G75*
G02*
X100720000Y-85089705I0J-264705D01*
G01*
X100720000Y-86360295D01*
G75*
G02*
X100455295Y-86625000I-264705J0D01*
G01*
G37*
X99695000Y-83225000D03*
X99695000Y-80725000D03*
X99695000Y-78225000D03*
%TD*%
%TO.C,J22*%
X53340000Y-44149000D03*
X53340000Y-46649000D03*
G36*
G01*
X54100295Y-50049000D02*
X52579705Y-50049000D01*
G75*
G02*
X52315000Y-49784295I0J264705D01*
G01*
X52315000Y-48513705D01*
G75*
G02*
X52579705Y-48249000I264705J0D01*
G01*
X54100295Y-48249000D01*
G75*
G02*
X54365000Y-48513705I0J-264705D01*
G01*
X54365000Y-49784295D01*
G75*
G02*
X54100295Y-50049000I-264705J0D01*
G01*
G37*
%TD*%
M02*
