G04 #@! TF.GenerationSoftware,KiCad,Pcbnew,5.1.10*
G04 #@! TF.CreationDate,2021-11-17T11:05:38+01:00*
G04 #@! TF.ProjectId,test_pcb,74657374-5f70-4636-922e-6b696361645f,rev?*
G04 #@! TF.SameCoordinates,Original*
G04 #@! TF.FileFunction,Legend,Top*
G04 #@! TF.FilePolarity,Positive*
%FSLAX46Y46*%
G04 Gerber Fmt 4.6, Leading zero omitted, Abs format (unit mm)*
G04 Created by KiCad (PCBNEW 5.1.10) date 2021-11-17 11:05:38*
%MOMM*%
%LPD*%
G01*
G04 APERTURE LIST*
%ADD10C,0.150000*%
%ADD11C,0.120000*%
%ADD12C,0.400000*%
%ADD13C,0.010000*%
G04 APERTURE END LIST*
D10*
X65056023Y-51967761D02*
X65198880Y-52015380D01*
X65436976Y-52015380D01*
X65532214Y-51967761D01*
X65579833Y-51920142D01*
X65627452Y-51824904D01*
X65627452Y-51729666D01*
X65579833Y-51634428D01*
X65532214Y-51586809D01*
X65436976Y-51539190D01*
X65246500Y-51491571D01*
X65151261Y-51443952D01*
X65103642Y-51396333D01*
X65056023Y-51301095D01*
X65056023Y-51205857D01*
X65103642Y-51110619D01*
X65151261Y-51063000D01*
X65246500Y-51015380D01*
X65484595Y-51015380D01*
X65627452Y-51063000D01*
X65913166Y-51015380D02*
X66484595Y-51015380D01*
X66198880Y-52015380D02*
X66198880Y-51015380D01*
X66817928Y-52015380D02*
X66817928Y-51015380D01*
X67151261Y-51729666D01*
X67484595Y-51015380D01*
X67484595Y-52015380D01*
X67865547Y-51015380D02*
X68484595Y-51015380D01*
X68151261Y-51396333D01*
X68294119Y-51396333D01*
X68389357Y-51443952D01*
X68436976Y-51491571D01*
X68484595Y-51586809D01*
X68484595Y-51824904D01*
X68436976Y-51920142D01*
X68389357Y-51967761D01*
X68294119Y-52015380D01*
X68008404Y-52015380D01*
X67913166Y-51967761D01*
X67865547Y-51920142D01*
X68865547Y-51110619D02*
X68913166Y-51063000D01*
X69008404Y-51015380D01*
X69246500Y-51015380D01*
X69341738Y-51063000D01*
X69389357Y-51110619D01*
X69436976Y-51205857D01*
X69436976Y-51301095D01*
X69389357Y-51443952D01*
X68817928Y-52015380D01*
X69436976Y-52015380D01*
X65484595Y-55315380D02*
X65484595Y-54315380D01*
X66056023Y-55315380D01*
X66056023Y-54315380D01*
X66484595Y-55029666D02*
X66960785Y-55029666D01*
X66389357Y-55315380D02*
X66722690Y-54315380D01*
X67056023Y-55315380D01*
X67389357Y-55315380D02*
X67389357Y-54315380D01*
X67960785Y-55315380D01*
X67960785Y-54315380D01*
X68627452Y-54315380D02*
X68817928Y-54315380D01*
X68913166Y-54363000D01*
X69008404Y-54458238D01*
X69056023Y-54648714D01*
X69056023Y-54982047D01*
X69008404Y-55172523D01*
X68913166Y-55267761D01*
X68817928Y-55315380D01*
X68627452Y-55315380D01*
X68532214Y-55267761D01*
X68436976Y-55172523D01*
X68389357Y-54982047D01*
X68389357Y-54648714D01*
X68436976Y-54458238D01*
X68532214Y-54363000D01*
X68627452Y-54315380D01*
X74112380Y-94233833D02*
X73112380Y-94233833D01*
X73112380Y-93852880D01*
X73160000Y-93757642D01*
X73207619Y-93710023D01*
X73302857Y-93662404D01*
X73445714Y-93662404D01*
X73540952Y-93710023D01*
X73588571Y-93757642D01*
X73636190Y-93852880D01*
X73636190Y-94233833D01*
X73112380Y-93329071D02*
X74112380Y-93090976D01*
X73398095Y-92900500D01*
X74112380Y-92710023D01*
X73112380Y-92471928D01*
X74112380Y-91519547D02*
X73636190Y-91852880D01*
X74112380Y-92090976D02*
X73112380Y-92090976D01*
X73112380Y-91710023D01*
X73160000Y-91614785D01*
X73207619Y-91567166D01*
X73302857Y-91519547D01*
X73445714Y-91519547D01*
X73540952Y-91567166D01*
X73588571Y-91614785D01*
X73636190Y-91710023D01*
X73636190Y-92090976D01*
X99731580Y-38017295D02*
X99731580Y-37398247D01*
X100112533Y-37731580D01*
X100112533Y-37588723D01*
X100160152Y-37493485D01*
X100207771Y-37445866D01*
X100303009Y-37398247D01*
X100541104Y-37398247D01*
X100636342Y-37445866D01*
X100683961Y-37493485D01*
X100731580Y-37588723D01*
X100731580Y-37874438D01*
X100683961Y-37969676D01*
X100636342Y-38017295D01*
X99731580Y-37112533D02*
X100731580Y-36779200D01*
X99731580Y-36445866D01*
X99731580Y-36207771D02*
X99731580Y-35588723D01*
X100112533Y-35922057D01*
X100112533Y-35779200D01*
X100160152Y-35683961D01*
X100207771Y-35636342D01*
X100303009Y-35588723D01*
X100541104Y-35588723D01*
X100636342Y-35636342D01*
X100683961Y-35683961D01*
X100731580Y-35779200D01*
X100731580Y-36064914D01*
X100683961Y-36160152D01*
X100636342Y-36207771D01*
X100680780Y-33408857D02*
X100680780Y-33885047D01*
X99680780Y-33885047D01*
X100156971Y-33075523D02*
X100156971Y-32742190D01*
X100680780Y-32599333D02*
X100680780Y-33075523D01*
X99680780Y-33075523D01*
X99680780Y-32599333D01*
X100680780Y-32170761D02*
X99680780Y-32170761D01*
X99680780Y-31932666D01*
X99728400Y-31789809D01*
X99823638Y-31694571D01*
X99918876Y-31646952D01*
X100109352Y-31599333D01*
X100252209Y-31599333D01*
X100442685Y-31646952D01*
X100537923Y-31694571D01*
X100633161Y-31789809D01*
X100680780Y-31932666D01*
X100680780Y-32170761D01*
D11*
X62293500Y-30543500D02*
X62293500Y-82740500D01*
X59626500Y-43942000D02*
X59626500Y-30543500D01*
X72199500Y-43688000D02*
X72199500Y-82677000D01*
X74930000Y-43688000D02*
X72199500Y-43688000D01*
X74930000Y-82677000D02*
X74930000Y-30480000D01*
X59626500Y-43942000D02*
X59626500Y-82677000D01*
X56896000Y-43688000D02*
X59626500Y-43688000D01*
X70294500Y-53213000D02*
X64198500Y-53213000D01*
D10*
X100457190Y-93178380D02*
X100790523Y-94178380D01*
X101123857Y-93178380D01*
X101647666Y-93178380D02*
X101742904Y-93178380D01*
X101838142Y-93226000D01*
X101885761Y-93273619D01*
X101933380Y-93368857D01*
X101981000Y-93559333D01*
X101981000Y-93797428D01*
X101933380Y-93987904D01*
X101885761Y-94083142D01*
X101838142Y-94130761D01*
X101742904Y-94178380D01*
X101647666Y-94178380D01*
X101552428Y-94130761D01*
X101504809Y-94083142D01*
X101457190Y-93987904D01*
X101409571Y-93797428D01*
X101409571Y-93559333D01*
X101457190Y-93368857D01*
X101504809Y-93273619D01*
X101552428Y-93226000D01*
X101647666Y-93178380D01*
X102409571Y-94083142D02*
X102457190Y-94130761D01*
X102409571Y-94178380D01*
X102361952Y-94130761D01*
X102409571Y-94083142D01*
X102409571Y-94178380D01*
X103314333Y-93511714D02*
X103314333Y-94178380D01*
X103076238Y-93130761D02*
X102838142Y-93845047D01*
X103457190Y-93845047D01*
D12*
X59055000Y-82677000D02*
X56896000Y-82677000D01*
D10*
X100680780Y-49417123D02*
X99680780Y-49417123D01*
X100395066Y-49083790D01*
X99680780Y-48750457D01*
X100680780Y-48750457D01*
X100585542Y-47702838D02*
X100633161Y-47750457D01*
X100680780Y-47893314D01*
X100680780Y-47988552D01*
X100633161Y-48131409D01*
X100537923Y-48226647D01*
X100442685Y-48274266D01*
X100252209Y-48321885D01*
X100109352Y-48321885D01*
X99918876Y-48274266D01*
X99823638Y-48226647D01*
X99728400Y-48131409D01*
X99680780Y-47988552D01*
X99680780Y-47893314D01*
X99728400Y-47750457D01*
X99776019Y-47702838D01*
X99776019Y-47321885D02*
X99728400Y-47274266D01*
X99680780Y-47179028D01*
X99680780Y-46940933D01*
X99728400Y-46845695D01*
X99776019Y-46798076D01*
X99871257Y-46750457D01*
X99966495Y-46750457D01*
X100109352Y-46798076D01*
X100680780Y-47369504D01*
X100680780Y-46750457D01*
D11*
X99374000Y-94742000D02*
X94174000Y-94742000D01*
X99374000Y-93024000D02*
X99374000Y-94742000D01*
X94174000Y-93024000D02*
X94174000Y-94742000D01*
D12*
X101200000Y-30500000D02*
X101200000Y-58500000D01*
X79000000Y-30500000D02*
X101200000Y-30500000D01*
D10*
X81364580Y-48569333D02*
X80364580Y-48569333D01*
X81078866Y-48236000D01*
X80364580Y-47902666D01*
X81364580Y-47902666D01*
X81364580Y-47283619D02*
X81316961Y-47378857D01*
X81269342Y-47426476D01*
X81174104Y-47474095D01*
X80888390Y-47474095D01*
X80793152Y-47426476D01*
X80745533Y-47378857D01*
X80697914Y-47283619D01*
X80697914Y-47140761D01*
X80745533Y-47045523D01*
X80793152Y-46997904D01*
X80888390Y-46950285D01*
X81174104Y-46950285D01*
X81269342Y-46997904D01*
X81316961Y-47045523D01*
X81364580Y-47140761D01*
X81364580Y-47283619D01*
X80697914Y-46664571D02*
X80697914Y-46283619D01*
X80364580Y-46521714D02*
X81221723Y-46521714D01*
X81316961Y-46474095D01*
X81364580Y-46378857D01*
X81364580Y-46283619D01*
X81364580Y-45807428D02*
X81316961Y-45902666D01*
X81269342Y-45950285D01*
X81174104Y-45997904D01*
X80888390Y-45997904D01*
X80793152Y-45950285D01*
X80745533Y-45902666D01*
X80697914Y-45807428D01*
X80697914Y-45664571D01*
X80745533Y-45569333D01*
X80793152Y-45521714D01*
X80888390Y-45474095D01*
X81174104Y-45474095D01*
X81269342Y-45521714D01*
X81316961Y-45569333D01*
X81364580Y-45664571D01*
X81364580Y-45807428D01*
X81364580Y-45045523D02*
X80697914Y-45045523D01*
X80888390Y-45045523D02*
X80793152Y-44997904D01*
X80745533Y-44950285D01*
X80697914Y-44855047D01*
X80697914Y-44759809D01*
X82966961Y-50569333D02*
X83014580Y-50664571D01*
X83014580Y-50855047D01*
X82966961Y-50950285D01*
X82919342Y-50997904D01*
X82824104Y-51045523D01*
X82538390Y-51045523D01*
X82443152Y-50997904D01*
X82395533Y-50950285D01*
X82347914Y-50855047D01*
X82347914Y-50664571D01*
X82395533Y-50569333D01*
X83014580Y-49997904D02*
X82966961Y-50093142D01*
X82919342Y-50140761D01*
X82824104Y-50188380D01*
X82538390Y-50188380D01*
X82443152Y-50140761D01*
X82395533Y-50093142D01*
X82347914Y-49997904D01*
X82347914Y-49855047D01*
X82395533Y-49759809D01*
X82443152Y-49712190D01*
X82538390Y-49664571D01*
X82824104Y-49664571D01*
X82919342Y-49712190D01*
X82966961Y-49759809D01*
X83014580Y-49855047D01*
X83014580Y-49997904D01*
X82347914Y-49236000D02*
X83014580Y-49236000D01*
X82443152Y-49236000D02*
X82395533Y-49188380D01*
X82347914Y-49093142D01*
X82347914Y-48950285D01*
X82395533Y-48855047D01*
X82490771Y-48807428D01*
X83014580Y-48807428D01*
X82347914Y-48474095D02*
X82347914Y-48093142D01*
X82014580Y-48331238D02*
X82871723Y-48331238D01*
X82966961Y-48283619D01*
X83014580Y-48188380D01*
X83014580Y-48093142D01*
X83014580Y-47759809D02*
X82347914Y-47759809D01*
X82538390Y-47759809D02*
X82443152Y-47712190D01*
X82395533Y-47664571D01*
X82347914Y-47569333D01*
X82347914Y-47474095D01*
X83014580Y-46997904D02*
X82966961Y-47093142D01*
X82919342Y-47140761D01*
X82824104Y-47188380D01*
X82538390Y-47188380D01*
X82443152Y-47140761D01*
X82395533Y-47093142D01*
X82347914Y-46997904D01*
X82347914Y-46855047D01*
X82395533Y-46759809D01*
X82443152Y-46712190D01*
X82538390Y-46664571D01*
X82824104Y-46664571D01*
X82919342Y-46712190D01*
X82966961Y-46759809D01*
X83014580Y-46855047D01*
X83014580Y-46997904D01*
X83014580Y-46093142D02*
X82966961Y-46188380D01*
X82871723Y-46236000D01*
X82014580Y-46236000D01*
X83014580Y-45569333D02*
X82966961Y-45664571D01*
X82871723Y-45712190D01*
X82014580Y-45712190D01*
X82966961Y-44807428D02*
X83014580Y-44902666D01*
X83014580Y-45093142D01*
X82966961Y-45188380D01*
X82871723Y-45236000D01*
X82490771Y-45236000D01*
X82395533Y-45188380D01*
X82347914Y-45093142D01*
X82347914Y-44902666D01*
X82395533Y-44807428D01*
X82490771Y-44759809D01*
X82586009Y-44759809D01*
X82681247Y-45236000D01*
X83014580Y-44331238D02*
X82347914Y-44331238D01*
X82538390Y-44331238D02*
X82443152Y-44283619D01*
X82395533Y-44236000D01*
X82347914Y-44140761D01*
X82347914Y-44045523D01*
X83014580Y-42426476D02*
X83014580Y-42997904D01*
X83014580Y-42712190D02*
X82014580Y-42712190D01*
X82157438Y-42807428D01*
X82252676Y-42902666D01*
X82300295Y-42997904D01*
D12*
X79000000Y-58500000D02*
X101200000Y-58500000D01*
X79000000Y-30500000D02*
X79000000Y-58500000D01*
D11*
X71628000Y-82550000D02*
X71628000Y-82677000D01*
X70307200Y-79654400D02*
X70307200Y-82702400D01*
X64211200Y-79654400D02*
X70307200Y-79654400D01*
X64211200Y-82702400D02*
X64211200Y-79654400D01*
X68262500Y-56261000D02*
X68262500Y-57023000D01*
X66230500Y-56261000D02*
X66230500Y-57023000D01*
X68770500Y-56261000D02*
X68770500Y-57023000D01*
X65214500Y-56261000D02*
X65214500Y-57023000D01*
X64706500Y-56261000D02*
X64706500Y-57023000D01*
X65722500Y-56261000D02*
X65722500Y-57023000D01*
X66738500Y-56261000D02*
X66738500Y-57023000D01*
X70294500Y-56261000D02*
X64198500Y-56261000D01*
X69786500Y-56261000D02*
X69786500Y-57023000D01*
X69278500Y-56261000D02*
X69278500Y-57023000D01*
X67246500Y-56261000D02*
X67246500Y-57023000D01*
X67754500Y-56261000D02*
X67754500Y-57023000D01*
X64198500Y-54229000D02*
X63436500Y-54229000D01*
X64198500Y-52197000D02*
X63436500Y-52197000D01*
X64198500Y-54737000D02*
X63436500Y-54737000D01*
X64198500Y-51181000D02*
X63436500Y-51181000D01*
X64198500Y-50673000D02*
X63436500Y-50673000D01*
X64198500Y-51689000D02*
X63436500Y-51689000D01*
X64198500Y-52705000D02*
X63436500Y-52705000D01*
X64198500Y-56261000D02*
X64198500Y-50165000D01*
X64198500Y-55753000D02*
X63436500Y-55753000D01*
X64198500Y-55245000D02*
X63436500Y-55245000D01*
X64198500Y-53213000D02*
X63436500Y-53213000D01*
X64198500Y-53721000D02*
X63436500Y-53721000D01*
X70294500Y-52197000D02*
X71056500Y-52197000D01*
X70294500Y-54229000D02*
X71056500Y-54229000D01*
X70294500Y-51689000D02*
X71056500Y-51689000D01*
X70294500Y-55245000D02*
X71056500Y-55245000D01*
X70294500Y-55753000D02*
X71056500Y-55753000D01*
X70294500Y-54737000D02*
X71056500Y-54737000D01*
X70294500Y-53721000D02*
X71056500Y-53721000D01*
X70294500Y-50165000D02*
X70294500Y-56261000D01*
X70294500Y-50673000D02*
X71056500Y-50673000D01*
X70294500Y-51181000D02*
X71056500Y-51181000D01*
X70294500Y-53213000D02*
X71056500Y-53213000D01*
X70294500Y-52705000D02*
X71056500Y-52705000D01*
X64198500Y-50165000D02*
X70294500Y-50165000D01*
X69786500Y-50165000D02*
X69786500Y-49403000D01*
X69278500Y-50165000D02*
X69278500Y-49403000D01*
X68770500Y-50165000D02*
X68770500Y-49403000D01*
X68262500Y-50165000D02*
X68262500Y-49403000D01*
X67754500Y-50165000D02*
X67754500Y-49403000D01*
X67246500Y-50165000D02*
X67246500Y-49403000D01*
X66738500Y-50165000D02*
X66738500Y-49403000D01*
X66230500Y-50165000D02*
X66230500Y-49403000D01*
X65722500Y-50165000D02*
X65722500Y-49403000D01*
X65214500Y-50165000D02*
X65214500Y-49403000D01*
X64706500Y-50165000D02*
X64706500Y-49403000D01*
D12*
X56896000Y-82550000D02*
X56896000Y-30500000D01*
X77660500Y-82677000D02*
X59055000Y-82677000D01*
X77660500Y-30480000D02*
X77660500Y-82677000D01*
X56896000Y-30480000D02*
X77660500Y-30480000D01*
D10*
X65997295Y-80579980D02*
X65997295Y-81389504D01*
X66044914Y-81484742D01*
X66092533Y-81532361D01*
X66187771Y-81579980D01*
X66378247Y-81579980D01*
X66473485Y-81532361D01*
X66521104Y-81484742D01*
X66568723Y-81389504D01*
X66568723Y-80579980D01*
X66997295Y-81532361D02*
X67140152Y-81579980D01*
X67378247Y-81579980D01*
X67473485Y-81532361D01*
X67521104Y-81484742D01*
X67568723Y-81389504D01*
X67568723Y-81294266D01*
X67521104Y-81199028D01*
X67473485Y-81151409D01*
X67378247Y-81103790D01*
X67187771Y-81056171D01*
X67092533Y-81008552D01*
X67044914Y-80960933D01*
X66997295Y-80865695D01*
X66997295Y-80770457D01*
X67044914Y-80675219D01*
X67092533Y-80627600D01*
X67187771Y-80579980D01*
X67425866Y-80579980D01*
X67568723Y-80627600D01*
X68330628Y-81056171D02*
X68473485Y-81103790D01*
X68521104Y-81151409D01*
X68568723Y-81246647D01*
X68568723Y-81389504D01*
X68521104Y-81484742D01*
X68473485Y-81532361D01*
X68378247Y-81579980D01*
X67997295Y-81579980D01*
X67997295Y-80579980D01*
X68330628Y-80579980D01*
X68425866Y-80627600D01*
X68473485Y-80675219D01*
X68521104Y-80770457D01*
X68521104Y-80865695D01*
X68473485Y-80960933D01*
X68425866Y-81008552D01*
X68330628Y-81056171D01*
X67997295Y-81056171D01*
G04 #@! TO.C,J13*
X82669500Y-93996000D02*
X82669500Y-94471000D01*
X82669500Y-94471000D02*
X74369500Y-94471000D01*
X74369500Y-94471000D02*
X74369500Y-93996000D01*
X82669500Y-91746000D02*
X82669500Y-91271000D01*
X82669500Y-91271000D02*
X74369500Y-91271000D01*
X74369500Y-91271000D02*
X74369500Y-91746000D01*
X80819500Y-94771000D02*
X78819500Y-94771000D01*
D11*
G04 #@! TO.C,J8*
X85031580Y-58480000D02*
X85031580Y-55820000D01*
X85031580Y-58480000D02*
X97791580Y-58480000D01*
X97791580Y-58480000D02*
X97791580Y-55820000D01*
X85031580Y-55820000D02*
X97791580Y-55820000D01*
X82431580Y-55820000D02*
X83761580Y-55820000D01*
X82431580Y-57150000D02*
X82431580Y-55820000D01*
G04 #@! TO.C,J1*
X72039200Y-41927200D02*
X72339200Y-41327200D01*
X72639200Y-41927200D02*
X72039200Y-41927200D01*
X72339200Y-41327200D02*
X72639200Y-41927200D01*
X64589200Y-36627200D02*
X65089200Y-36627200D01*
X64589200Y-31127200D02*
X64589200Y-36627200D01*
X65089200Y-31127200D02*
X64589200Y-31127200D01*
X65089200Y-36627200D02*
X65089200Y-31127200D01*
X67089200Y-36627200D02*
X67589200Y-36627200D01*
X67089200Y-31127200D02*
X67089200Y-36627200D01*
X67589200Y-31127200D02*
X67089200Y-31127200D01*
X67589200Y-36627200D02*
X67589200Y-31127200D01*
X69589200Y-36627200D02*
X70089200Y-36627200D01*
X69589200Y-31127200D02*
X69589200Y-36627200D01*
X70089200Y-31127200D02*
X69589200Y-31127200D01*
X70089200Y-36627200D02*
X70089200Y-31127200D01*
X72089200Y-36627200D02*
X72589200Y-36627200D01*
X72089200Y-31127200D02*
X72089200Y-36627200D01*
X72589200Y-31127200D02*
X72089200Y-31127200D01*
X72589200Y-36627200D02*
X72589200Y-31127200D01*
X63699200Y-37737200D02*
X68589200Y-37737200D01*
X63699200Y-42237200D02*
X63699200Y-37737200D01*
X62279200Y-42237200D02*
X63699200Y-42237200D01*
X62279200Y-30517200D02*
X62279200Y-42237200D01*
X68589200Y-30517200D02*
X62279200Y-30517200D01*
X73479200Y-37737200D02*
X68589200Y-37737200D01*
X73479200Y-42237200D02*
X73479200Y-37737200D01*
X74899200Y-42237200D02*
X73479200Y-42237200D01*
X74899200Y-30517200D02*
X74899200Y-42237200D01*
X68589200Y-30517200D02*
X74899200Y-30517200D01*
G04 #@! TO.C,J3*
X101921000Y-33020000D02*
X104581000Y-33020000D01*
X101921000Y-33020000D02*
X101921000Y-35620000D01*
X101921000Y-35620000D02*
X104581000Y-35620000D01*
X104581000Y-33020000D02*
X104581000Y-35620000D01*
X104581000Y-30420000D02*
X104581000Y-31750000D01*
X103251000Y-30420000D02*
X104581000Y-30420000D01*
D13*
G04 #@! TO.C,G\u002A\u002A\u002A*
G36*
X101300627Y-89552930D02*
G01*
X101332004Y-89589057D01*
X101352291Y-89642414D01*
X101358700Y-89703779D01*
X101351239Y-89772349D01*
X101330798Y-89834705D01*
X101300292Y-89887839D01*
X101262633Y-89928747D01*
X101220735Y-89954422D01*
X101177512Y-89961857D01*
X101135876Y-89948046D01*
X101127643Y-89942193D01*
X101092362Y-89899295D01*
X101073250Y-89842772D01*
X101069709Y-89778082D01*
X101081142Y-89710681D01*
X101106951Y-89646023D01*
X101146538Y-89589565D01*
X101168617Y-89568347D01*
X101216068Y-89540533D01*
X101261026Y-89536075D01*
X101300627Y-89552930D01*
G37*
X101300627Y-89552930D02*
X101332004Y-89589057D01*
X101352291Y-89642414D01*
X101358700Y-89703779D01*
X101351239Y-89772349D01*
X101330798Y-89834705D01*
X101300292Y-89887839D01*
X101262633Y-89928747D01*
X101220735Y-89954422D01*
X101177512Y-89961857D01*
X101135876Y-89948046D01*
X101127643Y-89942193D01*
X101092362Y-89899295D01*
X101073250Y-89842772D01*
X101069709Y-89778082D01*
X101081142Y-89710681D01*
X101106951Y-89646023D01*
X101146538Y-89589565D01*
X101168617Y-89568347D01*
X101216068Y-89540533D01*
X101261026Y-89536075D01*
X101300627Y-89552930D01*
G36*
X102344788Y-89619543D02*
G01*
X102377507Y-89659060D01*
X102382125Y-89668964D01*
X102397983Y-89737297D01*
X102394426Y-89812199D01*
X102373113Y-89886063D01*
X102335703Y-89951281D01*
X102315534Y-89974318D01*
X102268214Y-90008008D01*
X102219097Y-90018171D01*
X102171636Y-90004263D01*
X102162597Y-89998510D01*
X102132134Y-89962706D01*
X102114984Y-89911423D01*
X102110501Y-89850403D01*
X102118039Y-89785386D01*
X102136952Y-89722114D01*
X102166595Y-89666329D01*
X102204608Y-89625100D01*
X102252466Y-89601112D01*
X102301150Y-89599744D01*
X102344788Y-89619543D01*
G37*
X102344788Y-89619543D02*
X102377507Y-89659060D01*
X102382125Y-89668964D01*
X102397983Y-89737297D01*
X102394426Y-89812199D01*
X102373113Y-89886063D01*
X102335703Y-89951281D01*
X102315534Y-89974318D01*
X102268214Y-90008008D01*
X102219097Y-90018171D01*
X102171636Y-90004263D01*
X102162597Y-89998510D01*
X102132134Y-89962706D01*
X102114984Y-89911423D01*
X102110501Y-89850403D01*
X102118039Y-89785386D01*
X102136952Y-89722114D01*
X102166595Y-89666329D01*
X102204608Y-89625100D01*
X102252466Y-89601112D01*
X102301150Y-89599744D01*
X102344788Y-89619543D01*
G36*
X101315721Y-92225346D02*
G01*
X101320105Y-92229794D01*
X101342546Y-92264559D01*
X101341128Y-92298992D01*
X101326229Y-92326174D01*
X101300232Y-92345935D01*
X101264372Y-92354698D01*
X101229577Y-92351306D01*
X101209409Y-92338525D01*
X101188929Y-92297515D01*
X101193824Y-92257245D01*
X101206999Y-92235745D01*
X101241368Y-92208103D01*
X101279127Y-92204557D01*
X101315721Y-92225346D01*
G37*
X101315721Y-92225346D02*
X101320105Y-92229794D01*
X101342546Y-92264559D01*
X101341128Y-92298992D01*
X101326229Y-92326174D01*
X101300232Y-92345935D01*
X101264372Y-92354698D01*
X101229577Y-92351306D01*
X101209409Y-92338525D01*
X101188929Y-92297515D01*
X101193824Y-92257245D01*
X101206999Y-92235745D01*
X101241368Y-92208103D01*
X101279127Y-92204557D01*
X101315721Y-92225346D01*
G36*
X103618018Y-91830916D02*
G01*
X103645348Y-91856480D01*
X103654859Y-91891411D01*
X103643739Y-91929430D01*
X103631505Y-91945605D01*
X103595390Y-91969539D01*
X103557526Y-91969106D01*
X103522467Y-91944547D01*
X103518399Y-91939654D01*
X103499634Y-91899897D01*
X103503194Y-91863029D01*
X103526249Y-91834918D01*
X103565967Y-91821427D01*
X103575684Y-91821000D01*
X103618018Y-91830916D01*
G37*
X103618018Y-91830916D02*
X103645348Y-91856480D01*
X103654859Y-91891411D01*
X103643739Y-91929430D01*
X103631505Y-91945605D01*
X103595390Y-91969539D01*
X103557526Y-91969106D01*
X103522467Y-91944547D01*
X103518399Y-91939654D01*
X103499634Y-91899897D01*
X103503194Y-91863029D01*
X103526249Y-91834918D01*
X103565967Y-91821427D01*
X103575684Y-91821000D01*
X103618018Y-91830916D01*
G36*
X103914055Y-92468889D02*
G01*
X103928818Y-92485157D01*
X103945727Y-92511349D01*
X103947211Y-92531082D01*
X103936539Y-92553677D01*
X103905473Y-92588032D01*
X103866279Y-92599743D01*
X103838271Y-92594419D01*
X103811406Y-92575019D01*
X103794791Y-92551254D01*
X103787003Y-92524620D01*
X103794510Y-92500710D01*
X103805789Y-92484208D01*
X103839803Y-92455313D01*
X103877564Y-92450219D01*
X103914055Y-92468889D01*
G37*
X103914055Y-92468889D02*
X103928818Y-92485157D01*
X103945727Y-92511349D01*
X103947211Y-92531082D01*
X103936539Y-92553677D01*
X103905473Y-92588032D01*
X103866279Y-92599743D01*
X103838271Y-92594419D01*
X103811406Y-92575019D01*
X103794791Y-92551254D01*
X103787003Y-92524620D01*
X103794510Y-92500710D01*
X103805789Y-92484208D01*
X103839803Y-92455313D01*
X103877564Y-92450219D01*
X103914055Y-92468889D01*
G36*
X103331272Y-92592015D02*
G01*
X103350882Y-92605089D01*
X103380533Y-92639120D01*
X103387596Y-92677000D01*
X103371470Y-92713254D01*
X103363635Y-92721525D01*
X103328857Y-92744357D01*
X103294759Y-92743546D01*
X103265831Y-92727843D01*
X103243056Y-92698433D01*
X103238379Y-92661168D01*
X103250766Y-92624901D01*
X103279186Y-92598487D01*
X103281032Y-92597573D01*
X103309213Y-92587331D01*
X103331272Y-92592015D01*
G37*
X103331272Y-92592015D02*
X103350882Y-92605089D01*
X103380533Y-92639120D01*
X103387596Y-92677000D01*
X103371470Y-92713254D01*
X103363635Y-92721525D01*
X103328857Y-92744357D01*
X103294759Y-92743546D01*
X103265831Y-92727843D01*
X103243056Y-92698433D01*
X103238379Y-92661168D01*
X103250766Y-92624901D01*
X103279186Y-92598487D01*
X103281032Y-92597573D01*
X103309213Y-92587331D01*
X103331272Y-92592015D01*
G36*
X101295306Y-88440285D02*
G01*
X101305401Y-88463576D01*
X101300853Y-88485238D01*
X101279023Y-88510576D01*
X101247258Y-88535951D01*
X101211510Y-88565088D01*
X101165756Y-88606462D01*
X101117084Y-88653525D01*
X101089253Y-88681953D01*
X101025376Y-88756084D01*
X100970546Y-88836862D01*
X100920841Y-88930748D01*
X100877894Y-89030175D01*
X100858660Y-89058545D01*
X100835024Y-89063028D01*
X100812981Y-89046509D01*
X100805126Y-89029219D01*
X100807367Y-89003064D01*
X100817936Y-88967134D01*
X100864501Y-88859874D01*
X100931523Y-88750496D01*
X101015113Y-88644123D01*
X101111383Y-88545877D01*
X101184153Y-88484746D01*
X101235347Y-88449759D01*
X101272134Y-88434985D01*
X101295306Y-88440285D01*
G37*
X101295306Y-88440285D02*
X101305401Y-88463576D01*
X101300853Y-88485238D01*
X101279023Y-88510576D01*
X101247258Y-88535951D01*
X101211510Y-88565088D01*
X101165756Y-88606462D01*
X101117084Y-88653525D01*
X101089253Y-88681953D01*
X101025376Y-88756084D01*
X100970546Y-88836862D01*
X100920841Y-88930748D01*
X100877894Y-89030175D01*
X100858660Y-89058545D01*
X100835024Y-89063028D01*
X100812981Y-89046509D01*
X100805126Y-89029219D01*
X100807367Y-89003064D01*
X100817936Y-88967134D01*
X100864501Y-88859874D01*
X100931523Y-88750496D01*
X101015113Y-88644123D01*
X101111383Y-88545877D01*
X101184153Y-88484746D01*
X101235347Y-88449759D01*
X101272134Y-88434985D01*
X101295306Y-88440285D01*
G36*
X102675295Y-88564431D02*
G01*
X102725718Y-88599299D01*
X102735119Y-88606682D01*
X102862325Y-88721258D01*
X102965934Y-88844016D01*
X103046706Y-88975933D01*
X103081672Y-89052749D01*
X103101406Y-89108175D01*
X103107484Y-89145238D01*
X103099770Y-89167074D01*
X103078131Y-89176820D01*
X103076368Y-89177092D01*
X103052055Y-89173013D01*
X103035172Y-89148892D01*
X103033700Y-89145342D01*
X102985560Y-89035385D01*
X102935783Y-88943964D01*
X102880285Y-88864331D01*
X102824378Y-88799610D01*
X102777426Y-88751692D01*
X102728902Y-88705470D01*
X102685873Y-88667536D01*
X102665148Y-88651137D01*
X102626941Y-88619891D01*
X102608448Y-88595649D01*
X102605798Y-88577876D01*
X102616377Y-88553952D01*
X102639195Y-88549393D01*
X102675295Y-88564431D01*
G37*
X102675295Y-88564431D02*
X102725718Y-88599299D01*
X102735119Y-88606682D01*
X102862325Y-88721258D01*
X102965934Y-88844016D01*
X103046706Y-88975933D01*
X103081672Y-89052749D01*
X103101406Y-89108175D01*
X103107484Y-89145238D01*
X103099770Y-89167074D01*
X103078131Y-89176820D01*
X103076368Y-89177092D01*
X103052055Y-89173013D01*
X103035172Y-89148892D01*
X103033700Y-89145342D01*
X102985560Y-89035385D01*
X102935783Y-88943964D01*
X102880285Y-88864331D01*
X102824378Y-88799610D01*
X102777426Y-88751692D01*
X102728902Y-88705470D01*
X102685873Y-88667536D01*
X102665148Y-88651137D01*
X102626941Y-88619891D01*
X102608448Y-88595649D01*
X102605798Y-88577876D01*
X102616377Y-88553952D01*
X102639195Y-88549393D01*
X102675295Y-88564431D01*
G36*
X101874851Y-89735025D02*
G01*
X101869488Y-89774822D01*
X101866882Y-89808541D01*
X101866839Y-89811225D01*
X101865004Y-89826180D01*
X101856006Y-89834742D01*
X101834330Y-89838681D01*
X101794460Y-89839766D01*
X101777800Y-89839800D01*
X101733980Y-89838809D01*
X101702228Y-89836204D01*
X101688969Y-89832530D01*
X101688900Y-89832229D01*
X101692182Y-89816792D01*
X101700647Y-89784921D01*
X101708851Y-89756029D01*
X101728802Y-89687400D01*
X101882723Y-89687400D01*
X101874851Y-89735025D01*
G37*
X101874851Y-89735025D02*
X101869488Y-89774822D01*
X101866882Y-89808541D01*
X101866839Y-89811225D01*
X101865004Y-89826180D01*
X101856006Y-89834742D01*
X101834330Y-89838681D01*
X101794460Y-89839766D01*
X101777800Y-89839800D01*
X101733980Y-89838809D01*
X101702228Y-89836204D01*
X101688969Y-89832530D01*
X101688900Y-89832229D01*
X101692182Y-89816792D01*
X101700647Y-89784921D01*
X101708851Y-89756029D01*
X101728802Y-89687400D01*
X101882723Y-89687400D01*
X101874851Y-89735025D01*
G36*
X101532500Y-88732763D02*
G01*
X101594138Y-88762418D01*
X101646765Y-88809159D01*
X101687630Y-88870350D01*
X101717572Y-88948286D01*
X101737433Y-89045264D01*
X101748050Y-89163577D01*
X101748988Y-89185750D01*
X101743571Y-89381222D01*
X101713605Y-89576166D01*
X101659800Y-89767358D01*
X101582863Y-89951572D01*
X101579182Y-89959015D01*
X101543880Y-90028083D01*
X101513783Y-90081151D01*
X101483924Y-90125495D01*
X101449335Y-90168389D01*
X101405046Y-90217106D01*
X101397288Y-90225335D01*
X101322051Y-90293447D01*
X101246800Y-90339471D01*
X101173367Y-90362672D01*
X101103583Y-90362317D01*
X101074693Y-90354576D01*
X101009589Y-90319925D01*
X100956692Y-90265969D01*
X100914969Y-90191271D01*
X100883392Y-90094395D01*
X100881013Y-90084545D01*
X100869806Y-90012442D01*
X100864685Y-89922476D01*
X100865363Y-89821374D01*
X100867487Y-89785165D01*
X100982607Y-89785165D01*
X100983018Y-89911235D01*
X100989075Y-89970748D01*
X101008978Y-90070172D01*
X101037222Y-90147931D01*
X101073156Y-90203435D01*
X101116126Y-90236090D01*
X101165482Y-90245306D01*
X101220570Y-90230488D01*
X101253973Y-90211275D01*
X101322698Y-90151786D01*
X101389124Y-90068658D01*
X101451911Y-89963633D01*
X101466443Y-89935050D01*
X101543544Y-89753487D01*
X101595948Y-89570742D01*
X101624311Y-89384072D01*
X101630211Y-89249250D01*
X101626818Y-89142267D01*
X101615629Y-89055289D01*
X101595701Y-88983859D01*
X101566085Y-88923521D01*
X101558587Y-88911902D01*
X101518248Y-88866349D01*
X101473994Y-88844650D01*
X101424945Y-88846894D01*
X101370219Y-88873168D01*
X101308936Y-88923560D01*
X101294154Y-88938231D01*
X101225796Y-89022120D01*
X101163047Y-89126303D01*
X101107311Y-89246024D01*
X101059994Y-89376526D01*
X101022501Y-89513055D01*
X100996237Y-89650853D01*
X100982607Y-89785165D01*
X100867487Y-89785165D01*
X100871555Y-89715860D01*
X100882974Y-89612661D01*
X100899335Y-89518502D01*
X100906375Y-89488131D01*
X100947922Y-89345670D01*
X100997638Y-89214402D01*
X101054216Y-89095704D01*
X101116346Y-88990959D01*
X101182722Y-88901546D01*
X101252035Y-88828845D01*
X101322977Y-88774235D01*
X101394241Y-88739099D01*
X101464518Y-88724814D01*
X101532500Y-88732763D01*
G37*
X101532500Y-88732763D02*
X101594138Y-88762418D01*
X101646765Y-88809159D01*
X101687630Y-88870350D01*
X101717572Y-88948286D01*
X101737433Y-89045264D01*
X101748050Y-89163577D01*
X101748988Y-89185750D01*
X101743571Y-89381222D01*
X101713605Y-89576166D01*
X101659800Y-89767358D01*
X101582863Y-89951572D01*
X101579182Y-89959015D01*
X101543880Y-90028083D01*
X101513783Y-90081151D01*
X101483924Y-90125495D01*
X101449335Y-90168389D01*
X101405046Y-90217106D01*
X101397288Y-90225335D01*
X101322051Y-90293447D01*
X101246800Y-90339471D01*
X101173367Y-90362672D01*
X101103583Y-90362317D01*
X101074693Y-90354576D01*
X101009589Y-90319925D01*
X100956692Y-90265969D01*
X100914969Y-90191271D01*
X100883392Y-90094395D01*
X100881013Y-90084545D01*
X100869806Y-90012442D01*
X100864685Y-89922476D01*
X100865363Y-89821374D01*
X100867487Y-89785165D01*
X100982607Y-89785165D01*
X100983018Y-89911235D01*
X100989075Y-89970748D01*
X101008978Y-90070172D01*
X101037222Y-90147931D01*
X101073156Y-90203435D01*
X101116126Y-90236090D01*
X101165482Y-90245306D01*
X101220570Y-90230488D01*
X101253973Y-90211275D01*
X101322698Y-90151786D01*
X101389124Y-90068658D01*
X101451911Y-89963633D01*
X101466443Y-89935050D01*
X101543544Y-89753487D01*
X101595948Y-89570742D01*
X101624311Y-89384072D01*
X101630211Y-89249250D01*
X101626818Y-89142267D01*
X101615629Y-89055289D01*
X101595701Y-88983859D01*
X101566085Y-88923521D01*
X101558587Y-88911902D01*
X101518248Y-88866349D01*
X101473994Y-88844650D01*
X101424945Y-88846894D01*
X101370219Y-88873168D01*
X101308936Y-88923560D01*
X101294154Y-88938231D01*
X101225796Y-89022120D01*
X101163047Y-89126303D01*
X101107311Y-89246024D01*
X101059994Y-89376526D01*
X101022501Y-89513055D01*
X100996237Y-89650853D01*
X100982607Y-89785165D01*
X100867487Y-89785165D01*
X100871555Y-89715860D01*
X100882974Y-89612661D01*
X100899335Y-89518502D01*
X100906375Y-89488131D01*
X100947922Y-89345670D01*
X100997638Y-89214402D01*
X101054216Y-89095704D01*
X101116346Y-88990959D01*
X101182722Y-88901546D01*
X101252035Y-88828845D01*
X101322977Y-88774235D01*
X101394241Y-88739099D01*
X101464518Y-88724814D01*
X101532500Y-88732763D01*
G36*
X102551909Y-88818341D02*
G01*
X102611918Y-88841874D01*
X102668132Y-88885227D01*
X102717086Y-88945707D01*
X102755312Y-89020620D01*
X102756150Y-89022784D01*
X102773321Y-89085463D01*
X102785326Y-89166968D01*
X102791956Y-89261216D01*
X102793005Y-89362121D01*
X102788263Y-89463598D01*
X102777522Y-89559564D01*
X102775044Y-89575139D01*
X102743556Y-89723945D01*
X102700658Y-89866037D01*
X102647856Y-89998854D01*
X102586656Y-90119835D01*
X102518564Y-90226420D01*
X102445086Y-90316047D01*
X102367728Y-90386155D01*
X102287996Y-90434183D01*
X102264235Y-90443762D01*
X102200692Y-90458855D01*
X102139342Y-90454941D01*
X102112860Y-90448328D01*
X102068225Y-90424461D01*
X102022921Y-90381405D01*
X101981650Y-90324792D01*
X101949116Y-90260259D01*
X101943566Y-90245469D01*
X101929600Y-90198722D01*
X101919755Y-90147135D01*
X101913072Y-90083960D01*
X101908589Y-90002444D01*
X101908436Y-89998550D01*
X101909443Y-89942661D01*
X102025980Y-89942661D01*
X102031677Y-90049602D01*
X102047299Y-90144054D01*
X102072548Y-90223144D01*
X102107128Y-90283999D01*
X102148419Y-90322343D01*
X102187147Y-90339409D01*
X102225604Y-90339373D01*
X102270308Y-90321390D01*
X102301582Y-90302457D01*
X102360003Y-90252621D01*
X102418531Y-90181088D01*
X102475309Y-90091487D01*
X102528477Y-89987445D01*
X102576179Y-89872590D01*
X102616556Y-89750549D01*
X102647191Y-89627658D01*
X102666020Y-89511878D01*
X102674810Y-89397775D01*
X102673984Y-89288903D01*
X102663964Y-89188815D01*
X102645175Y-89101065D01*
X102618039Y-89029207D01*
X102582980Y-88976795D01*
X102568072Y-88963033D01*
X102522085Y-88941078D01*
X102471528Y-88942033D01*
X102417838Y-88964129D01*
X102362448Y-89005596D01*
X102306794Y-89064665D01*
X102252310Y-89139565D01*
X102200431Y-89228528D01*
X102152592Y-89329783D01*
X102110227Y-89441560D01*
X102074772Y-89562091D01*
X102071393Y-89575651D01*
X102045541Y-89702812D01*
X102030502Y-89826107D01*
X102025980Y-89942661D01*
X101909443Y-89942661D01*
X101911738Y-89815437D01*
X101936703Y-89637319D01*
X101984151Y-89460559D01*
X102054900Y-89281521D01*
X102083224Y-89221876D01*
X102152565Y-89097708D01*
X102227261Y-88994538D01*
X102306264Y-88913406D01*
X102388523Y-88855350D01*
X102472989Y-88821411D01*
X102491576Y-88817320D01*
X102551909Y-88818341D01*
G37*
X102551909Y-88818341D02*
X102611918Y-88841874D01*
X102668132Y-88885227D01*
X102717086Y-88945707D01*
X102755312Y-89020620D01*
X102756150Y-89022784D01*
X102773321Y-89085463D01*
X102785326Y-89166968D01*
X102791956Y-89261216D01*
X102793005Y-89362121D01*
X102788263Y-89463598D01*
X102777522Y-89559564D01*
X102775044Y-89575139D01*
X102743556Y-89723945D01*
X102700658Y-89866037D01*
X102647856Y-89998854D01*
X102586656Y-90119835D01*
X102518564Y-90226420D01*
X102445086Y-90316047D01*
X102367728Y-90386155D01*
X102287996Y-90434183D01*
X102264235Y-90443762D01*
X102200692Y-90458855D01*
X102139342Y-90454941D01*
X102112860Y-90448328D01*
X102068225Y-90424461D01*
X102022921Y-90381405D01*
X101981650Y-90324792D01*
X101949116Y-90260259D01*
X101943566Y-90245469D01*
X101929600Y-90198722D01*
X101919755Y-90147135D01*
X101913072Y-90083960D01*
X101908589Y-90002444D01*
X101908436Y-89998550D01*
X101909443Y-89942661D01*
X102025980Y-89942661D01*
X102031677Y-90049602D01*
X102047299Y-90144054D01*
X102072548Y-90223144D01*
X102107128Y-90283999D01*
X102148419Y-90322343D01*
X102187147Y-90339409D01*
X102225604Y-90339373D01*
X102270308Y-90321390D01*
X102301582Y-90302457D01*
X102360003Y-90252621D01*
X102418531Y-90181088D01*
X102475309Y-90091487D01*
X102528477Y-89987445D01*
X102576179Y-89872590D01*
X102616556Y-89750549D01*
X102647191Y-89627658D01*
X102666020Y-89511878D01*
X102674810Y-89397775D01*
X102673984Y-89288903D01*
X102663964Y-89188815D01*
X102645175Y-89101065D01*
X102618039Y-89029207D01*
X102582980Y-88976795D01*
X102568072Y-88963033D01*
X102522085Y-88941078D01*
X102471528Y-88942033D01*
X102417838Y-88964129D01*
X102362448Y-89005596D01*
X102306794Y-89064665D01*
X102252310Y-89139565D01*
X102200431Y-89228528D01*
X102152592Y-89329783D01*
X102110227Y-89441560D01*
X102074772Y-89562091D01*
X102071393Y-89575651D01*
X102045541Y-89702812D01*
X102030502Y-89826107D01*
X102025980Y-89942661D01*
X101909443Y-89942661D01*
X101911738Y-89815437D01*
X101936703Y-89637319D01*
X101984151Y-89460559D01*
X102054900Y-89281521D01*
X102083224Y-89221876D01*
X102152565Y-89097708D01*
X102227261Y-88994538D01*
X102306264Y-88913406D01*
X102388523Y-88855350D01*
X102472989Y-88821411D01*
X102491576Y-88817320D01*
X102551909Y-88818341D01*
G36*
X102830392Y-89778776D02*
G01*
X102880846Y-89789786D01*
X102941723Y-89804939D01*
X103008439Y-89823010D01*
X103076414Y-89842776D01*
X103141066Y-89863013D01*
X103197812Y-89882498D01*
X103227561Y-89893884D01*
X103345357Y-89948772D01*
X103439753Y-90008256D01*
X103510417Y-90071883D01*
X103557015Y-90139203D01*
X103579216Y-90209763D01*
X103576686Y-90283111D01*
X103557343Y-90341941D01*
X103515315Y-90405748D01*
X103449706Y-90466166D01*
X103362160Y-90522768D01*
X103254323Y-90575129D01*
X103127840Y-90622822D01*
X102984356Y-90665421D01*
X102825517Y-90702499D01*
X102652966Y-90733631D01*
X102468351Y-90758389D01*
X102273315Y-90776347D01*
X102069504Y-90787079D01*
X101858563Y-90790158D01*
X101828600Y-90789955D01*
X101751361Y-90789036D01*
X101678762Y-90787822D01*
X101616385Y-90786433D01*
X101569809Y-90784988D01*
X101549200Y-90783980D01*
X101312306Y-90763655D01*
X101094513Y-90736267D01*
X100896638Y-90702032D01*
X100719498Y-90661165D01*
X100563912Y-90613881D01*
X100430697Y-90560394D01*
X100320671Y-90500921D01*
X100238470Y-90439163D01*
X100181092Y-90374040D01*
X100148172Y-90305792D01*
X100139204Y-90235997D01*
X100153681Y-90166227D01*
X100191101Y-90098059D01*
X100250959Y-90033066D01*
X100332749Y-89972825D01*
X100399850Y-89935766D01*
X100460782Y-89908307D01*
X100533694Y-89879390D01*
X100610658Y-89851797D01*
X100683750Y-89828313D01*
X100745045Y-89811719D01*
X100764975Y-89807545D01*
X100812600Y-89798873D01*
X100812600Y-89875585D01*
X100812599Y-89952297D01*
X100739575Y-89972333D01*
X100628884Y-90006668D01*
X100529917Y-90045210D01*
X100445017Y-90086552D01*
X100376526Y-90129286D01*
X100326788Y-90172007D01*
X100298145Y-90213307D01*
X100291900Y-90241120D01*
X100304215Y-90282303D01*
X100339882Y-90324991D01*
X100396979Y-90368148D01*
X100473583Y-90410739D01*
X100567773Y-90451727D01*
X100677628Y-90490077D01*
X100801226Y-90524751D01*
X100831650Y-90532157D01*
X101017339Y-90570183D01*
X101214201Y-90599565D01*
X101419277Y-90620469D01*
X101629614Y-90633059D01*
X101842256Y-90637502D01*
X102054246Y-90633963D01*
X102262631Y-90622606D01*
X102464453Y-90603598D01*
X102656758Y-90577103D01*
X102836590Y-90543286D01*
X103000993Y-90502314D01*
X103147012Y-90454351D01*
X103271692Y-90399563D01*
X103280022Y-90395225D01*
X103338566Y-90358640D01*
X103385590Y-90318080D01*
X103417023Y-90277763D01*
X103428792Y-90241904D01*
X103428800Y-90241120D01*
X103416469Y-90199623D01*
X103380729Y-90156722D01*
X103323455Y-90113421D01*
X103246523Y-90070724D01*
X103151808Y-90029636D01*
X103041185Y-89991161D01*
X102916532Y-89956303D01*
X102880660Y-89947629D01*
X102732570Y-89912964D01*
X102751638Y-89847807D01*
X102763835Y-89809627D01*
X102774502Y-89782155D01*
X102779078Y-89774080D01*
X102794942Y-89773133D01*
X102830392Y-89778776D01*
G37*
X102830392Y-89778776D02*
X102880846Y-89789786D01*
X102941723Y-89804939D01*
X103008439Y-89823010D01*
X103076414Y-89842776D01*
X103141066Y-89863013D01*
X103197812Y-89882498D01*
X103227561Y-89893884D01*
X103345357Y-89948772D01*
X103439753Y-90008256D01*
X103510417Y-90071883D01*
X103557015Y-90139203D01*
X103579216Y-90209763D01*
X103576686Y-90283111D01*
X103557343Y-90341941D01*
X103515315Y-90405748D01*
X103449706Y-90466166D01*
X103362160Y-90522768D01*
X103254323Y-90575129D01*
X103127840Y-90622822D01*
X102984356Y-90665421D01*
X102825517Y-90702499D01*
X102652966Y-90733631D01*
X102468351Y-90758389D01*
X102273315Y-90776347D01*
X102069504Y-90787079D01*
X101858563Y-90790158D01*
X101828600Y-90789955D01*
X101751361Y-90789036D01*
X101678762Y-90787822D01*
X101616385Y-90786433D01*
X101569809Y-90784988D01*
X101549200Y-90783980D01*
X101312306Y-90763655D01*
X101094513Y-90736267D01*
X100896638Y-90702032D01*
X100719498Y-90661165D01*
X100563912Y-90613881D01*
X100430697Y-90560394D01*
X100320671Y-90500921D01*
X100238470Y-90439163D01*
X100181092Y-90374040D01*
X100148172Y-90305792D01*
X100139204Y-90235997D01*
X100153681Y-90166227D01*
X100191101Y-90098059D01*
X100250959Y-90033066D01*
X100332749Y-89972825D01*
X100399850Y-89935766D01*
X100460782Y-89908307D01*
X100533694Y-89879390D01*
X100610658Y-89851797D01*
X100683750Y-89828313D01*
X100745045Y-89811719D01*
X100764975Y-89807545D01*
X100812600Y-89798873D01*
X100812600Y-89875585D01*
X100812599Y-89952297D01*
X100739575Y-89972333D01*
X100628884Y-90006668D01*
X100529917Y-90045210D01*
X100445017Y-90086552D01*
X100376526Y-90129286D01*
X100326788Y-90172007D01*
X100298145Y-90213307D01*
X100291900Y-90241120D01*
X100304215Y-90282303D01*
X100339882Y-90324991D01*
X100396979Y-90368148D01*
X100473583Y-90410739D01*
X100567773Y-90451727D01*
X100677628Y-90490077D01*
X100801226Y-90524751D01*
X100831650Y-90532157D01*
X101017339Y-90570183D01*
X101214201Y-90599565D01*
X101419277Y-90620469D01*
X101629614Y-90633059D01*
X101842256Y-90637502D01*
X102054246Y-90633963D01*
X102262631Y-90622606D01*
X102464453Y-90603598D01*
X102656758Y-90577103D01*
X102836590Y-90543286D01*
X103000993Y-90502314D01*
X103147012Y-90454351D01*
X103271692Y-90399563D01*
X103280022Y-90395225D01*
X103338566Y-90358640D01*
X103385590Y-90318080D01*
X103417023Y-90277763D01*
X103428792Y-90241904D01*
X103428800Y-90241120D01*
X103416469Y-90199623D01*
X103380729Y-90156722D01*
X103323455Y-90113421D01*
X103246523Y-90070724D01*
X103151808Y-90029636D01*
X103041185Y-89991161D01*
X102916532Y-89956303D01*
X102880660Y-89947629D01*
X102732570Y-89912964D01*
X102751638Y-89847807D01*
X102763835Y-89809627D01*
X102774502Y-89782155D01*
X102779078Y-89774080D01*
X102794942Y-89773133D01*
X102830392Y-89778776D01*
G36*
X103502646Y-90613435D02*
G01*
X103600814Y-90671955D01*
X103674869Y-90735117D01*
X103724685Y-90801748D01*
X103750133Y-90870677D01*
X103751084Y-90940729D01*
X103727412Y-91010732D01*
X103678988Y-91079514D01*
X103605684Y-91145902D01*
X103563984Y-91175047D01*
X103461599Y-91231162D01*
X103336734Y-91282082D01*
X103191842Y-91327453D01*
X103029378Y-91366921D01*
X102851797Y-91400131D01*
X102661551Y-91426730D01*
X102461095Y-91446362D01*
X102252883Y-91458674D01*
X102039370Y-91463311D01*
X101823009Y-91459918D01*
X101650800Y-91451270D01*
X101458944Y-91434383D01*
X101272081Y-91409745D01*
X101093646Y-91378125D01*
X100927075Y-91340293D01*
X100775803Y-91297018D01*
X100643265Y-91249070D01*
X100544823Y-91203603D01*
X100463430Y-91152385D01*
X100396643Y-91093266D01*
X100346769Y-91029435D01*
X100316117Y-90964084D01*
X100306995Y-90900403D01*
X100309461Y-90878317D01*
X100329896Y-90820606D01*
X100366869Y-90760897D01*
X100414084Y-90708320D01*
X100442322Y-90685623D01*
X100495603Y-90648796D01*
X100590601Y-90678916D01*
X100635205Y-90693945D01*
X100668572Y-90706878D01*
X100684873Y-90715405D01*
X100685600Y-90716565D01*
X100675234Y-90726102D01*
X100649282Y-90740909D01*
X100637975Y-90746427D01*
X100567226Y-90785254D01*
X100512610Y-90826896D01*
X100476466Y-90868874D01*
X100461135Y-90908706D01*
X100463237Y-90931646D01*
X100482645Y-90962748D01*
X100520287Y-90999448D01*
X100570934Y-91037616D01*
X100629356Y-91073127D01*
X100665321Y-91091145D01*
X100804337Y-91146001D01*
X100964810Y-91193435D01*
X101143820Y-91233159D01*
X101338448Y-91264887D01*
X101545772Y-91288331D01*
X101762874Y-91303204D01*
X101986832Y-91309220D01*
X102214728Y-91306090D01*
X102443641Y-91293530D01*
X102590030Y-91280335D01*
X102757180Y-91259436D01*
X102914769Y-91232978D01*
X103060883Y-91201619D01*
X103193608Y-91166017D01*
X103311033Y-91126832D01*
X103411244Y-91084722D01*
X103492328Y-91040345D01*
X103552373Y-90994360D01*
X103589464Y-90947426D01*
X103595460Y-90934246D01*
X103597009Y-90895818D01*
X103575957Y-90853383D01*
X103538337Y-90814047D01*
X103508032Y-90793247D01*
X103462041Y-90766914D01*
X103408214Y-90739061D01*
X103354402Y-90713703D01*
X103308454Y-90694854D01*
X103298625Y-90691469D01*
X103268609Y-90679762D01*
X103252439Y-90669597D01*
X103251508Y-90667490D01*
X103262452Y-90658522D01*
X103290989Y-90642467D01*
X103331455Y-90622453D01*
X103341230Y-90617907D01*
X103430443Y-90576864D01*
X103502646Y-90613435D01*
G37*
X103502646Y-90613435D02*
X103600814Y-90671955D01*
X103674869Y-90735117D01*
X103724685Y-90801748D01*
X103750133Y-90870677D01*
X103751084Y-90940729D01*
X103727412Y-91010732D01*
X103678988Y-91079514D01*
X103605684Y-91145902D01*
X103563984Y-91175047D01*
X103461599Y-91231162D01*
X103336734Y-91282082D01*
X103191842Y-91327453D01*
X103029378Y-91366921D01*
X102851797Y-91400131D01*
X102661551Y-91426730D01*
X102461095Y-91446362D01*
X102252883Y-91458674D01*
X102039370Y-91463311D01*
X101823009Y-91459918D01*
X101650800Y-91451270D01*
X101458944Y-91434383D01*
X101272081Y-91409745D01*
X101093646Y-91378125D01*
X100927075Y-91340293D01*
X100775803Y-91297018D01*
X100643265Y-91249070D01*
X100544823Y-91203603D01*
X100463430Y-91152385D01*
X100396643Y-91093266D01*
X100346769Y-91029435D01*
X100316117Y-90964084D01*
X100306995Y-90900403D01*
X100309461Y-90878317D01*
X100329896Y-90820606D01*
X100366869Y-90760897D01*
X100414084Y-90708320D01*
X100442322Y-90685623D01*
X100495603Y-90648796D01*
X100590601Y-90678916D01*
X100635205Y-90693945D01*
X100668572Y-90706878D01*
X100684873Y-90715405D01*
X100685600Y-90716565D01*
X100675234Y-90726102D01*
X100649282Y-90740909D01*
X100637975Y-90746427D01*
X100567226Y-90785254D01*
X100512610Y-90826896D01*
X100476466Y-90868874D01*
X100461135Y-90908706D01*
X100463237Y-90931646D01*
X100482645Y-90962748D01*
X100520287Y-90999448D01*
X100570934Y-91037616D01*
X100629356Y-91073127D01*
X100665321Y-91091145D01*
X100804337Y-91146001D01*
X100964810Y-91193435D01*
X101143820Y-91233159D01*
X101338448Y-91264887D01*
X101545772Y-91288331D01*
X101762874Y-91303204D01*
X101986832Y-91309220D01*
X102214728Y-91306090D01*
X102443641Y-91293530D01*
X102590030Y-91280335D01*
X102757180Y-91259436D01*
X102914769Y-91232978D01*
X103060883Y-91201619D01*
X103193608Y-91166017D01*
X103311033Y-91126832D01*
X103411244Y-91084722D01*
X103492328Y-91040345D01*
X103552373Y-90994360D01*
X103589464Y-90947426D01*
X103595460Y-90934246D01*
X103597009Y-90895818D01*
X103575957Y-90853383D01*
X103538337Y-90814047D01*
X103508032Y-90793247D01*
X103462041Y-90766914D01*
X103408214Y-90739061D01*
X103354402Y-90713703D01*
X103308454Y-90694854D01*
X103298625Y-90691469D01*
X103268609Y-90679762D01*
X103252439Y-90669597D01*
X103251508Y-90667490D01*
X103262452Y-90658522D01*
X103290989Y-90642467D01*
X103331455Y-90622453D01*
X103341230Y-90617907D01*
X103430443Y-90576864D01*
X103502646Y-90613435D01*
G36*
X103665937Y-91290174D02*
G01*
X103757757Y-91345395D01*
X103829487Y-91407157D01*
X103879655Y-91473685D01*
X103906788Y-91543205D01*
X103911400Y-91586050D01*
X103906842Y-91621161D01*
X103895192Y-91662013D01*
X103879483Y-91701170D01*
X103862748Y-91731194D01*
X103848019Y-91744650D01*
X103846648Y-91744800D01*
X103835872Y-91734133D01*
X103818703Y-91706125D01*
X103798798Y-91666761D01*
X103798177Y-91665425D01*
X103777150Y-91619248D01*
X103758756Y-91577456D01*
X103747986Y-91551604D01*
X103723293Y-91515767D01*
X103677643Y-91476610D01*
X103614784Y-91436714D01*
X103538464Y-91398663D01*
X103506304Y-91385060D01*
X103399659Y-91342067D01*
X103493604Y-91296264D01*
X103587550Y-91250460D01*
X103665937Y-91290174D01*
G37*
X103665937Y-91290174D02*
X103757757Y-91345395D01*
X103829487Y-91407157D01*
X103879655Y-91473685D01*
X103906788Y-91543205D01*
X103911400Y-91586050D01*
X103906842Y-91621161D01*
X103895192Y-91662013D01*
X103879483Y-91701170D01*
X103862748Y-91731194D01*
X103848019Y-91744650D01*
X103846648Y-91744800D01*
X103835872Y-91734133D01*
X103818703Y-91706125D01*
X103798798Y-91666761D01*
X103798177Y-91665425D01*
X103777150Y-91619248D01*
X103758756Y-91577456D01*
X103747986Y-91551604D01*
X103723293Y-91515767D01*
X103677643Y-91476610D01*
X103614784Y-91436714D01*
X103538464Y-91398663D01*
X103506304Y-91385060D01*
X103399659Y-91342067D01*
X103493604Y-91296264D01*
X103587550Y-91250460D01*
X103665937Y-91290174D01*
G36*
X100671413Y-91329408D02*
G01*
X100705192Y-91338925D01*
X100745745Y-91351839D01*
X100785917Y-91365740D01*
X100818557Y-91378215D01*
X100836509Y-91386854D01*
X100838000Y-91388546D01*
X100827758Y-91397899D01*
X100801437Y-91414397D01*
X100778092Y-91427321D01*
X100720677Y-91462919D01*
X100672801Y-91502496D01*
X100638740Y-91541770D01*
X100622767Y-91576457D01*
X100622099Y-91583641D01*
X100634466Y-91626215D01*
X100670533Y-91670419D01*
X100728751Y-91715129D01*
X100807569Y-91759219D01*
X100905439Y-91801563D01*
X100939600Y-91814229D01*
X101086541Y-91859435D01*
X101254217Y-91898112D01*
X101438741Y-91929986D01*
X101636231Y-91954783D01*
X101842803Y-91972230D01*
X102054571Y-91982053D01*
X102267652Y-91983978D01*
X102478163Y-91977732D01*
X102682218Y-91963041D01*
X102823704Y-91946982D01*
X102871049Y-91941381D01*
X102907676Y-91938348D01*
X102927192Y-91938373D01*
X102928660Y-91938927D01*
X102927386Y-91952588D01*
X102918944Y-91983147D01*
X102906347Y-92020600D01*
X102878832Y-92097071D01*
X102731541Y-92112229D01*
X102670244Y-92117521D01*
X102590857Y-92122873D01*
X102500683Y-92127873D01*
X102407028Y-92132113D01*
X102327657Y-92134885D01*
X102071065Y-92142384D01*
X102062809Y-92179969D01*
X102038590Y-92234275D01*
X101993396Y-92282789D01*
X101931578Y-92321653D01*
X101881217Y-92340912D01*
X101842080Y-92351901D01*
X101786374Y-92366789D01*
X101717949Y-92384615D01*
X101640655Y-92404421D01*
X101558343Y-92425247D01*
X101474861Y-92446133D01*
X101394060Y-92466120D01*
X101319789Y-92484248D01*
X101255898Y-92499559D01*
X101206238Y-92511091D01*
X101174658Y-92517887D01*
X101165415Y-92519312D01*
X101142484Y-92513750D01*
X101117781Y-92503252D01*
X101089980Y-92482163D01*
X101061860Y-92450639D01*
X101057456Y-92444411D01*
X101035512Y-92396731D01*
X101028458Y-92338784D01*
X101029129Y-92332786D01*
X101142800Y-92332786D01*
X101149428Y-92373297D01*
X101167350Y-92396730D01*
X101193002Y-92399372D01*
X101210166Y-92394780D01*
X101248515Y-92384847D01*
X101304610Y-92370455D01*
X101375008Y-92352484D01*
X101456270Y-92331815D01*
X101542850Y-92309860D01*
X101631934Y-92287061D01*
X101713958Y-92265611D01*
X101785375Y-92246474D01*
X101842637Y-92230614D01*
X101882198Y-92218994D01*
X101900222Y-92212729D01*
X101925723Y-92193077D01*
X101942001Y-92168072D01*
X101945593Y-92145408D01*
X101935794Y-92133617D01*
X101917543Y-92139321D01*
X101899234Y-92170332D01*
X101899101Y-92170649D01*
X101879352Y-92203292D01*
X101851556Y-92216310D01*
X101815900Y-92215058D01*
X101785620Y-92201362D01*
X101761244Y-92175325D01*
X101752400Y-92149473D01*
X101750971Y-92138281D01*
X101744206Y-92129776D01*
X101728388Y-92123017D01*
X101699799Y-92117064D01*
X101654720Y-92110978D01*
X101589435Y-92103817D01*
X101559642Y-92100731D01*
X101490694Y-92092798D01*
X101419085Y-92083181D01*
X101355992Y-92073434D01*
X101331042Y-92068979D01*
X101284967Y-92061521D01*
X101248905Y-92058214D01*
X101229758Y-92059643D01*
X101228794Y-92060281D01*
X101217965Y-92079449D01*
X101203108Y-92116521D01*
X101186351Y-92164757D01*
X101169819Y-92217417D01*
X101155641Y-92267762D01*
X101145941Y-92309053D01*
X101142800Y-92332786D01*
X101029129Y-92332786D01*
X101036428Y-92267584D01*
X101059557Y-92180146D01*
X101070965Y-92145994D01*
X101113431Y-92024110D01*
X101061440Y-92010834D01*
X101019238Y-91999475D01*
X100981526Y-91988409D01*
X100975821Y-91986591D01*
X100957038Y-91982082D01*
X100944060Y-91986772D01*
X100932469Y-92005327D01*
X100917849Y-92042415D01*
X100914604Y-92051286D01*
X100889745Y-92130526D01*
X100879380Y-92191534D01*
X100883433Y-92233610D01*
X100901829Y-92256057D01*
X100934493Y-92258177D01*
X100936933Y-92257636D01*
X100966380Y-92251099D01*
X100982868Y-92247996D01*
X100990211Y-92258337D01*
X100995290Y-92286224D01*
X100996290Y-92301672D01*
X100995532Y-92337549D01*
X100987408Y-92356929D01*
X100968005Y-92368479D01*
X100965721Y-92369373D01*
X100918528Y-92376801D01*
X100867427Y-92369021D01*
X100825239Y-92348168D01*
X100821972Y-92345417D01*
X100783395Y-92294869D01*
X100765410Y-92230085D01*
X100767993Y-92150827D01*
X100791121Y-92056855D01*
X100793550Y-92049600D01*
X100808618Y-92004265D01*
X100819816Y-91968614D01*
X100825123Y-91949128D01*
X100825300Y-91947706D01*
X100814722Y-91938533D01*
X100786590Y-91921648D01*
X100746301Y-91900216D01*
X100732330Y-91893214D01*
X100634080Y-91836097D01*
X100558244Y-91773700D01*
X100505222Y-91707363D01*
X100475411Y-91638425D01*
X100469210Y-91568223D01*
X100487019Y-91498099D01*
X100529236Y-91429391D01*
X100578907Y-91378046D01*
X100612103Y-91350565D01*
X100638781Y-91331609D01*
X100651562Y-91325700D01*
X100671413Y-91329408D01*
G37*
X100671413Y-91329408D02*
X100705192Y-91338925D01*
X100745745Y-91351839D01*
X100785917Y-91365740D01*
X100818557Y-91378215D01*
X100836509Y-91386854D01*
X100838000Y-91388546D01*
X100827758Y-91397899D01*
X100801437Y-91414397D01*
X100778092Y-91427321D01*
X100720677Y-91462919D01*
X100672801Y-91502496D01*
X100638740Y-91541770D01*
X100622767Y-91576457D01*
X100622099Y-91583641D01*
X100634466Y-91626215D01*
X100670533Y-91670419D01*
X100728751Y-91715129D01*
X100807569Y-91759219D01*
X100905439Y-91801563D01*
X100939600Y-91814229D01*
X101086541Y-91859435D01*
X101254217Y-91898112D01*
X101438741Y-91929986D01*
X101636231Y-91954783D01*
X101842803Y-91972230D01*
X102054571Y-91982053D01*
X102267652Y-91983978D01*
X102478163Y-91977732D01*
X102682218Y-91963041D01*
X102823704Y-91946982D01*
X102871049Y-91941381D01*
X102907676Y-91938348D01*
X102927192Y-91938373D01*
X102928660Y-91938927D01*
X102927386Y-91952588D01*
X102918944Y-91983147D01*
X102906347Y-92020600D01*
X102878832Y-92097071D01*
X102731541Y-92112229D01*
X102670244Y-92117521D01*
X102590857Y-92122873D01*
X102500683Y-92127873D01*
X102407028Y-92132113D01*
X102327657Y-92134885D01*
X102071065Y-92142384D01*
X102062809Y-92179969D01*
X102038590Y-92234275D01*
X101993396Y-92282789D01*
X101931578Y-92321653D01*
X101881217Y-92340912D01*
X101842080Y-92351901D01*
X101786374Y-92366789D01*
X101717949Y-92384615D01*
X101640655Y-92404421D01*
X101558343Y-92425247D01*
X101474861Y-92446133D01*
X101394060Y-92466120D01*
X101319789Y-92484248D01*
X101255898Y-92499559D01*
X101206238Y-92511091D01*
X101174658Y-92517887D01*
X101165415Y-92519312D01*
X101142484Y-92513750D01*
X101117781Y-92503252D01*
X101089980Y-92482163D01*
X101061860Y-92450639D01*
X101057456Y-92444411D01*
X101035512Y-92396731D01*
X101028458Y-92338784D01*
X101029129Y-92332786D01*
X101142800Y-92332786D01*
X101149428Y-92373297D01*
X101167350Y-92396730D01*
X101193002Y-92399372D01*
X101210166Y-92394780D01*
X101248515Y-92384847D01*
X101304610Y-92370455D01*
X101375008Y-92352484D01*
X101456270Y-92331815D01*
X101542850Y-92309860D01*
X101631934Y-92287061D01*
X101713958Y-92265611D01*
X101785375Y-92246474D01*
X101842637Y-92230614D01*
X101882198Y-92218994D01*
X101900222Y-92212729D01*
X101925723Y-92193077D01*
X101942001Y-92168072D01*
X101945593Y-92145408D01*
X101935794Y-92133617D01*
X101917543Y-92139321D01*
X101899234Y-92170332D01*
X101899101Y-92170649D01*
X101879352Y-92203292D01*
X101851556Y-92216310D01*
X101815900Y-92215058D01*
X101785620Y-92201362D01*
X101761244Y-92175325D01*
X101752400Y-92149473D01*
X101750971Y-92138281D01*
X101744206Y-92129776D01*
X101728388Y-92123017D01*
X101699799Y-92117064D01*
X101654720Y-92110978D01*
X101589435Y-92103817D01*
X101559642Y-92100731D01*
X101490694Y-92092798D01*
X101419085Y-92083181D01*
X101355992Y-92073434D01*
X101331042Y-92068979D01*
X101284967Y-92061521D01*
X101248905Y-92058214D01*
X101229758Y-92059643D01*
X101228794Y-92060281D01*
X101217965Y-92079449D01*
X101203108Y-92116521D01*
X101186351Y-92164757D01*
X101169819Y-92217417D01*
X101155641Y-92267762D01*
X101145941Y-92309053D01*
X101142800Y-92332786D01*
X101029129Y-92332786D01*
X101036428Y-92267584D01*
X101059557Y-92180146D01*
X101070965Y-92145994D01*
X101113431Y-92024110D01*
X101061440Y-92010834D01*
X101019238Y-91999475D01*
X100981526Y-91988409D01*
X100975821Y-91986591D01*
X100957038Y-91982082D01*
X100944060Y-91986772D01*
X100932469Y-92005327D01*
X100917849Y-92042415D01*
X100914604Y-92051286D01*
X100889745Y-92130526D01*
X100879380Y-92191534D01*
X100883433Y-92233610D01*
X100901829Y-92256057D01*
X100934493Y-92258177D01*
X100936933Y-92257636D01*
X100966380Y-92251099D01*
X100982868Y-92247996D01*
X100990211Y-92258337D01*
X100995290Y-92286224D01*
X100996290Y-92301672D01*
X100995532Y-92337549D01*
X100987408Y-92356929D01*
X100968005Y-92368479D01*
X100965721Y-92369373D01*
X100918528Y-92376801D01*
X100867427Y-92369021D01*
X100825239Y-92348168D01*
X100821972Y-92345417D01*
X100783395Y-92294869D01*
X100765410Y-92230085D01*
X100767993Y-92150827D01*
X100791121Y-92056855D01*
X100793550Y-92049600D01*
X100808618Y-92004265D01*
X100819816Y-91968614D01*
X100825123Y-91949128D01*
X100825300Y-91947706D01*
X100814722Y-91938533D01*
X100786590Y-91921648D01*
X100746301Y-91900216D01*
X100732330Y-91893214D01*
X100634080Y-91836097D01*
X100558244Y-91773700D01*
X100505222Y-91707363D01*
X100475411Y-91638425D01*
X100469210Y-91568223D01*
X100487019Y-91498099D01*
X100529236Y-91429391D01*
X100578907Y-91378046D01*
X100612103Y-91350565D01*
X100638781Y-91331609D01*
X100651562Y-91325700D01*
X100671413Y-91329408D01*
G36*
X103391508Y-91445541D02*
G01*
X103427746Y-91469175D01*
X103461070Y-91497939D01*
X103484603Y-91526001D01*
X103491762Y-91545198D01*
X103481563Y-91561221D01*
X103456787Y-91582249D01*
X103447411Y-91588574D01*
X103419205Y-91605603D01*
X103404325Y-91609198D01*
X103394848Y-91599841D01*
X103390507Y-91592040D01*
X103363683Y-91560946D01*
X103330172Y-91548156D01*
X103302683Y-91553827D01*
X103287712Y-91563849D01*
X103272920Y-91578902D01*
X103257339Y-91601166D01*
X103240002Y-91632819D01*
X103219939Y-91676039D01*
X103196184Y-91733005D01*
X103167770Y-91805895D01*
X103133728Y-91896888D01*
X103093090Y-92008162D01*
X103059383Y-92101564D01*
X103014856Y-92226035D01*
X102978652Y-92328918D01*
X102950087Y-92412376D01*
X102928480Y-92478570D01*
X102913148Y-92529664D01*
X102903409Y-92567820D01*
X102898581Y-92595199D01*
X102897928Y-92613293D01*
X102901750Y-92665550D01*
X102955725Y-92663145D01*
X103009700Y-92660741D01*
X103009700Y-92715761D01*
X103005767Y-92756645D01*
X102993239Y-92776685D01*
X102989611Y-92778491D01*
X102949138Y-92785896D01*
X102901676Y-92783777D01*
X102860164Y-92773236D01*
X102847353Y-92766379D01*
X102808571Y-92723897D01*
X102786465Y-92663012D01*
X102781100Y-92603020D01*
X102782393Y-92581114D01*
X102786782Y-92553992D01*
X102795026Y-92519234D01*
X102807886Y-92474418D01*
X102826121Y-92417125D01*
X102850492Y-92344932D01*
X102881760Y-92255419D01*
X102920685Y-92146165D01*
X102951354Y-92060918D01*
X102993209Y-91946126D01*
X103032645Y-91840361D01*
X103068663Y-91746156D01*
X103100266Y-91666046D01*
X103126455Y-91602563D01*
X103146233Y-91558241D01*
X103157813Y-91536702D01*
X103201068Y-91489550D01*
X103254268Y-91454121D01*
X103310188Y-91434143D01*
X103359235Y-91432865D01*
X103391508Y-91445541D01*
G37*
X103391508Y-91445541D02*
X103427746Y-91469175D01*
X103461070Y-91497939D01*
X103484603Y-91526001D01*
X103491762Y-91545198D01*
X103481563Y-91561221D01*
X103456787Y-91582249D01*
X103447411Y-91588574D01*
X103419205Y-91605603D01*
X103404325Y-91609198D01*
X103394848Y-91599841D01*
X103390507Y-91592040D01*
X103363683Y-91560946D01*
X103330172Y-91548156D01*
X103302683Y-91553827D01*
X103287712Y-91563849D01*
X103272920Y-91578902D01*
X103257339Y-91601166D01*
X103240002Y-91632819D01*
X103219939Y-91676039D01*
X103196184Y-91733005D01*
X103167770Y-91805895D01*
X103133728Y-91896888D01*
X103093090Y-92008162D01*
X103059383Y-92101564D01*
X103014856Y-92226035D01*
X102978652Y-92328918D01*
X102950087Y-92412376D01*
X102928480Y-92478570D01*
X102913148Y-92529664D01*
X102903409Y-92567820D01*
X102898581Y-92595199D01*
X102897928Y-92613293D01*
X102901750Y-92665550D01*
X102955725Y-92663145D01*
X103009700Y-92660741D01*
X103009700Y-92715761D01*
X103005767Y-92756645D01*
X102993239Y-92776685D01*
X102989611Y-92778491D01*
X102949138Y-92785896D01*
X102901676Y-92783777D01*
X102860164Y-92773236D01*
X102847353Y-92766379D01*
X102808571Y-92723897D01*
X102786465Y-92663012D01*
X102781100Y-92603020D01*
X102782393Y-92581114D01*
X102786782Y-92553992D01*
X102795026Y-92519234D01*
X102807886Y-92474418D01*
X102826121Y-92417125D01*
X102850492Y-92344932D01*
X102881760Y-92255419D01*
X102920685Y-92146165D01*
X102951354Y-92060918D01*
X102993209Y-91946126D01*
X103032645Y-91840361D01*
X103068663Y-91746156D01*
X103100266Y-91666046D01*
X103126455Y-91602563D01*
X103146233Y-91558241D01*
X103157813Y-91536702D01*
X103201068Y-91489550D01*
X103254268Y-91454121D01*
X103310188Y-91434143D01*
X103359235Y-91432865D01*
X103391508Y-91445541D01*
G36*
X103642899Y-91580011D02*
G01*
X103697398Y-91614600D01*
X103718309Y-91635839D01*
X103732165Y-91657270D01*
X103754581Y-91698803D01*
X103783996Y-91757240D01*
X103818852Y-91829386D01*
X103857589Y-91912045D01*
X103898648Y-92002021D01*
X103917379Y-92043849D01*
X103968262Y-92158976D01*
X104009101Y-92253868D01*
X104040659Y-92331278D01*
X104063699Y-92393955D01*
X104078983Y-92444652D01*
X104087276Y-92486121D01*
X104089338Y-92521113D01*
X104085934Y-92552380D01*
X104077827Y-92582673D01*
X104071592Y-92600039D01*
X104048180Y-92644933D01*
X104016512Y-92687245D01*
X104009165Y-92694862D01*
X103995419Y-92706907D01*
X103978861Y-92717887D01*
X103956597Y-92728757D01*
X103925731Y-92740471D01*
X103883370Y-92753984D01*
X103826618Y-92770250D01*
X103752582Y-92790223D01*
X103658366Y-92814858D01*
X103597632Y-92830551D01*
X103502493Y-92854699D01*
X103413418Y-92876597D01*
X103333899Y-92895443D01*
X103267431Y-92910432D01*
X103217509Y-92920761D01*
X103187626Y-92925626D01*
X103183184Y-92925900D01*
X103130536Y-92913426D01*
X103099814Y-92893222D01*
X103064019Y-92847921D01*
X103042679Y-92788513D01*
X103039897Y-92745379D01*
X103158067Y-92745379D01*
X103163591Y-92782668D01*
X103177442Y-92806476D01*
X103190360Y-92811495D01*
X103206591Y-92808429D01*
X103243989Y-92799845D01*
X103299129Y-92786577D01*
X103368587Y-92769460D01*
X103448938Y-92749329D01*
X103530400Y-92728643D01*
X103640509Y-92700489D01*
X103728630Y-92677764D01*
X103797374Y-92659569D01*
X103849354Y-92645010D01*
X103887181Y-92633190D01*
X103913466Y-92623213D01*
X103930823Y-92614182D01*
X103941862Y-92605201D01*
X103949195Y-92595374D01*
X103955434Y-92583805D01*
X103956070Y-92582572D01*
X103965892Y-92560793D01*
X103971725Y-92538402D01*
X103972790Y-92512766D01*
X103968312Y-92481256D01*
X103957512Y-92441238D01*
X103939615Y-92390081D01*
X103913842Y-92325154D01*
X103879417Y-92243826D01*
X103835562Y-92143464D01*
X103807970Y-92081068D01*
X103758191Y-91969200D01*
X103717212Y-91878795D01*
X103683719Y-91808019D01*
X103656395Y-91755036D01*
X103633927Y-91718012D01*
X103614998Y-91695110D01*
X103598294Y-91684497D01*
X103582500Y-91684336D01*
X103566300Y-91692794D01*
X103548380Y-91708033D01*
X103543782Y-91712395D01*
X103515851Y-91746458D01*
X103489436Y-91790119D01*
X103481611Y-91806618D01*
X103468399Y-91839494D01*
X103448725Y-91891183D01*
X103423837Y-91958180D01*
X103394987Y-92036980D01*
X103363423Y-92124078D01*
X103330395Y-92215969D01*
X103297153Y-92309148D01*
X103264947Y-92400110D01*
X103235025Y-92485349D01*
X103208639Y-92561362D01*
X103187036Y-92624642D01*
X103171468Y-92671684D01*
X103163184Y-92698985D01*
X103162587Y-92701421D01*
X103158067Y-92745379D01*
X103039897Y-92745379D01*
X103038479Y-92723401D01*
X103040405Y-92707319D01*
X103046436Y-92684614D01*
X103060111Y-92641398D01*
X103080250Y-92580974D01*
X103105673Y-92506649D01*
X103135199Y-92421727D01*
X103167646Y-92329514D01*
X103201833Y-92233316D01*
X103236581Y-92136437D01*
X103270708Y-92042182D01*
X103303034Y-91953857D01*
X103332377Y-91874768D01*
X103357556Y-91808219D01*
X103377392Y-91757515D01*
X103390703Y-91725963D01*
X103391921Y-91723382D01*
X103417787Y-91681766D01*
X103452682Y-91639612D01*
X103466884Y-91625675D01*
X103525918Y-91585479D01*
X103585164Y-91570281D01*
X103642899Y-91580011D01*
G37*
X103642899Y-91580011D02*
X103697398Y-91614600D01*
X103718309Y-91635839D01*
X103732165Y-91657270D01*
X103754581Y-91698803D01*
X103783996Y-91757240D01*
X103818852Y-91829386D01*
X103857589Y-91912045D01*
X103898648Y-92002021D01*
X103917379Y-92043849D01*
X103968262Y-92158976D01*
X104009101Y-92253868D01*
X104040659Y-92331278D01*
X104063699Y-92393955D01*
X104078983Y-92444652D01*
X104087276Y-92486121D01*
X104089338Y-92521113D01*
X104085934Y-92552380D01*
X104077827Y-92582673D01*
X104071592Y-92600039D01*
X104048180Y-92644933D01*
X104016512Y-92687245D01*
X104009165Y-92694862D01*
X103995419Y-92706907D01*
X103978861Y-92717887D01*
X103956597Y-92728757D01*
X103925731Y-92740471D01*
X103883370Y-92753984D01*
X103826618Y-92770250D01*
X103752582Y-92790223D01*
X103658366Y-92814858D01*
X103597632Y-92830551D01*
X103502493Y-92854699D01*
X103413418Y-92876597D01*
X103333899Y-92895443D01*
X103267431Y-92910432D01*
X103217509Y-92920761D01*
X103187626Y-92925626D01*
X103183184Y-92925900D01*
X103130536Y-92913426D01*
X103099814Y-92893222D01*
X103064019Y-92847921D01*
X103042679Y-92788513D01*
X103039897Y-92745379D01*
X103158067Y-92745379D01*
X103163591Y-92782668D01*
X103177442Y-92806476D01*
X103190360Y-92811495D01*
X103206591Y-92808429D01*
X103243989Y-92799845D01*
X103299129Y-92786577D01*
X103368587Y-92769460D01*
X103448938Y-92749329D01*
X103530400Y-92728643D01*
X103640509Y-92700489D01*
X103728630Y-92677764D01*
X103797374Y-92659569D01*
X103849354Y-92645010D01*
X103887181Y-92633190D01*
X103913466Y-92623213D01*
X103930823Y-92614182D01*
X103941862Y-92605201D01*
X103949195Y-92595374D01*
X103955434Y-92583805D01*
X103956070Y-92582572D01*
X103965892Y-92560793D01*
X103971725Y-92538402D01*
X103972790Y-92512766D01*
X103968312Y-92481256D01*
X103957512Y-92441238D01*
X103939615Y-92390081D01*
X103913842Y-92325154D01*
X103879417Y-92243826D01*
X103835562Y-92143464D01*
X103807970Y-92081068D01*
X103758191Y-91969200D01*
X103717212Y-91878795D01*
X103683719Y-91808019D01*
X103656395Y-91755036D01*
X103633927Y-91718012D01*
X103614998Y-91695110D01*
X103598294Y-91684497D01*
X103582500Y-91684336D01*
X103566300Y-91692794D01*
X103548380Y-91708033D01*
X103543782Y-91712395D01*
X103515851Y-91746458D01*
X103489436Y-91790119D01*
X103481611Y-91806618D01*
X103468399Y-91839494D01*
X103448725Y-91891183D01*
X103423837Y-91958180D01*
X103394987Y-92036980D01*
X103363423Y-92124078D01*
X103330395Y-92215969D01*
X103297153Y-92309148D01*
X103264947Y-92400110D01*
X103235025Y-92485349D01*
X103208639Y-92561362D01*
X103187036Y-92624642D01*
X103171468Y-92671684D01*
X103163184Y-92698985D01*
X103162587Y-92701421D01*
X103158067Y-92745379D01*
X103039897Y-92745379D01*
X103038479Y-92723401D01*
X103040405Y-92707319D01*
X103046436Y-92684614D01*
X103060111Y-92641398D01*
X103080250Y-92580974D01*
X103105673Y-92506649D01*
X103135199Y-92421727D01*
X103167646Y-92329514D01*
X103201833Y-92233316D01*
X103236581Y-92136437D01*
X103270708Y-92042182D01*
X103303034Y-91953857D01*
X103332377Y-91874768D01*
X103357556Y-91808219D01*
X103377392Y-91757515D01*
X103390703Y-91725963D01*
X103391921Y-91723382D01*
X103417787Y-91681766D01*
X103452682Y-91639612D01*
X103466884Y-91625675D01*
X103525918Y-91585479D01*
X103585164Y-91570281D01*
X103642899Y-91580011D01*
G36*
X65631755Y-64234361D02*
G01*
X65694508Y-64306615D01*
X65735082Y-64413329D01*
X65747900Y-64536059D01*
X65732978Y-64673199D01*
X65692097Y-64797910D01*
X65631084Y-64904179D01*
X65555766Y-64985995D01*
X65471970Y-65037344D01*
X65385524Y-65052214D01*
X65302253Y-65024592D01*
X65285787Y-65012887D01*
X65215224Y-64927090D01*
X65177000Y-64814045D01*
X65169919Y-64684665D01*
X65192785Y-64549862D01*
X65244403Y-64420547D01*
X65323576Y-64307631D01*
X65367735Y-64265195D01*
X65462636Y-64209567D01*
X65552553Y-64200651D01*
X65631755Y-64234361D01*
G37*
X65631755Y-64234361D02*
X65694508Y-64306615D01*
X65735082Y-64413329D01*
X65747900Y-64536059D01*
X65732978Y-64673199D01*
X65692097Y-64797910D01*
X65631084Y-64904179D01*
X65555766Y-64985995D01*
X65471970Y-65037344D01*
X65385524Y-65052214D01*
X65302253Y-65024592D01*
X65285787Y-65012887D01*
X65215224Y-64927090D01*
X65177000Y-64814045D01*
X65169919Y-64684665D01*
X65192785Y-64549862D01*
X65244403Y-64420547D01*
X65323576Y-64307631D01*
X65367735Y-64265195D01*
X65462636Y-64209567D01*
X65552553Y-64200651D01*
X65631755Y-64234361D01*
G36*
X67720076Y-64367587D02*
G01*
X67785515Y-64446621D01*
X67794750Y-64466428D01*
X67826467Y-64603094D01*
X67819352Y-64752899D01*
X67776726Y-64900627D01*
X67701906Y-65031062D01*
X67661569Y-65077137D01*
X67566929Y-65144516D01*
X67468695Y-65164843D01*
X67373772Y-65137026D01*
X67355695Y-65125521D01*
X67294769Y-65053913D01*
X67260468Y-64951347D01*
X67251502Y-64829306D01*
X67266579Y-64699273D01*
X67304405Y-64572729D01*
X67363691Y-64461159D01*
X67439716Y-64378700D01*
X67535433Y-64330725D01*
X67632801Y-64327988D01*
X67720076Y-64367587D01*
G37*
X67720076Y-64367587D02*
X67785515Y-64446621D01*
X67794750Y-64466428D01*
X67826467Y-64603094D01*
X67819352Y-64752899D01*
X67776726Y-64900627D01*
X67701906Y-65031062D01*
X67661569Y-65077137D01*
X67566929Y-65144516D01*
X67468695Y-65164843D01*
X67373772Y-65137026D01*
X67355695Y-65125521D01*
X67294769Y-65053913D01*
X67260468Y-64951347D01*
X67251502Y-64829306D01*
X67266579Y-64699273D01*
X67304405Y-64572729D01*
X67363691Y-64461159D01*
X67439716Y-64378700D01*
X67535433Y-64330725D01*
X67632801Y-64327988D01*
X67720076Y-64367587D01*
G36*
X65661942Y-69579192D02*
G01*
X65670710Y-69588089D01*
X65715592Y-69657618D01*
X65712757Y-69726484D01*
X65682959Y-69780848D01*
X65630964Y-69820371D01*
X65559244Y-69837896D01*
X65489655Y-69831113D01*
X65449318Y-69805550D01*
X65408358Y-69723531D01*
X65418149Y-69642991D01*
X65444498Y-69599991D01*
X65513237Y-69544706D01*
X65588754Y-69537614D01*
X65661942Y-69579192D01*
G37*
X65661942Y-69579192D02*
X65670710Y-69588089D01*
X65715592Y-69657618D01*
X65712757Y-69726484D01*
X65682959Y-69780848D01*
X65630964Y-69820371D01*
X65559244Y-69837896D01*
X65489655Y-69831113D01*
X65449318Y-69805550D01*
X65408358Y-69723531D01*
X65418149Y-69642991D01*
X65444498Y-69599991D01*
X65513237Y-69544706D01*
X65588754Y-69537614D01*
X65661942Y-69579192D01*
G36*
X70266537Y-68790333D02*
G01*
X70321196Y-68841460D01*
X70340218Y-68911322D01*
X70317978Y-68987360D01*
X70293510Y-69019710D01*
X70221281Y-69067578D01*
X70145553Y-69066713D01*
X70075434Y-69017594D01*
X70067298Y-69007808D01*
X70029768Y-68928294D01*
X70036889Y-68854559D01*
X70082999Y-68798336D01*
X70162434Y-68771354D01*
X70181869Y-68770500D01*
X70266537Y-68790333D01*
G37*
X70266537Y-68790333D02*
X70321196Y-68841460D01*
X70340218Y-68911322D01*
X70317978Y-68987360D01*
X70293510Y-69019710D01*
X70221281Y-69067578D01*
X70145553Y-69066713D01*
X70075434Y-69017594D01*
X70067298Y-69007808D01*
X70029768Y-68928294D01*
X70036889Y-68854559D01*
X70082999Y-68798336D01*
X70162434Y-68771354D01*
X70181869Y-68770500D01*
X70266537Y-68790333D01*
G36*
X70858611Y-70066278D02*
G01*
X70888137Y-70098814D01*
X70921954Y-70151199D01*
X70924923Y-70190664D01*
X70903578Y-70235855D01*
X70841446Y-70304564D01*
X70763059Y-70327986D01*
X70707043Y-70317338D01*
X70653312Y-70278538D01*
X70620082Y-70231008D01*
X70604506Y-70177741D01*
X70619521Y-70129921D01*
X70642079Y-70096916D01*
X70710107Y-70039126D01*
X70785629Y-70028939D01*
X70858611Y-70066278D01*
G37*
X70858611Y-70066278D02*
X70888137Y-70098814D01*
X70921954Y-70151199D01*
X70924923Y-70190664D01*
X70903578Y-70235855D01*
X70841446Y-70304564D01*
X70763059Y-70327986D01*
X70707043Y-70317338D01*
X70653312Y-70278538D01*
X70620082Y-70231008D01*
X70604506Y-70177741D01*
X70619521Y-70129921D01*
X70642079Y-70096916D01*
X70710107Y-70039126D01*
X70785629Y-70028939D01*
X70858611Y-70066278D01*
G36*
X69693044Y-70312530D02*
G01*
X69732264Y-70338678D01*
X69791567Y-70406740D01*
X69805692Y-70482500D01*
X69773441Y-70555008D01*
X69757770Y-70571550D01*
X69688214Y-70617215D01*
X69620019Y-70615592D01*
X69562162Y-70584186D01*
X69516612Y-70525366D01*
X69507258Y-70450836D01*
X69532033Y-70378303D01*
X69588873Y-70325475D01*
X69592564Y-70323647D01*
X69648926Y-70303163D01*
X69693044Y-70312530D01*
G37*
X69693044Y-70312530D02*
X69732264Y-70338678D01*
X69791567Y-70406740D01*
X69805692Y-70482500D01*
X69773441Y-70555008D01*
X69757770Y-70571550D01*
X69688214Y-70617215D01*
X69620019Y-70615592D01*
X69562162Y-70584186D01*
X69516612Y-70525366D01*
X69507258Y-70450836D01*
X69532033Y-70378303D01*
X69588873Y-70325475D01*
X69592564Y-70323647D01*
X69648926Y-70303163D01*
X69693044Y-70312530D01*
G36*
X65621113Y-62009071D02*
G01*
X65641302Y-62055653D01*
X65632206Y-62098976D01*
X65588547Y-62149653D01*
X65525016Y-62200403D01*
X65453520Y-62258676D01*
X65362012Y-62341425D01*
X65264669Y-62435550D01*
X65209006Y-62492406D01*
X65081252Y-62640669D01*
X64971593Y-62802225D01*
X64872183Y-62989997D01*
X64786288Y-63188850D01*
X64747820Y-63245591D01*
X64700549Y-63254557D01*
X64656463Y-63221519D01*
X64640753Y-63186938D01*
X64645234Y-63134628D01*
X64666372Y-63062769D01*
X64759502Y-62848249D01*
X64893546Y-62629492D01*
X65060726Y-62416746D01*
X65253266Y-62220255D01*
X65398807Y-62097992D01*
X65501195Y-62028019D01*
X65574768Y-61998471D01*
X65621113Y-62009071D01*
G37*
X65621113Y-62009071D02*
X65641302Y-62055653D01*
X65632206Y-62098976D01*
X65588547Y-62149653D01*
X65525016Y-62200403D01*
X65453520Y-62258676D01*
X65362012Y-62341425D01*
X65264669Y-62435550D01*
X65209006Y-62492406D01*
X65081252Y-62640669D01*
X64971593Y-62802225D01*
X64872183Y-62989997D01*
X64786288Y-63188850D01*
X64747820Y-63245591D01*
X64700549Y-63254557D01*
X64656463Y-63221519D01*
X64640753Y-63186938D01*
X64645234Y-63134628D01*
X64666372Y-63062769D01*
X64759502Y-62848249D01*
X64893546Y-62629492D01*
X65060726Y-62416746D01*
X65253266Y-62220255D01*
X65398807Y-62097992D01*
X65501195Y-62028019D01*
X65574768Y-61998471D01*
X65621113Y-62009071D01*
G36*
X68381090Y-62257362D02*
G01*
X68481936Y-62327098D01*
X68500739Y-62341864D01*
X68755151Y-62571016D01*
X68962369Y-62816532D01*
X69123912Y-63080366D01*
X69193844Y-63233998D01*
X69233313Y-63344850D01*
X69245468Y-63418976D01*
X69230040Y-63462648D01*
X69186762Y-63482141D01*
X69183236Y-63482684D01*
X69134610Y-63474526D01*
X69100844Y-63426285D01*
X69097901Y-63419184D01*
X69001620Y-63199271D01*
X68902067Y-63016428D01*
X68791071Y-62857162D01*
X68679256Y-62727721D01*
X68585353Y-62631884D01*
X68488304Y-62539441D01*
X68402246Y-62463572D01*
X68360796Y-62430774D01*
X68284382Y-62368282D01*
X68247397Y-62319798D01*
X68242097Y-62284253D01*
X68263254Y-62236404D01*
X68308891Y-62227286D01*
X68381090Y-62257362D01*
G37*
X68381090Y-62257362D02*
X68481936Y-62327098D01*
X68500739Y-62341864D01*
X68755151Y-62571016D01*
X68962369Y-62816532D01*
X69123912Y-63080366D01*
X69193844Y-63233998D01*
X69233313Y-63344850D01*
X69245468Y-63418976D01*
X69230040Y-63462648D01*
X69186762Y-63482141D01*
X69183236Y-63482684D01*
X69134610Y-63474526D01*
X69100844Y-63426285D01*
X69097901Y-63419184D01*
X69001620Y-63199271D01*
X68902067Y-63016428D01*
X68791071Y-62857162D01*
X68679256Y-62727721D01*
X68585353Y-62631884D01*
X68488304Y-62539441D01*
X68402246Y-62463572D01*
X68360796Y-62430774D01*
X68284382Y-62368282D01*
X68247397Y-62319798D01*
X68242097Y-62284253D01*
X68263254Y-62236404D01*
X68308891Y-62227286D01*
X68381090Y-62257362D01*
G36*
X66780202Y-64598550D02*
G01*
X66769477Y-64678144D01*
X66764264Y-64745583D01*
X66764179Y-64750950D01*
X66760509Y-64780860D01*
X66742513Y-64797984D01*
X66699160Y-64805862D01*
X66619420Y-64808032D01*
X66586100Y-64808100D01*
X66498460Y-64806119D01*
X66434956Y-64800908D01*
X66408439Y-64793560D01*
X66408300Y-64792959D01*
X66414864Y-64762085D01*
X66431795Y-64698343D01*
X66448202Y-64640559D01*
X66488104Y-64503300D01*
X66795946Y-64503300D01*
X66780202Y-64598550D01*
G37*
X66780202Y-64598550D02*
X66769477Y-64678144D01*
X66764264Y-64745583D01*
X66764179Y-64750950D01*
X66760509Y-64780860D01*
X66742513Y-64797984D01*
X66699160Y-64805862D01*
X66619420Y-64808032D01*
X66586100Y-64808100D01*
X66498460Y-64806119D01*
X66434956Y-64800908D01*
X66408439Y-64793560D01*
X66408300Y-64792959D01*
X66414864Y-64762085D01*
X66431795Y-64698343D01*
X66448202Y-64640559D01*
X66488104Y-64503300D01*
X66795946Y-64503300D01*
X66780202Y-64598550D01*
G36*
X66095501Y-62594026D02*
G01*
X66218776Y-62653336D01*
X66324030Y-62746819D01*
X66405760Y-62869201D01*
X66465645Y-63025073D01*
X66505366Y-63219028D01*
X66526601Y-63455655D01*
X66528476Y-63500000D01*
X66517642Y-63890944D01*
X66457711Y-64280833D01*
X66350101Y-64663216D01*
X66196226Y-65031645D01*
X66188865Y-65046531D01*
X66118260Y-65184666D01*
X66058067Y-65290803D01*
X65998349Y-65379491D01*
X65929170Y-65465278D01*
X65840592Y-65562713D01*
X65825077Y-65579170D01*
X65674603Y-65715394D01*
X65524101Y-65807442D01*
X65377234Y-65853844D01*
X65237666Y-65853134D01*
X65179886Y-65837652D01*
X65049679Y-65768351D01*
X64943884Y-65660439D01*
X64860439Y-65511043D01*
X64797284Y-65317291D01*
X64792527Y-65297591D01*
X64770113Y-65153384D01*
X64759870Y-64973453D01*
X64761227Y-64771248D01*
X64765476Y-64698831D01*
X64995715Y-64698831D01*
X64996536Y-64950970D01*
X65008650Y-65069997D01*
X65048456Y-65268844D01*
X65104945Y-65424363D01*
X65176812Y-65535370D01*
X65262753Y-65600681D01*
X65361464Y-65619112D01*
X65471641Y-65589477D01*
X65538446Y-65551050D01*
X65675897Y-65432073D01*
X65808749Y-65265817D01*
X65934322Y-65055767D01*
X65963387Y-64998600D01*
X66117589Y-64635474D01*
X66222397Y-64269985D01*
X66279122Y-63896644D01*
X66290923Y-63627000D01*
X66284136Y-63413035D01*
X66261759Y-63239079D01*
X66221902Y-63096218D01*
X66162671Y-62975543D01*
X66147674Y-62952304D01*
X66066997Y-62861198D01*
X65978489Y-62817801D01*
X65880390Y-62822289D01*
X65770938Y-62874837D01*
X65648373Y-62975621D01*
X65618808Y-63004962D01*
X65482093Y-63172740D01*
X65356594Y-63381106D01*
X65245123Y-63620548D01*
X65150488Y-63881553D01*
X65075502Y-64154610D01*
X65022974Y-64430207D01*
X64995715Y-64698831D01*
X64765476Y-64698831D01*
X64773610Y-64560221D01*
X64796448Y-64353823D01*
X64829170Y-64165505D01*
X64843250Y-64104762D01*
X64926345Y-63819841D01*
X65025777Y-63557304D01*
X65138932Y-63319909D01*
X65263193Y-63110419D01*
X65395945Y-62931592D01*
X65534571Y-62786190D01*
X65676455Y-62676971D01*
X65818982Y-62606698D01*
X65959536Y-62578129D01*
X66095501Y-62594026D01*
G37*
X66095501Y-62594026D02*
X66218776Y-62653336D01*
X66324030Y-62746819D01*
X66405760Y-62869201D01*
X66465645Y-63025073D01*
X66505366Y-63219028D01*
X66526601Y-63455655D01*
X66528476Y-63500000D01*
X66517642Y-63890944D01*
X66457711Y-64280833D01*
X66350101Y-64663216D01*
X66196226Y-65031645D01*
X66188865Y-65046531D01*
X66118260Y-65184666D01*
X66058067Y-65290803D01*
X65998349Y-65379491D01*
X65929170Y-65465278D01*
X65840592Y-65562713D01*
X65825077Y-65579170D01*
X65674603Y-65715394D01*
X65524101Y-65807442D01*
X65377234Y-65853844D01*
X65237666Y-65853134D01*
X65179886Y-65837652D01*
X65049679Y-65768351D01*
X64943884Y-65660439D01*
X64860439Y-65511043D01*
X64797284Y-65317291D01*
X64792527Y-65297591D01*
X64770113Y-65153384D01*
X64759870Y-64973453D01*
X64761227Y-64771248D01*
X64765476Y-64698831D01*
X64995715Y-64698831D01*
X64996536Y-64950970D01*
X65008650Y-65069997D01*
X65048456Y-65268844D01*
X65104945Y-65424363D01*
X65176812Y-65535370D01*
X65262753Y-65600681D01*
X65361464Y-65619112D01*
X65471641Y-65589477D01*
X65538446Y-65551050D01*
X65675897Y-65432073D01*
X65808749Y-65265817D01*
X65934322Y-65055767D01*
X65963387Y-64998600D01*
X66117589Y-64635474D01*
X66222397Y-64269985D01*
X66279122Y-63896644D01*
X66290923Y-63627000D01*
X66284136Y-63413035D01*
X66261759Y-63239079D01*
X66221902Y-63096218D01*
X66162671Y-62975543D01*
X66147674Y-62952304D01*
X66066997Y-62861198D01*
X65978489Y-62817801D01*
X65880390Y-62822289D01*
X65770938Y-62874837D01*
X65648373Y-62975621D01*
X65618808Y-63004962D01*
X65482093Y-63172740D01*
X65356594Y-63381106D01*
X65245123Y-63620548D01*
X65150488Y-63881553D01*
X65075502Y-64154610D01*
X65022974Y-64430207D01*
X64995715Y-64698831D01*
X64765476Y-64698831D01*
X64773610Y-64560221D01*
X64796448Y-64353823D01*
X64829170Y-64165505D01*
X64843250Y-64104762D01*
X64926345Y-63819841D01*
X65025777Y-63557304D01*
X65138932Y-63319909D01*
X65263193Y-63110419D01*
X65395945Y-62931592D01*
X65534571Y-62786190D01*
X65676455Y-62676971D01*
X65818982Y-62606698D01*
X65959536Y-62578129D01*
X66095501Y-62594026D01*
G36*
X68134319Y-62765182D02*
G01*
X68254336Y-62812249D01*
X68366765Y-62898955D01*
X68464673Y-63019914D01*
X68541125Y-63169741D01*
X68542801Y-63174068D01*
X68577142Y-63299426D01*
X68601152Y-63462437D01*
X68614413Y-63650932D01*
X68616510Y-63852742D01*
X68607026Y-64055697D01*
X68585545Y-64247628D01*
X68580588Y-64278778D01*
X68517613Y-64576390D01*
X68431817Y-64860574D01*
X68326213Y-65126208D01*
X68203813Y-65368171D01*
X68067629Y-65581340D01*
X67920673Y-65760594D01*
X67765956Y-65900810D01*
X67606492Y-65996866D01*
X67558971Y-66016024D01*
X67431885Y-66046210D01*
X67309185Y-66038383D01*
X67256220Y-66025156D01*
X67166950Y-65977423D01*
X67076342Y-65891310D01*
X66993801Y-65778085D01*
X66928732Y-65649019D01*
X66917633Y-65619438D01*
X66889701Y-65525944D01*
X66870011Y-65422771D01*
X66856645Y-65296420D01*
X66847679Y-65133388D01*
X66847373Y-65125600D01*
X66849388Y-65013823D01*
X67082460Y-65013823D01*
X67093855Y-65227704D01*
X67125098Y-65416609D01*
X67175596Y-65574789D01*
X67244756Y-65696498D01*
X67327339Y-65773187D01*
X67404794Y-65807318D01*
X67481709Y-65807246D01*
X67571117Y-65771280D01*
X67633665Y-65733415D01*
X67750507Y-65633742D01*
X67867563Y-65490677D01*
X67981118Y-65311475D01*
X68087455Y-65103391D01*
X68182859Y-64873680D01*
X68263613Y-64629598D01*
X68324882Y-64383816D01*
X68362540Y-64152256D01*
X68380120Y-63924051D01*
X68378468Y-63706307D01*
X68358429Y-63506131D01*
X68320851Y-63330631D01*
X68266579Y-63186915D01*
X68196460Y-63082091D01*
X68166645Y-63054567D01*
X68074670Y-63010656D01*
X67973557Y-63012567D01*
X67866176Y-63056759D01*
X67755397Y-63139693D01*
X67644088Y-63257830D01*
X67535120Y-63407631D01*
X67431362Y-63585556D01*
X67335684Y-63788066D01*
X67250954Y-64011621D01*
X67180044Y-64252682D01*
X67173287Y-64279802D01*
X67121583Y-64534124D01*
X67091504Y-64780714D01*
X67082460Y-65013823D01*
X66849388Y-65013823D01*
X66853976Y-64759375D01*
X66903906Y-64403139D01*
X66998802Y-64049619D01*
X67140300Y-63691542D01*
X67196949Y-63572252D01*
X67335630Y-63323917D01*
X67485023Y-63117577D01*
X67643028Y-62955312D01*
X67807546Y-62839201D01*
X67976478Y-62771323D01*
X68013652Y-62763140D01*
X68134319Y-62765182D01*
G37*
X68134319Y-62765182D02*
X68254336Y-62812249D01*
X68366765Y-62898955D01*
X68464673Y-63019914D01*
X68541125Y-63169741D01*
X68542801Y-63174068D01*
X68577142Y-63299426D01*
X68601152Y-63462437D01*
X68614413Y-63650932D01*
X68616510Y-63852742D01*
X68607026Y-64055697D01*
X68585545Y-64247628D01*
X68580588Y-64278778D01*
X68517613Y-64576390D01*
X68431817Y-64860574D01*
X68326213Y-65126208D01*
X68203813Y-65368171D01*
X68067629Y-65581340D01*
X67920673Y-65760594D01*
X67765956Y-65900810D01*
X67606492Y-65996866D01*
X67558971Y-66016024D01*
X67431885Y-66046210D01*
X67309185Y-66038383D01*
X67256220Y-66025156D01*
X67166950Y-65977423D01*
X67076342Y-65891310D01*
X66993801Y-65778085D01*
X66928732Y-65649019D01*
X66917633Y-65619438D01*
X66889701Y-65525944D01*
X66870011Y-65422771D01*
X66856645Y-65296420D01*
X66847679Y-65133388D01*
X66847373Y-65125600D01*
X66849388Y-65013823D01*
X67082460Y-65013823D01*
X67093855Y-65227704D01*
X67125098Y-65416609D01*
X67175596Y-65574789D01*
X67244756Y-65696498D01*
X67327339Y-65773187D01*
X67404794Y-65807318D01*
X67481709Y-65807246D01*
X67571117Y-65771280D01*
X67633665Y-65733415D01*
X67750507Y-65633742D01*
X67867563Y-65490677D01*
X67981118Y-65311475D01*
X68087455Y-65103391D01*
X68182859Y-64873680D01*
X68263613Y-64629598D01*
X68324882Y-64383816D01*
X68362540Y-64152256D01*
X68380120Y-63924051D01*
X68378468Y-63706307D01*
X68358429Y-63506131D01*
X68320851Y-63330631D01*
X68266579Y-63186915D01*
X68196460Y-63082091D01*
X68166645Y-63054567D01*
X68074670Y-63010656D01*
X67973557Y-63012567D01*
X67866176Y-63056759D01*
X67755397Y-63139693D01*
X67644088Y-63257830D01*
X67535120Y-63407631D01*
X67431362Y-63585556D01*
X67335684Y-63788066D01*
X67250954Y-64011621D01*
X67180044Y-64252682D01*
X67173287Y-64279802D01*
X67121583Y-64534124D01*
X67091504Y-64780714D01*
X67082460Y-65013823D01*
X66849388Y-65013823D01*
X66853976Y-64759375D01*
X66903906Y-64403139D01*
X66998802Y-64049619D01*
X67140300Y-63691542D01*
X67196949Y-63572252D01*
X67335630Y-63323917D01*
X67485023Y-63117577D01*
X67643028Y-62955312D01*
X67807546Y-62839201D01*
X67976478Y-62771323D01*
X68013652Y-62763140D01*
X68134319Y-62765182D01*
G36*
X68691284Y-64686052D02*
G01*
X68792193Y-64708072D01*
X68913946Y-64738378D01*
X69047379Y-64774521D01*
X69183329Y-64814053D01*
X69312632Y-64854527D01*
X69426124Y-64893496D01*
X69485622Y-64916268D01*
X69721214Y-65026044D01*
X69910007Y-65145012D01*
X70051334Y-65272267D01*
X70144531Y-65406907D01*
X70188932Y-65548027D01*
X70183873Y-65694723D01*
X70145186Y-65812383D01*
X70061130Y-65939996D01*
X69929912Y-66060832D01*
X69754820Y-66174037D01*
X69539146Y-66278759D01*
X69286180Y-66374145D01*
X68999213Y-66459343D01*
X68681534Y-66533499D01*
X68336433Y-66595762D01*
X67967202Y-66645278D01*
X67577131Y-66681194D01*
X67169509Y-66702658D01*
X66747627Y-66708817D01*
X66687700Y-66708411D01*
X66533222Y-66706573D01*
X66388025Y-66704145D01*
X66263270Y-66701367D01*
X66170119Y-66698476D01*
X66128900Y-66696460D01*
X65655113Y-66655810D01*
X65219526Y-66601035D01*
X64823776Y-66532565D01*
X64469497Y-66450830D01*
X64158325Y-66356262D01*
X63891895Y-66249289D01*
X63671843Y-66130343D01*
X63507441Y-66006827D01*
X63392685Y-65876580D01*
X63326844Y-65740085D01*
X63308907Y-65600494D01*
X63337862Y-65460955D01*
X63412703Y-65324618D01*
X63532418Y-65194633D01*
X63695998Y-65074150D01*
X63830200Y-65000032D01*
X63952065Y-64945114D01*
X64097888Y-64887280D01*
X64251817Y-64832095D01*
X64398001Y-64785126D01*
X64520591Y-64751939D01*
X64560450Y-64743591D01*
X64655700Y-64726246D01*
X64655700Y-64879670D01*
X64655699Y-65033095D01*
X64509650Y-65073166D01*
X64288268Y-65141837D01*
X64090335Y-65218921D01*
X63920534Y-65301604D01*
X63783553Y-65387073D01*
X63684076Y-65472515D01*
X63626791Y-65555115D01*
X63614300Y-65610741D01*
X63638931Y-65693106D01*
X63710265Y-65778482D01*
X63824458Y-65864797D01*
X63977666Y-65949979D01*
X64166046Y-66031955D01*
X64385756Y-66108654D01*
X64632952Y-66178002D01*
X64693800Y-66192815D01*
X65065179Y-66268867D01*
X65458902Y-66327631D01*
X65869055Y-66369438D01*
X66289729Y-66394619D01*
X66715012Y-66403505D01*
X67138993Y-66396426D01*
X67555762Y-66373713D01*
X67959406Y-66335696D01*
X68344016Y-66282706D01*
X68703680Y-66215073D01*
X69032487Y-66133128D01*
X69324525Y-66037202D01*
X69573885Y-65927626D01*
X69590544Y-65918950D01*
X69707633Y-65845781D01*
X69801681Y-65764661D01*
X69864546Y-65684026D01*
X69888085Y-65612309D01*
X69888100Y-65610741D01*
X69863439Y-65527747D01*
X69791959Y-65441945D01*
X69677411Y-65355342D01*
X69523546Y-65269949D01*
X69334116Y-65187772D01*
X69112871Y-65110822D01*
X68863565Y-65041106D01*
X68791820Y-65023758D01*
X68495641Y-64954428D01*
X68533776Y-64824114D01*
X68558171Y-64747754D01*
X68579505Y-64692810D01*
X68588656Y-64676661D01*
X68620384Y-64674766D01*
X68691284Y-64686052D01*
G37*
X68691284Y-64686052D02*
X68792193Y-64708072D01*
X68913946Y-64738378D01*
X69047379Y-64774521D01*
X69183329Y-64814053D01*
X69312632Y-64854527D01*
X69426124Y-64893496D01*
X69485622Y-64916268D01*
X69721214Y-65026044D01*
X69910007Y-65145012D01*
X70051334Y-65272267D01*
X70144531Y-65406907D01*
X70188932Y-65548027D01*
X70183873Y-65694723D01*
X70145186Y-65812383D01*
X70061130Y-65939996D01*
X69929912Y-66060832D01*
X69754820Y-66174037D01*
X69539146Y-66278759D01*
X69286180Y-66374145D01*
X68999213Y-66459343D01*
X68681534Y-66533499D01*
X68336433Y-66595762D01*
X67967202Y-66645278D01*
X67577131Y-66681194D01*
X67169509Y-66702658D01*
X66747627Y-66708817D01*
X66687700Y-66708411D01*
X66533222Y-66706573D01*
X66388025Y-66704145D01*
X66263270Y-66701367D01*
X66170119Y-66698476D01*
X66128900Y-66696460D01*
X65655113Y-66655810D01*
X65219526Y-66601035D01*
X64823776Y-66532565D01*
X64469497Y-66450830D01*
X64158325Y-66356262D01*
X63891895Y-66249289D01*
X63671843Y-66130343D01*
X63507441Y-66006827D01*
X63392685Y-65876580D01*
X63326844Y-65740085D01*
X63308907Y-65600494D01*
X63337862Y-65460955D01*
X63412703Y-65324618D01*
X63532418Y-65194633D01*
X63695998Y-65074150D01*
X63830200Y-65000032D01*
X63952065Y-64945114D01*
X64097888Y-64887280D01*
X64251817Y-64832095D01*
X64398001Y-64785126D01*
X64520591Y-64751939D01*
X64560450Y-64743591D01*
X64655700Y-64726246D01*
X64655700Y-64879670D01*
X64655699Y-65033095D01*
X64509650Y-65073166D01*
X64288268Y-65141837D01*
X64090335Y-65218921D01*
X63920534Y-65301604D01*
X63783553Y-65387073D01*
X63684076Y-65472515D01*
X63626791Y-65555115D01*
X63614300Y-65610741D01*
X63638931Y-65693106D01*
X63710265Y-65778482D01*
X63824458Y-65864797D01*
X63977666Y-65949979D01*
X64166046Y-66031955D01*
X64385756Y-66108654D01*
X64632952Y-66178002D01*
X64693800Y-66192815D01*
X65065179Y-66268867D01*
X65458902Y-66327631D01*
X65869055Y-66369438D01*
X66289729Y-66394619D01*
X66715012Y-66403505D01*
X67138993Y-66396426D01*
X67555762Y-66373713D01*
X67959406Y-66335696D01*
X68344016Y-66282706D01*
X68703680Y-66215073D01*
X69032487Y-66133128D01*
X69324525Y-66037202D01*
X69573885Y-65927626D01*
X69590544Y-65918950D01*
X69707633Y-65845781D01*
X69801681Y-65764661D01*
X69864546Y-65684026D01*
X69888085Y-65612309D01*
X69888100Y-65610741D01*
X69863439Y-65527747D01*
X69791959Y-65441945D01*
X69677411Y-65355342D01*
X69523546Y-65269949D01*
X69334116Y-65187772D01*
X69112871Y-65110822D01*
X68863565Y-65041106D01*
X68791820Y-65023758D01*
X68495641Y-64954428D01*
X68533776Y-64824114D01*
X68558171Y-64747754D01*
X68579505Y-64692810D01*
X68588656Y-64676661D01*
X68620384Y-64674766D01*
X68691284Y-64686052D01*
G36*
X70035793Y-66355371D02*
G01*
X70232128Y-66472410D01*
X70380238Y-66598734D01*
X70479870Y-66731997D01*
X70530766Y-66869854D01*
X70532669Y-67009958D01*
X70485325Y-67149965D01*
X70388477Y-67287529D01*
X70241868Y-67420304D01*
X70158468Y-67478595D01*
X69953699Y-67590824D01*
X69703968Y-67692664D01*
X69414185Y-67783406D01*
X69089257Y-67862342D01*
X68734094Y-67928763D01*
X68353602Y-67981960D01*
X67952690Y-68021224D01*
X67536267Y-68045848D01*
X67109241Y-68055122D01*
X66676519Y-68048337D01*
X66332100Y-68031041D01*
X65948389Y-67997266D01*
X65574663Y-67947990D01*
X65217793Y-67884750D01*
X64884651Y-67809086D01*
X64582106Y-67722537D01*
X64317030Y-67626641D01*
X64120146Y-67535707D01*
X63957361Y-67433271D01*
X63823786Y-67315032D01*
X63724038Y-67187371D01*
X63662734Y-67056669D01*
X63644491Y-66929306D01*
X63649423Y-66885134D01*
X63690293Y-66769713D01*
X63764239Y-66650295D01*
X63858669Y-66545140D01*
X63915144Y-66499746D01*
X64021706Y-66426093D01*
X64211703Y-66486332D01*
X64300910Y-66516390D01*
X64367644Y-66542256D01*
X64400247Y-66559310D01*
X64401700Y-66561631D01*
X64380969Y-66580704D01*
X64329065Y-66610318D01*
X64306450Y-66621355D01*
X64164953Y-66699008D01*
X64055720Y-66782293D01*
X63983432Y-66866249D01*
X63952771Y-66945912D01*
X63956975Y-66991793D01*
X63995790Y-67053997D01*
X64071074Y-67127396D01*
X64172368Y-67203733D01*
X64289213Y-67274755D01*
X64361143Y-67310790D01*
X64639175Y-67420503D01*
X64960121Y-67515371D01*
X65318141Y-67594819D01*
X65707396Y-67658274D01*
X66122044Y-67705162D01*
X66556248Y-67734909D01*
X67004165Y-67746940D01*
X67459957Y-67740681D01*
X67917783Y-67715560D01*
X68210560Y-67689171D01*
X68544861Y-67647373D01*
X68860038Y-67594456D01*
X69152266Y-67531738D01*
X69417717Y-67460535D01*
X69652567Y-67382165D01*
X69852989Y-67297945D01*
X70015157Y-67209191D01*
X70135246Y-67117221D01*
X70209429Y-67023352D01*
X70221420Y-66996993D01*
X70224519Y-66920137D01*
X70182415Y-66835267D01*
X70107174Y-66756594D01*
X70046565Y-66714995D01*
X69954583Y-66662329D01*
X69846929Y-66606623D01*
X69739304Y-66555906D01*
X69647409Y-66518208D01*
X69627750Y-66511438D01*
X69567719Y-66488025D01*
X69535379Y-66467694D01*
X69533517Y-66463480D01*
X69555405Y-66445544D01*
X69612478Y-66413434D01*
X69693410Y-66373407D01*
X69712960Y-66364314D01*
X69891387Y-66282228D01*
X70035793Y-66355371D01*
G37*
X70035793Y-66355371D02*
X70232128Y-66472410D01*
X70380238Y-66598734D01*
X70479870Y-66731997D01*
X70530766Y-66869854D01*
X70532669Y-67009958D01*
X70485325Y-67149965D01*
X70388477Y-67287529D01*
X70241868Y-67420304D01*
X70158468Y-67478595D01*
X69953699Y-67590824D01*
X69703968Y-67692664D01*
X69414185Y-67783406D01*
X69089257Y-67862342D01*
X68734094Y-67928763D01*
X68353602Y-67981960D01*
X67952690Y-68021224D01*
X67536267Y-68045848D01*
X67109241Y-68055122D01*
X66676519Y-68048337D01*
X66332100Y-68031041D01*
X65948389Y-67997266D01*
X65574663Y-67947990D01*
X65217793Y-67884750D01*
X64884651Y-67809086D01*
X64582106Y-67722537D01*
X64317030Y-67626641D01*
X64120146Y-67535707D01*
X63957361Y-67433271D01*
X63823786Y-67315032D01*
X63724038Y-67187371D01*
X63662734Y-67056669D01*
X63644491Y-66929306D01*
X63649423Y-66885134D01*
X63690293Y-66769713D01*
X63764239Y-66650295D01*
X63858669Y-66545140D01*
X63915144Y-66499746D01*
X64021706Y-66426093D01*
X64211703Y-66486332D01*
X64300910Y-66516390D01*
X64367644Y-66542256D01*
X64400247Y-66559310D01*
X64401700Y-66561631D01*
X64380969Y-66580704D01*
X64329065Y-66610318D01*
X64306450Y-66621355D01*
X64164953Y-66699008D01*
X64055720Y-66782293D01*
X63983432Y-66866249D01*
X63952771Y-66945912D01*
X63956975Y-66991793D01*
X63995790Y-67053997D01*
X64071074Y-67127396D01*
X64172368Y-67203733D01*
X64289213Y-67274755D01*
X64361143Y-67310790D01*
X64639175Y-67420503D01*
X64960121Y-67515371D01*
X65318141Y-67594819D01*
X65707396Y-67658274D01*
X66122044Y-67705162D01*
X66556248Y-67734909D01*
X67004165Y-67746940D01*
X67459957Y-67740681D01*
X67917783Y-67715560D01*
X68210560Y-67689171D01*
X68544861Y-67647373D01*
X68860038Y-67594456D01*
X69152266Y-67531738D01*
X69417717Y-67460535D01*
X69652567Y-67382165D01*
X69852989Y-67297945D01*
X70015157Y-67209191D01*
X70135246Y-67117221D01*
X70209429Y-67023352D01*
X70221420Y-66996993D01*
X70224519Y-66920137D01*
X70182415Y-66835267D01*
X70107174Y-66756594D01*
X70046565Y-66714995D01*
X69954583Y-66662329D01*
X69846929Y-66606623D01*
X69739304Y-66555906D01*
X69647409Y-66518208D01*
X69627750Y-66511438D01*
X69567719Y-66488025D01*
X69535379Y-66467694D01*
X69533517Y-66463480D01*
X69555405Y-66445544D01*
X69612478Y-66413434D01*
X69693410Y-66373407D01*
X69712960Y-66364314D01*
X69891387Y-66282228D01*
X70035793Y-66355371D01*
G36*
X70362375Y-67708848D02*
G01*
X70546014Y-67819290D01*
X70689474Y-67942814D01*
X70789810Y-68075871D01*
X70844077Y-68214910D01*
X70853300Y-68300600D01*
X70844185Y-68370823D01*
X70820885Y-68452527D01*
X70789467Y-68530840D01*
X70755996Y-68590888D01*
X70726539Y-68617801D01*
X70723797Y-68618100D01*
X70702244Y-68596767D01*
X70667907Y-68540750D01*
X70628097Y-68462022D01*
X70626855Y-68459350D01*
X70584801Y-68366997D01*
X70548012Y-68283413D01*
X70526473Y-68231709D01*
X70477087Y-68160035D01*
X70385786Y-68081720D01*
X70260068Y-68001929D01*
X70107428Y-67925827D01*
X70043109Y-67898621D01*
X69829818Y-67812634D01*
X70017709Y-67721028D01*
X70205600Y-67629421D01*
X70362375Y-67708848D01*
G37*
X70362375Y-67708848D02*
X70546014Y-67819290D01*
X70689474Y-67942814D01*
X70789810Y-68075871D01*
X70844077Y-68214910D01*
X70853300Y-68300600D01*
X70844185Y-68370823D01*
X70820885Y-68452527D01*
X70789467Y-68530840D01*
X70755996Y-68590888D01*
X70726539Y-68617801D01*
X70723797Y-68618100D01*
X70702244Y-68596767D01*
X70667907Y-68540750D01*
X70628097Y-68462022D01*
X70626855Y-68459350D01*
X70584801Y-68366997D01*
X70548012Y-68283413D01*
X70526473Y-68231709D01*
X70477087Y-68160035D01*
X70385786Y-68081720D01*
X70260068Y-68001929D01*
X70107428Y-67925827D01*
X70043109Y-67898621D01*
X69829818Y-67812634D01*
X70017709Y-67721028D01*
X70205600Y-67629421D01*
X70362375Y-67708848D01*
G36*
X64373327Y-67787316D02*
G01*
X64440885Y-67806350D01*
X64521990Y-67832179D01*
X64602335Y-67859981D01*
X64667614Y-67884931D01*
X64703519Y-67902209D01*
X64706500Y-67905593D01*
X64686016Y-67924299D01*
X64633375Y-67957295D01*
X64586685Y-67983143D01*
X64471854Y-68054339D01*
X64376103Y-68133493D01*
X64307980Y-68212041D01*
X64276034Y-68281415D01*
X64274699Y-68295783D01*
X64299433Y-68380930D01*
X64371567Y-68469339D01*
X64488002Y-68558758D01*
X64645639Y-68646938D01*
X64841378Y-68731627D01*
X64909700Y-68756959D01*
X65203583Y-68847371D01*
X65538934Y-68924725D01*
X65907983Y-68988473D01*
X66302963Y-69038067D01*
X66716106Y-69072961D01*
X67139642Y-69092607D01*
X67565805Y-69096457D01*
X67986826Y-69083965D01*
X68394937Y-69054582D01*
X68677908Y-69022464D01*
X68772598Y-69011262D01*
X68845853Y-69005196D01*
X68884884Y-69005246D01*
X68887820Y-69006354D01*
X68885272Y-69033677D01*
X68868388Y-69094795D01*
X68843195Y-69169700D01*
X68788165Y-69322642D01*
X68493582Y-69352958D01*
X68370989Y-69363543D01*
X68212214Y-69374246D01*
X68031867Y-69384247D01*
X67844556Y-69392726D01*
X67685815Y-69398271D01*
X67172630Y-69413268D01*
X67156119Y-69488438D01*
X67107681Y-69597051D01*
X67017292Y-69694078D01*
X66893657Y-69771806D01*
X66792935Y-69810325D01*
X66714660Y-69832303D01*
X66603248Y-69862078D01*
X66466399Y-69897731D01*
X66311811Y-69937343D01*
X66147186Y-69978994D01*
X65980222Y-70020766D01*
X65818620Y-70060740D01*
X65670078Y-70096997D01*
X65542297Y-70127618D01*
X65442977Y-70150683D01*
X65379816Y-70164274D01*
X65361331Y-70167125D01*
X65315469Y-70156001D01*
X65266062Y-70135005D01*
X65210461Y-70092827D01*
X65154220Y-70029779D01*
X65145412Y-70017323D01*
X65101525Y-69921962D01*
X65087416Y-69806068D01*
X65088758Y-69794072D01*
X65316100Y-69794072D01*
X65329356Y-69875095D01*
X65365200Y-69921961D01*
X65416505Y-69927245D01*
X65450832Y-69918060D01*
X65527531Y-69898195D01*
X65639720Y-69869411D01*
X65780517Y-69833469D01*
X65943040Y-69792130D01*
X66116200Y-69748220D01*
X66294369Y-69702622D01*
X66458417Y-69659722D01*
X66601251Y-69621448D01*
X66715775Y-69589728D01*
X66794897Y-69566489D01*
X66830944Y-69553959D01*
X66881947Y-69514655D01*
X66914502Y-69464644D01*
X66921687Y-69419317D01*
X66902089Y-69395734D01*
X66865587Y-69407142D01*
X66828968Y-69469165D01*
X66828702Y-69469799D01*
X66789204Y-69535084D01*
X66733612Y-69561120D01*
X66662300Y-69558617D01*
X66601740Y-69531225D01*
X66552988Y-69479150D01*
X66535300Y-69427447D01*
X66532442Y-69405063D01*
X66518913Y-69388052D01*
X66487277Y-69374534D01*
X66430098Y-69362629D01*
X66339941Y-69350456D01*
X66209371Y-69336135D01*
X66149784Y-69329962D01*
X66011888Y-69314096D01*
X65868671Y-69294863D01*
X65742485Y-69275368D01*
X65692584Y-69266458D01*
X65600434Y-69251543D01*
X65528311Y-69244928D01*
X65490017Y-69247787D01*
X65488088Y-69249062D01*
X65466430Y-69287398D01*
X65436717Y-69361542D01*
X65403202Y-69458014D01*
X65370139Y-69563335D01*
X65341782Y-69664025D01*
X65322383Y-69746606D01*
X65316100Y-69794072D01*
X65088758Y-69794072D01*
X65103356Y-69663668D01*
X65149614Y-69488792D01*
X65172431Y-69420488D01*
X65257363Y-69176720D01*
X65153381Y-69150168D01*
X65068977Y-69127451D01*
X64993553Y-69105319D01*
X64982142Y-69101682D01*
X64944576Y-69092665D01*
X64918620Y-69102044D01*
X64895438Y-69139154D01*
X64866199Y-69213331D01*
X64859708Y-69231073D01*
X64809990Y-69389553D01*
X64789260Y-69511568D01*
X64797367Y-69595721D01*
X64834159Y-69640615D01*
X64899487Y-69644854D01*
X64904366Y-69643772D01*
X64963260Y-69630698D01*
X64996237Y-69624493D01*
X65010923Y-69645174D01*
X65021081Y-69700949D01*
X65023081Y-69731844D01*
X65021564Y-69803599D01*
X65005316Y-69842359D01*
X64966510Y-69865458D01*
X64961943Y-69867247D01*
X64867556Y-69882103D01*
X64765355Y-69866542D01*
X64680979Y-69824837D01*
X64674444Y-69819335D01*
X64597291Y-69718239D01*
X64561321Y-69588671D01*
X64566487Y-69430154D01*
X64612742Y-69242210D01*
X64617600Y-69227700D01*
X64647737Y-69137031D01*
X64670132Y-69065729D01*
X64680746Y-69026757D01*
X64681100Y-69023913D01*
X64659945Y-69005566D01*
X64603680Y-68971796D01*
X64523103Y-68928933D01*
X64495160Y-68914929D01*
X64298660Y-68800695D01*
X64146989Y-68675901D01*
X64040944Y-68543227D01*
X63981322Y-68405350D01*
X63968921Y-68264947D01*
X64004539Y-68124699D01*
X64088973Y-67987282D01*
X64188314Y-67884593D01*
X64254707Y-67829631D01*
X64308063Y-67791718D01*
X64333624Y-67779900D01*
X64373327Y-67787316D01*
G37*
X64373327Y-67787316D02*
X64440885Y-67806350D01*
X64521990Y-67832179D01*
X64602335Y-67859981D01*
X64667614Y-67884931D01*
X64703519Y-67902209D01*
X64706500Y-67905593D01*
X64686016Y-67924299D01*
X64633375Y-67957295D01*
X64586685Y-67983143D01*
X64471854Y-68054339D01*
X64376103Y-68133493D01*
X64307980Y-68212041D01*
X64276034Y-68281415D01*
X64274699Y-68295783D01*
X64299433Y-68380930D01*
X64371567Y-68469339D01*
X64488002Y-68558758D01*
X64645639Y-68646938D01*
X64841378Y-68731627D01*
X64909700Y-68756959D01*
X65203583Y-68847371D01*
X65538934Y-68924725D01*
X65907983Y-68988473D01*
X66302963Y-69038067D01*
X66716106Y-69072961D01*
X67139642Y-69092607D01*
X67565805Y-69096457D01*
X67986826Y-69083965D01*
X68394937Y-69054582D01*
X68677908Y-69022464D01*
X68772598Y-69011262D01*
X68845853Y-69005196D01*
X68884884Y-69005246D01*
X68887820Y-69006354D01*
X68885272Y-69033677D01*
X68868388Y-69094795D01*
X68843195Y-69169700D01*
X68788165Y-69322642D01*
X68493582Y-69352958D01*
X68370989Y-69363543D01*
X68212214Y-69374246D01*
X68031867Y-69384247D01*
X67844556Y-69392726D01*
X67685815Y-69398271D01*
X67172630Y-69413268D01*
X67156119Y-69488438D01*
X67107681Y-69597051D01*
X67017292Y-69694078D01*
X66893657Y-69771806D01*
X66792935Y-69810325D01*
X66714660Y-69832303D01*
X66603248Y-69862078D01*
X66466399Y-69897731D01*
X66311811Y-69937343D01*
X66147186Y-69978994D01*
X65980222Y-70020766D01*
X65818620Y-70060740D01*
X65670078Y-70096997D01*
X65542297Y-70127618D01*
X65442977Y-70150683D01*
X65379816Y-70164274D01*
X65361331Y-70167125D01*
X65315469Y-70156001D01*
X65266062Y-70135005D01*
X65210461Y-70092827D01*
X65154220Y-70029779D01*
X65145412Y-70017323D01*
X65101525Y-69921962D01*
X65087416Y-69806068D01*
X65088758Y-69794072D01*
X65316100Y-69794072D01*
X65329356Y-69875095D01*
X65365200Y-69921961D01*
X65416505Y-69927245D01*
X65450832Y-69918060D01*
X65527531Y-69898195D01*
X65639720Y-69869411D01*
X65780517Y-69833469D01*
X65943040Y-69792130D01*
X66116200Y-69748220D01*
X66294369Y-69702622D01*
X66458417Y-69659722D01*
X66601251Y-69621448D01*
X66715775Y-69589728D01*
X66794897Y-69566489D01*
X66830944Y-69553959D01*
X66881947Y-69514655D01*
X66914502Y-69464644D01*
X66921687Y-69419317D01*
X66902089Y-69395734D01*
X66865587Y-69407142D01*
X66828968Y-69469165D01*
X66828702Y-69469799D01*
X66789204Y-69535084D01*
X66733612Y-69561120D01*
X66662300Y-69558617D01*
X66601740Y-69531225D01*
X66552988Y-69479150D01*
X66535300Y-69427447D01*
X66532442Y-69405063D01*
X66518913Y-69388052D01*
X66487277Y-69374534D01*
X66430098Y-69362629D01*
X66339941Y-69350456D01*
X66209371Y-69336135D01*
X66149784Y-69329962D01*
X66011888Y-69314096D01*
X65868671Y-69294863D01*
X65742485Y-69275368D01*
X65692584Y-69266458D01*
X65600434Y-69251543D01*
X65528311Y-69244928D01*
X65490017Y-69247787D01*
X65488088Y-69249062D01*
X65466430Y-69287398D01*
X65436717Y-69361542D01*
X65403202Y-69458014D01*
X65370139Y-69563335D01*
X65341782Y-69664025D01*
X65322383Y-69746606D01*
X65316100Y-69794072D01*
X65088758Y-69794072D01*
X65103356Y-69663668D01*
X65149614Y-69488792D01*
X65172431Y-69420488D01*
X65257363Y-69176720D01*
X65153381Y-69150168D01*
X65068977Y-69127451D01*
X64993553Y-69105319D01*
X64982142Y-69101682D01*
X64944576Y-69092665D01*
X64918620Y-69102044D01*
X64895438Y-69139154D01*
X64866199Y-69213331D01*
X64859708Y-69231073D01*
X64809990Y-69389553D01*
X64789260Y-69511568D01*
X64797367Y-69595721D01*
X64834159Y-69640615D01*
X64899487Y-69644854D01*
X64904366Y-69643772D01*
X64963260Y-69630698D01*
X64996237Y-69624493D01*
X65010923Y-69645174D01*
X65021081Y-69700949D01*
X65023081Y-69731844D01*
X65021564Y-69803599D01*
X65005316Y-69842359D01*
X64966510Y-69865458D01*
X64961943Y-69867247D01*
X64867556Y-69882103D01*
X64765355Y-69866542D01*
X64680979Y-69824837D01*
X64674444Y-69819335D01*
X64597291Y-69718239D01*
X64561321Y-69588671D01*
X64566487Y-69430154D01*
X64612742Y-69242210D01*
X64617600Y-69227700D01*
X64647737Y-69137031D01*
X64670132Y-69065729D01*
X64680746Y-69026757D01*
X64681100Y-69023913D01*
X64659945Y-69005566D01*
X64603680Y-68971796D01*
X64523103Y-68928933D01*
X64495160Y-68914929D01*
X64298660Y-68800695D01*
X64146989Y-68675901D01*
X64040944Y-68543227D01*
X63981322Y-68405350D01*
X63968921Y-68264947D01*
X64004539Y-68124699D01*
X64088973Y-67987282D01*
X64188314Y-67884593D01*
X64254707Y-67829631D01*
X64308063Y-67791718D01*
X64333624Y-67779900D01*
X64373327Y-67787316D01*
G36*
X69813517Y-68019582D02*
G01*
X69885993Y-68066851D01*
X69952641Y-68124378D01*
X69999706Y-68180503D01*
X70014024Y-68218896D01*
X69993626Y-68250942D01*
X69944075Y-68292998D01*
X69925322Y-68305649D01*
X69868910Y-68339707D01*
X69839150Y-68346896D01*
X69820197Y-68328182D01*
X69811515Y-68312581D01*
X69757866Y-68250392D01*
X69690844Y-68224812D01*
X69635866Y-68236154D01*
X69605925Y-68256198D01*
X69576341Y-68286305D01*
X69545179Y-68330833D01*
X69510504Y-68394138D01*
X69470379Y-68480578D01*
X69422869Y-68594510D01*
X69366040Y-68740290D01*
X69297956Y-68922276D01*
X69216681Y-69144825D01*
X69149266Y-69331629D01*
X69060213Y-69580571D01*
X68987804Y-69786337D01*
X68930674Y-69953252D01*
X68887460Y-70085641D01*
X68856796Y-70187828D01*
X68837318Y-70264140D01*
X68827662Y-70318899D01*
X68826357Y-70355086D01*
X68834000Y-70459600D01*
X69049900Y-70449982D01*
X69049900Y-70560023D01*
X69042035Y-70641791D01*
X69016978Y-70681871D01*
X69009722Y-70685482D01*
X68928776Y-70700293D01*
X68833852Y-70696055D01*
X68750829Y-70674972D01*
X68725206Y-70661258D01*
X68647642Y-70576295D01*
X68603431Y-70454524D01*
X68592700Y-70334541D01*
X68595287Y-70290728D01*
X68604065Y-70236485D01*
X68620553Y-70166968D01*
X68646272Y-70077337D01*
X68682743Y-69962750D01*
X68731485Y-69818364D01*
X68794021Y-69639339D01*
X68871870Y-69420831D01*
X68933208Y-69250336D01*
X69016919Y-69020753D01*
X69095791Y-68809223D01*
X69167827Y-68620813D01*
X69231033Y-68460592D01*
X69283411Y-68333626D01*
X69322966Y-68244983D01*
X69346127Y-68201905D01*
X69432636Y-68107600D01*
X69539037Y-68036743D01*
X69650877Y-67996787D01*
X69748971Y-67994231D01*
X69813517Y-68019582D01*
G37*
X69813517Y-68019582D02*
X69885993Y-68066851D01*
X69952641Y-68124378D01*
X69999706Y-68180503D01*
X70014024Y-68218896D01*
X69993626Y-68250942D01*
X69944075Y-68292998D01*
X69925322Y-68305649D01*
X69868910Y-68339707D01*
X69839150Y-68346896D01*
X69820197Y-68328182D01*
X69811515Y-68312581D01*
X69757866Y-68250392D01*
X69690844Y-68224812D01*
X69635866Y-68236154D01*
X69605925Y-68256198D01*
X69576341Y-68286305D01*
X69545179Y-68330833D01*
X69510504Y-68394138D01*
X69470379Y-68480578D01*
X69422869Y-68594510D01*
X69366040Y-68740290D01*
X69297956Y-68922276D01*
X69216681Y-69144825D01*
X69149266Y-69331629D01*
X69060213Y-69580571D01*
X68987804Y-69786337D01*
X68930674Y-69953252D01*
X68887460Y-70085641D01*
X68856796Y-70187828D01*
X68837318Y-70264140D01*
X68827662Y-70318899D01*
X68826357Y-70355086D01*
X68834000Y-70459600D01*
X69049900Y-70449982D01*
X69049900Y-70560023D01*
X69042035Y-70641791D01*
X69016978Y-70681871D01*
X69009722Y-70685482D01*
X68928776Y-70700293D01*
X68833852Y-70696055D01*
X68750829Y-70674972D01*
X68725206Y-70661258D01*
X68647642Y-70576295D01*
X68603431Y-70454524D01*
X68592700Y-70334541D01*
X68595287Y-70290728D01*
X68604065Y-70236485D01*
X68620553Y-70166968D01*
X68646272Y-70077337D01*
X68682743Y-69962750D01*
X68731485Y-69818364D01*
X68794021Y-69639339D01*
X68871870Y-69420831D01*
X68933208Y-69250336D01*
X69016919Y-69020753D01*
X69095791Y-68809223D01*
X69167827Y-68620813D01*
X69231033Y-68460592D01*
X69283411Y-68333626D01*
X69322966Y-68244983D01*
X69346127Y-68201905D01*
X69432636Y-68107600D01*
X69539037Y-68036743D01*
X69650877Y-67996787D01*
X69748971Y-67994231D01*
X69813517Y-68019582D01*
G36*
X70316299Y-68288523D02*
G01*
X70425296Y-68357700D01*
X70467118Y-68400179D01*
X70494831Y-68443041D01*
X70539662Y-68526106D01*
X70598493Y-68642981D01*
X70668205Y-68787273D01*
X70745679Y-68952591D01*
X70827796Y-69132542D01*
X70865259Y-69216199D01*
X70967025Y-69446453D01*
X71048703Y-69636237D01*
X71111819Y-69791056D01*
X71157898Y-69916410D01*
X71188467Y-70017805D01*
X71205052Y-70100743D01*
X71209177Y-70170727D01*
X71202369Y-70233260D01*
X71186154Y-70293846D01*
X71173685Y-70328579D01*
X71126861Y-70418367D01*
X71063525Y-70502990D01*
X71048830Y-70518224D01*
X71021338Y-70542314D01*
X70988223Y-70564274D01*
X70943694Y-70586014D01*
X70881963Y-70609443D01*
X70797240Y-70636469D01*
X70683737Y-70669000D01*
X70535664Y-70708947D01*
X70347233Y-70758217D01*
X70225764Y-70789602D01*
X70035487Y-70837898D01*
X69857336Y-70881695D01*
X69698298Y-70919387D01*
X69565363Y-70949365D01*
X69465519Y-70970023D01*
X69405752Y-70979752D01*
X69396869Y-70980300D01*
X69291572Y-70955353D01*
X69230128Y-70914945D01*
X69158539Y-70824343D01*
X69115859Y-70705527D01*
X69110294Y-70619259D01*
X69346634Y-70619259D01*
X69357683Y-70693837D01*
X69385385Y-70741452D01*
X69411221Y-70751491D01*
X69443682Y-70745359D01*
X69518478Y-70728190D01*
X69628759Y-70701655D01*
X69767675Y-70667421D01*
X69928376Y-70627159D01*
X70091300Y-70585786D01*
X70311518Y-70529479D01*
X70487760Y-70484028D01*
X70625249Y-70447639D01*
X70729208Y-70418521D01*
X70804862Y-70394881D01*
X70857433Y-70374926D01*
X70892146Y-70356864D01*
X70914224Y-70338903D01*
X70928890Y-70319249D01*
X70941369Y-70296111D01*
X70942641Y-70293645D01*
X70962285Y-70250087D01*
X70973950Y-70205304D01*
X70976081Y-70154033D01*
X70967124Y-70091012D01*
X70945525Y-70010976D01*
X70909730Y-69908663D01*
X70858184Y-69778809D01*
X70789334Y-69616152D01*
X70701624Y-69415428D01*
X70646440Y-69290637D01*
X70546882Y-69066900D01*
X70464925Y-68886090D01*
X70397938Y-68744538D01*
X70343291Y-68638572D01*
X70298354Y-68564524D01*
X70260496Y-68518721D01*
X70227088Y-68497494D01*
X70195500Y-68497173D01*
X70163101Y-68514088D01*
X70127261Y-68544567D01*
X70118065Y-68553291D01*
X70062202Y-68621417D01*
X70009373Y-68708739D01*
X69993723Y-68741736D01*
X69967299Y-68807488D01*
X69927950Y-68910866D01*
X69878175Y-69044860D01*
X69820474Y-69202460D01*
X69757346Y-69376656D01*
X69691291Y-69560438D01*
X69624807Y-69746796D01*
X69560394Y-69928720D01*
X69500551Y-70099199D01*
X69447778Y-70251224D01*
X69404573Y-70377784D01*
X69373437Y-70471869D01*
X69356868Y-70526470D01*
X69355675Y-70531343D01*
X69346634Y-70619259D01*
X69110294Y-70619259D01*
X69107458Y-70575303D01*
X69111311Y-70543139D01*
X69123372Y-70497729D01*
X69150722Y-70411296D01*
X69191001Y-70290448D01*
X69241847Y-70141798D01*
X69300898Y-69971955D01*
X69365792Y-69787529D01*
X69434167Y-69595132D01*
X69503663Y-69401374D01*
X69571917Y-69212865D01*
X69636568Y-69036215D01*
X69695254Y-68878036D01*
X69745613Y-68744938D01*
X69785285Y-68643531D01*
X69811907Y-68580426D01*
X69814342Y-68575264D01*
X69866075Y-68492033D01*
X69935865Y-68407725D01*
X69964268Y-68379850D01*
X70082336Y-68299458D01*
X70200829Y-68269062D01*
X70316299Y-68288523D01*
G37*
X70316299Y-68288523D02*
X70425296Y-68357700D01*
X70467118Y-68400179D01*
X70494831Y-68443041D01*
X70539662Y-68526106D01*
X70598493Y-68642981D01*
X70668205Y-68787273D01*
X70745679Y-68952591D01*
X70827796Y-69132542D01*
X70865259Y-69216199D01*
X70967025Y-69446453D01*
X71048703Y-69636237D01*
X71111819Y-69791056D01*
X71157898Y-69916410D01*
X71188467Y-70017805D01*
X71205052Y-70100743D01*
X71209177Y-70170727D01*
X71202369Y-70233260D01*
X71186154Y-70293846D01*
X71173685Y-70328579D01*
X71126861Y-70418367D01*
X71063525Y-70502990D01*
X71048830Y-70518224D01*
X71021338Y-70542314D01*
X70988223Y-70564274D01*
X70943694Y-70586014D01*
X70881963Y-70609443D01*
X70797240Y-70636469D01*
X70683737Y-70669000D01*
X70535664Y-70708947D01*
X70347233Y-70758217D01*
X70225764Y-70789602D01*
X70035487Y-70837898D01*
X69857336Y-70881695D01*
X69698298Y-70919387D01*
X69565363Y-70949365D01*
X69465519Y-70970023D01*
X69405752Y-70979752D01*
X69396869Y-70980300D01*
X69291572Y-70955353D01*
X69230128Y-70914945D01*
X69158539Y-70824343D01*
X69115859Y-70705527D01*
X69110294Y-70619259D01*
X69346634Y-70619259D01*
X69357683Y-70693837D01*
X69385385Y-70741452D01*
X69411221Y-70751491D01*
X69443682Y-70745359D01*
X69518478Y-70728190D01*
X69628759Y-70701655D01*
X69767675Y-70667421D01*
X69928376Y-70627159D01*
X70091300Y-70585786D01*
X70311518Y-70529479D01*
X70487760Y-70484028D01*
X70625249Y-70447639D01*
X70729208Y-70418521D01*
X70804862Y-70394881D01*
X70857433Y-70374926D01*
X70892146Y-70356864D01*
X70914224Y-70338903D01*
X70928890Y-70319249D01*
X70941369Y-70296111D01*
X70942641Y-70293645D01*
X70962285Y-70250087D01*
X70973950Y-70205304D01*
X70976081Y-70154033D01*
X70967124Y-70091012D01*
X70945525Y-70010976D01*
X70909730Y-69908663D01*
X70858184Y-69778809D01*
X70789334Y-69616152D01*
X70701624Y-69415428D01*
X70646440Y-69290637D01*
X70546882Y-69066900D01*
X70464925Y-68886090D01*
X70397938Y-68744538D01*
X70343291Y-68638572D01*
X70298354Y-68564524D01*
X70260496Y-68518721D01*
X70227088Y-68497494D01*
X70195500Y-68497173D01*
X70163101Y-68514088D01*
X70127261Y-68544567D01*
X70118065Y-68553291D01*
X70062202Y-68621417D01*
X70009373Y-68708739D01*
X69993723Y-68741736D01*
X69967299Y-68807488D01*
X69927950Y-68910866D01*
X69878175Y-69044860D01*
X69820474Y-69202460D01*
X69757346Y-69376656D01*
X69691291Y-69560438D01*
X69624807Y-69746796D01*
X69560394Y-69928720D01*
X69500551Y-70099199D01*
X69447778Y-70251224D01*
X69404573Y-70377784D01*
X69373437Y-70471869D01*
X69356868Y-70526470D01*
X69355675Y-70531343D01*
X69346634Y-70619259D01*
X69110294Y-70619259D01*
X69107458Y-70575303D01*
X69111311Y-70543139D01*
X69123372Y-70497729D01*
X69150722Y-70411296D01*
X69191001Y-70290448D01*
X69241847Y-70141798D01*
X69300898Y-69971955D01*
X69365792Y-69787529D01*
X69434167Y-69595132D01*
X69503663Y-69401374D01*
X69571917Y-69212865D01*
X69636568Y-69036215D01*
X69695254Y-68878036D01*
X69745613Y-68744938D01*
X69785285Y-68643531D01*
X69811907Y-68580426D01*
X69814342Y-68575264D01*
X69866075Y-68492033D01*
X69935865Y-68407725D01*
X69964268Y-68379850D01*
X70082336Y-68299458D01*
X70200829Y-68269062D01*
X70316299Y-68288523D01*
D11*
G04 #@! TO.C,J24*
X50753000Y-87015000D02*
X56723000Y-87015000D01*
X56723000Y-87015000D02*
X56723000Y-76895000D01*
X56723000Y-76895000D02*
X50753000Y-76895000D01*
X50753000Y-76895000D02*
X50753000Y-87015000D01*
X50763000Y-83705000D02*
X51513000Y-83705000D01*
X51513000Y-83705000D02*
X51513000Y-80205000D01*
X51513000Y-80205000D02*
X50763000Y-80205000D01*
X50763000Y-80205000D02*
X50763000Y-83705000D01*
X50763000Y-87005000D02*
X51513000Y-87005000D01*
X51513000Y-87005000D02*
X51513000Y-85205000D01*
X51513000Y-85205000D02*
X50763000Y-85205000D01*
X50763000Y-85205000D02*
X50763000Y-87005000D01*
X50763000Y-78705000D02*
X51513000Y-78705000D01*
X51513000Y-78705000D02*
X51513000Y-76905000D01*
X51513000Y-76905000D02*
X50763000Y-76905000D01*
X50763000Y-76905000D02*
X50763000Y-78705000D01*
X53013000Y-87005000D02*
X53013000Y-86255000D01*
X53013000Y-86255000D02*
X55963000Y-86255000D01*
X55963000Y-86255000D02*
X55963000Y-81955000D01*
X53013000Y-76905000D02*
X53013000Y-77655000D01*
X53013000Y-77655000D02*
X55963000Y-77655000D01*
X55963000Y-77655000D02*
X55963000Y-81955000D01*
X50463000Y-86055000D02*
X50463000Y-87305000D01*
X50463000Y-87305000D02*
X51713000Y-87305000D01*
G04 #@! TO.C,J27*
X80966000Y-58995000D02*
X80966000Y-61655000D01*
X86106000Y-58995000D02*
X80966000Y-58995000D01*
X86106000Y-61655000D02*
X80966000Y-61655000D01*
X86106000Y-58995000D02*
X86106000Y-61655000D01*
X87376000Y-58995000D02*
X88706000Y-58995000D01*
X88706000Y-58995000D02*
X88706000Y-60325000D01*
G04 #@! TO.C,J26*
X90631000Y-54376000D02*
X96601000Y-54376000D01*
X96601000Y-54376000D02*
X96601000Y-41756000D01*
X96601000Y-41756000D02*
X90631000Y-41756000D01*
X90631000Y-41756000D02*
X90631000Y-54376000D01*
X90641000Y-51066000D02*
X91391000Y-51066000D01*
X91391000Y-51066000D02*
X91391000Y-45066000D01*
X91391000Y-45066000D02*
X90641000Y-45066000D01*
X90641000Y-45066000D02*
X90641000Y-51066000D01*
X90641000Y-54366000D02*
X91391000Y-54366000D01*
X91391000Y-54366000D02*
X91391000Y-52566000D01*
X91391000Y-52566000D02*
X90641000Y-52566000D01*
X90641000Y-52566000D02*
X90641000Y-54366000D01*
X90641000Y-43566000D02*
X91391000Y-43566000D01*
X91391000Y-43566000D02*
X91391000Y-41766000D01*
X91391000Y-41766000D02*
X90641000Y-41766000D01*
X90641000Y-41766000D02*
X90641000Y-43566000D01*
X92891000Y-54366000D02*
X92891000Y-53616000D01*
X92891000Y-53616000D02*
X95841000Y-53616000D01*
X95841000Y-53616000D02*
X95841000Y-48066000D01*
X92891000Y-41766000D02*
X92891000Y-42516000D01*
X92891000Y-42516000D02*
X95841000Y-42516000D01*
X95841000Y-42516000D02*
X95841000Y-48066000D01*
X90341000Y-53416000D02*
X90341000Y-54666000D01*
X90341000Y-54666000D02*
X91591000Y-54666000D01*
G04 #@! TO.C,J25*
X83519000Y-54376000D02*
X89489000Y-54376000D01*
X89489000Y-54376000D02*
X89489000Y-41756000D01*
X89489000Y-41756000D02*
X83519000Y-41756000D01*
X83519000Y-41756000D02*
X83519000Y-54376000D01*
X83529000Y-51066000D02*
X84279000Y-51066000D01*
X84279000Y-51066000D02*
X84279000Y-45066000D01*
X84279000Y-45066000D02*
X83529000Y-45066000D01*
X83529000Y-45066000D02*
X83529000Y-51066000D01*
X83529000Y-54366000D02*
X84279000Y-54366000D01*
X84279000Y-54366000D02*
X84279000Y-52566000D01*
X84279000Y-52566000D02*
X83529000Y-52566000D01*
X83529000Y-52566000D02*
X83529000Y-54366000D01*
X83529000Y-43566000D02*
X84279000Y-43566000D01*
X84279000Y-43566000D02*
X84279000Y-41766000D01*
X84279000Y-41766000D02*
X83529000Y-41766000D01*
X83529000Y-41766000D02*
X83529000Y-43566000D01*
X85779000Y-54366000D02*
X85779000Y-53616000D01*
X85779000Y-53616000D02*
X88729000Y-53616000D01*
X88729000Y-53616000D02*
X88729000Y-48066000D01*
X85779000Y-41766000D02*
X85779000Y-42516000D01*
X85779000Y-42516000D02*
X88729000Y-42516000D01*
X88729000Y-42516000D02*
X88729000Y-48066000D01*
X83229000Y-53416000D02*
X83229000Y-54666000D01*
X83229000Y-54666000D02*
X84479000Y-54666000D01*
G04 #@! TO.C,SW1*
X84204000Y-90196000D02*
X93024000Y-90196000D01*
X93024000Y-90196000D02*
X93024000Y-90506000D01*
X93024000Y-94716000D02*
X84204000Y-94716000D01*
X84204000Y-90506000D02*
X84204000Y-90196000D01*
X84204000Y-94716000D02*
X84204000Y-94406000D01*
X93024000Y-94716000D02*
X93024000Y-94406000D01*
X86063200Y-93915600D02*
X86563200Y-94415600D01*
X86563200Y-94415600D02*
X87063200Y-93915600D01*
X87063200Y-93915600D02*
X86063200Y-93915600D01*
G04 #@! TO.C,J5*
X77343000Y-86554000D02*
X77343000Y-89214000D01*
X77343000Y-86554000D02*
X74743000Y-86554000D01*
X74743000Y-86554000D02*
X74743000Y-89214000D01*
X77343000Y-89214000D02*
X74743000Y-89214000D01*
X79943000Y-89214000D02*
X78613000Y-89214000D01*
X79943000Y-87884000D02*
X79943000Y-89214000D01*
G04 #@! TO.C,J4*
X101921000Y-38735000D02*
X104581000Y-38735000D01*
X101921000Y-38735000D02*
X101921000Y-41335000D01*
X101921000Y-41335000D02*
X104581000Y-41335000D01*
X104581000Y-38735000D02*
X104581000Y-41335000D01*
X104581000Y-36135000D02*
X104581000Y-37465000D01*
X103251000Y-36135000D02*
X104581000Y-36135000D01*
G04 #@! TO.C,J2*
X99374000Y-93024000D02*
X99374000Y-90364000D01*
X96774000Y-93024000D02*
X99374000Y-93024000D01*
X96774000Y-90364000D02*
X99374000Y-90364000D01*
X96774000Y-93024000D02*
X96774000Y-90364000D01*
X95504000Y-93024000D02*
X94174000Y-93024000D01*
X94174000Y-93024000D02*
X94174000Y-91694000D01*
G04 #@! TO.C,J7*
X91380000Y-58995000D02*
X91380000Y-61655000D01*
X96520000Y-58995000D02*
X91380000Y-58995000D01*
X96520000Y-61655000D02*
X91380000Y-61655000D01*
X96520000Y-58995000D02*
X96520000Y-61655000D01*
X97790000Y-58995000D02*
X99120000Y-58995000D01*
X99120000Y-58995000D02*
X99120000Y-60325000D01*
G04 #@! TO.C,J20*
X50753000Y-63901000D02*
X56723000Y-63901000D01*
X56723000Y-63901000D02*
X56723000Y-53781000D01*
X56723000Y-53781000D02*
X50753000Y-53781000D01*
X50753000Y-53781000D02*
X50753000Y-63901000D01*
X50763000Y-60591000D02*
X51513000Y-60591000D01*
X51513000Y-60591000D02*
X51513000Y-57091000D01*
X51513000Y-57091000D02*
X50763000Y-57091000D01*
X50763000Y-57091000D02*
X50763000Y-60591000D01*
X50763000Y-63891000D02*
X51513000Y-63891000D01*
X51513000Y-63891000D02*
X51513000Y-62091000D01*
X51513000Y-62091000D02*
X50763000Y-62091000D01*
X50763000Y-62091000D02*
X50763000Y-63891000D01*
X50763000Y-55591000D02*
X51513000Y-55591000D01*
X51513000Y-55591000D02*
X51513000Y-53791000D01*
X51513000Y-53791000D02*
X50763000Y-53791000D01*
X50763000Y-53791000D02*
X50763000Y-55591000D01*
X53013000Y-63891000D02*
X53013000Y-63141000D01*
X53013000Y-63141000D02*
X55963000Y-63141000D01*
X55963000Y-63141000D02*
X55963000Y-58841000D01*
X53013000Y-53791000D02*
X53013000Y-54541000D01*
X53013000Y-54541000D02*
X55963000Y-54541000D01*
X55963000Y-54541000D02*
X55963000Y-58841000D01*
X50463000Y-62941000D02*
X50463000Y-64191000D01*
X50463000Y-64191000D02*
X51713000Y-64191000D01*
G04 #@! TO.C,J9*
X102048000Y-45847000D02*
X104708000Y-45847000D01*
X102048000Y-45847000D02*
X102048000Y-58607000D01*
X102048000Y-58607000D02*
X104708000Y-58607000D01*
X104708000Y-45847000D02*
X104708000Y-58607000D01*
X104708000Y-43247000D02*
X104708000Y-44577000D01*
X103378000Y-43247000D02*
X104708000Y-43247000D01*
G04 #@! TO.C,J19*
X80344000Y-88158000D02*
X86314000Y-88158000D01*
X86314000Y-88158000D02*
X86314000Y-75538000D01*
X86314000Y-75538000D02*
X80344000Y-75538000D01*
X80344000Y-75538000D02*
X80344000Y-88158000D01*
X80354000Y-84848000D02*
X81104000Y-84848000D01*
X81104000Y-84848000D02*
X81104000Y-78848000D01*
X81104000Y-78848000D02*
X80354000Y-78848000D01*
X80354000Y-78848000D02*
X80354000Y-84848000D01*
X80354000Y-88148000D02*
X81104000Y-88148000D01*
X81104000Y-88148000D02*
X81104000Y-86348000D01*
X81104000Y-86348000D02*
X80354000Y-86348000D01*
X80354000Y-86348000D02*
X80354000Y-88148000D01*
X80354000Y-77348000D02*
X81104000Y-77348000D01*
X81104000Y-77348000D02*
X81104000Y-75548000D01*
X81104000Y-75548000D02*
X80354000Y-75548000D01*
X80354000Y-75548000D02*
X80354000Y-77348000D01*
X82604000Y-88148000D02*
X82604000Y-87398000D01*
X82604000Y-87398000D02*
X85554000Y-87398000D01*
X85554000Y-87398000D02*
X85554000Y-81848000D01*
X82604000Y-75548000D02*
X82604000Y-76298000D01*
X82604000Y-76298000D02*
X85554000Y-76298000D01*
X85554000Y-76298000D02*
X85554000Y-81848000D01*
X80054000Y-87198000D02*
X80054000Y-88448000D01*
X80054000Y-88448000D02*
X81304000Y-88448000D01*
G04 #@! TO.C,J23*
X50463000Y-40950000D02*
X51713000Y-40950000D01*
X50463000Y-39700000D02*
X50463000Y-40950000D01*
X55963000Y-31300000D02*
X55963000Y-35600000D01*
X53013000Y-31300000D02*
X55963000Y-31300000D01*
X53013000Y-30550000D02*
X53013000Y-31300000D01*
X55963000Y-39900000D02*
X55963000Y-35600000D01*
X53013000Y-39900000D02*
X55963000Y-39900000D01*
X53013000Y-40650000D02*
X53013000Y-39900000D01*
X50763000Y-30550000D02*
X50763000Y-32350000D01*
X51513000Y-30550000D02*
X50763000Y-30550000D01*
X51513000Y-32350000D02*
X51513000Y-30550000D01*
X50763000Y-32350000D02*
X51513000Y-32350000D01*
X50763000Y-38850000D02*
X50763000Y-40650000D01*
X51513000Y-38850000D02*
X50763000Y-38850000D01*
X51513000Y-40650000D02*
X51513000Y-38850000D01*
X50763000Y-40650000D02*
X51513000Y-40650000D01*
X50763000Y-33850000D02*
X50763000Y-37350000D01*
X51513000Y-33850000D02*
X50763000Y-33850000D01*
X51513000Y-37350000D02*
X51513000Y-33850000D01*
X50763000Y-37350000D02*
X51513000Y-37350000D01*
X50753000Y-30540000D02*
X50753000Y-40660000D01*
X56723000Y-30540000D02*
X50753000Y-30540000D01*
X56723000Y-40660000D02*
X56723000Y-30540000D01*
X50753000Y-40660000D02*
X56723000Y-40660000D01*
G04 #@! TO.C,J12*
X58943000Y-99702000D02*
X58943000Y-91592000D01*
X58943000Y-99702000D02*
X58293000Y-99702000D01*
X58943000Y-84742000D02*
X72263000Y-84742000D01*
X58943000Y-84742000D02*
X58943000Y-88072000D01*
X72263000Y-84742000D02*
X72263000Y-88072000D01*
X72913000Y-100222000D02*
X72913000Y-99702000D01*
X58293000Y-100222000D02*
X72913000Y-100222000D01*
X72263000Y-91592000D02*
X72263000Y-99702000D01*
X58293000Y-99702000D02*
X58293000Y-100222000D01*
X72913000Y-99702000D02*
X72263000Y-99702000D01*
X61203000Y-84522000D02*
X63003000Y-84522000D01*
G04 #@! TO.C,J18*
X80344000Y-74569000D02*
X86314000Y-74569000D01*
X86314000Y-74569000D02*
X86314000Y-61949000D01*
X86314000Y-61949000D02*
X80344000Y-61949000D01*
X80344000Y-61949000D02*
X80344000Y-74569000D01*
X80354000Y-71259000D02*
X81104000Y-71259000D01*
X81104000Y-71259000D02*
X81104000Y-65259000D01*
X81104000Y-65259000D02*
X80354000Y-65259000D01*
X80354000Y-65259000D02*
X80354000Y-71259000D01*
X80354000Y-74559000D02*
X81104000Y-74559000D01*
X81104000Y-74559000D02*
X81104000Y-72759000D01*
X81104000Y-72759000D02*
X80354000Y-72759000D01*
X80354000Y-72759000D02*
X80354000Y-74559000D01*
X80354000Y-63759000D02*
X81104000Y-63759000D01*
X81104000Y-63759000D02*
X81104000Y-61959000D01*
X81104000Y-61959000D02*
X80354000Y-61959000D01*
X80354000Y-61959000D02*
X80354000Y-63759000D01*
X82604000Y-74559000D02*
X82604000Y-73809000D01*
X82604000Y-73809000D02*
X85554000Y-73809000D01*
X85554000Y-73809000D02*
X85554000Y-68259000D01*
X82604000Y-61959000D02*
X82604000Y-62709000D01*
X82604000Y-62709000D02*
X85554000Y-62709000D01*
X85554000Y-62709000D02*
X85554000Y-68259000D01*
X80054000Y-73609000D02*
X80054000Y-74859000D01*
X80054000Y-74859000D02*
X81304000Y-74859000D01*
G04 #@! TO.C,J14*
X88563000Y-74859000D02*
X89813000Y-74859000D01*
X88563000Y-73609000D02*
X88563000Y-74859000D01*
X94063000Y-62709000D02*
X94063000Y-68259000D01*
X91113000Y-62709000D02*
X94063000Y-62709000D01*
X91113000Y-61959000D02*
X91113000Y-62709000D01*
X94063000Y-73809000D02*
X94063000Y-68259000D01*
X91113000Y-73809000D02*
X94063000Y-73809000D01*
X91113000Y-74559000D02*
X91113000Y-73809000D01*
X88863000Y-61959000D02*
X88863000Y-63759000D01*
X89613000Y-61959000D02*
X88863000Y-61959000D01*
X89613000Y-63759000D02*
X89613000Y-61959000D01*
X88863000Y-63759000D02*
X89613000Y-63759000D01*
X88863000Y-72759000D02*
X88863000Y-74559000D01*
X89613000Y-72759000D02*
X88863000Y-72759000D01*
X89613000Y-74559000D02*
X89613000Y-72759000D01*
X88863000Y-74559000D02*
X89613000Y-74559000D01*
X88863000Y-65259000D02*
X88863000Y-71259000D01*
X89613000Y-65259000D02*
X88863000Y-65259000D01*
X89613000Y-71259000D02*
X89613000Y-65259000D01*
X88863000Y-71259000D02*
X89613000Y-71259000D01*
X88853000Y-61949000D02*
X88853000Y-74569000D01*
X94823000Y-61949000D02*
X88853000Y-61949000D01*
X94823000Y-74569000D02*
X94823000Y-61949000D01*
X88853000Y-74569000D02*
X94823000Y-74569000D01*
G04 #@! TO.C,J21*
X50463000Y-75748000D02*
X51713000Y-75748000D01*
X50463000Y-74498000D02*
X50463000Y-75748000D01*
X55963000Y-66098000D02*
X55963000Y-70398000D01*
X53013000Y-66098000D02*
X55963000Y-66098000D01*
X53013000Y-65348000D02*
X53013000Y-66098000D01*
X55963000Y-74698000D02*
X55963000Y-70398000D01*
X53013000Y-74698000D02*
X55963000Y-74698000D01*
X53013000Y-75448000D02*
X53013000Y-74698000D01*
X50763000Y-65348000D02*
X50763000Y-67148000D01*
X51513000Y-65348000D02*
X50763000Y-65348000D01*
X51513000Y-67148000D02*
X51513000Y-65348000D01*
X50763000Y-67148000D02*
X51513000Y-67148000D01*
X50763000Y-73648000D02*
X50763000Y-75448000D01*
X51513000Y-73648000D02*
X50763000Y-73648000D01*
X51513000Y-75448000D02*
X51513000Y-73648000D01*
X50763000Y-75448000D02*
X51513000Y-75448000D01*
X50763000Y-68648000D02*
X50763000Y-72148000D01*
X51513000Y-68648000D02*
X50763000Y-68648000D01*
X51513000Y-72148000D02*
X51513000Y-68648000D01*
X50763000Y-72148000D02*
X51513000Y-72148000D01*
X50753000Y-65338000D02*
X50753000Y-75458000D01*
X56723000Y-65338000D02*
X50753000Y-65338000D01*
X56723000Y-75458000D02*
X56723000Y-65338000D01*
X50753000Y-75458000D02*
X56723000Y-75458000D01*
G04 #@! TO.C,J17*
X97235000Y-74569000D02*
X103205000Y-74569000D01*
X103205000Y-74569000D02*
X103205000Y-61949000D01*
X103205000Y-61949000D02*
X97235000Y-61949000D01*
X97235000Y-61949000D02*
X97235000Y-74569000D01*
X97245000Y-71259000D02*
X97995000Y-71259000D01*
X97995000Y-71259000D02*
X97995000Y-65259000D01*
X97995000Y-65259000D02*
X97245000Y-65259000D01*
X97245000Y-65259000D02*
X97245000Y-71259000D01*
X97245000Y-74559000D02*
X97995000Y-74559000D01*
X97995000Y-74559000D02*
X97995000Y-72759000D01*
X97995000Y-72759000D02*
X97245000Y-72759000D01*
X97245000Y-72759000D02*
X97245000Y-74559000D01*
X97245000Y-63759000D02*
X97995000Y-63759000D01*
X97995000Y-63759000D02*
X97995000Y-61959000D01*
X97995000Y-61959000D02*
X97245000Y-61959000D01*
X97245000Y-61959000D02*
X97245000Y-63759000D01*
X99495000Y-74559000D02*
X99495000Y-73809000D01*
X99495000Y-73809000D02*
X102445000Y-73809000D01*
X102445000Y-73809000D02*
X102445000Y-68259000D01*
X99495000Y-61959000D02*
X99495000Y-62709000D01*
X99495000Y-62709000D02*
X102445000Y-62709000D01*
X102445000Y-62709000D02*
X102445000Y-68259000D01*
X96945000Y-73609000D02*
X96945000Y-74859000D01*
X96945000Y-74859000D02*
X98195000Y-74859000D01*
G04 #@! TO.C,J15*
X88853000Y-88285000D02*
X94823000Y-88285000D01*
X94823000Y-88285000D02*
X94823000Y-75665000D01*
X94823000Y-75665000D02*
X88853000Y-75665000D01*
X88853000Y-75665000D02*
X88853000Y-88285000D01*
X88863000Y-84975000D02*
X89613000Y-84975000D01*
X89613000Y-84975000D02*
X89613000Y-78975000D01*
X89613000Y-78975000D02*
X88863000Y-78975000D01*
X88863000Y-78975000D02*
X88863000Y-84975000D01*
X88863000Y-88275000D02*
X89613000Y-88275000D01*
X89613000Y-88275000D02*
X89613000Y-86475000D01*
X89613000Y-86475000D02*
X88863000Y-86475000D01*
X88863000Y-86475000D02*
X88863000Y-88275000D01*
X88863000Y-77475000D02*
X89613000Y-77475000D01*
X89613000Y-77475000D02*
X89613000Y-75675000D01*
X89613000Y-75675000D02*
X88863000Y-75675000D01*
X88863000Y-75675000D02*
X88863000Y-77475000D01*
X91113000Y-88275000D02*
X91113000Y-87525000D01*
X91113000Y-87525000D02*
X94063000Y-87525000D01*
X94063000Y-87525000D02*
X94063000Y-81975000D01*
X91113000Y-75675000D02*
X91113000Y-76425000D01*
X91113000Y-76425000D02*
X94063000Y-76425000D01*
X94063000Y-76425000D02*
X94063000Y-81975000D01*
X88563000Y-87325000D02*
X88563000Y-88575000D01*
X88563000Y-88575000D02*
X89813000Y-88575000D01*
G04 #@! TO.C,J16*
X97235000Y-88285000D02*
X103205000Y-88285000D01*
X103205000Y-88285000D02*
X103205000Y-75665000D01*
X103205000Y-75665000D02*
X97235000Y-75665000D01*
X97235000Y-75665000D02*
X97235000Y-88285000D01*
X97245000Y-84975000D02*
X97995000Y-84975000D01*
X97995000Y-84975000D02*
X97995000Y-78975000D01*
X97995000Y-78975000D02*
X97245000Y-78975000D01*
X97245000Y-78975000D02*
X97245000Y-84975000D01*
X97245000Y-88275000D02*
X97995000Y-88275000D01*
X97995000Y-88275000D02*
X97995000Y-86475000D01*
X97995000Y-86475000D02*
X97245000Y-86475000D01*
X97245000Y-86475000D02*
X97245000Y-88275000D01*
X97245000Y-77475000D02*
X97995000Y-77475000D01*
X97995000Y-77475000D02*
X97995000Y-75675000D01*
X97995000Y-75675000D02*
X97245000Y-75675000D01*
X97245000Y-75675000D02*
X97245000Y-77475000D01*
X99495000Y-88275000D02*
X99495000Y-87525000D01*
X99495000Y-87525000D02*
X102445000Y-87525000D01*
X102445000Y-87525000D02*
X102445000Y-81975000D01*
X99495000Y-75675000D02*
X99495000Y-76425000D01*
X99495000Y-76425000D02*
X102445000Y-76425000D01*
X102445000Y-76425000D02*
X102445000Y-81975000D01*
X96945000Y-87325000D02*
X96945000Y-88575000D01*
X96945000Y-88575000D02*
X98195000Y-88575000D01*
G04 #@! TO.C,J22*
X50463000Y-52507000D02*
X51713000Y-52507000D01*
X50463000Y-51257000D02*
X50463000Y-52507000D01*
X55963000Y-42857000D02*
X55963000Y-47157000D01*
X53013000Y-42857000D02*
X55963000Y-42857000D01*
X53013000Y-42107000D02*
X53013000Y-42857000D01*
X55963000Y-51457000D02*
X55963000Y-47157000D01*
X53013000Y-51457000D02*
X55963000Y-51457000D01*
X53013000Y-52207000D02*
X53013000Y-51457000D01*
X50763000Y-42107000D02*
X50763000Y-43907000D01*
X51513000Y-42107000D02*
X50763000Y-42107000D01*
X51513000Y-43907000D02*
X51513000Y-42107000D01*
X50763000Y-43907000D02*
X51513000Y-43907000D01*
X50763000Y-50407000D02*
X50763000Y-52207000D01*
X51513000Y-50407000D02*
X50763000Y-50407000D01*
X51513000Y-52207000D02*
X51513000Y-50407000D01*
X50763000Y-52207000D02*
X51513000Y-52207000D01*
X50763000Y-45407000D02*
X50763000Y-48907000D01*
X51513000Y-45407000D02*
X50763000Y-45407000D01*
X51513000Y-48907000D02*
X51513000Y-45407000D01*
X50763000Y-48907000D02*
X51513000Y-48907000D01*
X50753000Y-42097000D02*
X50753000Y-52217000D01*
X56723000Y-42097000D02*
X50753000Y-42097000D01*
X56723000Y-52217000D02*
X56723000Y-42097000D01*
X50753000Y-52217000D02*
X56723000Y-52217000D01*
G04 #@! TO.C,J24*
D10*
X51879666Y-87699857D02*
X52146333Y-87699857D01*
X52260619Y-88118904D02*
X51879666Y-88118904D01*
X51879666Y-87318904D01*
X52260619Y-87318904D01*
X52603476Y-88118904D02*
X52603476Y-87318904D01*
X53060619Y-88118904D01*
X53060619Y-87318904D01*
X53898714Y-88042714D02*
X53860619Y-88080809D01*
X53746333Y-88118904D01*
X53670142Y-88118904D01*
X53555857Y-88080809D01*
X53479666Y-88004619D01*
X53441571Y-87928428D01*
X53403476Y-87776047D01*
X53403476Y-87661761D01*
X53441571Y-87509380D01*
X53479666Y-87433190D01*
X53555857Y-87357000D01*
X53670142Y-87318904D01*
X53746333Y-87318904D01*
X53860619Y-87357000D01*
X53898714Y-87395095D01*
X54203476Y-87890333D02*
X54584428Y-87890333D01*
X54127285Y-88118904D02*
X54393952Y-87318904D01*
X54660619Y-88118904D01*
G04 #@! TO.C,J27*
X80608457Y-61725000D02*
X80637028Y-61639285D01*
X80637028Y-61496428D01*
X80608457Y-61439285D01*
X80579885Y-61410714D01*
X80522742Y-61382142D01*
X80465600Y-61382142D01*
X80408457Y-61410714D01*
X80379885Y-61439285D01*
X80351314Y-61496428D01*
X80322742Y-61610714D01*
X80294171Y-61667857D01*
X80265600Y-61696428D01*
X80208457Y-61725000D01*
X80151314Y-61725000D01*
X80094171Y-61696428D01*
X80065600Y-61667857D01*
X80037028Y-61610714D01*
X80037028Y-61467857D01*
X80065600Y-61382142D01*
X80608457Y-60896428D02*
X80637028Y-60953571D01*
X80637028Y-61067857D01*
X80608457Y-61125000D01*
X80551314Y-61153571D01*
X80322742Y-61153571D01*
X80265600Y-61125000D01*
X80237028Y-61067857D01*
X80237028Y-60953571D01*
X80265600Y-60896428D01*
X80322742Y-60867857D01*
X80379885Y-60867857D01*
X80437028Y-61153571D01*
X80637028Y-60610714D02*
X80237028Y-60610714D01*
X80351314Y-60610714D02*
X80294171Y-60582142D01*
X80265600Y-60553571D01*
X80237028Y-60496428D01*
X80237028Y-60439285D01*
X80237028Y-60296428D02*
X80637028Y-60153571D01*
X80237028Y-60010714D01*
X80637028Y-59696428D02*
X80608457Y-59753571D01*
X80579885Y-59782142D01*
X80522742Y-59810714D01*
X80351314Y-59810714D01*
X80294171Y-59782142D01*
X80265600Y-59753571D01*
X80237028Y-59696428D01*
X80237028Y-59610714D01*
X80265600Y-59553571D01*
X80294171Y-59525000D01*
X80351314Y-59496428D01*
X80522742Y-59496428D01*
X80579885Y-59525000D01*
X80608457Y-59553571D01*
X80637028Y-59610714D01*
X80637028Y-59696428D01*
X80637028Y-58925000D02*
X80637028Y-59267857D01*
X80637028Y-59096428D02*
X80037028Y-59096428D01*
X80122742Y-59153571D01*
X80179885Y-59210714D01*
X80208457Y-59267857D01*
G04 #@! TO.C,J5*
X75581095Y-85177380D02*
X75104904Y-85177380D01*
X75057285Y-85653571D01*
X75104904Y-85605952D01*
X75200142Y-85558333D01*
X75438238Y-85558333D01*
X75533476Y-85605952D01*
X75581095Y-85653571D01*
X75628714Y-85748809D01*
X75628714Y-85986904D01*
X75581095Y-86082142D01*
X75533476Y-86129761D01*
X75438238Y-86177380D01*
X75200142Y-86177380D01*
X75104904Y-86129761D01*
X75057285Y-86082142D01*
X75914428Y-85177380D02*
X76247761Y-86177380D01*
X76581095Y-85177380D01*
X77819190Y-86177380D02*
X77723952Y-86129761D01*
X77676333Y-86082142D01*
X77628714Y-85986904D01*
X77628714Y-85701190D01*
X77676333Y-85605952D01*
X77723952Y-85558333D01*
X77819190Y-85510714D01*
X77962047Y-85510714D01*
X78057285Y-85558333D01*
X78104904Y-85605952D01*
X78152523Y-85701190D01*
X78152523Y-85986904D01*
X78104904Y-86082142D01*
X78057285Y-86129761D01*
X77962047Y-86177380D01*
X77819190Y-86177380D01*
X79009666Y-85510714D02*
X79009666Y-86177380D01*
X78581095Y-85510714D02*
X78581095Y-86034523D01*
X78628714Y-86129761D01*
X78723952Y-86177380D01*
X78866809Y-86177380D01*
X78962047Y-86129761D01*
X79009666Y-86082142D01*
X79343000Y-85510714D02*
X79723952Y-85510714D01*
X79485857Y-85177380D02*
X79485857Y-86034523D01*
X79533476Y-86129761D01*
X79628714Y-86177380D01*
X79723952Y-86177380D01*
G04 #@! TO.C,J2*
X94702571Y-94305380D02*
X94607333Y-94257761D01*
X94559714Y-94210142D01*
X94512095Y-94114904D01*
X94512095Y-93829190D01*
X94559714Y-93733952D01*
X94607333Y-93686333D01*
X94702571Y-93638714D01*
X94845428Y-93638714D01*
X94940666Y-93686333D01*
X94988285Y-93733952D01*
X95035904Y-93829190D01*
X95035904Y-94114904D01*
X94988285Y-94210142D01*
X94940666Y-94257761D01*
X94845428Y-94305380D01*
X94702571Y-94305380D01*
X95464476Y-93638714D02*
X95464476Y-94305380D01*
X95464476Y-93733952D02*
X95512095Y-93686333D01*
X95607333Y-93638714D01*
X95750190Y-93638714D01*
X95845428Y-93686333D01*
X95893047Y-93781571D01*
X95893047Y-94305380D01*
X97083523Y-93257761D02*
X96226380Y-94543476D01*
X97559714Y-94305380D02*
X97464476Y-94257761D01*
X97416857Y-94210142D01*
X97369238Y-94114904D01*
X97369238Y-93829190D01*
X97416857Y-93733952D01*
X97464476Y-93686333D01*
X97559714Y-93638714D01*
X97702571Y-93638714D01*
X97797809Y-93686333D01*
X97845428Y-93733952D01*
X97893047Y-93829190D01*
X97893047Y-94114904D01*
X97845428Y-94210142D01*
X97797809Y-94257761D01*
X97702571Y-94305380D01*
X97559714Y-94305380D01*
X98178761Y-93638714D02*
X98559714Y-93638714D01*
X98321619Y-94305380D02*
X98321619Y-93448238D01*
X98369238Y-93353000D01*
X98464476Y-93305380D01*
X98559714Y-93305380D01*
X98750190Y-93638714D02*
X99131142Y-93638714D01*
X98893047Y-94305380D02*
X98893047Y-93448238D01*
X98940666Y-93353000D01*
X99035904Y-93305380D01*
X99131142Y-93305380D01*
G04 #@! TO.C,J7*
X91047857Y-61725000D02*
X91076428Y-61639285D01*
X91076428Y-61496428D01*
X91047857Y-61439285D01*
X91019285Y-61410714D01*
X90962142Y-61382142D01*
X90905000Y-61382142D01*
X90847857Y-61410714D01*
X90819285Y-61439285D01*
X90790714Y-61496428D01*
X90762142Y-61610714D01*
X90733571Y-61667857D01*
X90705000Y-61696428D01*
X90647857Y-61725000D01*
X90590714Y-61725000D01*
X90533571Y-61696428D01*
X90505000Y-61667857D01*
X90476428Y-61610714D01*
X90476428Y-61467857D01*
X90505000Y-61382142D01*
X91047857Y-60896428D02*
X91076428Y-60953571D01*
X91076428Y-61067857D01*
X91047857Y-61125000D01*
X90990714Y-61153571D01*
X90762142Y-61153571D01*
X90705000Y-61125000D01*
X90676428Y-61067857D01*
X90676428Y-60953571D01*
X90705000Y-60896428D01*
X90762142Y-60867857D01*
X90819285Y-60867857D01*
X90876428Y-61153571D01*
X91076428Y-60610714D02*
X90676428Y-60610714D01*
X90790714Y-60610714D02*
X90733571Y-60582142D01*
X90705000Y-60553571D01*
X90676428Y-60496428D01*
X90676428Y-60439285D01*
X90676428Y-60296428D02*
X91076428Y-60153571D01*
X90676428Y-60010714D01*
X91076428Y-59696428D02*
X91047857Y-59753571D01*
X91019285Y-59782142D01*
X90962142Y-59810714D01*
X90790714Y-59810714D01*
X90733571Y-59782142D01*
X90705000Y-59753571D01*
X90676428Y-59696428D01*
X90676428Y-59610714D01*
X90705000Y-59553571D01*
X90733571Y-59525000D01*
X90790714Y-59496428D01*
X90962142Y-59496428D01*
X91019285Y-59525000D01*
X91047857Y-59553571D01*
X91076428Y-59610714D01*
X91076428Y-59696428D01*
X90533571Y-59267857D02*
X90505000Y-59239285D01*
X90476428Y-59182142D01*
X90476428Y-59039285D01*
X90505000Y-58982142D01*
X90533571Y-58953571D01*
X90590714Y-58925000D01*
X90647857Y-58925000D01*
X90733571Y-58953571D01*
X91076428Y-59296428D01*
X91076428Y-58925000D01*
G04 #@! TO.C,J20*
X52013047Y-65004904D02*
X52013047Y-64471571D01*
X52013047Y-64547761D02*
X52051142Y-64509666D01*
X52127333Y-64471571D01*
X52241619Y-64471571D01*
X52317809Y-64509666D01*
X52355904Y-64585857D01*
X52355904Y-65004904D01*
X52355904Y-64585857D02*
X52394000Y-64509666D01*
X52470190Y-64471571D01*
X52584476Y-64471571D01*
X52660666Y-64509666D01*
X52698761Y-64585857D01*
X52698761Y-65004904D01*
X53079714Y-65004904D02*
X53079714Y-64471571D01*
X53079714Y-64204904D02*
X53041619Y-64243000D01*
X53079714Y-64281095D01*
X53117809Y-64243000D01*
X53079714Y-64204904D01*
X53079714Y-64281095D01*
X53422571Y-64966809D02*
X53498761Y-65004904D01*
X53651142Y-65004904D01*
X53727333Y-64966809D01*
X53765428Y-64890619D01*
X53765428Y-64852523D01*
X53727333Y-64776333D01*
X53651142Y-64738238D01*
X53536857Y-64738238D01*
X53460666Y-64700142D01*
X53422571Y-64623952D01*
X53422571Y-64585857D01*
X53460666Y-64509666D01*
X53536857Y-64471571D01*
X53651142Y-64471571D01*
X53727333Y-64509666D01*
X54451142Y-64966809D02*
X54374952Y-65004904D01*
X54222571Y-65004904D01*
X54146380Y-64966809D01*
X54108285Y-64928714D01*
X54070190Y-64852523D01*
X54070190Y-64623952D01*
X54108285Y-64547761D01*
X54146380Y-64509666D01*
X54222571Y-64471571D01*
X54374952Y-64471571D01*
X54451142Y-64509666D01*
X55213047Y-65004904D02*
X54755904Y-65004904D01*
X54984476Y-65004904D02*
X54984476Y-64204904D01*
X54908285Y-64319190D01*
X54832095Y-64395380D01*
X54755904Y-64433476D01*
G04 #@! TO.C,J19*
X79827380Y-83240380D02*
X78827380Y-83240380D01*
X78922619Y-82811809D02*
X78875000Y-82764190D01*
X78827380Y-82668952D01*
X78827380Y-82430857D01*
X78875000Y-82335619D01*
X78922619Y-82288000D01*
X79017857Y-82240380D01*
X79113095Y-82240380D01*
X79255952Y-82288000D01*
X79827380Y-82859428D01*
X79827380Y-82240380D01*
X79732142Y-81240380D02*
X79779761Y-81288000D01*
X79827380Y-81430857D01*
X79827380Y-81526095D01*
X79779761Y-81668952D01*
X79684523Y-81764190D01*
X79589285Y-81811809D01*
X79398809Y-81859428D01*
X79255952Y-81859428D01*
X79065476Y-81811809D01*
X78970238Y-81764190D01*
X78875000Y-81668952D01*
X78827380Y-81526095D01*
X78827380Y-81430857D01*
X78875000Y-81288000D01*
X78922619Y-81240380D01*
X79827380Y-80288000D02*
X79827380Y-80859428D01*
X79827380Y-80573714D02*
X78827380Y-80573714D01*
X78970238Y-80668952D01*
X79065476Y-80764190D01*
X79113095Y-80859428D01*
G04 #@! TO.C,J23*
X52330523Y-41344857D02*
X52597190Y-41344857D01*
X52711476Y-41763904D02*
X52330523Y-41763904D01*
X52330523Y-40963904D01*
X52711476Y-40963904D01*
X53054333Y-41763904D02*
X53054333Y-40963904D01*
X53511476Y-41763904D01*
X53511476Y-40963904D01*
X54349571Y-41687714D02*
X54311476Y-41725809D01*
X54197190Y-41763904D01*
X54121000Y-41763904D01*
X54006714Y-41725809D01*
X53930523Y-41649619D01*
X53892428Y-41573428D01*
X53854333Y-41421047D01*
X53854333Y-41306761D01*
X53892428Y-41154380D01*
X53930523Y-41078190D01*
X54006714Y-41002000D01*
X54121000Y-40963904D01*
X54197190Y-40963904D01*
X54311476Y-41002000D01*
X54349571Y-41040095D01*
X54959095Y-41344857D02*
X55073380Y-41382952D01*
X55111476Y-41421047D01*
X55149571Y-41497238D01*
X55149571Y-41611523D01*
X55111476Y-41687714D01*
X55073380Y-41725809D01*
X54997190Y-41763904D01*
X54692428Y-41763904D01*
X54692428Y-40963904D01*
X54959095Y-40963904D01*
X55035285Y-41002000D01*
X55073380Y-41040095D01*
X55111476Y-41116285D01*
X55111476Y-41192476D01*
X55073380Y-41268666D01*
X55035285Y-41306761D01*
X54959095Y-41344857D01*
X54692428Y-41344857D01*
G04 #@! TO.C,J12*
X62055380Y-84145380D02*
X62055380Y-83145380D01*
X62436333Y-83145380D01*
X62531571Y-83193000D01*
X62579190Y-83240619D01*
X62626809Y-83335857D01*
X62626809Y-83478714D01*
X62579190Y-83573952D01*
X62531571Y-83621571D01*
X62436333Y-83669190D01*
X62055380Y-83669190D01*
X63198238Y-84145380D02*
X63103000Y-84097761D01*
X63055380Y-84050142D01*
X63007761Y-83954904D01*
X63007761Y-83669190D01*
X63055380Y-83573952D01*
X63103000Y-83526333D01*
X63198238Y-83478714D01*
X63341095Y-83478714D01*
X63436333Y-83526333D01*
X63483952Y-83573952D01*
X63531571Y-83669190D01*
X63531571Y-83954904D01*
X63483952Y-84050142D01*
X63436333Y-84097761D01*
X63341095Y-84145380D01*
X63198238Y-84145380D01*
X63864904Y-83478714D02*
X64055380Y-84145380D01*
X64245857Y-83669190D01*
X64436333Y-84145380D01*
X64626809Y-83478714D01*
X65388714Y-84097761D02*
X65293476Y-84145380D01*
X65103000Y-84145380D01*
X65007761Y-84097761D01*
X64960142Y-84002523D01*
X64960142Y-83621571D01*
X65007761Y-83526333D01*
X65103000Y-83478714D01*
X65293476Y-83478714D01*
X65388714Y-83526333D01*
X65436333Y-83621571D01*
X65436333Y-83716809D01*
X64960142Y-83812047D01*
X65864904Y-84145380D02*
X65864904Y-83478714D01*
X65864904Y-83669190D02*
X65912523Y-83573952D01*
X65960142Y-83526333D01*
X66055380Y-83478714D01*
X66150619Y-83478714D01*
X67388714Y-84145380D02*
X67293476Y-84097761D01*
X67245857Y-84050142D01*
X67198238Y-83954904D01*
X67198238Y-83669190D01*
X67245857Y-83573952D01*
X67293476Y-83526333D01*
X67388714Y-83478714D01*
X67531571Y-83478714D01*
X67626809Y-83526333D01*
X67674428Y-83573952D01*
X67722047Y-83669190D01*
X67722047Y-83954904D01*
X67674428Y-84050142D01*
X67626809Y-84097761D01*
X67531571Y-84145380D01*
X67388714Y-84145380D01*
X68579190Y-83478714D02*
X68579190Y-84145380D01*
X68150619Y-83478714D02*
X68150619Y-84002523D01*
X68198238Y-84097761D01*
X68293476Y-84145380D01*
X68436333Y-84145380D01*
X68531571Y-84097761D01*
X68579190Y-84050142D01*
X68912523Y-83478714D02*
X69293476Y-83478714D01*
X69055380Y-83145380D02*
X69055380Y-84002523D01*
X69103000Y-84097761D01*
X69198238Y-84145380D01*
X69293476Y-84145380D01*
G04 #@! TO.C,J18*
X79827380Y-69651380D02*
X78827380Y-69651380D01*
X78922619Y-69222809D02*
X78875000Y-69175190D01*
X78827380Y-69079952D01*
X78827380Y-68841857D01*
X78875000Y-68746619D01*
X78922619Y-68699000D01*
X79017857Y-68651380D01*
X79113095Y-68651380D01*
X79255952Y-68699000D01*
X79827380Y-69270428D01*
X79827380Y-68651380D01*
X79732142Y-67651380D02*
X79779761Y-67699000D01*
X79827380Y-67841857D01*
X79827380Y-67937095D01*
X79779761Y-68079952D01*
X79684523Y-68175190D01*
X79589285Y-68222809D01*
X79398809Y-68270428D01*
X79255952Y-68270428D01*
X79065476Y-68222809D01*
X78970238Y-68175190D01*
X78875000Y-68079952D01*
X78827380Y-67937095D01*
X78827380Y-67841857D01*
X78875000Y-67699000D01*
X78922619Y-67651380D01*
X78922619Y-67270428D02*
X78875000Y-67222809D01*
X78827380Y-67127571D01*
X78827380Y-66889476D01*
X78875000Y-66794238D01*
X78922619Y-66746619D01*
X79017857Y-66699000D01*
X79113095Y-66699000D01*
X79255952Y-66746619D01*
X79827380Y-67318047D01*
X79827380Y-66699000D01*
G04 #@! TO.C,J14*
X88034761Y-69949476D02*
X88082380Y-69806619D01*
X88082380Y-69568523D01*
X88034761Y-69473285D01*
X87987142Y-69425666D01*
X87891904Y-69378047D01*
X87796666Y-69378047D01*
X87701428Y-69425666D01*
X87653809Y-69473285D01*
X87606190Y-69568523D01*
X87558571Y-69759000D01*
X87510952Y-69854238D01*
X87463333Y-69901857D01*
X87368095Y-69949476D01*
X87272857Y-69949476D01*
X87177619Y-69901857D01*
X87130000Y-69854238D01*
X87082380Y-69759000D01*
X87082380Y-69520904D01*
X87130000Y-69378047D01*
X88082380Y-68378047D02*
X87606190Y-68711380D01*
X88082380Y-68949476D02*
X87082380Y-68949476D01*
X87082380Y-68568523D01*
X87130000Y-68473285D01*
X87177619Y-68425666D01*
X87272857Y-68378047D01*
X87415714Y-68378047D01*
X87510952Y-68425666D01*
X87558571Y-68473285D01*
X87606190Y-68568523D01*
X87606190Y-68949476D01*
X87558571Y-67616142D02*
X87558571Y-67949476D01*
X88082380Y-67949476D02*
X87082380Y-67949476D01*
X87082380Y-67473285D01*
X87177619Y-67139952D02*
X87130000Y-67092333D01*
X87082380Y-66997095D01*
X87082380Y-66759000D01*
X87130000Y-66663761D01*
X87177619Y-66616142D01*
X87272857Y-66568523D01*
X87368095Y-66568523D01*
X87510952Y-66616142D01*
X88082380Y-67187571D01*
X88082380Y-66568523D01*
G04 #@! TO.C,J21*
X52140047Y-76498404D02*
X52140047Y-75965071D01*
X52140047Y-76041261D02*
X52178142Y-76003166D01*
X52254333Y-75965071D01*
X52368619Y-75965071D01*
X52444809Y-76003166D01*
X52482904Y-76079357D01*
X52482904Y-76498404D01*
X52482904Y-76079357D02*
X52521000Y-76003166D01*
X52597190Y-75965071D01*
X52711476Y-75965071D01*
X52787666Y-76003166D01*
X52825761Y-76079357D01*
X52825761Y-76498404D01*
X53206714Y-76498404D02*
X53206714Y-75965071D01*
X53206714Y-75698404D02*
X53168619Y-75736500D01*
X53206714Y-75774595D01*
X53244809Y-75736500D01*
X53206714Y-75698404D01*
X53206714Y-75774595D01*
X53549571Y-76460309D02*
X53625761Y-76498404D01*
X53778142Y-76498404D01*
X53854333Y-76460309D01*
X53892428Y-76384119D01*
X53892428Y-76346023D01*
X53854333Y-76269833D01*
X53778142Y-76231738D01*
X53663857Y-76231738D01*
X53587666Y-76193642D01*
X53549571Y-76117452D01*
X53549571Y-76079357D01*
X53587666Y-76003166D01*
X53663857Y-75965071D01*
X53778142Y-75965071D01*
X53854333Y-76003166D01*
X54578142Y-76460309D02*
X54501952Y-76498404D01*
X54349571Y-76498404D01*
X54273380Y-76460309D01*
X54235285Y-76422214D01*
X54197190Y-76346023D01*
X54197190Y-76117452D01*
X54235285Y-76041261D01*
X54273380Y-76003166D01*
X54349571Y-75965071D01*
X54501952Y-75965071D01*
X54578142Y-76003166D01*
X54882904Y-75774595D02*
X54921000Y-75736500D01*
X54997190Y-75698404D01*
X55187666Y-75698404D01*
X55263857Y-75736500D01*
X55301952Y-75774595D01*
X55340047Y-75850785D01*
X55340047Y-75926976D01*
X55301952Y-76041261D01*
X54844809Y-76498404D01*
X55340047Y-76498404D01*
G04 #@! TO.C,J17*
X96464380Y-69175190D02*
X95464380Y-69175190D01*
X96464380Y-68127571D02*
X95988190Y-68460904D01*
X96464380Y-68699000D02*
X95464380Y-68699000D01*
X95464380Y-68318047D01*
X95512000Y-68222809D01*
X95559619Y-68175190D01*
X95654857Y-68127571D01*
X95797714Y-68127571D01*
X95892952Y-68175190D01*
X95940571Y-68222809D01*
X95988190Y-68318047D01*
X95988190Y-68699000D01*
X95559619Y-67746619D02*
X95512000Y-67699000D01*
X95464380Y-67603761D01*
X95464380Y-67365666D01*
X95512000Y-67270428D01*
X95559619Y-67222809D01*
X95654857Y-67175190D01*
X95750095Y-67175190D01*
X95892952Y-67222809D01*
X96464380Y-67794238D01*
X96464380Y-67175190D01*
G04 #@! TO.C,J15*
X88034761Y-83605476D02*
X88082380Y-83462619D01*
X88082380Y-83224523D01*
X88034761Y-83129285D01*
X87987142Y-83081666D01*
X87891904Y-83034047D01*
X87796666Y-83034047D01*
X87701428Y-83081666D01*
X87653809Y-83129285D01*
X87606190Y-83224523D01*
X87558571Y-83415000D01*
X87510952Y-83510238D01*
X87463333Y-83557857D01*
X87368095Y-83605476D01*
X87272857Y-83605476D01*
X87177619Y-83557857D01*
X87130000Y-83510238D01*
X87082380Y-83415000D01*
X87082380Y-83176904D01*
X87130000Y-83034047D01*
X88082380Y-82034047D02*
X87606190Y-82367380D01*
X88082380Y-82605476D02*
X87082380Y-82605476D01*
X87082380Y-82224523D01*
X87130000Y-82129285D01*
X87177619Y-82081666D01*
X87272857Y-82034047D01*
X87415714Y-82034047D01*
X87510952Y-82081666D01*
X87558571Y-82129285D01*
X87606190Y-82224523D01*
X87606190Y-82605476D01*
X87558571Y-81272142D02*
X87558571Y-81605476D01*
X88082380Y-81605476D02*
X87082380Y-81605476D01*
X87082380Y-81129285D01*
X88082380Y-80224523D02*
X88082380Y-80795952D01*
X88082380Y-80510238D02*
X87082380Y-80510238D01*
X87225238Y-80605476D01*
X87320476Y-80700714D01*
X87368095Y-80795952D01*
G04 #@! TO.C,J16*
X96464380Y-83018190D02*
X95464380Y-83018190D01*
X96464380Y-81970571D02*
X95988190Y-82303904D01*
X96464380Y-82542000D02*
X95464380Y-82542000D01*
X95464380Y-82161047D01*
X95512000Y-82065809D01*
X95559619Y-82018190D01*
X95654857Y-81970571D01*
X95797714Y-81970571D01*
X95892952Y-82018190D01*
X95940571Y-82065809D01*
X95988190Y-82161047D01*
X95988190Y-82542000D01*
X96464380Y-81018190D02*
X96464380Y-81589619D01*
X96464380Y-81303904D02*
X95464380Y-81303904D01*
X95607238Y-81399142D01*
X95702476Y-81494380D01*
X95750095Y-81589619D01*
G04 #@! TO.C,J22*
X51778142Y-53320904D02*
X51778142Y-52520904D01*
X52235285Y-53320904D02*
X51892428Y-52863761D01*
X52235285Y-52520904D02*
X51778142Y-52978047D01*
X52882904Y-53282809D02*
X52806714Y-53320904D01*
X52654333Y-53320904D01*
X52578142Y-53282809D01*
X52540047Y-53206619D01*
X52540047Y-52901857D01*
X52578142Y-52825666D01*
X52654333Y-52787571D01*
X52806714Y-52787571D01*
X52882904Y-52825666D01*
X52921000Y-52901857D01*
X52921000Y-52978047D01*
X52540047Y-53054238D01*
X53187666Y-52787571D02*
X53378142Y-53320904D01*
X53568619Y-52787571D02*
X53378142Y-53320904D01*
X53301952Y-53511380D01*
X53263857Y-53549476D01*
X53187666Y-53587571D01*
X53873380Y-52787571D02*
X53873380Y-53587571D01*
X53873380Y-52825666D02*
X53949571Y-52787571D01*
X54101952Y-52787571D01*
X54178142Y-52825666D01*
X54216238Y-52863761D01*
X54254333Y-52939952D01*
X54254333Y-53168523D01*
X54216238Y-53244714D01*
X54178142Y-53282809D01*
X54101952Y-53320904D01*
X53949571Y-53320904D01*
X53873380Y-53282809D01*
X54940047Y-53320904D02*
X54940047Y-52901857D01*
X54901952Y-52825666D01*
X54825761Y-52787571D01*
X54673380Y-52787571D01*
X54597190Y-52825666D01*
X54940047Y-53282809D02*
X54863857Y-53320904D01*
X54673380Y-53320904D01*
X54597190Y-53282809D01*
X54559095Y-53206619D01*
X54559095Y-53130428D01*
X54597190Y-53054238D01*
X54673380Y-53016142D01*
X54863857Y-53016142D01*
X54940047Y-52978047D01*
X55663857Y-53320904D02*
X55663857Y-52520904D01*
X55663857Y-53282809D02*
X55587666Y-53320904D01*
X55435285Y-53320904D01*
X55359095Y-53282809D01*
X55321000Y-53244714D01*
X55282904Y-53168523D01*
X55282904Y-52939952D01*
X55321000Y-52863761D01*
X55359095Y-52825666D01*
X55435285Y-52787571D01*
X55587666Y-52787571D01*
X55663857Y-52825666D01*
G04 #@! TD*
M02*
