%TF.GenerationSoftware,KiCad,Pcbnew,6.0.11-2627ca5db0~126~ubuntu20.04.1*%
%TF.CreationDate,2023-03-20T13:17:59+01:00*%
%TF.ProjectId,mirte_combination,6d697274-655f-4636-9f6d-62696e617469,rev?*%
%TF.SameCoordinates,Original*%
%TF.FileFunction,Legend,Top*%
%TF.FilePolarity,Positive*%
%FSLAX46Y46*%
G04 Gerber Fmt 4.6, Leading zero omitted, Abs format (unit mm)*
G04 Created by KiCad (PCBNEW 6.0.11-2627ca5db0~126~ubuntu20.04.1) date 2023-03-20 13:17:59*
%MOMM*%
%LPD*%
G01*
G04 APERTURE LIST*
G04 Aperture macros list*
%AMRoundRect*
0 Rectangle with rounded corners*
0 $1 Rounding radius*
0 $2 $3 $4 $5 $6 $7 $8 $9 X,Y pos of 4 corners*
0 Add a 4 corners polygon primitive as box body*
4,1,4,$2,$3,$4,$5,$6,$7,$8,$9,$2,$3,0*
0 Add four circle primitives for the rounded corners*
1,1,$1+$1,$2,$3*
1,1,$1+$1,$4,$5*
1,1,$1+$1,$6,$7*
1,1,$1+$1,$8,$9*
0 Add four rect primitives between the rounded corners*
20,1,$1+$1,$2,$3,$4,$5,0*
20,1,$1+$1,$4,$5,$6,$7,0*
20,1,$1+$1,$6,$7,$8,$9,0*
20,1,$1+$1,$8,$9,$2,$3,0*%
G04 Aperture macros list end*
%ADD10C,0.150000*%
%ADD11C,0.080000*%
%ADD12C,0.120000*%
%ADD13C,0.500000*%
%ADD14RoundRect,0.250000X-0.312500X-0.625000X0.312500X-0.625000X0.312500X0.625000X-0.312500X0.625000X0*%
%ADD15RoundRect,0.250000X0.725000X-0.600000X0.725000X0.600000X-0.725000X0.600000X-0.725000X-0.600000X0*%
%ADD16O,1.950000X1.700000*%
%ADD17R,0.300000X1.400000*%
%ADD18RoundRect,0.250000X0.625000X-0.312500X0.625000X0.312500X-0.625000X0.312500X-0.625000X-0.312500X0*%
%ADD19RoundRect,0.150000X0.150000X-0.587500X0.150000X0.587500X-0.150000X0.587500X-0.150000X-0.587500X0*%
%ADD20RoundRect,0.250000X0.312500X0.625000X-0.312500X0.625000X-0.312500X-0.625000X0.312500X-0.625000X0*%
%ADD21C,6.400000*%
%ADD22R,1.700000X1.700000*%
%ADD23O,1.700000X1.700000*%
%ADD24RoundRect,0.250000X-0.475000X0.250000X-0.475000X-0.250000X0.475000X-0.250000X0.475000X0.250000X0*%
%ADD25RoundRect,0.250000X-0.625000X0.312500X-0.625000X-0.312500X0.625000X-0.312500X0.625000X0.312500X0*%
%ADD26RoundRect,0.150000X-0.150000X0.587500X-0.150000X-0.587500X0.150000X-0.587500X0.150000X0.587500X0*%
%ADD27RoundRect,0.150000X-0.825000X-0.150000X0.825000X-0.150000X0.825000X0.150000X-0.825000X0.150000X0*%
%ADD28C,3.700000*%
%ADD29O,2.200000X3.500000*%
%ADD30R,1.500000X2.500000*%
%ADD31O,1.500000X2.500000*%
%ADD32R,0.400000X1.350000*%
%ADD33C,1.450000*%
%ADD34R,1.200000X1.900000*%
%ADD35R,1.500000X1.900000*%
%ADD36O,1.200000X1.900000*%
%ADD37R,1.600000X1.500000*%
%ADD38C,1.600000*%
%ADD39C,3.000000*%
G04 APERTURE END LIST*
D10*
X144760400Y-60048200D02*
X145310400Y-60598200D01*
X151275000Y-117512500D02*
X150725000Y-116937500D01*
X139925000Y-85700000D02*
X139375000Y-85125000D01*
X150610000Y-74165000D02*
X151160000Y-73615000D01*
X150025000Y-125525000D02*
X151225000Y-126725000D01*
X139950000Y-122375000D02*
X139400000Y-121800000D01*
D11*
X133850000Y-90650000D02*
X133850000Y-95450000D01*
D10*
X122620000Y-71110000D02*
X128040000Y-71110000D01*
X139885000Y-96370000D02*
X139335000Y-95795000D01*
X150025000Y-115975000D02*
X150025000Y-125525000D01*
X139375000Y-85125000D02*
X139375000Y-86250000D01*
X139410000Y-108850000D02*
X139410000Y-109975000D01*
X146600000Y-115975000D02*
X150025000Y-115975000D01*
X147750000Y-119000000D02*
X148300000Y-119550000D01*
X131050000Y-131712500D02*
X131600000Y-131162500D01*
X122630000Y-65960000D02*
X128050000Y-65960000D01*
X131130000Y-126765000D02*
X131680000Y-126215000D01*
X150530000Y-58830000D02*
X150530000Y-59955000D01*
X137109600Y-60599000D02*
X137684600Y-60049000D01*
X147410000Y-110265000D02*
X147960000Y-109715000D01*
X131890000Y-121460000D02*
X131340000Y-120885000D01*
X139335000Y-95795000D02*
X139335000Y-96920000D01*
X150725000Y-116937500D02*
X150725000Y-118062500D01*
X139335000Y-96920000D02*
X139885000Y-96370000D01*
X150750000Y-124650000D02*
X150750000Y-125775000D01*
X140375000Y-125475000D02*
X140375000Y-131900000D01*
G36*
X102055000Y-109475000D02*
G01*
X100655000Y-109475000D01*
X101355000Y-108775000D01*
X102055000Y-109475000D01*
G37*
X102055000Y-109475000D02*
X100655000Y-109475000D01*
X101355000Y-108775000D01*
X102055000Y-109475000D01*
X137684600Y-60049000D02*
X136559600Y-60049000D01*
G36*
X121300000Y-74660000D02*
G01*
X114290000Y-74660000D01*
X114290000Y-70620000D01*
X121300000Y-70620000D01*
X121300000Y-74660000D01*
G37*
X121300000Y-74660000D02*
X114290000Y-74660000D01*
X114290000Y-70620000D01*
X121300000Y-70620000D01*
X121300000Y-74660000D01*
X110250000Y-71925000D02*
X114250000Y-71925000D01*
X121300000Y-71950000D02*
X125300000Y-71950000D01*
X131470000Y-85955000D02*
X132020000Y-85405000D01*
X147375000Y-85850000D02*
X147375000Y-86975000D01*
X133735000Y-74800000D02*
X132610000Y-74800000D01*
X122730000Y-60870000D02*
X128150000Y-60870000D01*
X147410000Y-109140000D02*
X147410000Y-110265000D01*
X151160000Y-73615000D02*
X150610000Y-73040000D01*
X151225000Y-126725000D02*
X151225000Y-131800000D01*
X147900000Y-96985000D02*
X147350000Y-96410000D01*
X147350000Y-97535000D02*
X147900000Y-96985000D01*
X146180000Y-74790000D02*
X146730000Y-75340000D01*
X131470000Y-84830000D02*
X131470000Y-85955000D01*
X146600000Y-125475000D02*
X140375000Y-125475000D01*
X131340000Y-122010000D02*
X131890000Y-121460000D01*
X139400000Y-121800000D02*
X139400000Y-122925000D01*
X146600000Y-115975000D02*
X146600000Y-125475000D01*
X151030000Y-59455000D02*
X150480000Y-58880000D01*
X132020000Y-85405000D02*
X131470000Y-84830000D01*
X133160000Y-75350000D02*
X133735000Y-74800000D01*
X122630000Y-55680000D02*
X128050000Y-55680000D01*
X131130000Y-125640000D02*
X131130000Y-126765000D01*
X131350000Y-109850000D02*
X131350000Y-110975000D01*
X147375000Y-86975000D02*
X147925000Y-86425000D01*
X131425000Y-97325000D02*
X131425000Y-98450000D01*
X131350000Y-110975000D02*
X131900000Y-110425000D01*
X148300000Y-119550000D02*
X148875000Y-119000000D01*
X145885400Y-60048200D02*
X144760400Y-60048200D01*
X150750000Y-125775000D02*
X151300000Y-125225000D01*
X148875000Y-119000000D02*
X147750000Y-119000000D01*
X131600000Y-131162500D02*
X131050000Y-130587500D01*
X139400000Y-122925000D02*
X139950000Y-122375000D01*
X147350000Y-96410000D02*
X147350000Y-97535000D01*
X132610000Y-74800000D02*
X133160000Y-75350000D01*
X139960000Y-109425000D02*
X139410000Y-108850000D01*
X131340000Y-120885000D02*
X131340000Y-122010000D01*
X131900000Y-110425000D02*
X131350000Y-109850000D01*
X136559600Y-60049000D02*
X137109600Y-60599000D01*
X150725000Y-118062500D02*
X151275000Y-117512500D01*
X150530000Y-59955000D02*
X151080000Y-59405000D01*
X145310400Y-60598200D02*
X145885400Y-60048200D01*
X150610000Y-73040000D02*
X150610000Y-74165000D01*
X147305000Y-74790000D02*
X146180000Y-74790000D01*
X131975000Y-97900000D02*
X131425000Y-97325000D01*
X146730000Y-75340000D02*
X147305000Y-74790000D01*
X139375000Y-86250000D02*
X139925000Y-85700000D01*
X131050000Y-130587500D02*
X131050000Y-131712500D01*
X147960000Y-109715000D02*
X147410000Y-109140000D01*
X131680000Y-126215000D02*
X131130000Y-125640000D01*
X147925000Y-86425000D02*
X147375000Y-85850000D01*
X151300000Y-125225000D02*
X150750000Y-124650000D01*
X131425000Y-98450000D02*
X131975000Y-97900000D01*
X139410000Y-109975000D02*
X139960000Y-109425000D01*
X150258095Y-60344285D02*
X151058095Y-60344285D01*
X150486666Y-60610952D01*
X151058095Y-60877619D01*
X150258095Y-60877619D01*
X150334285Y-61715714D02*
X150296190Y-61677619D01*
X150258095Y-61563333D01*
X150258095Y-61487142D01*
X150296190Y-61372857D01*
X150372380Y-61296666D01*
X150448571Y-61258571D01*
X150600952Y-61220476D01*
X150715238Y-61220476D01*
X150867619Y-61258571D01*
X150943809Y-61296666D01*
X151020000Y-61372857D01*
X151058095Y-61487142D01*
X151058095Y-61563333D01*
X151020000Y-61677619D01*
X150981904Y-61715714D01*
X150981904Y-62020476D02*
X151020000Y-62058571D01*
X151058095Y-62134761D01*
X151058095Y-62325238D01*
X151020000Y-62401428D01*
X150981904Y-62439523D01*
X150905714Y-62477619D01*
X150829523Y-62477619D01*
X150715238Y-62439523D01*
X150258095Y-61982380D01*
X150258095Y-62477619D01*
X150562857Y-62820476D02*
X150562857Y-63430000D01*
X150486666Y-63772857D02*
X150486666Y-64153809D01*
X150258095Y-63696666D02*
X151058095Y-63963333D01*
X150258095Y-64230000D01*
X109807142Y-64453571D02*
X109997619Y-64986904D01*
X110188095Y-64453571D01*
X110645238Y-64186904D02*
X110721428Y-64186904D01*
X110797619Y-64225000D01*
X110835714Y-64263095D01*
X110873809Y-64339285D01*
X110911904Y-64491666D01*
X110911904Y-64682142D01*
X110873809Y-64834523D01*
X110835714Y-64910714D01*
X110797619Y-64948809D01*
X110721428Y-64986904D01*
X110645238Y-64986904D01*
X110569047Y-64948809D01*
X110530952Y-64910714D01*
X110492857Y-64834523D01*
X110454761Y-64682142D01*
X110454761Y-64491666D01*
X110492857Y-64339285D01*
X110530952Y-64263095D01*
X110569047Y-64225000D01*
X110645238Y-64186904D01*
X111254761Y-64910714D02*
X111292857Y-64948809D01*
X111254761Y-64986904D01*
X111216666Y-64948809D01*
X111254761Y-64910714D01*
X111254761Y-64986904D01*
X111978571Y-64186904D02*
X111826190Y-64186904D01*
X111750000Y-64225000D01*
X111711904Y-64263095D01*
X111635714Y-64377380D01*
X111597619Y-64529761D01*
X111597619Y-64834523D01*
X111635714Y-64910714D01*
X111673809Y-64948809D01*
X111750000Y-64986904D01*
X111902380Y-64986904D01*
X111978571Y-64948809D01*
X112016666Y-64910714D01*
X112054761Y-64834523D01*
X112054761Y-64644047D01*
X112016666Y-64567857D01*
X111978571Y-64529761D01*
X111902380Y-64491666D01*
X111750000Y-64491666D01*
X111673809Y-64529761D01*
X111635714Y-64567857D01*
X111597619Y-64644047D01*
X131878095Y-118652857D02*
X131878095Y-118805238D01*
X131840000Y-118881428D01*
X131763809Y-118957619D01*
X131611428Y-118995714D01*
X131344761Y-118995714D01*
X131192380Y-118957619D01*
X131116190Y-118881428D01*
X131078095Y-118805238D01*
X131078095Y-118652857D01*
X131116190Y-118576666D01*
X131192380Y-118500476D01*
X131344761Y-118462380D01*
X131611428Y-118462380D01*
X131763809Y-118500476D01*
X131840000Y-118576666D01*
X131878095Y-118652857D01*
X131078095Y-119338571D02*
X131878095Y-119338571D01*
X131878095Y-119529047D01*
X131840000Y-119643333D01*
X131763809Y-119719523D01*
X131687619Y-119757619D01*
X131535238Y-119795714D01*
X131420952Y-119795714D01*
X131268571Y-119757619D01*
X131192380Y-119719523D01*
X131116190Y-119643333D01*
X131078095Y-119529047D01*
X131078095Y-119338571D01*
X131801904Y-120100476D02*
X131840000Y-120138571D01*
X131878095Y-120214761D01*
X131878095Y-120405238D01*
X131840000Y-120481428D01*
X131801904Y-120519523D01*
X131725714Y-120557619D01*
X131649523Y-120557619D01*
X131535238Y-120519523D01*
X131078095Y-120062380D01*
X131078095Y-120557619D01*
X149947142Y-72770000D02*
X149947142Y-73379523D01*
X149718571Y-73379523D02*
X149718571Y-72770000D01*
X149947142Y-73760476D02*
X149947142Y-74370000D01*
X149718571Y-74370000D02*
X149718571Y-73760476D01*
X149897142Y-59155238D02*
X149897142Y-59764761D01*
X149668571Y-59764761D02*
X149668571Y-59155238D01*
X141807142Y-75331904D02*
X141807142Y-74531904D01*
X142073809Y-75103333D01*
X142340476Y-74531904D01*
X142340476Y-75331904D01*
X143178571Y-75255714D02*
X143140476Y-75293809D01*
X143026190Y-75331904D01*
X142950000Y-75331904D01*
X142835714Y-75293809D01*
X142759523Y-75217619D01*
X142721428Y-75141428D01*
X142683333Y-74989047D01*
X142683333Y-74874761D01*
X142721428Y-74722380D01*
X142759523Y-74646190D01*
X142835714Y-74570000D01*
X142950000Y-74531904D01*
X143026190Y-74531904D01*
X143140476Y-74570000D01*
X143178571Y-74608095D01*
X143940476Y-75331904D02*
X143483333Y-75331904D01*
X143711904Y-75331904D02*
X143711904Y-74531904D01*
X143635714Y-74646190D01*
X143559523Y-74722380D01*
X143483333Y-74760476D01*
X144283333Y-75027142D02*
X144892857Y-75027142D01*
X145540476Y-74912857D02*
X145654761Y-74950952D01*
X145692857Y-74989047D01*
X145730952Y-75065238D01*
X145730952Y-75179523D01*
X145692857Y-75255714D01*
X145654761Y-75293809D01*
X145578571Y-75331904D01*
X145273809Y-75331904D01*
X145273809Y-74531904D01*
X145540476Y-74531904D01*
X145616666Y-74570000D01*
X145654761Y-74608095D01*
X145692857Y-74684285D01*
X145692857Y-74760476D01*
X145654761Y-74836666D01*
X145616666Y-74874761D01*
X145540476Y-74912857D01*
X145273809Y-74912857D01*
X131226190Y-94197619D02*
X131188095Y-94311904D01*
X131188095Y-94502380D01*
X131226190Y-94578571D01*
X131264285Y-94616666D01*
X131340476Y-94654761D01*
X131416666Y-94654761D01*
X131492857Y-94616666D01*
X131530952Y-94578571D01*
X131569047Y-94502380D01*
X131607142Y-94350000D01*
X131645238Y-94273809D01*
X131683333Y-94235714D01*
X131759523Y-94197619D01*
X131835714Y-94197619D01*
X131911904Y-94235714D01*
X131950000Y-94273809D01*
X131988095Y-94350000D01*
X131988095Y-94540476D01*
X131950000Y-94654761D01*
X131188095Y-95454761D02*
X131569047Y-95188095D01*
X131188095Y-94997619D02*
X131988095Y-94997619D01*
X131988095Y-95302380D01*
X131950000Y-95378571D01*
X131911904Y-95416666D01*
X131835714Y-95454761D01*
X131721428Y-95454761D01*
X131645238Y-95416666D01*
X131607142Y-95378571D01*
X131569047Y-95302380D01*
X131569047Y-94997619D01*
X131607142Y-96064285D02*
X131607142Y-95797619D01*
X131188095Y-95797619D02*
X131988095Y-95797619D01*
X131988095Y-96178571D01*
X131188095Y-96902380D02*
X131188095Y-96445238D01*
X131188095Y-96673809D02*
X131988095Y-96673809D01*
X131873809Y-96597619D01*
X131797619Y-96521428D01*
X131759523Y-96445238D01*
X147088095Y-93648095D02*
X147888095Y-93648095D01*
X147811904Y-93990952D02*
X147850000Y-94029047D01*
X147888095Y-94105238D01*
X147888095Y-94295714D01*
X147850000Y-94371904D01*
X147811904Y-94410000D01*
X147735714Y-94448095D01*
X147659523Y-94448095D01*
X147545238Y-94410000D01*
X147088095Y-93952857D01*
X147088095Y-94448095D01*
X147164285Y-95248095D02*
X147126190Y-95210000D01*
X147088095Y-95095714D01*
X147088095Y-95019523D01*
X147126190Y-94905238D01*
X147202380Y-94829047D01*
X147278571Y-94790952D01*
X147430952Y-94752857D01*
X147545238Y-94752857D01*
X147697619Y-94790952D01*
X147773809Y-94829047D01*
X147850000Y-94905238D01*
X147888095Y-95019523D01*
X147888095Y-95095714D01*
X147850000Y-95210000D01*
X147811904Y-95248095D01*
X147088095Y-96010000D02*
X147088095Y-95552857D01*
X147088095Y-95781428D02*
X147888095Y-95781428D01*
X147773809Y-95705238D01*
X147697619Y-95629047D01*
X147659523Y-95552857D01*
X107984523Y-129236904D02*
X107984523Y-129884523D01*
X108022619Y-129960714D01*
X108060714Y-129998809D01*
X108136904Y-130036904D01*
X108289285Y-130036904D01*
X108365476Y-129998809D01*
X108403571Y-129960714D01*
X108441666Y-129884523D01*
X108441666Y-129236904D01*
X108784523Y-129998809D02*
X108898809Y-130036904D01*
X109089285Y-130036904D01*
X109165476Y-129998809D01*
X109203571Y-129960714D01*
X109241666Y-129884523D01*
X109241666Y-129808333D01*
X109203571Y-129732142D01*
X109165476Y-129694047D01*
X109089285Y-129655952D01*
X108936904Y-129617857D01*
X108860714Y-129579761D01*
X108822619Y-129541666D01*
X108784523Y-129465476D01*
X108784523Y-129389285D01*
X108822619Y-129313095D01*
X108860714Y-129275000D01*
X108936904Y-129236904D01*
X109127380Y-129236904D01*
X109241666Y-129275000D01*
X109851190Y-129617857D02*
X109965476Y-129655952D01*
X110003571Y-129694047D01*
X110041666Y-129770238D01*
X110041666Y-129884523D01*
X110003571Y-129960714D01*
X109965476Y-129998809D01*
X109889285Y-130036904D01*
X109584523Y-130036904D01*
X109584523Y-129236904D01*
X109851190Y-129236904D01*
X109927380Y-129275000D01*
X109965476Y-129313095D01*
X110003571Y-129389285D01*
X110003571Y-129465476D01*
X109965476Y-129541666D01*
X109927380Y-129579761D01*
X109851190Y-129617857D01*
X109584523Y-129617857D01*
X110308333Y-129236904D02*
X110803571Y-129236904D01*
X110536904Y-129541666D01*
X110651190Y-129541666D01*
X110727380Y-129579761D01*
X110765476Y-129617857D01*
X110803571Y-129694047D01*
X110803571Y-129884523D01*
X110765476Y-129960714D01*
X110727380Y-129998809D01*
X110651190Y-130036904D01*
X110422619Y-130036904D01*
X110346428Y-129998809D01*
X110308333Y-129960714D01*
X151236904Y-123796428D02*
X151275000Y-123834523D01*
X151313095Y-123910714D01*
X151313095Y-124101190D01*
X151275000Y-124177380D01*
X151236904Y-124215476D01*
X151160714Y-124253571D01*
X151084523Y-124253571D01*
X150970238Y-124215476D01*
X150513095Y-123758333D01*
X150513095Y-124253571D01*
X130998095Y-121282619D02*
X130845714Y-121282619D01*
X130998095Y-121587380D02*
X130845714Y-121587380D01*
X131341428Y-130192380D02*
X130808095Y-130192380D01*
X131646190Y-130001904D02*
X131074761Y-129811428D01*
X131074761Y-130306666D01*
X150308095Y-68757142D02*
X151108095Y-68757142D01*
X150536666Y-69023809D01*
X151108095Y-69290476D01*
X150308095Y-69290476D01*
X150384285Y-70128571D02*
X150346190Y-70090476D01*
X150308095Y-69976190D01*
X150308095Y-69900000D01*
X150346190Y-69785714D01*
X150422380Y-69709523D01*
X150498571Y-69671428D01*
X150650952Y-69633333D01*
X150765238Y-69633333D01*
X150917619Y-69671428D01*
X150993809Y-69709523D01*
X151070000Y-69785714D01*
X151108095Y-69900000D01*
X151108095Y-69976190D01*
X151070000Y-70090476D01*
X151031904Y-70128571D01*
X151031904Y-70433333D02*
X151070000Y-70471428D01*
X151108095Y-70547619D01*
X151108095Y-70738095D01*
X151070000Y-70814285D01*
X151031904Y-70852380D01*
X150955714Y-70890476D01*
X150879523Y-70890476D01*
X150765238Y-70852380D01*
X150308095Y-70395238D01*
X150308095Y-70890476D01*
X150612857Y-71233333D02*
X150612857Y-71842857D01*
X150727142Y-72490476D02*
X150689047Y-72604761D01*
X150650952Y-72642857D01*
X150574761Y-72680952D01*
X150460476Y-72680952D01*
X150384285Y-72642857D01*
X150346190Y-72604761D01*
X150308095Y-72528571D01*
X150308095Y-72223809D01*
X151108095Y-72223809D01*
X151108095Y-72490476D01*
X151070000Y-72566666D01*
X151031904Y-72604761D01*
X150955714Y-72642857D01*
X150879523Y-72642857D01*
X150803333Y-72604761D01*
X150765238Y-72566666D01*
X150727142Y-72490476D01*
X150727142Y-72223809D01*
X150513095Y-116678571D02*
X150513095Y-116221428D01*
X150513095Y-116450000D02*
X151313095Y-116450000D01*
X151198809Y-116373809D01*
X151122619Y-116297619D01*
X151084523Y-116221428D01*
X109761904Y-63228571D02*
X109914285Y-63761904D01*
X110066666Y-63380952D01*
X110219047Y-63761904D01*
X110371428Y-63228571D01*
X110600000Y-63228571D02*
X110752380Y-63761904D01*
X110904761Y-63380952D01*
X111057142Y-63761904D01*
X111209523Y-63228571D01*
X111438095Y-63228571D02*
X111590476Y-63761904D01*
X111742857Y-63380952D01*
X111895238Y-63761904D01*
X112047619Y-63228571D01*
X112352380Y-63685714D02*
X112390476Y-63723809D01*
X112352380Y-63761904D01*
X112314285Y-63723809D01*
X112352380Y-63685714D01*
X112352380Y-63761904D01*
X112733333Y-63761904D02*
X112733333Y-63228571D01*
X112733333Y-63304761D02*
X112771428Y-63266666D01*
X112847619Y-63228571D01*
X112961904Y-63228571D01*
X113038095Y-63266666D01*
X113076190Y-63342857D01*
X113076190Y-63761904D01*
X113076190Y-63342857D02*
X113114285Y-63266666D01*
X113190476Y-63228571D01*
X113304761Y-63228571D01*
X113380952Y-63266666D01*
X113419047Y-63342857D01*
X113419047Y-63761904D01*
X113800000Y-63761904D02*
X113800000Y-63228571D01*
X113800000Y-62961904D02*
X113761904Y-63000000D01*
X113800000Y-63038095D01*
X113838095Y-63000000D01*
X113800000Y-62961904D01*
X113800000Y-63038095D01*
X114180952Y-63761904D02*
X114180952Y-63228571D01*
X114180952Y-63380952D02*
X114219047Y-63304761D01*
X114257142Y-63266666D01*
X114333333Y-63228571D01*
X114409523Y-63228571D01*
X114561904Y-63228571D02*
X114866666Y-63228571D01*
X114676190Y-62961904D02*
X114676190Y-63647619D01*
X114714285Y-63723809D01*
X114790476Y-63761904D01*
X114866666Y-63761904D01*
X115438095Y-63723809D02*
X115361904Y-63761904D01*
X115209523Y-63761904D01*
X115133333Y-63723809D01*
X115095238Y-63647619D01*
X115095238Y-63342857D01*
X115133333Y-63266666D01*
X115209523Y-63228571D01*
X115361904Y-63228571D01*
X115438095Y-63266666D01*
X115476190Y-63342857D01*
X115476190Y-63419047D01*
X115095238Y-63495238D01*
X115819047Y-63685714D02*
X115857142Y-63723809D01*
X115819047Y-63761904D01*
X115780952Y-63723809D01*
X115819047Y-63685714D01*
X115819047Y-63761904D01*
X116314285Y-63761904D02*
X116238095Y-63723809D01*
X116200000Y-63685714D01*
X116161904Y-63609523D01*
X116161904Y-63380952D01*
X116200000Y-63304761D01*
X116238095Y-63266666D01*
X116314285Y-63228571D01*
X116428571Y-63228571D01*
X116504761Y-63266666D01*
X116542857Y-63304761D01*
X116580952Y-63380952D01*
X116580952Y-63609523D01*
X116542857Y-63685714D01*
X116504761Y-63723809D01*
X116428571Y-63761904D01*
X116314285Y-63761904D01*
X116923809Y-63761904D02*
X116923809Y-63228571D01*
X116923809Y-63380952D02*
X116961904Y-63304761D01*
X117000000Y-63266666D01*
X117076190Y-63228571D01*
X117152380Y-63228571D01*
X117761904Y-63228571D02*
X117761904Y-63876190D01*
X117723809Y-63952380D01*
X117685714Y-63990476D01*
X117609523Y-64028571D01*
X117495238Y-64028571D01*
X117419047Y-63990476D01*
X117761904Y-63723809D02*
X117685714Y-63761904D01*
X117533333Y-63761904D01*
X117457142Y-63723809D01*
X117419047Y-63685714D01*
X117380952Y-63609523D01*
X117380952Y-63380952D01*
X117419047Y-63304761D01*
X117457142Y-63266666D01*
X117533333Y-63228571D01*
X117685714Y-63228571D01*
X117761904Y-63266666D01*
X129396190Y-127077619D02*
X129358095Y-127191904D01*
X129358095Y-127382380D01*
X129396190Y-127458571D01*
X129434285Y-127496666D01*
X129510476Y-127534761D01*
X129586666Y-127534761D01*
X129662857Y-127496666D01*
X129700952Y-127458571D01*
X129739047Y-127382380D01*
X129777142Y-127230000D01*
X129815238Y-127153809D01*
X129853333Y-127115714D01*
X129929523Y-127077619D01*
X130005714Y-127077619D01*
X130081904Y-127115714D01*
X130120000Y-127153809D01*
X130158095Y-127230000D01*
X130158095Y-127420476D01*
X130120000Y-127534761D01*
X129777142Y-127877619D02*
X129777142Y-128144285D01*
X129358095Y-128258571D02*
X129358095Y-127877619D01*
X130158095Y-127877619D01*
X130158095Y-128258571D01*
X129358095Y-129058571D02*
X129739047Y-128791904D01*
X129358095Y-128601428D02*
X130158095Y-128601428D01*
X130158095Y-128906190D01*
X130120000Y-128982380D01*
X130081904Y-129020476D01*
X130005714Y-129058571D01*
X129891428Y-129058571D01*
X129815238Y-129020476D01*
X129777142Y-128982380D01*
X129739047Y-128906190D01*
X129739047Y-128601428D01*
X130158095Y-129287142D02*
X129358095Y-129553809D01*
X130158095Y-129820476D01*
X130158095Y-130239523D02*
X130158095Y-130391904D01*
X130120000Y-130468095D01*
X130043809Y-130544285D01*
X129891428Y-130582380D01*
X129624761Y-130582380D01*
X129472380Y-130544285D01*
X129396190Y-130468095D01*
X129358095Y-130391904D01*
X129358095Y-130239523D01*
X129396190Y-130163333D01*
X129472380Y-130087142D01*
X129624761Y-130049047D01*
X129891428Y-130049047D01*
X130043809Y-130087142D01*
X130120000Y-130163333D01*
X130158095Y-130239523D01*
X139017142Y-96105238D02*
X139017142Y-96714761D01*
X138788571Y-96714761D02*
X138788571Y-96105238D01*
X139148095Y-106599047D02*
X139948095Y-106599047D01*
X139148095Y-107437142D02*
X139529047Y-107170476D01*
X139148095Y-106980000D02*
X139948095Y-106980000D01*
X139948095Y-107284761D01*
X139910000Y-107360952D01*
X139871904Y-107399047D01*
X139795714Y-107437142D01*
X139681428Y-107437142D01*
X139605238Y-107399047D01*
X139567142Y-107360952D01*
X139529047Y-107284761D01*
X139529047Y-106980000D01*
X139871904Y-107741904D02*
X139910000Y-107780000D01*
X139948095Y-107856190D01*
X139948095Y-108046666D01*
X139910000Y-108122857D01*
X139871904Y-108160952D01*
X139795714Y-108199047D01*
X139719523Y-108199047D01*
X139605238Y-108160952D01*
X139148095Y-107703809D01*
X139148095Y-108199047D01*
X130668095Y-130947619D02*
X130515714Y-130947619D01*
X130668095Y-131252380D02*
X130515714Y-131252380D01*
X131678095Y-127313333D02*
X131678095Y-127808571D01*
X131373333Y-127541904D01*
X131373333Y-127656190D01*
X131335238Y-127732380D01*
X131297142Y-127770476D01*
X131220952Y-127808571D01*
X131030476Y-127808571D01*
X130954285Y-127770476D01*
X130916190Y-127732380D01*
X130878095Y-127656190D01*
X130878095Y-127427619D01*
X130916190Y-127351428D01*
X130954285Y-127313333D01*
X147148095Y-106478095D02*
X147948095Y-106478095D01*
X147871904Y-106820952D02*
X147910000Y-106859047D01*
X147948095Y-106935238D01*
X147948095Y-107125714D01*
X147910000Y-107201904D01*
X147871904Y-107240000D01*
X147795714Y-107278095D01*
X147719523Y-107278095D01*
X147605238Y-107240000D01*
X147148095Y-106782857D01*
X147148095Y-107278095D01*
X147224285Y-108078095D02*
X147186190Y-108040000D01*
X147148095Y-107925714D01*
X147148095Y-107849523D01*
X147186190Y-107735238D01*
X147262380Y-107659047D01*
X147338571Y-107620952D01*
X147490952Y-107582857D01*
X147605238Y-107582857D01*
X147757619Y-107620952D01*
X147833809Y-107659047D01*
X147910000Y-107735238D01*
X147948095Y-107849523D01*
X147948095Y-107925714D01*
X147910000Y-108040000D01*
X147871904Y-108078095D01*
X147871904Y-108382857D02*
X147910000Y-108420952D01*
X147948095Y-108497142D01*
X147948095Y-108687619D01*
X147910000Y-108763809D01*
X147871904Y-108801904D01*
X147795714Y-108840000D01*
X147719523Y-108840000D01*
X147605238Y-108801904D01*
X147148095Y-108344761D01*
X147148095Y-108840000D01*
X126040476Y-61775000D02*
X125964285Y-61736904D01*
X125850000Y-61736904D01*
X125735714Y-61775000D01*
X125659523Y-61851190D01*
X125621428Y-61927380D01*
X125583333Y-62079761D01*
X125583333Y-62194047D01*
X125621428Y-62346428D01*
X125659523Y-62422619D01*
X125735714Y-62498809D01*
X125850000Y-62536904D01*
X125926190Y-62536904D01*
X126040476Y-62498809D01*
X126078571Y-62460714D01*
X126078571Y-62194047D01*
X125926190Y-62194047D01*
X126421428Y-62536904D02*
X126421428Y-61736904D01*
X126878571Y-62536904D01*
X126878571Y-61736904D01*
X127259523Y-62536904D02*
X127259523Y-61736904D01*
X127450000Y-61736904D01*
X127564285Y-61775000D01*
X127640476Y-61851190D01*
X127678571Y-61927380D01*
X127716666Y-62079761D01*
X127716666Y-62194047D01*
X127678571Y-62346428D01*
X127640476Y-62422619D01*
X127564285Y-62498809D01*
X127450000Y-62536904D01*
X127259523Y-62536904D01*
X131958095Y-82547857D02*
X131958095Y-82700238D01*
X131920000Y-82776428D01*
X131843809Y-82852619D01*
X131691428Y-82890714D01*
X131424761Y-82890714D01*
X131272380Y-82852619D01*
X131196190Y-82776428D01*
X131158095Y-82700238D01*
X131158095Y-82547857D01*
X131196190Y-82471666D01*
X131272380Y-82395476D01*
X131424761Y-82357380D01*
X131691428Y-82357380D01*
X131843809Y-82395476D01*
X131920000Y-82471666D01*
X131958095Y-82547857D01*
X131158095Y-83233571D02*
X131958095Y-83233571D01*
X131958095Y-83424047D01*
X131920000Y-83538333D01*
X131843809Y-83614523D01*
X131767619Y-83652619D01*
X131615238Y-83690714D01*
X131500952Y-83690714D01*
X131348571Y-83652619D01*
X131272380Y-83614523D01*
X131196190Y-83538333D01*
X131158095Y-83424047D01*
X131158095Y-83233571D01*
X131158095Y-84452619D02*
X131158095Y-83995476D01*
X131158095Y-84224047D02*
X131958095Y-84224047D01*
X131843809Y-84147857D01*
X131767619Y-84071666D01*
X131729523Y-83995476D01*
X102849047Y-67282380D02*
X102849047Y-66758571D01*
X102801428Y-66663333D01*
X102706190Y-66615714D01*
X102515714Y-66615714D01*
X102420476Y-66663333D01*
X102849047Y-67234761D02*
X102753809Y-67282380D01*
X102515714Y-67282380D01*
X102420476Y-67234761D01*
X102372857Y-67139523D01*
X102372857Y-67044285D01*
X102420476Y-66949047D01*
X102515714Y-66901428D01*
X102753809Y-66901428D01*
X102849047Y-66853809D01*
X103753809Y-66615714D02*
X103753809Y-67282380D01*
X103325238Y-66615714D02*
X103325238Y-67139523D01*
X103372857Y-67234761D01*
X103468095Y-67282380D01*
X103610952Y-67282380D01*
X103706190Y-67234761D01*
X103753809Y-67187142D01*
X104658571Y-67282380D02*
X104658571Y-66282380D01*
X104658571Y-67234761D02*
X104563333Y-67282380D01*
X104372857Y-67282380D01*
X104277619Y-67234761D01*
X104230000Y-67187142D01*
X104182380Y-67091904D01*
X104182380Y-66806190D01*
X104230000Y-66710952D01*
X104277619Y-66663333D01*
X104372857Y-66615714D01*
X104563333Y-66615714D01*
X104658571Y-66663333D01*
X105134761Y-67282380D02*
X105134761Y-66615714D01*
X105134761Y-66282380D02*
X105087142Y-66330000D01*
X105134761Y-66377619D01*
X105182380Y-66330000D01*
X105134761Y-66282380D01*
X105134761Y-66377619D01*
X105753809Y-67282380D02*
X105658571Y-67234761D01*
X105610952Y-67187142D01*
X105563333Y-67091904D01*
X105563333Y-66806190D01*
X105610952Y-66710952D01*
X105658571Y-66663333D01*
X105753809Y-66615714D01*
X105896666Y-66615714D01*
X105991904Y-66663333D01*
X106039523Y-66710952D01*
X106087142Y-66806190D01*
X106087142Y-67091904D01*
X106039523Y-67187142D01*
X105991904Y-67234761D01*
X105896666Y-67282380D01*
X105753809Y-67282380D01*
X131151190Y-106697619D02*
X131113095Y-106811904D01*
X131113095Y-107002380D01*
X131151190Y-107078571D01*
X131189285Y-107116666D01*
X131265476Y-107154761D01*
X131341666Y-107154761D01*
X131417857Y-107116666D01*
X131455952Y-107078571D01*
X131494047Y-107002380D01*
X131532142Y-106850000D01*
X131570238Y-106773809D01*
X131608333Y-106735714D01*
X131684523Y-106697619D01*
X131760714Y-106697619D01*
X131836904Y-106735714D01*
X131875000Y-106773809D01*
X131913095Y-106850000D01*
X131913095Y-107040476D01*
X131875000Y-107154761D01*
X131113095Y-107954761D02*
X131494047Y-107688095D01*
X131113095Y-107497619D02*
X131913095Y-107497619D01*
X131913095Y-107802380D01*
X131875000Y-107878571D01*
X131836904Y-107916666D01*
X131760714Y-107954761D01*
X131646428Y-107954761D01*
X131570238Y-107916666D01*
X131532142Y-107878571D01*
X131494047Y-107802380D01*
X131494047Y-107497619D01*
X131532142Y-108564285D02*
X131532142Y-108297619D01*
X131113095Y-108297619D02*
X131913095Y-108297619D01*
X131913095Y-108678571D01*
X131836904Y-108945238D02*
X131875000Y-108983333D01*
X131913095Y-109059523D01*
X131913095Y-109250000D01*
X131875000Y-109326190D01*
X131836904Y-109364285D01*
X131760714Y-109402380D01*
X131684523Y-109402380D01*
X131570238Y-109364285D01*
X131113095Y-108907142D01*
X131113095Y-109402380D01*
X147113095Y-81292857D02*
X147913095Y-81292857D01*
X147113095Y-81750000D02*
X147570238Y-81407142D01*
X147913095Y-81750000D02*
X147455952Y-81292857D01*
X147532142Y-82092857D02*
X147532142Y-82359523D01*
X147113095Y-82473809D02*
X147113095Y-82092857D01*
X147913095Y-82092857D01*
X147913095Y-82473809D01*
X147494047Y-82969047D02*
X147113095Y-82969047D01*
X147913095Y-82702380D02*
X147494047Y-82969047D01*
X147913095Y-83235714D01*
X147113095Y-83502380D02*
X147913095Y-83502380D01*
X147913095Y-83807142D01*
X147875000Y-83883333D01*
X147836904Y-83921428D01*
X147760714Y-83959523D01*
X147646428Y-83959523D01*
X147570238Y-83921428D01*
X147532142Y-83883333D01*
X147494047Y-83807142D01*
X147494047Y-83502380D01*
X147341666Y-84264285D02*
X147341666Y-84645238D01*
X147113095Y-84188095D02*
X147913095Y-84454761D01*
X147113095Y-84721428D01*
X147113095Y-84988095D02*
X147913095Y-84988095D01*
X147913095Y-85178571D01*
X147875000Y-85292857D01*
X147798809Y-85369047D01*
X147722619Y-85407142D01*
X147570238Y-85445238D01*
X147455952Y-85445238D01*
X147303571Y-85407142D01*
X147227380Y-85369047D01*
X147151190Y-85292857D01*
X147113095Y-85178571D01*
X147113095Y-84988095D01*
X125609523Y-69261904D02*
X126104761Y-69261904D01*
X125838095Y-69566666D01*
X125952380Y-69566666D01*
X126028571Y-69604761D01*
X126066666Y-69642857D01*
X126104761Y-69719047D01*
X126104761Y-69909523D01*
X126066666Y-69985714D01*
X126028571Y-70023809D01*
X125952380Y-70061904D01*
X125723809Y-70061904D01*
X125647619Y-70023809D01*
X125609523Y-69985714D01*
X126333333Y-69261904D02*
X126600000Y-70061904D01*
X126866666Y-69261904D01*
X127057142Y-69261904D02*
X127552380Y-69261904D01*
X127285714Y-69566666D01*
X127400000Y-69566666D01*
X127476190Y-69604761D01*
X127514285Y-69642857D01*
X127552380Y-69719047D01*
X127552380Y-69909523D01*
X127514285Y-69985714D01*
X127476190Y-70023809D01*
X127400000Y-70061904D01*
X127171428Y-70061904D01*
X127095238Y-70023809D01*
X127057142Y-69985714D01*
X148607095Y-117405952D02*
X148645190Y-117329761D01*
X148683285Y-117291666D01*
X148759476Y-117253571D01*
X148988047Y-117253571D01*
X149064238Y-117291666D01*
X149102333Y-117329761D01*
X149140428Y-117405952D01*
X149140428Y-117520238D01*
X149102333Y-117596428D01*
X149064238Y-117634523D01*
X148988047Y-117672619D01*
X148759476Y-117672619D01*
X148683285Y-117634523D01*
X148645190Y-117596428D01*
X148607095Y-117520238D01*
X148607095Y-117405952D01*
X149140428Y-118015476D02*
X148607095Y-118015476D01*
X149064238Y-118015476D02*
X149102333Y-118053571D01*
X149140428Y-118129761D01*
X149140428Y-118244047D01*
X149102333Y-118320238D01*
X149026142Y-118358333D01*
X148607095Y-118358333D01*
X147319095Y-117310714D02*
X147357190Y-117234523D01*
X147395285Y-117196428D01*
X147471476Y-117158333D01*
X147700047Y-117158333D01*
X147776238Y-117196428D01*
X147814333Y-117234523D01*
X147852428Y-117310714D01*
X147852428Y-117425000D01*
X147814333Y-117501190D01*
X147776238Y-117539285D01*
X147700047Y-117577380D01*
X147471476Y-117577380D01*
X147395285Y-117539285D01*
X147357190Y-117501190D01*
X147319095Y-117425000D01*
X147319095Y-117310714D01*
X147852428Y-117805952D02*
X147852428Y-118110714D01*
X147319095Y-117920238D02*
X148004809Y-117920238D01*
X148081000Y-117958333D01*
X148119095Y-118034523D01*
X148119095Y-118110714D01*
X147852428Y-118263095D02*
X147852428Y-118567857D01*
X147319095Y-118377380D02*
X148004809Y-118377380D01*
X148081000Y-118415476D01*
X148119095Y-118491666D01*
X148119095Y-118567857D01*
X126040476Y-56775000D02*
X125964285Y-56736904D01*
X125850000Y-56736904D01*
X125735714Y-56775000D01*
X125659523Y-56851190D01*
X125621428Y-56927380D01*
X125583333Y-57079761D01*
X125583333Y-57194047D01*
X125621428Y-57346428D01*
X125659523Y-57422619D01*
X125735714Y-57498809D01*
X125850000Y-57536904D01*
X125926190Y-57536904D01*
X126040476Y-57498809D01*
X126078571Y-57460714D01*
X126078571Y-57194047D01*
X125926190Y-57194047D01*
X126421428Y-57536904D02*
X126421428Y-56736904D01*
X126878571Y-57536904D01*
X126878571Y-56736904D01*
X127259523Y-57536904D02*
X127259523Y-56736904D01*
X127450000Y-56736904D01*
X127564285Y-56775000D01*
X127640476Y-56851190D01*
X127678571Y-56927380D01*
X127716666Y-57079761D01*
X127716666Y-57194047D01*
X127678571Y-57346428D01*
X127640476Y-57422619D01*
X127564285Y-57498809D01*
X127450000Y-57536904D01*
X127259523Y-57536904D01*
X126097619Y-59186904D02*
X125716666Y-59186904D01*
X125678571Y-59567857D01*
X125716666Y-59529761D01*
X125792857Y-59491666D01*
X125983333Y-59491666D01*
X126059523Y-59529761D01*
X126097619Y-59567857D01*
X126135714Y-59644047D01*
X126135714Y-59834523D01*
X126097619Y-59910714D01*
X126059523Y-59948809D01*
X125983333Y-59986904D01*
X125792857Y-59986904D01*
X125716666Y-59948809D01*
X125678571Y-59910714D01*
X126364285Y-59186904D02*
X126630952Y-59986904D01*
X126897619Y-59186904D01*
X139532142Y-81928571D02*
X139532142Y-82195238D01*
X139113095Y-82309523D02*
X139113095Y-81928571D01*
X139913095Y-81928571D01*
X139913095Y-82309523D01*
X139113095Y-82652380D02*
X139913095Y-82652380D01*
X139113095Y-83109523D01*
X139913095Y-83109523D01*
X139189285Y-83947619D02*
X139151190Y-83909523D01*
X139113095Y-83795238D01*
X139113095Y-83719047D01*
X139151190Y-83604761D01*
X139227380Y-83528571D01*
X139303571Y-83490476D01*
X139455952Y-83452380D01*
X139570238Y-83452380D01*
X139722619Y-83490476D01*
X139798809Y-83528571D01*
X139875000Y-83604761D01*
X139913095Y-83719047D01*
X139913095Y-83795238D01*
X139875000Y-83909523D01*
X139836904Y-83947619D01*
X139113095Y-84709523D02*
X139113095Y-84252380D01*
X139113095Y-84480952D02*
X139913095Y-84480952D01*
X139798809Y-84404761D01*
X139722619Y-84328571D01*
X139684523Y-84252380D01*
X134274285Y-75311904D02*
X134274285Y-74511904D01*
X134540952Y-75083333D01*
X134807619Y-74511904D01*
X134807619Y-75311904D01*
X135645714Y-75235714D02*
X135607619Y-75273809D01*
X135493333Y-75311904D01*
X135417142Y-75311904D01*
X135302857Y-75273809D01*
X135226666Y-75197619D01*
X135188571Y-75121428D01*
X135150476Y-74969047D01*
X135150476Y-74854761D01*
X135188571Y-74702380D01*
X135226666Y-74626190D01*
X135302857Y-74550000D01*
X135417142Y-74511904D01*
X135493333Y-74511904D01*
X135607619Y-74550000D01*
X135645714Y-74588095D01*
X136407619Y-75311904D02*
X135950476Y-75311904D01*
X136179047Y-75311904D02*
X136179047Y-74511904D01*
X136102857Y-74626190D01*
X136026666Y-74702380D01*
X135950476Y-74740476D01*
X136750476Y-75007142D02*
X137360000Y-75007142D01*
X137702857Y-75083333D02*
X138083809Y-75083333D01*
X137626666Y-75311904D02*
X137893333Y-74511904D01*
X138160000Y-75311904D01*
X131308095Y-85410000D02*
X131117619Y-85410000D01*
X131193809Y-85219523D02*
X131117619Y-85410000D01*
X131193809Y-85600476D01*
X130965238Y-85295714D02*
X131117619Y-85410000D01*
X130965238Y-85524285D01*
X126035714Y-65086904D02*
X125654761Y-65086904D01*
X125654761Y-64286904D01*
X126302380Y-64667857D02*
X126569047Y-64667857D01*
X126683333Y-65086904D02*
X126302380Y-65086904D01*
X126302380Y-64286904D01*
X126683333Y-64286904D01*
X127026190Y-65086904D02*
X127026190Y-64286904D01*
X127216666Y-64286904D01*
X127330952Y-64325000D01*
X127407142Y-64401190D01*
X127445238Y-64477380D01*
X127483333Y-64629761D01*
X127483333Y-64744047D01*
X127445238Y-64896428D01*
X127407142Y-64972619D01*
X127330952Y-65048809D01*
X127216666Y-65086904D01*
X127026190Y-65086904D01*
X139098095Y-93939047D02*
X139898095Y-93939047D01*
X139098095Y-94777142D02*
X139479047Y-94510476D01*
X139098095Y-94320000D02*
X139898095Y-94320000D01*
X139898095Y-94624761D01*
X139860000Y-94700952D01*
X139821904Y-94739047D01*
X139745714Y-94777142D01*
X139631428Y-94777142D01*
X139555238Y-94739047D01*
X139517142Y-94700952D01*
X139479047Y-94624761D01*
X139479047Y-94320000D01*
X139098095Y-95539047D02*
X139098095Y-95081904D01*
X139098095Y-95310476D02*
X139898095Y-95310476D01*
X139783809Y-95234285D01*
X139707619Y-95158095D01*
X139669523Y-95081904D01*
X139122142Y-108585000D02*
X139122142Y-109194523D01*
X138893571Y-109194523D02*
X138893571Y-108585000D01*
X139122142Y-109575476D02*
X139122142Y-110185000D01*
X138893571Y-110185000D02*
X138893571Y-109575476D01*
X150526190Y-118997619D02*
X150488095Y-119111904D01*
X150488095Y-119302380D01*
X150526190Y-119378571D01*
X150564285Y-119416666D01*
X150640476Y-119454761D01*
X150716666Y-119454761D01*
X150792857Y-119416666D01*
X150830952Y-119378571D01*
X150869047Y-119302380D01*
X150907142Y-119150000D01*
X150945238Y-119073809D01*
X150983333Y-119035714D01*
X151059523Y-118997619D01*
X151135714Y-118997619D01*
X151211904Y-119035714D01*
X151250000Y-119073809D01*
X151288095Y-119150000D01*
X151288095Y-119340476D01*
X151250000Y-119454761D01*
X150907142Y-119797619D02*
X150907142Y-120064285D01*
X150488095Y-120178571D02*
X150488095Y-119797619D01*
X151288095Y-119797619D01*
X151288095Y-120178571D01*
X150488095Y-120978571D02*
X150869047Y-120711904D01*
X150488095Y-120521428D02*
X151288095Y-120521428D01*
X151288095Y-120826190D01*
X151250000Y-120902380D01*
X151211904Y-120940476D01*
X151135714Y-120978571D01*
X151021428Y-120978571D01*
X150945238Y-120940476D01*
X150907142Y-120902380D01*
X150869047Y-120826190D01*
X150869047Y-120521428D01*
X151288095Y-121207142D02*
X150488095Y-121473809D01*
X151288095Y-121740476D01*
X151288095Y-122159523D02*
X151288095Y-122311904D01*
X151250000Y-122388095D01*
X151173809Y-122464285D01*
X151021428Y-122502380D01*
X150754761Y-122502380D01*
X150602380Y-122464285D01*
X150526190Y-122388095D01*
X150488095Y-122311904D01*
X150488095Y-122159523D01*
X150526190Y-122083333D01*
X150602380Y-122007142D01*
X150754761Y-121969047D01*
X151021428Y-121969047D01*
X151173809Y-122007142D01*
X151250000Y-122083333D01*
X151288095Y-122159523D01*
X130818095Y-126210000D02*
X130627619Y-126210000D01*
X130703809Y-126019523D02*
X130627619Y-126210000D01*
X130703809Y-126400476D01*
X130475238Y-126095714D02*
X130627619Y-126210000D01*
X130475238Y-126324285D01*
X139532142Y-118653571D02*
X139532142Y-118920238D01*
X139113095Y-119034523D02*
X139113095Y-118653571D01*
X139913095Y-118653571D01*
X139913095Y-119034523D01*
X139113095Y-119377380D02*
X139913095Y-119377380D01*
X139113095Y-119834523D01*
X139913095Y-119834523D01*
X139189285Y-120672619D02*
X139151190Y-120634523D01*
X139113095Y-120520238D01*
X139113095Y-120444047D01*
X139151190Y-120329761D01*
X139227380Y-120253571D01*
X139303571Y-120215476D01*
X139455952Y-120177380D01*
X139570238Y-120177380D01*
X139722619Y-120215476D01*
X139798809Y-120253571D01*
X139875000Y-120329761D01*
X139913095Y-120444047D01*
X139913095Y-120520238D01*
X139875000Y-120634523D01*
X139836904Y-120672619D01*
X139836904Y-120977380D02*
X139875000Y-121015476D01*
X139913095Y-121091666D01*
X139913095Y-121282142D01*
X139875000Y-121358333D01*
X139836904Y-121396428D01*
X139760714Y-121434523D01*
X139684523Y-121434523D01*
X139570238Y-121396428D01*
X139113095Y-120939285D01*
X139113095Y-121434523D01*
X126040476Y-66925000D02*
X125964285Y-66886904D01*
X125850000Y-66886904D01*
X125735714Y-66925000D01*
X125659523Y-67001190D01*
X125621428Y-67077380D01*
X125583333Y-67229761D01*
X125583333Y-67344047D01*
X125621428Y-67496428D01*
X125659523Y-67572619D01*
X125735714Y-67648809D01*
X125850000Y-67686904D01*
X125926190Y-67686904D01*
X126040476Y-67648809D01*
X126078571Y-67610714D01*
X126078571Y-67344047D01*
X125926190Y-67344047D01*
X126421428Y-67686904D02*
X126421428Y-66886904D01*
X126878571Y-67686904D01*
X126878571Y-66886904D01*
X127259523Y-67686904D02*
X127259523Y-66886904D01*
X127450000Y-66886904D01*
X127564285Y-66925000D01*
X127640476Y-67001190D01*
X127678571Y-67077380D01*
X127716666Y-67229761D01*
X127716666Y-67344047D01*
X127678571Y-67496428D01*
X127640476Y-67572619D01*
X127564285Y-67648809D01*
X127450000Y-67686904D01*
X127259523Y-67686904D01*
%TO.C,J24*%
X140427142Y-60611904D02*
X140427142Y-59811904D01*
X140693809Y-60383333D01*
X140960476Y-59811904D01*
X140960476Y-60611904D01*
X141798571Y-60535714D02*
X141760476Y-60573809D01*
X141646190Y-60611904D01*
X141570000Y-60611904D01*
X141455714Y-60573809D01*
X141379523Y-60497619D01*
X141341428Y-60421428D01*
X141303333Y-60269047D01*
X141303333Y-60154761D01*
X141341428Y-60002380D01*
X141379523Y-59926190D01*
X141455714Y-59850000D01*
X141570000Y-59811904D01*
X141646190Y-59811904D01*
X141760476Y-59850000D01*
X141798571Y-59888095D01*
X142560476Y-60611904D02*
X142103333Y-60611904D01*
X142331904Y-60611904D02*
X142331904Y-59811904D01*
X142255714Y-59926190D01*
X142179523Y-60002380D01*
X142103333Y-60040476D01*
X142903333Y-60307142D02*
X143512857Y-60307142D01*
X144160476Y-60192857D02*
X144274761Y-60230952D01*
X144312857Y-60269047D01*
X144350952Y-60345238D01*
X144350952Y-60459523D01*
X144312857Y-60535714D01*
X144274761Y-60573809D01*
X144198571Y-60611904D01*
X143893809Y-60611904D01*
X143893809Y-59811904D01*
X144160476Y-59811904D01*
X144236666Y-59850000D01*
X144274761Y-59888095D01*
X144312857Y-59964285D01*
X144312857Y-60040476D01*
X144274761Y-60116666D01*
X144236666Y-60154761D01*
X144160476Y-60192857D01*
X143893809Y-60192857D01*
%TO.C,J18*%
X151820476Y-75612380D02*
X151820476Y-74612380D01*
X152153809Y-75326666D01*
X152487142Y-74612380D01*
X152487142Y-75612380D01*
X153534761Y-75517142D02*
X153487142Y-75564761D01*
X153344285Y-75612380D01*
X153249047Y-75612380D01*
X153106190Y-75564761D01*
X153010952Y-75469523D01*
X152963333Y-75374285D01*
X152915714Y-75183809D01*
X152915714Y-75040952D01*
X152963333Y-74850476D01*
X153010952Y-74755238D01*
X153106190Y-74660000D01*
X153249047Y-74612380D01*
X153344285Y-74612380D01*
X153487142Y-74660000D01*
X153534761Y-74707619D01*
X153915714Y-74707619D02*
X153963333Y-74660000D01*
X154058571Y-74612380D01*
X154296666Y-74612380D01*
X154391904Y-74660000D01*
X154439523Y-74707619D01*
X154487142Y-74802857D01*
X154487142Y-74898095D01*
X154439523Y-75040952D01*
X153868095Y-75612380D01*
X154487142Y-75612380D01*
%TO.C,J23*%
X132444285Y-60561904D02*
X132444285Y-59761904D01*
X132710952Y-60333333D01*
X132977619Y-59761904D01*
X132977619Y-60561904D01*
X133815714Y-60485714D02*
X133777619Y-60523809D01*
X133663333Y-60561904D01*
X133587142Y-60561904D01*
X133472857Y-60523809D01*
X133396666Y-60447619D01*
X133358571Y-60371428D01*
X133320476Y-60219047D01*
X133320476Y-60104761D01*
X133358571Y-59952380D01*
X133396666Y-59876190D01*
X133472857Y-59800000D01*
X133587142Y-59761904D01*
X133663333Y-59761904D01*
X133777619Y-59800000D01*
X133815714Y-59838095D01*
X134577619Y-60561904D02*
X134120476Y-60561904D01*
X134349047Y-60561904D02*
X134349047Y-59761904D01*
X134272857Y-59876190D01*
X134196666Y-59952380D01*
X134120476Y-59990476D01*
X134920476Y-60257142D02*
X135530000Y-60257142D01*
X135872857Y-60333333D02*
X136253809Y-60333333D01*
X135796666Y-60561904D02*
X136063333Y-59761904D01*
X136330000Y-60561904D01*
%TO.C,REF\u002A\u002A*%
X103766666Y-57522380D02*
X103433333Y-57046190D01*
X103195238Y-57522380D02*
X103195238Y-56522380D01*
X103576190Y-56522380D01*
X103671428Y-56570000D01*
X103719047Y-56617619D01*
X103766666Y-56712857D01*
X103766666Y-56855714D01*
X103719047Y-56950952D01*
X103671428Y-56998571D01*
X103576190Y-57046190D01*
X103195238Y-57046190D01*
X104195238Y-56998571D02*
X104528571Y-56998571D01*
X104671428Y-57522380D02*
X104195238Y-57522380D01*
X104195238Y-56522380D01*
X104671428Y-56522380D01*
X105433333Y-56998571D02*
X105100000Y-56998571D01*
X105100000Y-57522380D02*
X105100000Y-56522380D01*
X105576190Y-56522380D01*
X106100000Y-56522380D02*
X106100000Y-56760476D01*
X105861904Y-56665238D02*
X106100000Y-56760476D01*
X106338095Y-56665238D01*
X105957142Y-56950952D02*
X106100000Y-56760476D01*
X106242857Y-56950952D01*
X106861904Y-56522380D02*
X106861904Y-56760476D01*
X106623809Y-56665238D02*
X106861904Y-56760476D01*
X107100000Y-56665238D01*
X106719047Y-56950952D02*
X106861904Y-56760476D01*
X107004761Y-56950952D01*
%TO.C,SW1*%
X144728571Y-126877380D02*
X144633333Y-126829761D01*
X144585714Y-126782142D01*
X144538095Y-126686904D01*
X144538095Y-126401190D01*
X144585714Y-126305952D01*
X144633333Y-126258333D01*
X144728571Y-126210714D01*
X144871428Y-126210714D01*
X144966666Y-126258333D01*
X145014285Y-126305952D01*
X145061904Y-126401190D01*
X145061904Y-126686904D01*
X145014285Y-126782142D01*
X144966666Y-126829761D01*
X144871428Y-126877380D01*
X144728571Y-126877380D01*
X145490476Y-126210714D02*
X145490476Y-126877380D01*
X145490476Y-126305952D02*
X145538095Y-126258333D01*
X145633333Y-126210714D01*
X145776190Y-126210714D01*
X145871428Y-126258333D01*
X145919047Y-126353571D01*
X145919047Y-126877380D01*
X147109523Y-125829761D02*
X146252380Y-127115476D01*
X147585714Y-126877380D02*
X147490476Y-126829761D01*
X147442857Y-126782142D01*
X147395238Y-126686904D01*
X147395238Y-126401190D01*
X147442857Y-126305952D01*
X147490476Y-126258333D01*
X147585714Y-126210714D01*
X147728571Y-126210714D01*
X147823809Y-126258333D01*
X147871428Y-126305952D01*
X147919047Y-126401190D01*
X147919047Y-126686904D01*
X147871428Y-126782142D01*
X147823809Y-126829761D01*
X147728571Y-126877380D01*
X147585714Y-126877380D01*
X148204761Y-126210714D02*
X148585714Y-126210714D01*
X148347619Y-126877380D02*
X148347619Y-126020238D01*
X148395238Y-125925000D01*
X148490476Y-125877380D01*
X148585714Y-125877380D01*
X148776190Y-126210714D02*
X149157142Y-126210714D01*
X148919047Y-126877380D02*
X148919047Y-126020238D01*
X148966666Y-125925000D01*
X149061904Y-125877380D01*
X149157142Y-125877380D01*
%TO.C,J17*%
X148499676Y-77566780D02*
X148499676Y-76566780D01*
X148833009Y-77281066D01*
X149166342Y-76566780D01*
X149166342Y-77566780D01*
X150213961Y-77471542D02*
X150166342Y-77519161D01*
X150023485Y-77566780D01*
X149928247Y-77566780D01*
X149785390Y-77519161D01*
X149690152Y-77423923D01*
X149642533Y-77328685D01*
X149594914Y-77138209D01*
X149594914Y-76995352D01*
X149642533Y-76804876D01*
X149690152Y-76709638D01*
X149785390Y-76614400D01*
X149928247Y-76566780D01*
X150023485Y-76566780D01*
X150166342Y-76614400D01*
X150213961Y-76662019D01*
X151166342Y-77566780D02*
X150594914Y-77566780D01*
X150880628Y-77566780D02*
X150880628Y-76566780D01*
X150785390Y-76709638D01*
X150690152Y-76804876D01*
X150594914Y-76852495D01*
%TO.C,J34*%
X107742380Y-51872380D02*
X107742380Y-50872380D01*
X108123333Y-50872380D01*
X108218571Y-50920000D01*
X108266190Y-50967619D01*
X108313809Y-51062857D01*
X108313809Y-51205714D01*
X108266190Y-51300952D01*
X108218571Y-51348571D01*
X108123333Y-51396190D01*
X107742380Y-51396190D01*
X108885238Y-51872380D02*
X108790000Y-51824761D01*
X108742380Y-51777142D01*
X108694761Y-51681904D01*
X108694761Y-51396190D01*
X108742380Y-51300952D01*
X108790000Y-51253333D01*
X108885238Y-51205714D01*
X109028095Y-51205714D01*
X109123333Y-51253333D01*
X109170952Y-51300952D01*
X109218571Y-51396190D01*
X109218571Y-51681904D01*
X109170952Y-51777142D01*
X109123333Y-51824761D01*
X109028095Y-51872380D01*
X108885238Y-51872380D01*
X109551904Y-51205714D02*
X109742380Y-51872380D01*
X109932857Y-51396190D01*
X110123333Y-51872380D01*
X110313809Y-51205714D01*
X111075714Y-51824761D02*
X110980476Y-51872380D01*
X110790000Y-51872380D01*
X110694761Y-51824761D01*
X110647142Y-51729523D01*
X110647142Y-51348571D01*
X110694761Y-51253333D01*
X110790000Y-51205714D01*
X110980476Y-51205714D01*
X111075714Y-51253333D01*
X111123333Y-51348571D01*
X111123333Y-51443809D01*
X110647142Y-51539047D01*
X111551904Y-51872380D02*
X111551904Y-51205714D01*
X111551904Y-51396190D02*
X111599523Y-51300952D01*
X111647142Y-51253333D01*
X111742380Y-51205714D01*
X111837619Y-51205714D01*
X112932857Y-51872380D02*
X112932857Y-51205714D01*
X112932857Y-50872380D02*
X112885238Y-50920000D01*
X112932857Y-50967619D01*
X112980476Y-50920000D01*
X112932857Y-50872380D01*
X112932857Y-50967619D01*
X113409047Y-51205714D02*
X113409047Y-51872380D01*
X113409047Y-51300952D02*
X113456666Y-51253333D01*
X113551904Y-51205714D01*
X113694761Y-51205714D01*
X113790000Y-51253333D01*
X113837619Y-51348571D01*
X113837619Y-51872380D01*
%TO.C,J35*%
X103502380Y-131577380D02*
X103502380Y-130577380D01*
X103883333Y-130577380D01*
X103978571Y-130625000D01*
X104026190Y-130672619D01*
X104073809Y-130767857D01*
X104073809Y-130910714D01*
X104026190Y-131005952D01*
X103978571Y-131053571D01*
X103883333Y-131101190D01*
X103502380Y-131101190D01*
X104645238Y-131577380D02*
X104550000Y-131529761D01*
X104502380Y-131482142D01*
X104454761Y-131386904D01*
X104454761Y-131101190D01*
X104502380Y-131005952D01*
X104550000Y-130958333D01*
X104645238Y-130910714D01*
X104788095Y-130910714D01*
X104883333Y-130958333D01*
X104930952Y-131005952D01*
X104978571Y-131101190D01*
X104978571Y-131386904D01*
X104930952Y-131482142D01*
X104883333Y-131529761D01*
X104788095Y-131577380D01*
X104645238Y-131577380D01*
X105311904Y-130910714D02*
X105502380Y-131577380D01*
X105692857Y-131101190D01*
X105883333Y-131577380D01*
X106073809Y-130910714D01*
X106835714Y-131529761D02*
X106740476Y-131577380D01*
X106550000Y-131577380D01*
X106454761Y-131529761D01*
X106407142Y-131434523D01*
X106407142Y-131053571D01*
X106454761Y-130958333D01*
X106550000Y-130910714D01*
X106740476Y-130910714D01*
X106835714Y-130958333D01*
X106883333Y-131053571D01*
X106883333Y-131148809D01*
X106407142Y-131244047D01*
X107311904Y-131577380D02*
X107311904Y-130910714D01*
X107311904Y-131101190D02*
X107359523Y-131005952D01*
X107407142Y-130958333D01*
X107502380Y-130910714D01*
X107597619Y-130910714D01*
X108835714Y-131577380D02*
X108740476Y-131529761D01*
X108692857Y-131482142D01*
X108645238Y-131386904D01*
X108645238Y-131101190D01*
X108692857Y-131005952D01*
X108740476Y-130958333D01*
X108835714Y-130910714D01*
X108978571Y-130910714D01*
X109073809Y-130958333D01*
X109121428Y-131005952D01*
X109169047Y-131101190D01*
X109169047Y-131386904D01*
X109121428Y-131482142D01*
X109073809Y-131529761D01*
X108978571Y-131577380D01*
X108835714Y-131577380D01*
X110026190Y-130910714D02*
X110026190Y-131577380D01*
X109597619Y-130910714D02*
X109597619Y-131434523D01*
X109645238Y-131529761D01*
X109740476Y-131577380D01*
X109883333Y-131577380D01*
X109978571Y-131529761D01*
X110026190Y-131482142D01*
X110359523Y-130910714D02*
X110740476Y-130910714D01*
X110502380Y-130577380D02*
X110502380Y-131434523D01*
X110550000Y-131529761D01*
X110645238Y-131577380D01*
X110740476Y-131577380D01*
D12*
%TO.C,R2*%
X119722936Y-75140000D02*
X121177064Y-75140000D01*
X119722936Y-76960000D02*
X121177064Y-76960000D01*
%TO.C,J9*%
X137550000Y-115800000D02*
X137550000Y-120100000D01*
X133100000Y-121850000D02*
X133100000Y-118350000D01*
X134600000Y-124400000D02*
X137550000Y-124400000D01*
X133100000Y-118350000D02*
X132350000Y-118350000D01*
X133100000Y-116850000D02*
X133100000Y-115050000D01*
X132050000Y-125450000D02*
X133300000Y-125450000D01*
X132350000Y-123350000D02*
X132350000Y-125150000D01*
X138310000Y-125160000D02*
X138310000Y-115040000D01*
X134600000Y-115050000D02*
X134600000Y-115800000D01*
X133100000Y-125150000D02*
X133100000Y-123350000D01*
X132340000Y-115040000D02*
X132340000Y-125160000D01*
X137550000Y-124400000D02*
X137550000Y-120100000D01*
X138310000Y-115040000D02*
X132340000Y-115040000D01*
X132350000Y-118350000D02*
X132350000Y-121850000D01*
X132350000Y-115050000D02*
X132350000Y-116850000D01*
X134600000Y-115800000D02*
X137550000Y-115800000D01*
X132340000Y-125160000D02*
X138310000Y-125160000D01*
X132350000Y-116850000D02*
X133100000Y-116850000D01*
X132350000Y-121850000D02*
X133100000Y-121850000D01*
X134600000Y-125150000D02*
X134600000Y-124400000D01*
X133100000Y-115050000D02*
X132350000Y-115050000D01*
X133100000Y-123350000D02*
X132350000Y-123350000D01*
X132050000Y-124200000D02*
X132050000Y-125450000D01*
X132350000Y-125150000D02*
X133100000Y-125150000D01*
D10*
%TO.C,U2*%
X117585000Y-85475000D02*
X117285000Y-85475000D01*
X114235000Y-88825000D02*
X114235000Y-85475000D01*
X114235000Y-85475000D02*
X114535000Y-85475000D01*
X114235000Y-88825000D02*
X114460000Y-88825000D01*
X114460000Y-88825000D02*
X114460000Y-90050000D01*
X117585000Y-88825000D02*
X117585000Y-85475000D01*
X117585000Y-88825000D02*
X117285000Y-88825000D01*
D12*
%TO.C,R7*%
X130660000Y-112202064D02*
X130660000Y-110747936D01*
X128840000Y-112202064D02*
X128840000Y-110747936D01*
%TO.C,Q1*%
X128890000Y-72310000D02*
X128890000Y-71660000D01*
X128890000Y-72310000D02*
X128890000Y-73985000D01*
X132010000Y-72310000D02*
X132010000Y-72960000D01*
X132010000Y-72310000D02*
X132010000Y-71660000D01*
%TO.C,R8*%
X114308736Y-115757800D02*
X115762864Y-115757800D01*
X114308736Y-117577800D02*
X115762864Y-117577800D01*
%TO.C,R9*%
X120417064Y-115760000D02*
X118962936Y-115760000D01*
X120417064Y-117580000D02*
X118962936Y-117580000D01*
%TO.C,J4*%
X110201000Y-120230000D02*
X107541000Y-120230000D01*
X108871000Y-122830000D02*
X107541000Y-122830000D01*
X110201000Y-71910000D02*
X107541000Y-71910000D01*
X107541000Y-122830000D02*
X107541000Y-121500000D01*
X107541000Y-120230000D02*
X107541000Y-71910000D01*
X110201000Y-120230000D02*
X110201000Y-71910000D01*
%TO.C,C1*%
X119655000Y-87528748D02*
X119655000Y-88051252D01*
X121125000Y-87528748D02*
X121125000Y-88051252D01*
%TO.C,J1*%
X137305000Y-125720000D02*
X132165000Y-125720000D01*
X137305000Y-125720000D02*
X137305000Y-128380000D01*
X138575000Y-125720000D02*
X139905000Y-125720000D01*
X132165000Y-125720000D02*
X132165000Y-128380000D01*
X139905000Y-125720000D02*
X139905000Y-127050000D01*
X137305000Y-128380000D02*
X132165000Y-128380000D01*
%TO.C,J14*%
X145550000Y-114000000D02*
X145550000Y-108450000D01*
X140350000Y-111450000D02*
X141100000Y-111450000D01*
X140350000Y-114750000D02*
X141100000Y-114750000D01*
X145550000Y-102900000D02*
X145550000Y-108450000D01*
X146310000Y-102140000D02*
X140340000Y-102140000D01*
X146310000Y-114760000D02*
X146310000Y-102140000D01*
X140050000Y-115050000D02*
X141300000Y-115050000D01*
X140350000Y-103950000D02*
X141100000Y-103950000D01*
X141100000Y-111450000D02*
X141100000Y-105450000D01*
X140340000Y-114760000D02*
X146310000Y-114760000D01*
X140340000Y-102140000D02*
X140340000Y-114760000D01*
X141100000Y-102150000D02*
X140350000Y-102150000D01*
X140350000Y-112950000D02*
X140350000Y-114750000D01*
X142600000Y-102900000D02*
X145550000Y-102900000D01*
X142600000Y-102150000D02*
X142600000Y-102900000D01*
X141100000Y-114750000D02*
X141100000Y-112950000D01*
X141100000Y-105450000D02*
X140350000Y-105450000D01*
X142600000Y-114000000D02*
X145550000Y-114000000D01*
X140050000Y-113800000D02*
X140050000Y-115050000D01*
X141100000Y-112950000D02*
X140350000Y-112950000D01*
X142600000Y-114750000D02*
X142600000Y-114000000D01*
X141100000Y-103950000D02*
X141100000Y-102150000D01*
X140350000Y-105450000D02*
X140350000Y-111450000D01*
X140350000Y-102150000D02*
X140350000Y-103950000D01*
%TO.C,J10*%
X146310000Y-89240000D02*
X140340000Y-89240000D01*
X140350000Y-91050000D02*
X141100000Y-91050000D01*
X141100000Y-100050000D02*
X140350000Y-100050000D01*
X142600000Y-89250000D02*
X142600000Y-90000000D01*
X140050000Y-102150000D02*
X141300000Y-102150000D01*
X140350000Y-89250000D02*
X140350000Y-91050000D01*
X140340000Y-101860000D02*
X146310000Y-101860000D01*
X140350000Y-98550000D02*
X141100000Y-98550000D01*
X146310000Y-101860000D02*
X146310000Y-89240000D01*
X141100000Y-98550000D02*
X141100000Y-92550000D01*
X140050000Y-100900000D02*
X140050000Y-102150000D01*
X141100000Y-101850000D02*
X141100000Y-100050000D01*
X141100000Y-89250000D02*
X140350000Y-89250000D01*
X141100000Y-92550000D02*
X140350000Y-92550000D01*
X140350000Y-92550000D02*
X140350000Y-98550000D01*
X142600000Y-101100000D02*
X145550000Y-101100000D01*
X140340000Y-89240000D02*
X140340000Y-101860000D01*
X140350000Y-101850000D02*
X141100000Y-101850000D01*
X145550000Y-90000000D02*
X145550000Y-95550000D01*
X141100000Y-91050000D02*
X141100000Y-89250000D01*
X142600000Y-90000000D02*
X145550000Y-90000000D01*
X142600000Y-101850000D02*
X142600000Y-101100000D01*
X145550000Y-101100000D02*
X145550000Y-95550000D01*
X140350000Y-100050000D02*
X140350000Y-101850000D01*
%TO.C,R4*%
X130660000Y-91872936D02*
X130660000Y-93327064D01*
X128840000Y-91872936D02*
X128840000Y-93327064D01*
%TO.C,J12*%
X132350000Y-87150000D02*
X132350000Y-88950000D01*
X132350000Y-82150000D02*
X132350000Y-85650000D01*
X132350000Y-80650000D02*
X133100000Y-80650000D01*
X133100000Y-85650000D02*
X133100000Y-82150000D01*
X134600000Y-88200000D02*
X137550000Y-88200000D01*
X132050000Y-89250000D02*
X133300000Y-89250000D01*
X137550000Y-88200000D02*
X137550000Y-83900000D01*
X132350000Y-78850000D02*
X132350000Y-80650000D01*
X132050000Y-88000000D02*
X132050000Y-89250000D01*
X137550000Y-79600000D02*
X137550000Y-83900000D01*
X133100000Y-87150000D02*
X132350000Y-87150000D01*
X132340000Y-88960000D02*
X138310000Y-88960000D01*
X133100000Y-80650000D02*
X133100000Y-78850000D01*
X133100000Y-82150000D02*
X132350000Y-82150000D01*
X133100000Y-78850000D02*
X132350000Y-78850000D01*
X133100000Y-88950000D02*
X133100000Y-87150000D01*
X134600000Y-88950000D02*
X134600000Y-88200000D01*
X132340000Y-78840000D02*
X132340000Y-88960000D01*
X132350000Y-88950000D02*
X133100000Y-88950000D01*
X132350000Y-85650000D02*
X133100000Y-85650000D01*
X134600000Y-79600000D02*
X137550000Y-79600000D01*
X134600000Y-78850000D02*
X134600000Y-79600000D01*
X138310000Y-88960000D02*
X138310000Y-78840000D01*
X138310000Y-78840000D02*
X132340000Y-78840000D01*
%TO.C,J24*%
X141100000Y-63054000D02*
X141100000Y-61254000D01*
X142600000Y-61254000D02*
X142600000Y-62004000D01*
X140050000Y-74154000D02*
X141300000Y-74154000D01*
X140350000Y-64554000D02*
X140350000Y-70554000D01*
X146310000Y-73864000D02*
X146310000Y-61244000D01*
X141100000Y-64554000D02*
X140350000Y-64554000D01*
X141100000Y-61254000D02*
X140350000Y-61254000D01*
X140340000Y-73864000D02*
X146310000Y-73864000D01*
X140350000Y-70554000D02*
X141100000Y-70554000D01*
X140340000Y-61244000D02*
X140340000Y-73864000D01*
X140350000Y-61254000D02*
X140350000Y-63054000D01*
X145550000Y-62004000D02*
X145550000Y-67554000D01*
X141100000Y-70554000D02*
X141100000Y-64554000D01*
X140350000Y-63054000D02*
X141100000Y-63054000D01*
X140350000Y-73854000D02*
X141100000Y-73854000D01*
X145550000Y-73104000D02*
X145550000Y-67554000D01*
X142600000Y-62004000D02*
X145550000Y-62004000D01*
X142600000Y-73104000D02*
X145550000Y-73104000D01*
X140050000Y-72904000D02*
X140050000Y-74154000D01*
X142600000Y-73854000D02*
X142600000Y-73104000D01*
X141100000Y-73854000D02*
X141100000Y-72054000D01*
X141100000Y-72054000D02*
X140350000Y-72054000D01*
X146310000Y-61244000D02*
X140340000Y-61244000D01*
X140350000Y-72054000D02*
X140350000Y-73854000D01*
%TO.C,J18*%
X153170000Y-58490000D02*
X154500000Y-58490000D01*
X151840000Y-61090000D02*
X151840000Y-73850000D01*
X154500000Y-61090000D02*
X154500000Y-73850000D01*
X154500000Y-58490000D02*
X154500000Y-59820000D01*
X151840000Y-61090000D02*
X154500000Y-61090000D01*
X151840000Y-73850000D02*
X154500000Y-73850000D01*
%TO.C,G\u002A\u002A\u002A*%
G36*
X113144068Y-55391336D02*
G01*
X113394663Y-55736720D01*
X113571872Y-56087044D01*
X113671655Y-56436051D01*
X113693288Y-56683094D01*
X113693288Y-56951335D01*
X114015775Y-56798187D01*
X114384713Y-56667940D01*
X114781563Y-56615259D01*
X115209647Y-56639910D01*
X115496304Y-56694906D01*
X115680685Y-56744559D01*
X115882653Y-56807935D01*
X116084193Y-56878262D01*
X116267290Y-56948771D01*
X116413926Y-57012691D01*
X116506086Y-57063252D01*
X116526527Y-57082059D01*
X116522953Y-57136583D01*
X116493928Y-57251070D01*
X116445649Y-57406345D01*
X116384313Y-57583227D01*
X116316115Y-57762541D01*
X116272934Y-57866920D01*
X116129705Y-58143258D01*
X115940727Y-58427666D01*
X115731802Y-58683161D01*
X115633866Y-58782914D01*
X115494300Y-58898680D01*
X115324857Y-59015563D01*
X115146910Y-59121331D01*
X114981831Y-59203750D01*
X114850994Y-59250589D01*
X114805814Y-59256845D01*
X114803623Y-59284497D01*
X114851798Y-59357649D01*
X114940317Y-59461652D01*
X114961298Y-59484144D01*
X115189284Y-59768085D01*
X115357995Y-60080429D01*
X115472457Y-60434466D01*
X115537697Y-60843487D01*
X115552227Y-61046812D01*
X115558205Y-61267765D01*
X115556070Y-61488940D01*
X115546470Y-61676561D01*
X115538696Y-61750000D01*
X115503277Y-62005704D01*
X115013803Y-62001510D01*
X114634818Y-61984630D01*
X114308889Y-61936958D01*
X114007454Y-61852273D01*
X113701955Y-61724355D01*
X113669742Y-61708779D01*
X113410123Y-61551675D01*
X113158230Y-61345965D01*
X112948524Y-61120581D01*
X112913226Y-61073675D01*
X112879163Y-61036971D01*
X112847115Y-61043316D01*
X112804860Y-61104072D01*
X112740173Y-61230602D01*
X112736643Y-61237813D01*
X112582938Y-61481463D01*
X112368174Y-61723573D01*
X112113986Y-61941948D01*
X111930018Y-62065345D01*
X111749613Y-62158084D01*
X111516335Y-62257556D01*
X111258020Y-62353795D01*
X111002504Y-62436837D01*
X110777625Y-62496715D01*
X110666284Y-62517766D01*
X110473340Y-62545255D01*
X110381780Y-62254171D01*
X110253239Y-61756118D01*
X110188944Y-61288140D01*
X110188519Y-60855983D01*
X110251586Y-60465393D01*
X110377770Y-60122116D01*
X110538263Y-59866848D01*
X110597910Y-59782270D01*
X110624718Y-59726969D01*
X110624832Y-59725201D01*
X110586413Y-59704365D01*
X110487725Y-59684708D01*
X110401090Y-59675040D01*
X110099255Y-59611225D01*
X109786744Y-59473754D01*
X109476565Y-59270849D01*
X109181724Y-59010731D01*
X109066236Y-58880532D01*
X111613649Y-58880532D01*
X111625274Y-59061303D01*
X111648543Y-59187996D01*
X111692107Y-59291719D01*
X111755544Y-59390751D01*
X111873897Y-59531003D01*
X112017440Y-59664594D01*
X112068032Y-59703172D01*
X112163809Y-59765916D01*
X112249413Y-59804207D01*
X112350768Y-59824021D01*
X112493797Y-59831334D01*
X112627852Y-59832215D01*
X112813952Y-59829984D01*
X112940776Y-59819309D01*
X113034248Y-59794214D01*
X113120293Y-59748723D01*
X113187672Y-59703172D01*
X113328086Y-59584700D01*
X113461770Y-59441078D01*
X113500320Y-59390524D01*
X113563064Y-59294748D01*
X113601355Y-59209144D01*
X113621169Y-59107789D01*
X113628481Y-58964759D01*
X113629362Y-58830704D01*
X113627132Y-58644605D01*
X113616457Y-58517781D01*
X113591362Y-58424308D01*
X113545871Y-58338264D01*
X113500320Y-58270885D01*
X113310102Y-58049975D01*
X113098205Y-57905701D01*
X112850366Y-57829788D01*
X112715142Y-57815240D01*
X112460322Y-57816626D01*
X112256715Y-57859005D01*
X112076838Y-57950624D01*
X111957049Y-58042688D01*
X111779299Y-58226440D01*
X111669195Y-58424638D01*
X111618080Y-58658411D01*
X111613649Y-58880532D01*
X109066236Y-58880532D01*
X108966756Y-58768380D01*
X108830515Y-58588507D01*
X108701413Y-58403066D01*
X108589533Y-58228201D01*
X108504958Y-58080054D01*
X108457767Y-57974768D01*
X108451342Y-57943115D01*
X108484918Y-57902311D01*
X108575880Y-57827329D01*
X108709580Y-57729552D01*
X108841610Y-57639836D01*
X109215592Y-57414667D01*
X109561068Y-57254219D01*
X109896144Y-57151856D01*
X110238927Y-57100940D01*
X110326510Y-57095538D01*
X110590518Y-57091556D01*
X110794350Y-57108599D01*
X110942474Y-57142491D01*
X111062497Y-57177835D01*
X111142212Y-57197568D01*
X111160598Y-57199024D01*
X111157689Y-57155802D01*
X111143185Y-57051894D01*
X111122234Y-56921907D01*
X111104326Y-56570456D01*
X111162735Y-56197508D01*
X111294029Y-55811645D01*
X111494775Y-55421452D01*
X111761539Y-55035512D01*
X111979092Y-54779667D01*
X112185976Y-54554672D01*
X112438877Y-54740408D01*
X112715142Y-54967543D01*
X112824126Y-55057146D01*
X113144068Y-55391336D01*
G37*
%TO.C,Q2*%
X119585000Y-79975000D02*
X119585000Y-78300000D01*
X119585000Y-79975000D02*
X119585000Y-80625000D01*
X116465000Y-79975000D02*
X116465000Y-79325000D01*
X116465000Y-79975000D02*
X116465000Y-80625000D01*
%TO.C,J19*%
X154255000Y-121450000D02*
X154255000Y-122780000D01*
X154255000Y-120180000D02*
X151595000Y-120180000D01*
X151595000Y-120180000D02*
X151595000Y-115040000D01*
X154255000Y-120180000D02*
X154255000Y-115040000D01*
X154255000Y-122780000D02*
X152925000Y-122780000D01*
X154255000Y-115040000D02*
X151595000Y-115040000D01*
%TO.C,J2*%
X125371400Y-122830000D02*
X125371400Y-121500000D01*
X128031400Y-120230000D02*
X125371400Y-120230000D01*
X128031400Y-71910000D02*
X125371400Y-71910000D01*
X126701400Y-122830000D02*
X125371400Y-122830000D01*
X125371400Y-120230000D02*
X125371400Y-71910000D01*
X128031400Y-120230000D02*
X128031400Y-71910000D01*
%TO.C,J21*%
X141100000Y-116850000D02*
X141100000Y-115050000D01*
X140350000Y-121850000D02*
X141100000Y-121850000D01*
X140340000Y-125160000D02*
X146310000Y-125160000D01*
X140350000Y-115050000D02*
X140350000Y-116850000D01*
X142600000Y-115800000D02*
X145550000Y-115800000D01*
X140350000Y-116850000D02*
X141100000Y-116850000D01*
X141100000Y-115050000D02*
X140350000Y-115050000D01*
X141100000Y-121850000D02*
X141100000Y-118350000D01*
X141100000Y-123350000D02*
X140350000Y-123350000D01*
X140050000Y-125450000D02*
X141300000Y-125450000D01*
X140340000Y-115040000D02*
X140340000Y-125160000D01*
X146310000Y-125160000D02*
X146310000Y-115040000D01*
X140350000Y-125150000D02*
X141100000Y-125150000D01*
X140050000Y-124200000D02*
X140050000Y-125450000D01*
X142600000Y-125150000D02*
X142600000Y-124400000D01*
X146310000Y-115040000D02*
X140340000Y-115040000D01*
X141100000Y-125150000D02*
X141100000Y-123350000D01*
X142600000Y-115050000D02*
X142600000Y-115800000D01*
X141100000Y-118350000D02*
X140350000Y-118350000D01*
X140350000Y-118350000D02*
X140350000Y-121850000D01*
X142600000Y-124400000D02*
X145550000Y-124400000D01*
X145550000Y-115800000D02*
X145550000Y-120100000D01*
X140350000Y-123350000D02*
X140350000Y-125150000D01*
X145550000Y-124400000D02*
X145550000Y-120100000D01*
%TO.C,J7*%
X148340000Y-88960000D02*
X154310000Y-88960000D01*
X148350000Y-80650000D02*
X149100000Y-80650000D01*
X150600000Y-88200000D02*
X153550000Y-88200000D01*
X148050000Y-88000000D02*
X148050000Y-89250000D01*
X148350000Y-87150000D02*
X148350000Y-88950000D01*
X150600000Y-88950000D02*
X150600000Y-88200000D01*
X154310000Y-88960000D02*
X154310000Y-78840000D01*
X148350000Y-82150000D02*
X148350000Y-85650000D01*
X149100000Y-78850000D02*
X148350000Y-78850000D01*
X149100000Y-88950000D02*
X149100000Y-87150000D01*
X150600000Y-79600000D02*
X153550000Y-79600000D01*
X148050000Y-89250000D02*
X149300000Y-89250000D01*
X148350000Y-78850000D02*
X148350000Y-80650000D01*
X154310000Y-78840000D02*
X148340000Y-78840000D01*
X149100000Y-80650000D02*
X149100000Y-78850000D01*
X149100000Y-85650000D02*
X149100000Y-82150000D01*
X148340000Y-78840000D02*
X148340000Y-88960000D01*
X153550000Y-79600000D02*
X153550000Y-83900000D01*
X148350000Y-88950000D02*
X149100000Y-88950000D01*
X150600000Y-78850000D02*
X150600000Y-79600000D01*
X149100000Y-82150000D02*
X148350000Y-82150000D01*
X148350000Y-85650000D02*
X149100000Y-85650000D01*
X153550000Y-88200000D02*
X153550000Y-83900000D01*
X149100000Y-87150000D02*
X148350000Y-87150000D01*
%TO.C,J3*%
X137305000Y-128895000D02*
X132165000Y-128895000D01*
X132165000Y-128895000D02*
X132165000Y-131555000D01*
X137305000Y-131555000D02*
X132165000Y-131555000D01*
X138575000Y-128895000D02*
X139905000Y-128895000D01*
X137305000Y-128895000D02*
X137305000Y-131555000D01*
X139905000Y-128895000D02*
X139905000Y-130225000D01*
%TO.C,J25*%
X138310000Y-114760000D02*
X138310000Y-102140000D01*
X133100000Y-103950000D02*
X133100000Y-102150000D01*
X132350000Y-105450000D02*
X132350000Y-111450000D01*
X134600000Y-114000000D02*
X137550000Y-114000000D01*
X133100000Y-105450000D02*
X132350000Y-105450000D01*
X132350000Y-112950000D02*
X132350000Y-114750000D01*
X137550000Y-114000000D02*
X137550000Y-108450000D01*
X133100000Y-112950000D02*
X132350000Y-112950000D01*
X132350000Y-103950000D02*
X133100000Y-103950000D01*
X132340000Y-102140000D02*
X132340000Y-114760000D01*
X133100000Y-114750000D02*
X133100000Y-112950000D01*
X134600000Y-102900000D02*
X137550000Y-102900000D01*
X134600000Y-102150000D02*
X134600000Y-102900000D01*
X132350000Y-102150000D02*
X132350000Y-103950000D01*
X138310000Y-102140000D02*
X132340000Y-102140000D01*
X132050000Y-115050000D02*
X133300000Y-115050000D01*
X137550000Y-102900000D02*
X137550000Y-108450000D01*
X132350000Y-111450000D02*
X133100000Y-111450000D01*
X132050000Y-113800000D02*
X132050000Y-115050000D01*
X133100000Y-111450000D02*
X133100000Y-105450000D01*
X132350000Y-114750000D02*
X133100000Y-114750000D01*
X133100000Y-102150000D02*
X132350000Y-102150000D01*
X134600000Y-114750000D02*
X134600000Y-114000000D01*
X132340000Y-114760000D02*
X138310000Y-114760000D01*
%TO.C,J23*%
X137550000Y-73114000D02*
X137550000Y-67564000D01*
X138310000Y-73874000D02*
X138310000Y-61254000D01*
X132050000Y-74164000D02*
X133300000Y-74164000D01*
X133100000Y-72064000D02*
X132350000Y-72064000D01*
X133100000Y-73864000D02*
X133100000Y-72064000D01*
X138310000Y-61254000D02*
X132340000Y-61254000D01*
X133100000Y-70564000D02*
X133100000Y-64564000D01*
X134600000Y-61264000D02*
X134600000Y-62014000D01*
X134600000Y-62014000D02*
X137550000Y-62014000D01*
X133100000Y-63064000D02*
X133100000Y-61264000D01*
X132350000Y-63064000D02*
X133100000Y-63064000D01*
X132350000Y-70564000D02*
X133100000Y-70564000D01*
X132350000Y-73864000D02*
X133100000Y-73864000D01*
X133100000Y-61264000D02*
X132350000Y-61264000D01*
X132050000Y-72914000D02*
X132050000Y-74164000D01*
X132340000Y-73874000D02*
X138310000Y-73874000D01*
X132340000Y-61254000D02*
X132340000Y-73874000D01*
X134600000Y-73114000D02*
X137550000Y-73114000D01*
X137550000Y-62014000D02*
X137550000Y-67564000D01*
X132350000Y-61264000D02*
X132350000Y-63064000D01*
X133100000Y-64564000D02*
X132350000Y-64564000D01*
X132350000Y-72064000D02*
X132350000Y-73864000D01*
X132350000Y-64564000D02*
X132350000Y-70564000D01*
X134600000Y-73864000D02*
X134600000Y-73114000D01*
%TO.C,J28*%
X148350000Y-103950000D02*
X149100000Y-103950000D01*
X148350000Y-112950000D02*
X148350000Y-114750000D01*
X150600000Y-102150000D02*
X150600000Y-102900000D01*
X150600000Y-114750000D02*
X150600000Y-114000000D01*
X154310000Y-114760000D02*
X154310000Y-102140000D01*
X148050000Y-115050000D02*
X149300000Y-115050000D01*
X150600000Y-102900000D02*
X153550000Y-102900000D01*
X149100000Y-114750000D02*
X149100000Y-112950000D01*
X148350000Y-111450000D02*
X149100000Y-111450000D01*
X148340000Y-102140000D02*
X148340000Y-114760000D01*
X149100000Y-111450000D02*
X149100000Y-105450000D01*
X149100000Y-112950000D02*
X148350000Y-112950000D01*
X148350000Y-114750000D02*
X149100000Y-114750000D01*
X149100000Y-103950000D02*
X149100000Y-102150000D01*
X148350000Y-105450000D02*
X148350000Y-111450000D01*
X153550000Y-114000000D02*
X153550000Y-108450000D01*
X149100000Y-105450000D02*
X148350000Y-105450000D01*
X154310000Y-102140000D02*
X148340000Y-102140000D01*
X148050000Y-113800000D02*
X148050000Y-115050000D01*
X149100000Y-102150000D02*
X148350000Y-102150000D01*
X150600000Y-114000000D02*
X153550000Y-114000000D01*
X148340000Y-114760000D02*
X154310000Y-114760000D01*
X148350000Y-102150000D02*
X148350000Y-103950000D01*
X153550000Y-102900000D02*
X153550000Y-108450000D01*
%TO.C,J37*%
X146920000Y-121250000D02*
X146920000Y-119920000D01*
X146920000Y-122520000D02*
X149580000Y-122520000D01*
X149580000Y-122520000D02*
X149580000Y-125120000D01*
X146920000Y-119920000D02*
X148250000Y-119920000D01*
X146920000Y-122520000D02*
X146920000Y-125120000D01*
X146920000Y-125120000D02*
X149580000Y-125120000D01*
%TO.C,J30*%
X153550000Y-101100000D02*
X153550000Y-95550000D01*
X148050000Y-100900000D02*
X148050000Y-102150000D01*
X154310000Y-101860000D02*
X154310000Y-89240000D01*
X148350000Y-91050000D02*
X149100000Y-91050000D01*
X154310000Y-89240000D02*
X148340000Y-89240000D01*
X148050000Y-102150000D02*
X149300000Y-102150000D01*
X148350000Y-98550000D02*
X149100000Y-98550000D01*
X148340000Y-101860000D02*
X154310000Y-101860000D01*
X148350000Y-89250000D02*
X148350000Y-91050000D01*
X150600000Y-90000000D02*
X153550000Y-90000000D01*
X150600000Y-101850000D02*
X150600000Y-101100000D01*
X149100000Y-89250000D02*
X148350000Y-89250000D01*
X149100000Y-92550000D02*
X148350000Y-92550000D01*
X149100000Y-98550000D02*
X149100000Y-92550000D01*
X149100000Y-101850000D02*
X149100000Y-100050000D01*
X149100000Y-100050000D02*
X148350000Y-100050000D01*
X149100000Y-91050000D02*
X149100000Y-89250000D01*
X153550000Y-90000000D02*
X153550000Y-95550000D01*
X148340000Y-89240000D02*
X148340000Y-101860000D01*
X150600000Y-89250000D02*
X150600000Y-90000000D01*
X150600000Y-101100000D02*
X153550000Y-101100000D01*
X148350000Y-92550000D02*
X148350000Y-98550000D01*
X148350000Y-100050000D02*
X148350000Y-101850000D01*
X148350000Y-101850000D02*
X149100000Y-101850000D01*
%TO.C,U1*%
X117910000Y-102350000D02*
X119860000Y-102350000D01*
X117910000Y-92230000D02*
X114460000Y-92230000D01*
X117910000Y-102350000D02*
X115960000Y-102350000D01*
X117910000Y-92230000D02*
X119860000Y-92230000D01*
%TO.C,R6*%
X128840000Y-104547936D02*
X128840000Y-106002064D01*
X130660000Y-104547936D02*
X130660000Y-106002064D01*
%TO.C,R11*%
X130685000Y-80385436D02*
X130685000Y-81839564D01*
X128865000Y-80385436D02*
X128865000Y-81839564D01*
%TO.C,J11*%
X103540000Y-88340000D02*
X103950000Y-88340000D01*
X103540000Y-78180000D02*
X103950000Y-78180000D01*
X103540000Y-76360000D02*
X103890000Y-76360000D01*
X103540000Y-90880000D02*
X103950000Y-90880000D01*
X94910000Y-107810000D02*
X103540000Y-107810000D01*
X94910000Y-75852855D02*
X103540000Y-75852855D01*
X94910000Y-76915710D02*
X103540000Y-76915710D01*
X94910000Y-89970000D02*
X103540000Y-89970000D01*
X106110000Y-74670000D02*
X106110000Y-76000000D01*
X94910000Y-75616665D02*
X103540000Y-75616665D01*
X103540000Y-106840000D02*
X103950000Y-106840000D01*
X103540000Y-83980000D02*
X103950000Y-83980000D01*
X103540000Y-106120000D02*
X103950000Y-106120000D01*
X94910000Y-95050000D02*
X103540000Y-95050000D01*
X103540000Y-80720000D02*
X103950000Y-80720000D01*
X94910000Y-74790000D02*
X103540000Y-74790000D01*
X103540000Y-83260000D02*
X103950000Y-83260000D01*
X103540000Y-101760000D02*
X103950000Y-101760000D01*
X94910000Y-77151900D02*
X103540000Y-77151900D01*
X103540000Y-99220000D02*
X103950000Y-99220000D01*
X94910000Y-76325235D02*
X103540000Y-76325235D01*
X94910000Y-75026190D02*
X103540000Y-75026190D01*
X103540000Y-75640000D02*
X103890000Y-75640000D01*
X94910000Y-76797615D02*
X103540000Y-76797615D01*
X103540000Y-103580000D02*
X103950000Y-103580000D01*
X94910000Y-100130000D02*
X103540000Y-100130000D01*
X94910000Y-75970950D02*
X103540000Y-75970950D01*
X103540000Y-81440000D02*
X103950000Y-81440000D01*
X103540000Y-96680000D02*
X103950000Y-96680000D01*
X103540000Y-95960000D02*
X103950000Y-95960000D01*
X94910000Y-75498570D02*
X103540000Y-75498570D01*
X94910000Y-76443330D02*
X103540000Y-76443330D01*
X94910000Y-97590000D02*
X103540000Y-97590000D01*
X103540000Y-74670000D02*
X103540000Y-107810000D01*
X94910000Y-77033805D02*
X103540000Y-77033805D01*
X94910000Y-79810000D02*
X103540000Y-79810000D01*
X105000000Y-74670000D02*
X106110000Y-74670000D01*
X103540000Y-89060000D02*
X103950000Y-89060000D01*
X94910000Y-87430000D02*
X103540000Y-87430000D01*
X94910000Y-82350000D02*
X103540000Y-82350000D01*
X94910000Y-75734760D02*
X103540000Y-75734760D01*
X94910000Y-76207140D02*
X103540000Y-76207140D01*
X94910000Y-76679520D02*
X103540000Y-76679520D01*
X103540000Y-85800000D02*
X103950000Y-85800000D01*
X94910000Y-75380475D02*
X103540000Y-75380475D01*
X94910000Y-75144285D02*
X103540000Y-75144285D01*
X94910000Y-74670000D02*
X103540000Y-74670000D01*
X94910000Y-74908095D02*
X103540000Y-74908095D01*
X94910000Y-92510000D02*
X103540000Y-92510000D01*
X103540000Y-98500000D02*
X103950000Y-98500000D01*
X94910000Y-105210000D02*
X103540000Y-105210000D01*
X94910000Y-76089045D02*
X103540000Y-76089045D01*
X94910000Y-84890000D02*
X103540000Y-84890000D01*
X103540000Y-93420000D02*
X103950000Y-93420000D01*
X103540000Y-104300000D02*
X103950000Y-104300000D01*
X94910000Y-75262380D02*
X103540000Y-75262380D01*
X103540000Y-101040000D02*
X103950000Y-101040000D01*
X94910000Y-76561425D02*
X103540000Y-76561425D01*
X94910000Y-77270000D02*
X103540000Y-77270000D01*
X94910000Y-74670000D02*
X94910000Y-107810000D01*
X103540000Y-94140000D02*
X103950000Y-94140000D01*
X103540000Y-91600000D02*
X103950000Y-91600000D01*
X103540000Y-78900000D02*
X103950000Y-78900000D01*
X103540000Y-86520000D02*
X103950000Y-86520000D01*
X94910000Y-102670000D02*
X103540000Y-102670000D01*
%TO.C,J26*%
X140050000Y-89250000D02*
X141300000Y-89250000D01*
X141100000Y-88950000D02*
X141100000Y-87150000D01*
X140350000Y-78850000D02*
X140350000Y-80650000D01*
X140350000Y-87150000D02*
X140350000Y-88950000D01*
X141100000Y-85650000D02*
X141100000Y-82150000D01*
X141100000Y-78850000D02*
X140350000Y-78850000D01*
X141100000Y-82150000D02*
X140350000Y-82150000D01*
X145550000Y-88200000D02*
X145550000Y-83900000D01*
X140350000Y-82150000D02*
X140350000Y-85650000D01*
X142600000Y-78850000D02*
X142600000Y-79600000D01*
X140340000Y-88960000D02*
X146310000Y-88960000D01*
X140350000Y-88950000D02*
X141100000Y-88950000D01*
X146310000Y-78840000D02*
X140340000Y-78840000D01*
X145550000Y-79600000D02*
X145550000Y-83900000D01*
X142600000Y-79600000D02*
X145550000Y-79600000D01*
X141100000Y-80650000D02*
X141100000Y-78850000D01*
X146310000Y-88960000D02*
X146310000Y-78840000D01*
X141100000Y-87150000D02*
X140350000Y-87150000D01*
X140050000Y-88000000D02*
X140050000Y-89250000D01*
X142600000Y-88200000D02*
X145550000Y-88200000D01*
X140350000Y-85650000D02*
X141100000Y-85650000D01*
X140340000Y-78840000D02*
X140340000Y-88960000D01*
X142600000Y-88950000D02*
X142600000Y-88200000D01*
X140350000Y-80650000D02*
X141100000Y-80650000D01*
%TO.C,R10*%
X130660000Y-87402064D02*
X130660000Y-85947936D01*
X128840000Y-87402064D02*
X128840000Y-85947936D01*
%TO.C,R3*%
X114960436Y-75140000D02*
X116414564Y-75140000D01*
X114960436Y-76960000D02*
X116414564Y-76960000D01*
%TO.C,G\u002A\u002A\u002A*%
G36*
X104455705Y-117236029D02*
G01*
X104460402Y-117265024D01*
X104499734Y-117323296D01*
X104561059Y-117346137D01*
X104654324Y-117380960D01*
X104680571Y-117430946D01*
X104635955Y-117469769D01*
X104580140Y-117476824D01*
X104489990Y-117494568D01*
X104461219Y-117565484D01*
X104460402Y-117592700D01*
X104444535Y-117679807D01*
X104414051Y-117708576D01*
X104379208Y-117668911D01*
X104367701Y-117592700D01*
X104363313Y-117533553D01*
X104337074Y-117498989D01*
X104269370Y-117482409D01*
X104140588Y-117477218D01*
X104023197Y-117476824D01*
X103843770Y-117479646D01*
X103735964Y-117491581D01*
X103678782Y-117517835D01*
X103651224Y-117563613D01*
X103649270Y-117569525D01*
X103607657Y-117644433D01*
X103576621Y-117662226D01*
X103541565Y-117625069D01*
X103535609Y-117539761D01*
X103556943Y-117445548D01*
X103589015Y-117393394D01*
X103666935Y-117363209D01*
X103818934Y-117343880D01*
X104006168Y-117337773D01*
X104193689Y-117334360D01*
X104305272Y-117321994D01*
X104357500Y-117297486D01*
X104367701Y-117268248D01*
X104392729Y-117206566D01*
X104414051Y-117198722D01*
X104455705Y-117236029D01*
G37*
G36*
X104795289Y-110918226D02*
G01*
X104814157Y-110968910D01*
X104825914Y-111068166D01*
X104833558Y-111230687D01*
X104840089Y-111471169D01*
X104840101Y-111471665D01*
X104854380Y-112054001D01*
X104726916Y-112053916D01*
X104648442Y-112046690D01*
X104611267Y-112008442D01*
X104600084Y-111914115D01*
X104599453Y-111845255D01*
X104599453Y-111636678D01*
X103579745Y-111636678D01*
X103579745Y-111312226D01*
X104594123Y-111312226D01*
X104608375Y-111115237D01*
X104626377Y-110986159D01*
X104665076Y-110923708D01*
X104724225Y-110903789D01*
X104766311Y-110901417D01*
X104795289Y-110918226D01*
G37*
G36*
X104271685Y-115180767D02*
G01*
X104396828Y-115287748D01*
X104459135Y-115430052D01*
X104463165Y-115584961D01*
X104413474Y-115729758D01*
X104314620Y-115841725D01*
X104171161Y-115898145D01*
X104127209Y-115900912D01*
X104056521Y-115896941D01*
X104017545Y-115870850D01*
X104000840Y-115801376D01*
X103996968Y-115667256D01*
X103996898Y-115607360D01*
X103994308Y-115508389D01*
X104089599Y-115508389D01*
X104097929Y-115656420D01*
X104120231Y-115745413D01*
X104138996Y-115761861D01*
X104268564Y-115721242D01*
X104351589Y-115617532D01*
X104367701Y-115534154D01*
X104340410Y-115403158D01*
X104247027Y-115316869D01*
X104170712Y-115283832D01*
X104124011Y-115278396D01*
X104099546Y-115317535D01*
X104090488Y-115420157D01*
X104089599Y-115508389D01*
X103994308Y-115508389D01*
X103992796Y-115450611D01*
X103982104Y-115333766D01*
X103968957Y-115285866D01*
X103907651Y-115279660D01*
X103808891Y-115309452D01*
X103712316Y-115359763D01*
X103662511Y-115405545D01*
X103628618Y-115535368D01*
X103679293Y-115662073D01*
X103718796Y-115703090D01*
X103788384Y-115786023D01*
X103811142Y-115860934D01*
X103780045Y-115899878D01*
X103768510Y-115900912D01*
X103697889Y-115861584D01*
X103622048Y-115764860D01*
X103560687Y-115642635D01*
X103533508Y-115526800D01*
X103533394Y-115520293D01*
X103578312Y-115364800D01*
X103668880Y-115248442D01*
X103838771Y-115139337D01*
X104037904Y-115112422D01*
X104124011Y-115135737D01*
X104249144Y-115169619D01*
X104271685Y-115180767D01*
G37*
G36*
X104831204Y-112610036D02*
G01*
X104374885Y-112610036D01*
X104156206Y-112612667D01*
X104010535Y-112622637D01*
X103918276Y-112643062D01*
X103859833Y-112677058D01*
X103841855Y-112694799D01*
X103772547Y-112831040D01*
X103789847Y-112975133D01*
X103857847Y-113073540D01*
X103914535Y-113117884D01*
X103990950Y-113145585D01*
X104108307Y-113160331D01*
X104287820Y-113165813D01*
X104390876Y-113166241D01*
X104831204Y-113166241D01*
X104831204Y-113490693D01*
X104354839Y-113490693D01*
X104096824Y-113485247D01*
X103912606Y-113464339D01*
X103783681Y-113421116D01*
X103691546Y-113348723D01*
X103617698Y-113240308D01*
X103602655Y-113212079D01*
X103546877Y-113025819D01*
X103539132Y-112806870D01*
X103579243Y-112601725D01*
X103605207Y-112540511D01*
X103667149Y-112434464D01*
X103736960Y-112362562D01*
X103833197Y-112318281D01*
X103974418Y-112295094D01*
X104179179Y-112286477D01*
X104330209Y-112285584D01*
X104831204Y-112285584D01*
X104831204Y-112610036D01*
G37*
G36*
X104451710Y-116542287D02*
G01*
X104460402Y-116596168D01*
X104482905Y-116664659D01*
X104565920Y-116688158D01*
X104596142Y-116688868D01*
X104720934Y-116712981D01*
X104804719Y-116761705D01*
X104859697Y-116852626D01*
X104876481Y-116954923D01*
X104854694Y-117034740D01*
X104808029Y-117059671D01*
X104750674Y-117021370D01*
X104738504Y-116971929D01*
X104697676Y-116881095D01*
X104587038Y-116832698D01*
X104526136Y-116827919D01*
X104474332Y-116868260D01*
X104460402Y-116943795D01*
X104441519Y-117038153D01*
X104401422Y-117052895D01*
X104364935Y-116985175D01*
X104359337Y-116955383D01*
X104345318Y-116903833D01*
X104308352Y-116871672D01*
X104229168Y-116853184D01*
X104088494Y-116842659D01*
X103962135Y-116837632D01*
X103765628Y-116827042D01*
X103646679Y-116810056D01*
X103590199Y-116783476D01*
X103579745Y-116756519D01*
X103598023Y-116722510D01*
X103663316Y-116701698D01*
X103791309Y-116691390D01*
X103973723Y-116688868D01*
X104165286Y-116687143D01*
X104282298Y-116679125D01*
X104342883Y-116660548D01*
X104365167Y-116627147D01*
X104367701Y-116596168D01*
X104387111Y-116520850D01*
X104414051Y-116503467D01*
X104451710Y-116542287D01*
G37*
G36*
X104279393Y-113864274D02*
G01*
X104478194Y-113871748D01*
X104629222Y-113882632D01*
X104686360Y-113890465D01*
X104764518Y-113909830D01*
X104807844Y-113943779D01*
X104826613Y-114015498D01*
X104831104Y-114148170D01*
X104831204Y-114217219D01*
X104819990Y-114408004D01*
X104790443Y-114571353D01*
X104763721Y-114645504D01*
X104642809Y-114787517D01*
X104468614Y-114879138D01*
X104264656Y-114920158D01*
X104054452Y-114910368D01*
X103861521Y-114849556D01*
X103709383Y-114737515D01*
X103652349Y-114655405D01*
X103605026Y-114501723D01*
X103581622Y-114280756D01*
X103579745Y-114188250D01*
X103579745Y-114187437D01*
X103672445Y-114187437D01*
X103691146Y-114330216D01*
X103736313Y-114480785D01*
X103738047Y-114484984D01*
X103807438Y-114604742D01*
X103889146Y-114687319D01*
X103897226Y-114692072D01*
X104020421Y-114727123D01*
X104189869Y-114740451D01*
X104362421Y-114731889D01*
X104494928Y-114701272D01*
X104509319Y-114694429D01*
X104618269Y-114591254D01*
X104699691Y-114429883D01*
X104737552Y-114244108D01*
X104738504Y-114211425D01*
X104738504Y-114046897D01*
X103672445Y-114046897D01*
X103672445Y-114187437D01*
X103579745Y-114187437D01*
X103579745Y-113861496D01*
X104060630Y-113861496D01*
X104279393Y-113864274D01*
G37*
G36*
X104179707Y-116169008D02*
G01*
X104224626Y-116170003D01*
X104479193Y-116177754D01*
X104654097Y-116188217D01*
X104762368Y-116203134D01*
X104817040Y-116224248D01*
X104831204Y-116251117D01*
X104816254Y-116278709D01*
X104762647Y-116297794D01*
X104657247Y-116309775D01*
X104486920Y-116316058D01*
X104238530Y-116318048D01*
X104205475Y-116318065D01*
X103943052Y-116316128D01*
X103761301Y-116309529D01*
X103648259Y-116297085D01*
X103591964Y-116277617D01*
X103579745Y-116256265D01*
X103592059Y-116186141D01*
X103598896Y-116175152D01*
X103649789Y-116168990D01*
X103775469Y-116165814D01*
X103958065Y-116165771D01*
X104179707Y-116169008D01*
G37*
G36*
X105432757Y-111309757D02*
G01*
X105615118Y-111438820D01*
X105769814Y-111652360D01*
X105894393Y-111947682D01*
X105919602Y-112030657D01*
X105969145Y-112189695D01*
X106016942Y-112318534D01*
X106046215Y-112378284D01*
X106043510Y-112383310D01*
X105991040Y-112330074D01*
X105900108Y-112230061D01*
X105897959Y-112227646D01*
X105750887Y-112086150D01*
X105628401Y-112016162D01*
X105538606Y-112020811D01*
X105498261Y-112073385D01*
X105498495Y-112163696D01*
X105524522Y-112235611D01*
X105551413Y-112311398D01*
X105515945Y-112323524D01*
X105416536Y-112271702D01*
X105306584Y-112196158D01*
X105166163Y-112080465D01*
X105051411Y-111960686D01*
X104981996Y-111858959D01*
X104970256Y-111817582D01*
X105006928Y-111817818D01*
X105099861Y-111852960D01*
X105157585Y-111880043D01*
X105291258Y-111935267D01*
X105365887Y-111943438D01*
X105373075Y-111906374D01*
X105323401Y-111844152D01*
X105260847Y-111746828D01*
X105272473Y-111676258D01*
X105340465Y-111647797D01*
X105447007Y-111676796D01*
X105488273Y-111702070D01*
X105591901Y-111765112D01*
X105629643Y-111763642D01*
X105601272Y-111698585D01*
X105517057Y-111583959D01*
X105400409Y-111459365D01*
X105277510Y-111360445D01*
X105225183Y-111330846D01*
X105086131Y-111269504D01*
X105225183Y-111267863D01*
X105432757Y-111309757D01*
G37*
%TO.C,SW1*%
X143850000Y-127065000D02*
X144350000Y-126565000D01*
X141440000Y-127265000D02*
X150260000Y-127265000D01*
X143350000Y-126565000D02*
X143850000Y-127065000D01*
X150260000Y-131785000D02*
X141440000Y-131785000D01*
X150260000Y-131785000D02*
X150260000Y-131475000D01*
X141440000Y-127575000D02*
X141440000Y-127265000D01*
X150260000Y-127265000D02*
X150260000Y-127575000D01*
X144350000Y-126565000D02*
X143350000Y-126565000D01*
X141440000Y-131785000D02*
X141440000Y-131475000D01*
%TO.C,J17*%
X132470000Y-75670000D02*
X133800000Y-75670000D01*
X135070000Y-78330000D02*
X147830000Y-78330000D01*
X135070000Y-78330000D02*
X135070000Y-75670000D01*
X135070000Y-75670000D02*
X147830000Y-75670000D01*
X147830000Y-78330000D02*
X147830000Y-75670000D01*
X132470000Y-77000000D02*
X132470000Y-75670000D01*
%TO.C,J34*%
X114850000Y-50150000D02*
X114850000Y-50400000D01*
X114850000Y-54550000D02*
X115300000Y-54550000D01*
X122650000Y-54550000D02*
X122200000Y-54550000D01*
X120450000Y-55100000D02*
X120450000Y-54650000D01*
X122650000Y-50150000D02*
X122650000Y-50400000D01*
X114850000Y-52700000D02*
X114850000Y-54550000D01*
X122650000Y-52700000D02*
X122650000Y-54550000D01*
X120450000Y-55100000D02*
X120000000Y-55100000D01*
%TO.C,J35*%
X111170000Y-135330000D02*
X110520000Y-135330000D01*
X111170000Y-135330000D02*
X111170000Y-127220000D01*
X125140000Y-135850000D02*
X125140000Y-135330000D01*
X110520000Y-135330000D02*
X110520000Y-135850000D01*
X111170000Y-120370000D02*
X124490000Y-120370000D01*
X125140000Y-135330000D02*
X124490000Y-135330000D01*
X124490000Y-127220000D02*
X124490000Y-135330000D01*
X111170000Y-120370000D02*
X111170000Y-123700000D01*
X124490000Y-120370000D02*
X124490000Y-123700000D01*
X113430000Y-120150000D02*
X115230000Y-120150000D01*
X110520000Y-135850000D02*
X125140000Y-135850000D01*
%TO.C,J20*%
X133100000Y-91050000D02*
X133100000Y-89250000D01*
X132340000Y-101860000D02*
X138310000Y-101860000D01*
X133100000Y-89250000D02*
X132350000Y-89250000D01*
X132350000Y-100050000D02*
X132350000Y-101850000D01*
X138310000Y-101860000D02*
X138310000Y-89240000D01*
X132350000Y-98550000D02*
X133100000Y-98550000D01*
X134600000Y-101100000D02*
X137550000Y-101100000D01*
X132350000Y-89250000D02*
X132350000Y-91050000D01*
X133100000Y-98550000D02*
X133100000Y-92550000D01*
X133100000Y-101850000D02*
X133100000Y-100050000D01*
X133100000Y-92550000D02*
X132350000Y-92550000D01*
X132050000Y-100900000D02*
X132050000Y-102150000D01*
X132340000Y-89240000D02*
X132340000Y-101860000D01*
X134600000Y-89250000D02*
X134600000Y-90000000D01*
X132350000Y-91050000D02*
X133100000Y-91050000D01*
X133100000Y-100050000D02*
X132350000Y-100050000D01*
X134600000Y-90000000D02*
X137550000Y-90000000D01*
X137550000Y-101100000D02*
X137550000Y-95550000D01*
X137550000Y-90000000D02*
X137550000Y-95550000D01*
X132350000Y-101850000D02*
X133100000Y-101850000D01*
X132050000Y-102150000D02*
X133300000Y-102150000D01*
X138310000Y-89240000D02*
X132340000Y-89240000D01*
X132350000Y-92550000D02*
X132350000Y-98550000D01*
X134600000Y-101850000D02*
X134600000Y-101100000D01*
%TO.C,J8*%
X122595000Y-71051400D02*
X122595000Y-69721400D01*
X125255000Y-55691400D02*
X122595000Y-55691400D01*
X125255000Y-68451400D02*
X125255000Y-55691400D01*
X125255000Y-68451400D02*
X122595000Y-68451400D01*
X122595000Y-68451400D02*
X122595000Y-55691400D01*
X123925000Y-71051400D02*
X122595000Y-71051400D01*
%TO.C,J33*%
X104970000Y-70805000D02*
X112650000Y-70805000D01*
X102370000Y-69475000D02*
X102370000Y-68145000D01*
X112650000Y-70805000D02*
X112650000Y-68145000D01*
X104970000Y-70805000D02*
X104970000Y-68145000D01*
X102370000Y-68145000D02*
X103700000Y-68145000D01*
X104970000Y-68145000D02*
X112650000Y-68145000D01*
%TO.C,R5*%
X130660000Y-99302064D02*
X130660000Y-97847936D01*
X128840000Y-99302064D02*
X128840000Y-97847936D01*
%TO.C,J27*%
X154255000Y-128830000D02*
X151595000Y-128830000D01*
X154255000Y-128830000D02*
X154255000Y-123690000D01*
X151595000Y-128830000D02*
X151595000Y-123690000D01*
X154255000Y-123690000D02*
X151595000Y-123690000D01*
X154255000Y-131430000D02*
X152925000Y-131430000D01*
X154255000Y-130100000D02*
X154255000Y-131430000D01*
%TD*%
%LPC*%
D13*
X115236190Y-71364761D02*
X115236190Y-72983809D01*
X115331428Y-73174285D01*
X115426666Y-73269523D01*
X115617142Y-73364761D01*
X115998095Y-73364761D01*
X116188571Y-73269523D01*
X116283809Y-73174285D01*
X116379047Y-72983809D01*
X116379047Y-71364761D01*
X117236190Y-73269523D02*
X117521904Y-73364761D01*
X117998095Y-73364761D01*
X118188571Y-73269523D01*
X118283809Y-73174285D01*
X118379047Y-72983809D01*
X118379047Y-72793333D01*
X118283809Y-72602857D01*
X118188571Y-72507619D01*
X117998095Y-72412380D01*
X117617142Y-72317142D01*
X117426666Y-72221904D01*
X117331428Y-72126666D01*
X117236190Y-71936190D01*
X117236190Y-71745714D01*
X117331428Y-71555238D01*
X117426666Y-71460000D01*
X117617142Y-71364761D01*
X118093333Y-71364761D01*
X118379047Y-71460000D01*
X119902857Y-72317142D02*
X120188571Y-72412380D01*
X120283809Y-72507619D01*
X120379047Y-72698095D01*
X120379047Y-72983809D01*
X120283809Y-73174285D01*
X120188571Y-73269523D01*
X119998095Y-73364761D01*
X119236190Y-73364761D01*
X119236190Y-71364761D01*
X119902857Y-71364761D01*
X120093333Y-71460000D01*
X120188571Y-71555238D01*
X120283809Y-71745714D01*
X120283809Y-71936190D01*
X120188571Y-72126666D01*
X120093333Y-72221904D01*
X119902857Y-72317142D01*
X119236190Y-72317142D01*
D14*
%TO.C,R2*%
X118987500Y-76050000D03*
X121912500Y-76050000D03*
%TD*%
D15*
%TO.C,J9*%
X134800000Y-122600000D03*
D16*
X134800000Y-120100000D03*
X134800000Y-117600000D03*
%TD*%
D17*
%TO.C,U2*%
X114910000Y-89350000D03*
X115410000Y-89350000D03*
X115910000Y-89350000D03*
X116410000Y-89350000D03*
X116910000Y-89350000D03*
X116910000Y-84950000D03*
X116410000Y-84950000D03*
X115910000Y-84950000D03*
X115410000Y-84950000D03*
X114910000Y-84950000D03*
%TD*%
D18*
%TO.C,R7*%
X129750000Y-112937500D03*
X129750000Y-110012500D03*
%TD*%
D19*
%TO.C,Q1*%
X129500000Y-73247500D03*
X131400000Y-73247500D03*
X130450000Y-71372500D03*
%TD*%
D14*
%TO.C,R8*%
X113573300Y-116667800D03*
X116498300Y-116667800D03*
%TD*%
D20*
%TO.C,R9*%
X121152500Y-116670000D03*
X118227500Y-116670000D03*
%TD*%
D21*
%TO.C,REF\u002A\u002A*%
X105000000Y-127000000D03*
%TD*%
D22*
%TO.C,J4*%
X108871000Y-121500000D03*
D23*
X108871000Y-118960000D03*
X108871000Y-116420000D03*
X108871000Y-113880000D03*
X108871000Y-111340000D03*
X108871000Y-108800000D03*
X108871000Y-106260000D03*
X108871000Y-103720000D03*
X108871000Y-101180000D03*
X108871000Y-98640000D03*
X108871000Y-96100000D03*
X108871000Y-93560000D03*
X108871000Y-91020000D03*
X108871000Y-88480000D03*
X108871000Y-85940000D03*
X108871000Y-83400000D03*
X108871000Y-80860000D03*
X108871000Y-78320000D03*
X108871000Y-75780000D03*
X108871000Y-73240000D03*
%TD*%
D24*
%TO.C,C1*%
X120390000Y-86840000D03*
X120390000Y-88740000D03*
%TD*%
D22*
%TO.C,J1*%
X138575000Y-127050000D03*
D23*
X136035000Y-127050000D03*
X133495000Y-127050000D03*
%TD*%
D15*
%TO.C,J14*%
X142800000Y-112200000D03*
D16*
X142800000Y-109700000D03*
X142800000Y-107200000D03*
X142800000Y-104700000D03*
%TD*%
D15*
%TO.C,J10*%
X142800000Y-99300000D03*
D16*
X142800000Y-96800000D03*
X142800000Y-94300000D03*
X142800000Y-91800000D03*
%TD*%
D25*
%TO.C,R4*%
X129750000Y-91137500D03*
X129750000Y-94062500D03*
%TD*%
D15*
%TO.C,J12*%
X134800000Y-86400000D03*
D16*
X134800000Y-83900000D03*
X134800000Y-81400000D03*
%TD*%
D15*
%TO.C,J24*%
X142800000Y-71304000D03*
D16*
X142800000Y-68804000D03*
X142800000Y-66304000D03*
X142800000Y-63804000D03*
%TD*%
D22*
%TO.C,J18*%
X153170000Y-59820000D03*
D23*
X153170000Y-62360000D03*
X153170000Y-64900000D03*
X153170000Y-67440000D03*
X153170000Y-69980000D03*
X153170000Y-72520000D03*
%TD*%
D26*
%TO.C,Q2*%
X118975000Y-79037500D03*
X117075000Y-79037500D03*
X118025000Y-80912500D03*
%TD*%
D22*
%TO.C,J19*%
X152925000Y-121450000D03*
D23*
X152925000Y-118910000D03*
X152925000Y-116370000D03*
%TD*%
D22*
%TO.C,J2*%
X126701400Y-121500000D03*
D23*
X126701400Y-118960000D03*
X126701400Y-116420000D03*
X126701400Y-113880000D03*
X126701400Y-111340000D03*
X126701400Y-108800000D03*
X126701400Y-106260000D03*
X126701400Y-103720000D03*
X126701400Y-101180000D03*
X126701400Y-98640000D03*
X126701400Y-96100000D03*
X126701400Y-93560000D03*
X126701400Y-91020000D03*
X126701400Y-88480000D03*
X126701400Y-85940000D03*
X126701400Y-83400000D03*
X126701400Y-80860000D03*
X126701400Y-78320000D03*
X126701400Y-75780000D03*
X126701400Y-73240000D03*
%TD*%
D15*
%TO.C,J21*%
X142800000Y-122600000D03*
D16*
X142800000Y-120100000D03*
X142800000Y-117600000D03*
%TD*%
D15*
%TO.C,J7*%
X150800000Y-86400000D03*
D16*
X150800000Y-83900000D03*
X150800000Y-81400000D03*
%TD*%
D22*
%TO.C,J3*%
X138575000Y-130225000D03*
D23*
X136035000Y-130225000D03*
X133495000Y-130225000D03*
%TD*%
D15*
%TO.C,J25*%
X134800000Y-112200000D03*
D16*
X134800000Y-109700000D03*
X134800000Y-107200000D03*
X134800000Y-104700000D03*
%TD*%
D15*
%TO.C,J23*%
X134800000Y-71314000D03*
D16*
X134800000Y-68814000D03*
X134800000Y-66314000D03*
X134800000Y-63814000D03*
%TD*%
D15*
%TO.C,J28*%
X150800000Y-112200000D03*
D16*
X150800000Y-109700000D03*
X150800000Y-107200000D03*
X150800000Y-104700000D03*
%TD*%
D22*
%TO.C,J37*%
X148250000Y-121250000D03*
D23*
X148250000Y-123790000D03*
%TD*%
D15*
%TO.C,J30*%
X150800000Y-99300000D03*
D16*
X150800000Y-96800000D03*
X150800000Y-94300000D03*
X150800000Y-91800000D03*
%TD*%
D27*
%TO.C,U1*%
X115435000Y-92845000D03*
X115435000Y-94115000D03*
X115435000Y-95385000D03*
X115435000Y-96655000D03*
X115435000Y-97925000D03*
X115435000Y-99195000D03*
X115435000Y-100465000D03*
X115435000Y-101735000D03*
X120385000Y-101735000D03*
X120385000Y-100465000D03*
X120385000Y-99195000D03*
X120385000Y-97925000D03*
X120385000Y-96655000D03*
X120385000Y-95385000D03*
X120385000Y-94115000D03*
X120385000Y-92845000D03*
%TD*%
D25*
%TO.C,R6*%
X129750000Y-103812500D03*
X129750000Y-106737500D03*
%TD*%
%TO.C,R11*%
X129775000Y-79650000D03*
X129775000Y-82575000D03*
%TD*%
D22*
%TO.C,J11*%
X105000000Y-76000000D03*
D23*
X105000000Y-78540000D03*
X105000000Y-81080000D03*
X105000000Y-83620000D03*
X105000000Y-86160000D03*
X105000000Y-88700000D03*
X105000000Y-91240000D03*
X105000000Y-93780000D03*
X105000000Y-96320000D03*
X105000000Y-98860000D03*
X105000000Y-101400000D03*
X105000000Y-103940000D03*
X105000000Y-106480000D03*
%TD*%
D15*
%TO.C,J26*%
X142800000Y-86400000D03*
D16*
X142800000Y-83900000D03*
X142800000Y-81400000D03*
%TD*%
D28*
%TO.C,REF\u002A\u002A*%
X105100000Y-61770000D03*
%TD*%
D18*
%TO.C,R10*%
X129750000Y-88137500D03*
X129750000Y-85212500D03*
%TD*%
D14*
%TO.C,R3*%
X114225000Y-76050000D03*
X117150000Y-76050000D03*
%TD*%
D29*
%TO.C,SW1*%
X141750000Y-129525000D03*
X149950000Y-129525000D03*
D30*
X143850000Y-129525000D03*
D31*
X145850000Y-129525000D03*
X147850000Y-129525000D03*
%TD*%
D22*
%TO.C,J17*%
X133800000Y-77000000D03*
D23*
X136340000Y-77000000D03*
X138880000Y-77000000D03*
X141420000Y-77000000D03*
X143960000Y-77000000D03*
X146500000Y-77000000D03*
%TD*%
D32*
%TO.C,J34*%
X120050000Y-54250000D03*
X119400000Y-54250000D03*
X118750000Y-54250000D03*
X118100000Y-54250000D03*
X117450000Y-54250000D03*
D33*
X116250000Y-54250000D03*
D34*
X115850000Y-51550000D03*
D35*
X119750000Y-51550000D03*
D33*
X121250000Y-54250000D03*
D36*
X122250000Y-51550000D03*
D34*
X121650000Y-51550000D03*
D35*
X117750000Y-51550000D03*
D36*
X115250000Y-51550000D03*
%TD*%
D37*
%TO.C,J35*%
X114330000Y-122750000D03*
D38*
X116830000Y-122750000D03*
X118830000Y-122750000D03*
X121330000Y-122750000D03*
D39*
X124400000Y-125460000D03*
X111260000Y-125460000D03*
%TD*%
D21*
%TO.C,REF\u002A\u002A*%
X105000000Y-55000000D03*
%TD*%
D15*
%TO.C,J20*%
X134800000Y-99300000D03*
D16*
X134800000Y-96800000D03*
X134800000Y-94300000D03*
X134800000Y-91800000D03*
%TD*%
D22*
%TO.C,J8*%
X123925000Y-69721400D03*
D23*
X123925000Y-67181400D03*
X123925000Y-64641400D03*
X123925000Y-62101400D03*
X123925000Y-59561400D03*
X123925000Y-57021400D03*
%TD*%
D22*
%TO.C,J33*%
X103700000Y-69475000D03*
D23*
X106240000Y-69475000D03*
X108780000Y-69475000D03*
X111320000Y-69475000D03*
%TD*%
D18*
%TO.C,R5*%
X129750000Y-100037500D03*
X129750000Y-97112500D03*
%TD*%
D22*
%TO.C,J27*%
X152925000Y-130100000D03*
D23*
X152925000Y-127560000D03*
X152925000Y-125020000D03*
%TD*%
M02*
