M48
; DRILL file {KiCad 6.0.11-2627ca5db0~126~ubuntu20.04.1} date Fri 14 Apr 2023 09:14:01 AM CEST
; FORMAT={-:-/ absolute / inch / decimal}
; #@! TF.CreationDate,2023-04-14T09:14:01+02:00
; #@! TF.GenerationSoftware,Kicad,Pcbnew,6.0.11-2627ca5db0~126~ubuntu20.04.1
; #@! TF.FileFunction,Plated,1,2,PTH
FMAT,2
INCH
; #@! TA.AperFunction,Plated,PTH,ViaDrill
T1C0.0157
; #@! TA.AperFunction,Plated,PTH,ComponentDrill
T2C0.0236
; #@! TA.AperFunction,Plated,PTH,ComponentDrill
T3C0.0315
; #@! TA.AperFunction,Plated,PTH,ComponentDrill
T4C0.0335
; #@! TA.AperFunction,Plated,PTH,ComponentDrill
T5C0.0374
; #@! TA.AperFunction,Plated,PTH,ComponentDrill
T6C0.0394
; #@! TA.AperFunction,Plated,PTH,ComponentDrill
T7C0.0591
; #@! TA.AperFunction,Plated,PTH,ComponentDrill
T8C0.0906
; #@! TA.AperFunction,Plated,PTH,ComponentDrill
T9C0.1260
%
G90
G05
T1
X4.3809Y-3.7854
X4.4291Y-3.7874
X4.4331Y-2.315
X4.4872Y-4.0738
X4.4972Y-3.3106
X4.5972Y-3.5854
X4.6498Y-3.2841
X4.6969Y-4.0778
X4.7693Y-4.7276
X4.845Y-4.1669
X4.845Y-4.367
X4.9043Y-3.4372
X4.9085Y-3.6909
X5.0423Y-4.2215
X5.0728Y-4.9252
X5.1043Y-4.9882
X5.1339Y-4.5541
X5.1467Y-3.4154
X5.1486Y-3.8937
X5.1575Y-4.253
X5.1585Y-4.0374
X5.1698Y-4.5901
X5.4183Y-3.9429
X5.438Y-4.0374
X5.4724Y-4.1705
X5.4774Y-4.7343
X5.518Y-3.861
X5.5571Y-4.5689
X5.7057Y-4.5335
X5.7293Y-3.7638
X5.7441Y-4.3179
X5.7441Y-4.4213
X5.7726Y-3.3031
X5.8421Y-3.7055
T3
X5.6634Y-5.0994
X5.7421Y-5.0994
X5.8209Y-5.0994
T4
X4.5768Y-2.1358
X4.7736Y-2.1358
T5
X4.5012Y-4.8327
X4.5996Y-4.8327
X4.6783Y-4.8327
X4.7768Y-4.8327
X5.3071Y-2.5124
X5.3071Y-2.6108
X5.3071Y-2.7092
X5.3071Y-2.8076
X5.3071Y-3.2047
X5.3071Y-3.3031
X5.3071Y-3.4016
X5.3071Y-3.6142
X5.3071Y-3.7126
X5.3071Y-3.811
X5.3071Y-3.9094
X5.3071Y-4.122
X5.3071Y-4.2205
X5.3071Y-4.3189
X5.3071Y-4.4173
X5.3071Y-4.6299
X5.3071Y-4.7283
X5.3071Y-4.8268
X5.622Y-2.512
X5.622Y-2.6104
X5.622Y-2.7088
X5.622Y-2.8072
X5.622Y-3.2047
X5.622Y-3.3031
X5.622Y-3.4016
X5.622Y-3.6142
X5.622Y-3.7126
X5.622Y-3.811
X5.622Y-3.9094
X5.622Y-4.122
X5.622Y-4.2205
X5.622Y-4.3189
X5.622Y-4.4173
X5.622Y-4.6299
X5.622Y-4.7283
X5.622Y-4.8268
X5.937Y-3.2047
X5.937Y-3.3031
X5.937Y-3.4016
X5.937Y-3.6142
X5.937Y-3.7126
X5.937Y-3.811
X5.937Y-3.9094
X5.937Y-4.122
X5.937Y-4.2205
X5.937Y-4.3189
X5.937Y-4.4173
T6
X4.0827Y-2.7352
X4.1339Y-2.9921
X4.1339Y-3.0921
X4.1339Y-3.1921
X4.1339Y-3.2921
X4.1339Y-3.3921
X4.1339Y-3.4921
X4.1339Y-3.5921
X4.1339Y-3.6921
X4.1339Y-3.7921
X4.1339Y-3.8921
X4.1339Y-3.9921
X4.1339Y-4.0921
X4.1339Y-4.1921
X4.1827Y-2.7352
X4.2827Y-2.7352
X4.2863Y-2.8835
X4.2863Y-2.9835
X4.2863Y-3.0835
X4.2863Y-3.1835
X4.2863Y-3.2835
X4.2863Y-3.3835
X4.2863Y-3.4835
X4.2863Y-3.5835
X4.2863Y-3.6835
X4.2863Y-3.7835
X4.2863Y-3.8835
X4.2863Y-3.9835
X4.2863Y-4.0835
X4.2863Y-4.1835
X4.2863Y-4.2835
X4.2863Y-4.3835
X4.2863Y-4.4835
X4.2863Y-4.5835
X4.2863Y-4.6835
X4.2863Y-4.7835
X4.3827Y-2.7352
X4.8789Y-2.2449
X4.8789Y-2.3449
X4.8789Y-2.4449
X4.8789Y-2.5449
X4.8789Y-2.6449
X4.8789Y-2.7449
X4.9882Y-2.8835
X4.9882Y-2.9835
X4.9882Y-3.0835
X4.9882Y-3.1835
X4.9882Y-3.2835
X4.9882Y-3.3835
X4.9882Y-3.4835
X4.9882Y-3.5835
X4.9882Y-3.6835
X4.9882Y-3.7835
X4.9882Y-3.8835
X4.9882Y-3.9835
X4.9882Y-4.0835
X4.9882Y-4.1835
X4.9882Y-4.2835
X4.9882Y-4.3835
X4.9882Y-4.4835
X4.9882Y-4.5835
X4.9882Y-4.6835
X4.9882Y-4.7835
X5.2557Y-5.002
X5.2557Y-5.127
X5.2677Y-3.0315
X5.3557Y-5.002
X5.3557Y-5.127
X5.3677Y-3.0315
X5.4557Y-5.002
X5.4557Y-5.127
X5.4677Y-3.0315
X5.5677Y-3.0315
X5.6677Y-3.0315
X5.7677Y-3.0315
X5.8366Y-4.7736
X5.8366Y-4.8736
X6.0207Y-4.5815
X6.0207Y-4.6815
X6.0207Y-4.7815
X6.0207Y-4.922
X6.0207Y-5.022
X6.0207Y-5.122
X6.0303Y-2.3551
X6.0303Y-2.4551
X6.0303Y-2.5551
X6.0303Y-2.6551
X6.0303Y-2.7551
X6.0303Y-2.8551
T7
X5.5807Y-5.0994
X5.9035Y-5.0994
T8
X4.3803Y-4.9394
X4.8976Y-4.9394
T9
X4.1339Y-2.1654
X4.1339Y-5.0
T2
G00X4.5374Y-2.0433
M15
G01X4.5374Y-2.0157
M16
G05
G00X4.813Y-2.0157
M15
G01X4.813Y-2.0433
M16
G05
T0
M30
