%TF.GenerationSoftware,KiCad,Pcbnew,6.0.11-2627ca5db0~126~ubuntu20.04.1*%
%TF.CreationDate,2023-03-20T13:17:59+01:00*%
%TF.ProjectId,mirte_combination,6d697274-655f-4636-9f6d-62696e617469,rev?*%
%TF.SameCoordinates,Original*%
%TF.FileFunction,Soldermask,Bot*%
%TF.FilePolarity,Negative*%
%FSLAX46Y46*%
G04 Gerber Fmt 4.6, Leading zero omitted, Abs format (unit mm)*
G04 Created by KiCad (PCBNEW 6.0.11-2627ca5db0~126~ubuntu20.04.1) date 2023-03-20 13:17:59*
%MOMM*%
%LPD*%
G01*
G04 APERTURE LIST*
G04 Aperture macros list*
%AMRoundRect*
0 Rectangle with rounded corners*
0 $1 Rounding radius*
0 $2 $3 $4 $5 $6 $7 $8 $9 X,Y pos of 4 corners*
0 Add a 4 corners polygon primitive as box body*
4,1,4,$2,$3,$4,$5,$6,$7,$8,$9,$2,$3,0*
0 Add four circle primitives for the rounded corners*
1,1,$1+$1,$2,$3*
1,1,$1+$1,$4,$5*
1,1,$1+$1,$6,$7*
1,1,$1+$1,$8,$9*
0 Add four rect primitives between the rounded corners*
20,1,$1+$1,$2,$3,$4,$5,0*
20,1,$1+$1,$4,$5,$6,$7,0*
20,1,$1+$1,$6,$7,$8,$9,0*
20,1,$1+$1,$8,$9,$2,$3,0*%
G04 Aperture macros list end*
%ADD10RoundRect,0.250000X0.725000X-0.600000X0.725000X0.600000X-0.725000X0.600000X-0.725000X-0.600000X0*%
%ADD11O,1.950000X1.700000*%
%ADD12C,6.400000*%
%ADD13R,1.700000X1.700000*%
%ADD14O,1.700000X1.700000*%
%ADD15C,3.700000*%
%ADD16O,2.200000X3.500000*%
%ADD17R,1.500000X2.500000*%
%ADD18O,1.500000X2.500000*%
%ADD19C,1.450000*%
%ADD20O,1.200000X1.900000*%
%ADD21R,1.600000X1.500000*%
%ADD22C,1.600000*%
%ADD23C,3.000000*%
G04 APERTURE END LIST*
D10*
%TO.C,J9*%
X134800000Y-122600000D03*
D11*
X134800000Y-120100000D03*
X134800000Y-117600000D03*
%TD*%
D12*
%TO.C,REF\u002A\u002A*%
X105000000Y-127000000D03*
%TD*%
D13*
%TO.C,J4*%
X108871000Y-121500000D03*
D14*
X108871000Y-118960000D03*
X108871000Y-116420000D03*
X108871000Y-113880000D03*
X108871000Y-111340000D03*
X108871000Y-108800000D03*
X108871000Y-106260000D03*
X108871000Y-103720000D03*
X108871000Y-101180000D03*
X108871000Y-98640000D03*
X108871000Y-96100000D03*
X108871000Y-93560000D03*
X108871000Y-91020000D03*
X108871000Y-88480000D03*
X108871000Y-85940000D03*
X108871000Y-83400000D03*
X108871000Y-80860000D03*
X108871000Y-78320000D03*
X108871000Y-75780000D03*
X108871000Y-73240000D03*
%TD*%
D13*
%TO.C,J1*%
X138575000Y-127050000D03*
D14*
X136035000Y-127050000D03*
X133495000Y-127050000D03*
%TD*%
D10*
%TO.C,J14*%
X142800000Y-112200000D03*
D11*
X142800000Y-109700000D03*
X142800000Y-107200000D03*
X142800000Y-104700000D03*
%TD*%
D10*
%TO.C,J10*%
X142800000Y-99300000D03*
D11*
X142800000Y-96800000D03*
X142800000Y-94300000D03*
X142800000Y-91800000D03*
%TD*%
D10*
%TO.C,J12*%
X134800000Y-86400000D03*
D11*
X134800000Y-83900000D03*
X134800000Y-81400000D03*
%TD*%
D10*
%TO.C,J24*%
X142800000Y-71304000D03*
D11*
X142800000Y-68804000D03*
X142800000Y-66304000D03*
X142800000Y-63804000D03*
%TD*%
D13*
%TO.C,J18*%
X153170000Y-59820000D03*
D14*
X153170000Y-62360000D03*
X153170000Y-64900000D03*
X153170000Y-67440000D03*
X153170000Y-69980000D03*
X153170000Y-72520000D03*
%TD*%
D13*
%TO.C,J19*%
X152925000Y-121450000D03*
D14*
X152925000Y-118910000D03*
X152925000Y-116370000D03*
%TD*%
D13*
%TO.C,J2*%
X126701400Y-121500000D03*
D14*
X126701400Y-118960000D03*
X126701400Y-116420000D03*
X126701400Y-113880000D03*
X126701400Y-111340000D03*
X126701400Y-108800000D03*
X126701400Y-106260000D03*
X126701400Y-103720000D03*
X126701400Y-101180000D03*
X126701400Y-98640000D03*
X126701400Y-96100000D03*
X126701400Y-93560000D03*
X126701400Y-91020000D03*
X126701400Y-88480000D03*
X126701400Y-85940000D03*
X126701400Y-83400000D03*
X126701400Y-80860000D03*
X126701400Y-78320000D03*
X126701400Y-75780000D03*
X126701400Y-73240000D03*
%TD*%
D10*
%TO.C,J21*%
X142800000Y-122600000D03*
D11*
X142800000Y-120100000D03*
X142800000Y-117600000D03*
%TD*%
D10*
%TO.C,J7*%
X150800000Y-86400000D03*
D11*
X150800000Y-83900000D03*
X150800000Y-81400000D03*
%TD*%
D13*
%TO.C,J3*%
X138575000Y-130225000D03*
D14*
X136035000Y-130225000D03*
X133495000Y-130225000D03*
%TD*%
D10*
%TO.C,J25*%
X134800000Y-112200000D03*
D11*
X134800000Y-109700000D03*
X134800000Y-107200000D03*
X134800000Y-104700000D03*
%TD*%
D10*
%TO.C,J23*%
X134800000Y-71314000D03*
D11*
X134800000Y-68814000D03*
X134800000Y-66314000D03*
X134800000Y-63814000D03*
%TD*%
D10*
%TO.C,J28*%
X150800000Y-112200000D03*
D11*
X150800000Y-109700000D03*
X150800000Y-107200000D03*
X150800000Y-104700000D03*
%TD*%
D13*
%TO.C,J37*%
X148250000Y-121250000D03*
D14*
X148250000Y-123790000D03*
%TD*%
D10*
%TO.C,J30*%
X150800000Y-99300000D03*
D11*
X150800000Y-96800000D03*
X150800000Y-94300000D03*
X150800000Y-91800000D03*
%TD*%
D13*
%TO.C,J11*%
X105000000Y-76000000D03*
D14*
X105000000Y-78540000D03*
X105000000Y-81080000D03*
X105000000Y-83620000D03*
X105000000Y-86160000D03*
X105000000Y-88700000D03*
X105000000Y-91240000D03*
X105000000Y-93780000D03*
X105000000Y-96320000D03*
X105000000Y-98860000D03*
X105000000Y-101400000D03*
X105000000Y-103940000D03*
X105000000Y-106480000D03*
%TD*%
D10*
%TO.C,J26*%
X142800000Y-86400000D03*
D11*
X142800000Y-83900000D03*
X142800000Y-81400000D03*
%TD*%
D15*
%TO.C,REF\u002A\u002A*%
X105100000Y-61770000D03*
%TD*%
D16*
%TO.C,SW1*%
X141750000Y-129525000D03*
X149950000Y-129525000D03*
D17*
X143850000Y-129525000D03*
D18*
X145850000Y-129525000D03*
X147850000Y-129525000D03*
%TD*%
D13*
%TO.C,J17*%
X133800000Y-77000000D03*
D14*
X136340000Y-77000000D03*
X138880000Y-77000000D03*
X141420000Y-77000000D03*
X143960000Y-77000000D03*
X146500000Y-77000000D03*
%TD*%
D19*
%TO.C,J34*%
X116250000Y-54250000D03*
X121250000Y-54250000D03*
D20*
X122250000Y-51550000D03*
X115250000Y-51550000D03*
%TD*%
D21*
%TO.C,J35*%
X114330000Y-122750000D03*
D22*
X116830000Y-122750000D03*
X118830000Y-122750000D03*
X121330000Y-122750000D03*
D23*
X124400000Y-125460000D03*
X111260000Y-125460000D03*
%TD*%
D12*
%TO.C,REF\u002A\u002A*%
X105000000Y-55000000D03*
%TD*%
D10*
%TO.C,J20*%
X134800000Y-99300000D03*
D11*
X134800000Y-96800000D03*
X134800000Y-94300000D03*
X134800000Y-91800000D03*
%TD*%
D13*
%TO.C,J8*%
X123925000Y-69721400D03*
D14*
X123925000Y-67181400D03*
X123925000Y-64641400D03*
X123925000Y-62101400D03*
X123925000Y-59561400D03*
X123925000Y-57021400D03*
%TD*%
D13*
%TO.C,J33*%
X103700000Y-69475000D03*
D14*
X106240000Y-69475000D03*
X108780000Y-69475000D03*
X111320000Y-69475000D03*
%TD*%
D13*
%TO.C,J27*%
X152925000Y-130100000D03*
D14*
X152925000Y-127560000D03*
X152925000Y-125020000D03*
%TD*%
M02*
